<?xml version="1.0" encoding="utf-8"?>
<!-- Generator: Adobe Illustrator 18.1.1, SVG Export Plug-In . SVG Version: 6.00 Build 0)  -->
<svg version="1.1" xmlns="http://www.w3.org/2000/svg" xmlns:xlink="http://www.w3.org/1999/xlink" x="0px" y="0px"
	 viewBox="0 0 841.9 463.8" enable-background="new 0 0 841.9 463.8" xml:space="preserve">
<g id="bg">
	<rect x="0" y="0" fill="#F9F0DF" width="841.9" height="462.4"/>
</g>
<g id="Layer_1">
	<g>
		<g>
			<path fill="#4D4D4D" d="M61.7,239v3h-2v-3l-3.1-6.3h2.3l1.9,4.3h0.1l1.9-4.3h2.2L61.7,239z"/>
			<path fill="#4D4D4D" d="M69.2,242.1c-2.3,0-3.8-1.2-3.8-4.7c0-3.4,1.6-4.8,3.9-4.8c2.3,0,3.8,1.3,3.8,4.7
				C73.1,240.6,71.5,242.1,69.2,242.1z M69.3,240.4c1.1,0,1.7-0.8,1.7-3.1c0-2.3-0.7-3.1-1.8-3.1c-1,0-1.7,0.7-1.7,3
				C67.5,239.6,68.2,240.4,69.3,240.4z"/>
			<path fill="#4D4D4D" d="M79.9,238.6v-5.9h2v5.6c0,2.8-1.7,3.8-3.8,3.8c-2.4,0-3.4-1.4-3.4-3.4v-6.1h2v5.7c0,1.3,0.5,2.1,1.7,2.1
				C79.4,240.4,79.9,239.9,79.9,238.6z"/>
			<path fill="#4D4D4D" d="M92.8,237.7l1.7-5h3v9.3h-1.9v-6.9h-0.1l-2.1,5.8h-1.7l-2-5.8h-0.1v6.9h-1.9v-9.3h3.1L92.8,237.7
				L92.8,237.7z"/>
			<path fill="#4D4D4D" d="M99.8,232.6h2v9.3h-2V232.6z"/>
			<path fill="#4D4D4D" d="M108.1,239.5c0-1.5-4.3-1.3-4.3-4.2c0-1.5,1.4-2.7,3.3-2.7c1.6,0,2.5,0.7,2.8,1.1l-1.3,1.5
				c-0.2-0.3-0.8-0.9-1.7-0.9c-0.7,0-1,0.4-1,0.8c0,1.5,4.3,1.3,4.3,4.2c0,1.4-1.2,2.7-3.5,2.7c-1.8,0-2.9-0.8-3.2-1.2l1.2-1.7
				c0.4,0.4,1.2,1.1,2.3,1.1C107.7,240.4,108.1,240,108.1,239.5z"/>
			<path fill="#4D4D4D" d="M115.7,239.5c0-1.5-4.3-1.3-4.3-4.2c0-1.5,1.4-2.7,3.3-2.7c1.6,0,2.5,0.7,2.8,1.1l-1.3,1.5
				c-0.2-0.3-0.8-0.9-1.7-0.9c-0.7,0-1,0.4-1,0.8c0,1.5,4.3,1.3,4.3,4.2c0,1.4-1.2,2.7-3.5,2.7c-1.8,0-2.9-0.8-3.2-1.2l1.2-1.7
				c0.4,0.4,1.2,1.1,2.3,1.1C115.3,240.4,115.7,240,115.7,239.5z"/>
			<path fill="#4D4D4D" d="M119.3,241.9v-9.3h5.5v1.7h-3.5v2.1h3v1.7h-3v2.2h3.7v1.7H119.3z"/>
			<path fill="#4D4D4D" d="M126.8,232.6h2.9c3,0,4.4,1.5,4.4,4.4c0,2.4-0.9,4.9-4.4,4.9h-2.9V232.6z M128.8,240.3h0.7
				c1.9,0,2.4-1.2,2.4-3c0-2.2-1-3-2.5-3h-0.7V240.3z"/>
			<path fill="#4D4D4D" d="M143.1,232.5c1.8,0,2.7,0.8,2.9,1.1l-1.3,1.5c-0.3-0.4-0.7-0.8-1.7-0.8c-1.2,0-1.9,0.9-1.9,3
				c0,1.9,0.7,3.1,2.1,3.1c0.9,0,1.4-0.5,1.7-0.8l1.1,1.4c-0.4,0.5-1.3,1.1-2.9,1.1c-2.9,0-4-1.9-4-4.7
				C139,234.5,140.4,232.5,143.1,232.5z"/>
			<path fill="#4D4D4D" d="M154.8,232.6v9.3h-2v-3.8h-3.4v3.8h-2v-9.3h2v3.8h3.4v-3.8H154.8z"/>
			<path fill="#4D4D4D" d="M156.9,241.9v-9.3h5.5v1.7h-3.5v2.1h3v1.7h-3v2.2h3.7v1.7H156.9z"/>
			<path fill="#4D4D4D" d="M168,232.5c1.8,0,2.7,0.8,2.9,1.1l-1.3,1.5c-0.3-0.4-0.7-0.8-1.7-0.8c-1.2,0-1.9,0.9-1.9,3
				c0,1.9,0.7,3.1,2.1,3.1c0.9,0,1.4-0.5,1.7-0.8l1.1,1.4c-0.4,0.5-1.3,1.1-2.9,1.1c-2.9,0-4-1.9-4-4.7
				C163.9,234.5,165.3,232.5,168,232.5z"/>
			<path fill="#4D4D4D" d="M174.3,241.9h-2v-9.3h2V241.9z M177.1,232.6h2.3l-2.9,4.5l3.2,4.8h-2.5l-2.9-4.7v-0.1L177.1,232.6z"/>
			<path fill="#4D4D4D" d="M180,238.5v-1.6h4.4v1.6H180z"/>
			<path fill="#4D4D4D" d="M185.9,232.6h2v9.3h-2V232.6z"/>
			<path fill="#4D4D4D" d="M192,235.2c0.1,0.9,0.1,1.6,0.1,3.3v3.5h-1.9v-9.3h2.4l1.9,3.7c0.5,0.9,1,1.9,1.3,2.9h0.1
				c-0.1-1.3-0.1-2.6-0.1-3.6v-2.9h1.9v9.3h-2.4l-2-3.9C192.8,237.1,192.4,236.2,192,235.2L192,235.2z"/>
		</g>
		<g>
			<rect x="12.9" y="54" fill="#FFFFFF" width="29.3" height="29.3"/>
			<g>
				<path fill="#F9F0DF" d="M30.9,60.8v15.5h-3.4v-7.8l0.1-4.4h-0.1l-2,1.7l-1.2,0.8L22.6,64l4.9-3.2H30.9z"/>
			</g>
			<rect x="46.3" y="54" fill="#FFFFFF" width="29.3" height="29.3"/>
			<g>
				<path fill="#F9F0DF" d="M60.1,73.7l2.7-0.1h3.4v2.8h-9.6L56,73.5c2.4-2.3,4.3-4.2,5.4-5.7c0.7-1,1.1-1.8,1.1-2.6
					c0-1.2-0.6-1.7-1.5-1.7c-1.1,0-1.5,1-1.5,2.1l-3.4-0.6c0.3-2.4,1.8-4.3,5.1-4.3c3,0,4.8,1.5,4.8,4.1c0,1.7-0.5,3.1-1.9,4.9
					c-0.6,0.7-1.3,1.5-2.1,2.3C61.4,72.4,60.7,73,60.1,73.7L60.1,73.7z"/>
			</g>
			<rect x="79.6" y="54" fill="#FFFFFF" width="29.3" height="29.3"/>
			<g>
				<path fill="#F9F0DF" d="M96.6,68.3c1.4,0.1,2.9,1,2.9,3.3c0,3.3-2.2,5-5.7,5c-2.8,0-4.5-1.6-5.1-3.3l3.2-1.4
					c0.3,0.7,1,1.9,2.4,1.9c1.3,0,1.9-0.7,1.9-2c0-1.2-0.8-1.8-2.6-1.8h-1v-2.8h1c1.5,0,2.1-0.6,2.1-2c0-1.1-0.5-1.7-1.5-1.7
					c-1,0-1.6,0.7-1.6,1.8l-3.3-0.3c0.1-2.4,1.8-4.3,4.8-4.3c3.3,0,4.9,1.4,4.9,4.2C98.9,66.6,97.9,67.7,96.6,68.3L96.6,68.3z"/>
			</g>
			<rect x="113" y="54" fill="#FFFFFF" width="29.3" height="29.3"/>
			<g>
				<path fill="#F9F0DF" d="M122.6,72.9l-0.7-2.6l5.8-9.5h3.8v9.3h2.1v2.7h-2.1v3.4h-3.3v-3.4H122.6z M128.6,64.3l-1.5,3l-1.8,2.8h3
					v-2.1L128.6,64.3L128.6,64.3z"/>
			</g>
			<rect x="146.3" y="54" fill="#FFFFFF" width="29.3" height="29.3"/>
			<g>
				<path fill="#F9F0DF" d="M155.5,73.3l3.3-1.4c0.4,1.1,1,1.9,2.2,1.9c1.3,0,1.9-0.9,1.9-2.4c0-1.6-0.7-2.5-2.1-2.5
					c-0.7,0-1.3,0.3-1.7,0.7l-2.8-1l0.6-7.8h8.5v2.8H160l-0.3,3.3h0.1c0.4-0.3,1.3-0.6,2-0.6c3.2,0,4.6,1.7,4.6,4.7
					c0,3.3-2,5.6-5.5,5.6C157.5,76.5,156.1,74.9,155.5,73.3z"/>
			</g>
			<rect x="179.7" y="54" fill="#FFFFFF" width="29.3" height="29.3"/>
			<g>
				<path fill="#F9F0DF" d="M193.8,66.2c0.3-0.1,0.9-0.2,1.4-0.2c2.7,0,4.7,1.4,4.7,4.8c0,3.5-2.2,5.7-5.5,5.7c-3.8,0-5.1-2.4-5.1-6
					c0-4.2,2.4-7.8,5.1-9.7h4.3v0.4C196,62.8,194.6,64.5,193.8,66.2L193.8,66.2z M192.7,68.9c-0.1,0.5-0.1,1-0.1,1.5
					c0,2.6,1.1,3.3,2.2,3.3c1.2,0,1.8-0.8,1.8-2.5c0-1.5-0.8-2.5-2.3-2.5C193.6,68.7,193.2,68.8,192.7,68.9z"/>
			</g>
			<rect x="213" y="54" fill="#FFFFFF" width="29.3" height="29.3"/>
			<g>
				<path fill="#F9F0DF" d="M229.1,63.6c0,0-1.3,0.2-2.7,0.2h-4.1v-3h10l0.5,3.3l-3.2,5.4c-1.2,2-1.8,3.6-1.8,6.3v0.6h-3.4v-0.6
					c0-2.9,0.9-5,1.8-6.9l1.2-2.2C228.2,65.1,229.1,63.7,229.1,63.6L229.1,63.6z"/>
			</g>
			<rect x="12.9" y="86.7" fill="#FFFFFF" width="29.3" height="29.3"/>
			<g>
				<path fill="#F9F0DF" d="M22.3,104.7c0-1.9,1.2-3.1,2.8-3.6v-0.1c-1.3-0.3-2.4-1.5-2.4-3.3c0-2.9,1.9-4.5,5.1-4.5
					c3.3,0,5,1.4,5,4.2c0,1.7-1.1,2.9-2.4,3.3v0.1c1.5,0.3,2.8,1.2,2.8,3.4c0,3.3-2.1,4.8-5.5,4.8C24.3,109.2,22.3,107.9,22.3,104.7
					z M25.6,104.5c0,1.2,0.6,2,2.2,2c1.5,0,2.1-0.7,2.1-2c0-1-0.4-2-2.2-2C26,102.5,25.6,103.5,25.6,104.5z M29.5,97.8
					c0-1-0.5-1.8-1.7-1.8c-1.3,0-1.8,0.7-1.8,1.8c0,1.2,0.4,2,1.8,2C29.1,99.8,29.5,99.1,29.5,97.8z"/>
			</g>
			<rect x="46.3" y="86.7" fill="#FFFFFF" width="29.3" height="29.3"/>
			<g>
				<path fill="#F9F0DF" d="M61.9,103.5c-0.4,0.1-0.8,0.1-1.3,0.1c-2.7,0-4.9-1.3-4.9-4.8c0-3.5,2.2-5.5,5.5-5.5
					c3.7,0,5.1,2.4,5.1,5.9c0,3.9-2.3,7.8-5,9.8h-4.3v-0.4C59.5,107.1,61.1,105.2,61.9,103.5L61.9,103.5z M62.8,100.6
					c0.1-0.5,0.1-0.8,0.1-1.3c0-2.5-1.1-3.3-2.1-3.3c-1.2,0-1.8,0.6-1.8,2.3c0,1.6,0.7,2.4,2.3,2.4
					C61.9,100.8,62.4,100.8,62.8,100.6z"/>
			</g>
			<rect x="79.6" y="86.7" fill="#FFFFFF" width="29.3" height="29.3"/>
			<g>
				<path fill="#F9F0DF" d="M91.1,93.5V109h-3.4v-7.8l0.1-4.4h-0.1l-2,1.7l-1.2,0.8l-1.8-2.6l4.9-3.2H91.1z"/>
				<path fill="#F9F0DF" d="M94,101.4c0-5.6,2-8.1,5.8-8.1c3.9,0,5.5,2.6,5.5,8c0,5.5-2.1,8-5.9,8C95.5,109.2,94,106.6,94,101.4z
					 M99.7,106.4c1.8,0,2.3-1.5,2.3-5c0-3.5-0.7-5.2-2.4-5.2c-1.8,0-2.2,1.6-2.2,5.1C97.4,104.8,98.1,106.4,99.7,106.4z"/>
			</g>
			<rect x="113" y="86.7" fill="#FFFFFF" width="29.3" height="29.3"/>
			<g>
				<path fill="#F9F0DF" d="M125.7,93.5V109h-3.4v-7.8l0.1-4.4h-0.1l-2,1.7l-1.2,0.8l-1.8-2.6l4.9-3.2H125.7z"/>
				<path fill="#F9F0DF" d="M136.2,93.5V109h-3.4v-7.8l0.1-4.4h-0.1l-2,1.7l-1.2,0.8l-1.8-2.6l4.9-3.2H136.2z"/>
			</g>
			<rect x="146.3" y="86.7" fill="#FFFFFF" width="29.3" height="29.3"/>
			<g>
				<path fill="#F9F0DF" d="M158.4,93.5V109H155v-7.8l0.1-4.4H155l-2,1.7l-1.2,0.8l-1.8-2.6l4.9-3.2H158.4z"/>
				<path fill="#F9F0DF" d="M165.4,106.3l2.7-0.1h3.4v2.8h-9.6l-0.6-2.8c2.4-2.3,4.3-4.2,5.4-5.7c0.7-1,1.1-1.8,1.1-2.6
					c0-1.2-0.6-1.7-1.5-1.7c-1.1,0-1.5,1-1.5,2.1l-3.4-0.6c0.3-2.4,1.8-4.3,5.1-4.3c3,0,4.8,1.5,4.8,4.1c0,1.7-0.5,3.1-1.9,4.9
					c-0.6,0.7-1.3,1.5-2.1,2.3C166.7,105.1,166.1,105.6,165.4,106.3L165.4,106.3z"/>
			</g>
			<rect x="179.7" y="86.7" fill="#FFFFFF" width="29.3" height="29.3"/>
			<g>
				<path fill="#F9F0DF" d="M191.7,93.5V109h-3.4v-7.8l0.1-4.4h-0.1l-2,1.7l-1.2,0.8l-1.8-2.6l4.9-3.2H191.7z"/>
				<path fill="#F9F0DF" d="M201.9,100.9c1.4,0.1,2.9,1,2.9,3.3c0,3.3-2.2,5-5.7,5c-2.8,0-4.5-1.6-5.1-3.3l3.2-1.4
					c0.3,0.7,1,1.9,2.4,1.9c1.3,0,1.9-0.7,1.9-2c0-1.2-0.8-1.8-2.6-1.8h-1v-2.8h1c1.5,0,2.1-0.6,2.1-2c0-1.1-0.5-1.7-1.5-1.7
					c-1,0-1.6,0.7-1.6,1.8l-3.3-0.3c0.1-2.4,1.8-4.3,4.8-4.3c3.3,0,4.9,1.4,4.9,4.2C204.2,99.3,203.2,100.4,201.9,100.9L201.9,100.9
					z"/>
			</g>
			<rect x="213" y="86.7" fill="#FFFFFF" width="29.3" height="29.3"/>
			<g>
				<path fill="#F9F0DF" d="M224.8,93.5V109h-3.4v-7.8l0.1-4.4h-0.1l-2,1.7l-1.2,0.8l-1.8-2.6l4.9-3.2H224.8z"/>
				<path fill="#F9F0DF" d="M227.9,105.6l-0.7-2.6l5.8-9.5h3.8v9.3h2.1v2.7h-2.1v3.4h-3.3v-3.4H227.9z M233.9,97l-1.5,3l-1.8,2.8h3
					v-2.1L233.9,97L233.9,97z"/>
			</g>
			<rect x="12.9" y="119.4" fill="#FFFFFF" width="29.3" height="29.3"/>
			<g>
				<path fill="#F9F0DF" d="M24.6,126.2v15.5h-3.4v-7.8l0.1-4.4h-0.1l-2,1.7l-1.2,0.8l-1.8-2.6l4.9-3.2H24.6z"/>
				<path fill="#F9F0DF" d="M27.4,138.7l3.3-1.4c0.4,1.1,1,1.9,2.2,1.9c1.3,0,1.9-0.9,1.9-2.4c0-1.6-0.7-2.5-2.1-2.5
					c-0.7,0-1.3,0.3-1.7,0.7l-2.8-1l0.6-7.8h8.5v2.8h-5.5l-0.3,3.3h0.1c0.4-0.3,1.3-0.6,2-0.6c3.2,0,4.6,1.7,4.6,4.7
					c0,3.3-2,5.6-5.5,5.6C29.3,141.9,28,140.3,27.4,138.7z"/>
			</g>
			<rect x="46.3" y="119.4" fill="#FFFFFF" width="29.3" height="29.3"/>
			<g>
				<path fill="#F9F0DF" d="M57.9,126.2v15.5h-3.4v-7.8l0.1-4.4h-0.1l-2,1.7l-1.2,0.8l-1.8-2.6l4.9-3.2H57.9z"/>
				<path fill="#F9F0DF" d="M65.6,131.6c0.3-0.1,0.9-0.2,1.4-0.2c2.7,0,4.7,1.4,4.7,4.8c0,3.5-2.2,5.7-5.5,5.7c-3.8,0-5.1-2.4-5.1-6
					c0-4.2,2.4-7.8,5.1-9.7h4.3v0.4C67.9,128.2,66.5,129.8,65.6,131.6L65.6,131.6z M64.6,134.3c-0.1,0.5-0.1,1-0.1,1.5
					c0,2.6,1.1,3.3,2.2,3.3c1.2,0,1.8-0.8,1.8-2.5c0-1.5-0.8-2.5-2.3-2.5C65.4,134.1,65.1,134.2,64.6,134.3z"/>
			</g>
			<rect x="79.6" y="119.4" fill="#FFFFFF" width="29.3" height="29.3"/>
			<g>
				<path fill="#F9F0DF" d="M92.3,126.2v15.5h-3.4v-7.8l0.1-4.4H89l-2,1.7l-1.2,0.8l-1.8-2.6l4.9-3.2H92.3z"/>
				<path fill="#F9F0DF" d="M101,129c0,0-1.3,0.2-2.7,0.2h-4.1v-3h10l0.5,3.3l-3.2,5.4c-1.2,2-1.8,3.6-1.8,6.3v0.6h-3.4v-0.6
					c0-2.9,0.9-5,1.8-6.9l1.2-2.2C100.1,130.4,101,129.1,101,129L101,129z"/>
			</g>
			<rect x="113" y="119.4" fill="#FFFFFF" width="29.3" height="29.3"/>
			<g>
				<path fill="#F9F0DF" d="M124.5,126.2v15.5h-3.4v-7.8l0.1-4.4h-0.1l-2,1.7L118,132l-1.8-2.6l4.9-3.2H124.5z"/>
				<path fill="#F9F0DF" d="M127.6,137.4c0-1.9,1.2-3.1,2.8-3.6v-0.1c-1.3-0.3-2.4-1.5-2.4-3.3c0-2.9,1.9-4.5,5.1-4.5
					c3.3,0,5,1.4,5,4.2c0,1.7-1.1,2.9-2.4,3.3v0.1c1.5,0.3,2.8,1.2,2.8,3.4c0,3.3-2.1,4.8-5.5,4.8
					C129.6,141.9,127.6,140.6,127.6,137.4z M130.9,137.2c0,1.2,0.6,2,2.2,2c1.5,0,2.1-0.7,2.1-2c0-1-0.4-2-2.2-2
					C131.3,135.2,130.9,136.2,130.9,137.2z M134.8,130.5c0-1-0.5-1.8-1.7-1.8c-1.3,0-1.8,0.7-1.8,1.8c0,1.2,0.4,2,1.8,2
					C134.4,132.5,134.8,131.8,134.8,130.5z"/>
			</g>
			<rect x="146.3" y="119.4" fill="#FFFFFF" width="29.3" height="29.3"/>
			<g>
				<path fill="#F9F0DF" d="M158.3,126.2v15.5h-3.4v-7.8l0.1-4.4h-0.1l-2,1.7l-1.2,0.8l-1.8-2.6l4.9-3.2H158.3z"/>
				<path fill="#F9F0DF" d="M167.2,136.2c-0.4,0.1-0.8,0.1-1.3,0.1c-2.7,0-4.9-1.3-4.9-4.8c0-3.5,2.2-5.5,5.5-5.5
					c3.7,0,5.1,2.4,5.1,5.9c0,3.9-2.3,7.8-5,9.8h-4.3v-0.4C164.9,139.7,166.4,137.9,167.2,136.2L167.2,136.2z M168.1,133.3
					c0.1-0.5,0.1-0.8,0.1-1.3c0-2.5-1.1-3.3-2.1-3.3c-1.2,0-1.8,0.6-1.8,2.3c0,1.6,0.7,2.4,2.3,2.4
					C167.2,133.5,167.7,133.4,168.1,133.3z"/>
			</g>
			<rect x="179.7" y="119.4" fill="#FFFFFF" width="29.3" height="29.3"/>
			<g>
				<path fill="#F9F0DF" d="M186.9,139l2.7-0.1h3.4v2.8h-9.6l-0.6-2.8c2.4-2.3,4.3-4.2,5.4-5.7c0.7-1,1.1-1.8,1.1-2.6
					c0-1.2-0.6-1.7-1.5-1.7c-1.1,0-1.5,1-1.5,2.1l-3.4-0.6c0.3-2.4,1.8-4.3,5.1-4.3c3,0,4.8,1.5,4.8,4.1c0,1.7-0.5,3.1-1.9,4.9
					c-0.6,0.7-1.3,1.5-2.1,2.3C188.2,137.8,187.6,138.3,186.9,139L186.9,139z"/>
				<path fill="#F9F0DF" d="M194.7,134c0-5.6,2-8.1,5.8-8.1c3.9,0,5.5,2.6,5.5,8c0,5.5-2.1,8-5.9,8
					C196.2,141.9,194.7,139.3,194.7,134z M200.4,139.1c1.8,0,2.3-1.5,2.3-5c0-3.5-0.7-5.2-2.4-5.2c-1.8,0-2.2,1.6-2.2,5.1
					C198.1,137.5,198.8,139.1,200.4,139.1z"/>
			</g>
			<rect x="213" y="119.4" fill="#FFFFFF" width="29.3" height="29.3"/>
			<g>
				<path fill="#F9F0DF" d="M221.5,139l2.7-0.1h3.4v2.8h-9.6l-0.6-2.8c2.4-2.3,4.3-4.2,5.4-5.7c0.7-1,1.1-1.8,1.1-2.6
					c0-1.2-0.6-1.7-1.5-1.7c-1.1,0-1.5,1-1.5,2.1l-3.4-0.6c0.3-2.4,1.8-4.3,5.1-4.3c3,0,4.8,1.5,4.8,4.1c0,1.7-0.5,3.1-1.9,4.9
					c-0.6,0.7-1.3,1.5-2.1,2.3C222.9,137.8,222.2,138.3,221.5,139L221.5,139z"/>
				<path fill="#F9F0DF" d="M236.9,126.2v15.5h-3.4v-7.8l0.1-4.4h-0.1l-2,1.7l-1.2,0.8l-1.8-2.6l4.9-3.2H236.9z"/>
			</g>
			<rect x="12.9" y="152" fill="#FFFFFF" width="29.3" height="29.3"/>
			<g>
				<path fill="#F9F0DF" d="M20.8,171.7l2.7-0.1h3.4v2.8h-9.6l-0.6-2.8c2.4-2.3,4.3-4.2,5.4-5.7c0.7-1,1.1-1.8,1.1-2.6
					c0-1.2-0.6-1.7-1.5-1.7c-1.1,0-1.5,1-1.5,2.1l-3.4-0.6c0.3-2.4,1.8-4.3,5.1-4.3c3,0,4.8,1.5,4.8,4.1c0,1.7-0.5,3.1-1.9,4.9
					c-0.6,0.7-1.3,1.5-2.1,2.3C22.1,170.5,21.5,171,20.8,171.7L20.8,171.7z"/>
				<path fill="#F9F0DF" d="M32.6,171.7l2.7-0.1h3.4v2.8h-9.6l-0.6-2.8c2.4-2.3,4.3-4.2,5.4-5.7c0.7-1,1.1-1.8,1.1-2.6
					c0-1.2-0.6-1.7-1.5-1.7c-1.1,0-1.5,1-1.5,2.1l-3.4-0.6c0.3-2.4,1.8-4.3,5.1-4.3c3,0,4.8,1.5,4.8,4.1c0,1.7-0.5,3.1-1.9,4.9
					c-0.6,0.7-1.3,1.5-2.1,2.3C34,170.5,33.3,171,32.6,171.7L32.6,171.7z"/>
			</g>
			<rect x="46.3" y="152" fill="#FFFFFF" width="29.3" height="29.3"/>
			<g>
				<path fill="#F9F0DF" d="M54.1,171.7l2.7-0.1h3.4v2.8h-9.6l-0.6-2.8c2.4-2.3,4.3-4.2,5.4-5.7c0.7-1,1.1-1.8,1.1-2.6
					c0-1.2-0.6-1.7-1.5-1.7c-1.1,0-1.5,1-1.5,2.1l-3.4-0.6c0.3-2.4,1.8-4.3,5.1-4.3c3,0,4.8,1.5,4.8,4.1c0,1.7-0.5,3.1-1.9,4.9
					c-0.6,0.7-1.3,1.5-2.1,2.3C55.5,170.5,54.8,171,54.1,171.7L54.1,171.7z"/>
				<path fill="#F9F0DF" d="M69.2,166.3c1.4,0.1,2.9,1,2.9,3.3c0,3.3-2.2,5-5.7,5c-2.8,0-4.5-1.6-5.1-3.3l3.2-1.4
					c0.3,0.7,1,1.9,2.4,1.9c1.3,0,1.9-0.7,1.9-2c0-1.2-0.8-1.8-2.6-1.8h-1v-2.8h1c1.5,0,2.1-0.6,2.1-2c0-1.1-0.5-1.7-1.5-1.7
					c-1,0-1.6,0.7-1.6,1.8l-3.3-0.3c0.1-2.4,1.8-4.3,4.8-4.3c3.3,0,4.9,1.4,4.9,4.2C71.5,164.6,70.4,165.8,69.2,166.3L69.2,166.3z"
					/>
			</g>
			<rect x="79.6" y="152" fill="#FFFFFF" width="29.3" height="29.3"/>
			<g>
				<path fill="#F9F0DF" d="M87.2,171.7l2.7-0.1h3.4v2.8h-9.6l-0.6-2.8c2.4-2.3,4.3-4.2,5.4-5.7c0.7-1,1.1-1.8,1.1-2.6
					c0-1.2-0.6-1.7-1.5-1.7c-1.1,0-1.5,1-1.5,2.1l-3.4-0.6c0.3-2.4,1.8-4.3,5.1-4.3c3,0,4.8,1.5,4.8,4.1c0,1.7-0.5,3.1-1.9,4.9
					c-0.6,0.7-1.3,1.5-2.1,2.3C88.5,170.5,87.9,171,87.2,171.7L87.2,171.7z"/>
				<path fill="#F9F0DF" d="M95.2,171l-0.7-2.6l5.8-9.5h3.8v9.3h2.1v2.7h-2.1v3.4h-3.3V171H95.2z M101.2,162.4l-1.5,3l-1.8,2.8h3
					v-2.1L101.2,162.4L101.2,162.4z"/>
			</g>
			<rect x="12.9" y="184.7" fill="#FFFFFF" width="29.3" height="29.3"/>
			<g>
				<path fill="#F9F0DF" d="M20.7,204.4l2.7-0.1h3.4v2.8h-9.6l-0.6-2.8c2.4-2.3,4.3-4.2,5.4-5.7c0.7-1,1.1-1.8,1.1-2.6
					c0-1.2-0.6-1.7-1.5-1.7c-1.1,0-1.5,1-1.5,2.1l-3.4-0.6c0.3-2.4,1.8-4.3,5.1-4.3c3,0,4.8,1.5,4.8,4.1c0,1.7-0.5,3.1-1.9,4.9
					c-0.6,0.7-1.3,1.5-2.1,2.3C22,203.2,21.4,203.7,20.7,204.4L20.7,204.4z"/>
				<path fill="#F9F0DF" d="M34.4,201.5c-0.4,0.1-0.8,0.1-1.3,0.1c-2.7,0-4.9-1.3-4.9-4.8c0-3.5,2.2-5.5,5.5-5.5
					c3.7,0,5.1,2.4,5.1,5.9c0,3.9-2.3,7.8-5,9.8h-4.3v-0.4C32.1,205.1,33.7,203.2,34.4,201.5L34.4,201.5z M35.4,198.7
					c0.1-0.5,0.1-0.8,0.1-1.3c0-2.5-1.1-3.3-2.1-3.3c-1.2,0-1.8,0.6-1.8,2.3c0,1.6,0.7,2.4,2.3,2.4
					C34.5,198.9,34.9,198.8,35.4,198.7z"/>
			</g>
			<rect x="46.3" y="184.7" fill="#FFFFFF" width="29.3" height="29.3"/>
			<g>
				<path fill="#F9F0DF" d="M56.7,199c1.4,0.1,2.9,1,2.9,3.3c0,3.3-2.2,5-5.7,5c-2.8,0-4.5-1.6-5.1-3.3l3.2-1.4
					c0.3,0.7,1,1.9,2.4,1.9c1.3,0,1.9-0.7,1.9-2c0-1.2-0.8-1.8-2.6-1.8h-1v-2.8h1c1.5,0,2.1-0.6,2.1-2c0-1.1-0.5-1.7-1.5-1.7
					c-1,0-1.6,0.7-1.6,1.8l-3.3-0.3c0.1-2.4,1.8-4.3,4.8-4.3c3.3,0,4.9,1.4,4.9,4.2C59,197.3,58,198.5,56.7,199L56.7,199z"/>
				<path fill="#F9F0DF" d="M61.3,199.4c0-5.6,2-8.1,5.8-8.1c3.9,0,5.5,2.6,5.5,8c0,5.5-2.1,8-5.9,8
					C62.8,207.3,61.3,204.7,61.3,199.4z M67,204.4c1.8,0,2.3-1.5,2.3-5c0-3.5-0.7-5.2-2.4-5.2c-1.8,0-2.2,1.6-2.2,5.1
					C64.7,202.9,65.4,204.4,67,204.4z"/>
			</g>
			<rect x="79.6" y="184.7" fill="#FFFFFF" width="29.3" height="29.3"/>
			<g>
				<path fill="#F9F0DF" d="M91.3,199c1.4,0.1,2.9,1,2.9,3.3c0,3.3-2.2,5-5.7,5c-2.8,0-4.5-1.6-5.1-3.3l3.2-1.4
					c0.3,0.7,1,1.9,2.4,1.9c1.3,0,1.9-0.7,1.9-2c0-1.2-0.8-1.8-2.6-1.8h-1v-2.8h1c1.5,0,2.1-0.6,2.1-2c0-1.1-0.5-1.7-1.5-1.7
					c-1,0-1.6,0.7-1.6,1.8l-3.3-0.3c0.1-2.4,1.8-4.3,4.8-4.3c3.3,0,4.9,1.4,4.9,4.2C93.7,197.3,92.6,198.5,91.3,199L91.3,199z"/>
				<path fill="#F9F0DF" d="M103.5,191.6v15.5h-3.4v-7.8l0.1-4.4h-0.1l-2,1.7l-1.2,0.8l-1.8-2.6l4.9-3.2H103.5z"/>
			</g>
			<rect x="113" y="152" fill="#FFFFFF" width="29.3" height="29.3"/>
			<g>
				<path fill="#F9F0DF" d="M120.4,171.7l2.7-0.1h3.4v2.8h-9.6l-0.6-2.8c2.4-2.3,4.3-4.2,5.4-5.7c0.7-1,1.1-1.8,1.1-2.6
					c0-1.2-0.6-1.7-1.5-1.7c-1.1,0-1.5,1-1.5,2.1l-3.4-0.6c0.3-2.4,1.8-4.3,5.1-4.3c3,0,4.8,1.5,4.8,4.1c0,1.7-0.5,3.1-1.9,4.9
					c-0.6,0.7-1.3,1.5-2.1,2.3C121.8,170.5,121.1,171,120.4,171.7L120.4,171.7z"/>
				<path fill="#F9F0DF" d="M128.1,171.3l3.3-1.4c0.4,1.1,1,1.9,2.2,1.9c1.3,0,1.9-0.9,1.9-2.4c0-1.6-0.7-2.5-2.1-2.5
					c-0.7,0-1.3,0.3-1.7,0.7l-2.8-1l0.6-7.8h8.5v2.8h-5.5l-0.3,3.3h0.1c0.4-0.3,1.3-0.6,2-0.6c3.2,0,4.6,1.7,4.6,4.7
					c0,3.3-2,5.6-5.5,5.6C130,174.6,128.7,172.9,128.1,171.3z"/>
			</g>
			<rect x="146.3" y="152" fill="#FFFFFF" width="29.3" height="29.3"/>
			<g>
				<path fill="#F9F0DF" d="M153.8,171.7l2.7-0.1h3.4v2.8h-9.6l-0.6-2.8c2.4-2.3,4.3-4.2,5.4-5.7c0.7-1,1.1-1.8,1.1-2.6
					c0-1.2-0.6-1.7-1.5-1.7c-1.1,0-1.5,1-1.5,2.1l-3.4-0.6c0.3-2.4,1.8-4.3,5.1-4.3c3,0,4.8,1.5,4.8,4.1c0,1.7-0.5,3.1-1.9,4.9
					c-0.6,0.7-1.3,1.5-2.1,2.3C155.1,170.5,154.5,171,153.8,171.7L153.8,171.7z"/>
				<path fill="#F9F0DF" d="M166.3,164.3c0.3-0.1,0.9-0.2,1.4-0.2c2.7,0,4.7,1.4,4.7,4.8c0,3.5-2.2,5.7-5.5,5.7
					c-3.8,0-5.1-2.4-5.1-6c0-4.2,2.4-7.8,5.1-9.7h4.3v0.4C168.6,160.8,167.2,162.5,166.3,164.3L166.3,164.3z M165.3,167
					c-0.1,0.5-0.1,1-0.1,1.5c0,2.6,1.1,3.3,2.2,3.3c1.2,0,1.8-0.8,1.8-2.5c0-1.5-0.8-2.5-2.3-2.5C166.1,166.8,165.7,166.8,165.3,167
					z"/>
			</g>
			<rect x="179.7" y="152" fill="#FFFFFF" width="29.3" height="29.3"/>
			<g>
				<path fill="#F9F0DF" d="M188.2,171.7l2.7-0.1h3.4v2.8h-9.6l-0.6-2.8c2.4-2.3,4.3-4.2,5.4-5.7c0.7-1,1.1-1.8,1.1-2.6
					c0-1.2-0.6-1.7-1.5-1.7c-1.1,0-1.5,1-1.5,2.1l-3.4-0.6c0.3-2.4,1.8-4.3,5.1-4.3c3,0,4.8,1.5,4.8,4.1c0,1.7-0.5,3.1-1.9,4.9
					c-0.6,0.7-1.3,1.5-2.1,2.3C189.5,170.5,188.8,171,188.2,171.7L188.2,171.7z"/>
				<path fill="#F9F0DF" d="M201.7,161.7c0,0-1.3,0.2-2.7,0.2h-4.1v-3h10l0.5,3.3l-3.2,5.4c-1.2,2-1.8,3.6-1.8,6.3v0.6H197v-0.6
					c0-2.9,0.9-5,1.8-6.9l1.2-2.2C200.8,163.1,201.7,161.8,201.7,161.7L201.7,161.7z"/>
			</g>
			<rect x="213" y="152" fill="#FFFFFF" width="29.3" height="29.3"/>
			<g>
				<path fill="#F9F0DF" d="M220.3,171.7l2.7-0.1h3.4v2.8h-9.6l-0.6-2.8c2.4-2.3,4.3-4.2,5.4-5.7c0.7-1,1.1-1.8,1.1-2.6
					c0-1.2-0.6-1.7-1.5-1.7c-1.1,0-1.5,1-1.5,2.1l-3.4-0.6c0.3-2.4,1.8-4.3,5.1-4.3c3,0,4.8,1.5,4.8,4.1c0,1.7-0.5,3.1-1.9,4.9
					c-0.6,0.7-1.3,1.5-2.1,2.3C221.7,170.5,221,171,220.3,171.7L220.3,171.7z"/>
				<path fill="#F9F0DF" d="M228.3,170.1c0-1.9,1.2-3.1,2.8-3.6v-0.1c-1.3-0.3-2.4-1.5-2.4-3.3c0-2.9,1.9-4.5,5.1-4.5
					c3.3,0,5,1.4,5,4.2c0,1.7-1.1,2.9-2.4,3.3v0.1c1.5,0.3,2.8,1.2,2.8,3.4c0,3.3-2.1,4.8-5.5,4.8
					C230.3,174.6,228.3,173.2,228.3,170.1z M231.6,169.9c0,1.2,0.6,2,2.2,2c1.5,0,2.1-0.7,2.1-2c0-1-0.4-2-2.2-2
					C232,167.9,231.6,168.9,231.6,169.9z M235.5,163.2c0-1-0.5-1.8-1.7-1.8c-1.3,0-1.8,0.7-1.8,1.8c0,1.2,0.4,2,1.8,2
					C235.1,165.2,235.5,164.4,235.5,163.2z"/>
			</g>
		</g>
		<g>
			<g>
				<path fill="#3C3C3B" d="M138.2,121c-2.3,3.5-5.8,6.5-10.6,6.3c-5.3-0.2-9.3-3.8-11.6-6.4l3.2,28.7h15.6L138.2,121z"/>
				<path fill="#3C3C3B" d="M160.3,139.4c-0.1-1.5-0.2-3.1-0.2-4.8c-0.4-9.1-1.7-14.7-7.5-18.7c-2.6-1.8-6.7-2.4-10.2-3
					c-2.5-0.4-6.2-1-6.4-1.9c-0.3-1.2-0.6-2.6-0.8-3.8c1.3-1,2.8-2.2,4-3.9c0.1,0.4,0.3,0.9,0.6,1.5c0.5,1.3,2.2-5.6,2.8-5.5
					c0.7,0,1.5,1.8,2.7,2.2c0.7,0.3,0.4-5.6,0.1-6.6c-0.4-1.6-1.3-2.8,0.6-2.3c1.2,0.3,3.8,2.7,3.8,1.8c0.1-2.5-3.4-8-2.8-8.8
					c0.6-0.8,2,1,3,1c1,0-2.4-4.7-2.6-6.1c-0.2-1.4,3,1.4,3,1.4s-0.4-2.5-2.8-4.7c-2.4-2.3-5.8-4.7-5.6-6.3c0.2-1.6,5.2-1.4,6.8-1.6
					c1.6-0.2-4.8-3.9-8.8-4.5c-4-0.6-9.6,2.5-9.6,2.5l-0.3,0.3c-0.3-0.3-0.7-0.6-1.3-0.7c0,0-10.8-2.5-17.2,0.4
					c-6.4,2.9-9,7-7.2,5.7c1.8-1.2,4.4-1.6,3.8-0.4c-0.6,1.2-8.1,11.7-6.6,14.5c0.3,0.6,0.9-0.9,1.9-1.8c0.7-0.6,3.3-2.7,2.9-0.8
					c-0.4,1.8-4.4,7.8-3.2,12.5c1.2,4.7,2-3.5,2.8-3.9c0.8-0.4,0,6.3,0.8,6.8c0.8,0.4,0.6-3.9,1.4-3.3c0.8,0.6,1.4,9,2.2,8.8
					c0.8-0.2,0-5.9,1-4.7c1,1.2,6,5.7,6.6,5.5c0.1,0,0-0.8-0.3-1.9c0.9,1,1.8,1.9,2.7,2.5c-0.3,1.3-0.6,2.8-0.9,4.1
					c-0.2,0.9-3.9,1.5-6.4,1.9c-3.6,0.6-7.6,1.2-10.2,3c-4.7,3.2-7.5,7.3-7.9,18.7c-0.3,6.2-0.2,11,0,14l0,1h22.7l-4-34.7l0,0l0,0
					c4.2-0.7,7.4-1.2,8-3.5c0.2-1.1,0.5-2.2,0.7-3.3c0.3,0.2,0.6,0.4,0.9,0.5c0.9,0.5,2.7,1.3,4.6,1.3c0.1,0,0.1,0,0.2,0
					c2,0.1,3.9-0.8,4.8-1.3c0.1-0.1,0.3-0.1,0.4-0.2c0.2,1,0.4,2,0.7,3c0.5,2.1,3.2,2.7,6.8,3.3l-0.3,1.8l-3.8,33.1h24l0-1
					C160.6,146.4,160.5,143.3,160.3,139.4z M131.7,106.8c-0.6,0.3-2.1,1-3.6,1c-0.1,0-0.2,0-0.2,0c-1.5,0-3-0.7-3.6-1
					c-2-1.1-5.6-3.5-7.3-7.5c-0.5-1.1-1.4-3.6-2-6.9c-0.2-1.9-0.2-3.7,0.1-5c1.4-5.5,5.4-11.3,8.6-12.7c1.6-0.7,3.2-1.8,4.4-2.8
					c0.4,0.9,1.2,2.2,2.8,3.7c2.1,1.9,5.8,2,8.6,10c1.1,3.1,1.2,6.3,0.9,9c-0.5,2.2-1.2,3.9-1.5,4.7
					C137.3,103.3,133.7,105.7,131.7,106.8z"/>
			</g>
			<ellipse fill="#3C3C3B" cx="121.1" cy="90" rx="1.7" ry="1.9"/>
			<ellipse fill="#3C3C3B" cx="134.5" cy="90" rx="1.7" ry="1.9"/>
			<g>
				<path fill="#3C3C3B" d="M127.8,103.5c-1.7-0.1-3.2-0.9-3.2-0.9s-1-0.6-0.2-1c0.8-0.4,3.4-0.1,3.4-0.1s2.6-0.3,3.4,0.1
					c0.8,0.4-0.2,1-0.2,1S129.5,103.4,127.8,103.5z"/>
			</g>
		</g>
		<g>
			<path fill="#4D4D4D" d="M396.3,423.4h-2v-9.3h2V423.4z M399.1,414.1h2.3l-2.9,4.5l3.2,4.8h-2.5l-2.9-4.7v-0.1L399.1,414.1z"/>
			<path fill="#4D4D4D" d="M402.9,423.4v-9.3h5.5v1.7h-3.5v2.1h3v1.7h-3v2.2h3.7v1.7H402.9z"/>
			<path fill="#4D4D4D" d="M410.4,423.4v-9.3h5.5v1.7h-3.5v2.1h3v1.7h-3v2.2h3.7v1.7H410.4z"/>
			<path fill="#4D4D4D" d="M424.3,416.9c0,1.7-0.9,3.2-3.6,3.2h-0.8v3.3h-2v-9.3h3.2C422.9,414.1,424.3,414.8,424.3,416.9z
				 M419.9,415.8v2.6h0.7c1.4,0,1.6-0.6,1.6-1.3c0-0.9-0.5-1.3-1.5-1.3H419.9z"/>
			<path fill="#4D4D4D" d="M425.8,423.4v-9.3h5.5v1.7h-3.5v2.1h3v1.7h-3v2.2h3.7v1.7H425.8z"/>
			<path fill="#4D4D4D" d="M436.3,414.1c2.1,0,3.2,0.8,3.2,2.7c0,1.6-0.9,2.4-2,2.6v0.1c0.5,0.2,0.8,0.6,1.2,1.4l1.4,2.6h-2.4
				l-1.5-3c-0.2-0.3-0.4-0.4-0.8-0.4h-0.1v3.5h-2v-9.3H436.3z M435.3,418.3h0.8c1.1,0,1.4-0.5,1.4-1.3c0-0.8-0.5-1.2-1.4-1.2h-0.8
				V418.3z"/>
			<path fill="#4D4D4D" d="M445.4,420.9c0-1.5-4.3-1.3-4.3-4.2c0-1.5,1.4-2.7,3.3-2.7c1.6,0,2.5,0.7,2.8,1.1l-1.3,1.5
				c-0.2-0.3-0.8-0.9-1.7-0.9c-0.7,0-1,0.4-1,0.8c0,1.5,4.3,1.3,4.3,4.2c0,1.4-1.2,2.7-3.5,2.7c-1.8,0-2.9-0.8-3.2-1.2l1.2-1.7
				c0.4,0.4,1.2,1.1,2.3,1.1C445,421.8,445.4,421.4,445.4,420.9z"/>
		</g>
		<path fill="#FF1900" d="M496.5,127.5L510,114c1.2-1.2,1.2-3.2,0-4.4l-13.5-13.5c-2-2-5.3-0.6-5.3,2.2v6.9h-19.5
			c-1.8,0-3.2,1.4-3.2,3.2v6.9c0,1.8,1.4,3.2,3.2,3.2h19.5v6.9C491.2,128.1,494.5,129.5,496.5,127.5z"/>
		<path fill="#FF1900" d="M626.7,127.5l13.5-13.5c1.2-1.2,1.2-3.2,0-4.4l-13.5-13.5c-2-2-5.3-0.6-5.3,2.2v6.9h-19.5
			c-1.8,0-3.2,1.4-3.2,3.2v6.9c0,1.8,1.4,3.2,3.2,3.2h19.5v6.9C621.4,128.1,624.8,129.5,626.7,127.5z"/>
		<g>
			<path fill="#FF1900" d="M578.6,151.3h-42.2c-5.8,0-10.6-4.8-10.6-10.6V77c0-5.8,4.8-10.6,10.6-10.6h42.2
				c5.8,0,10.6,4.8,10.6,10.6v63.7C589.3,146.5,584.5,151.3,578.6,151.3z"/>
			<g>
				<g>
					<path fill="#FFFFFF" d="M525.9,131.8c-4,0-7.2-3.2-7.2-7.2v-7.9c0-4,3.2-7.2,7.2-7.2h39.7c4,0,7.2,3.2,7.2,7.2v7.9
						c0,4-3.2,7.2-7.2,7.2H525.9z"/>
					<path fill="#FF1900" d="M565.7,111.1c3,0,5.5,2.5,5.5,5.5v7.9c0,3-2.5,5.5-5.5,5.5h-39.7c-3,0-5.5-2.5-5.5-5.5v-7.9
						c0-3,2.5-5.5,5.5-5.5H565.7 M565.7,107.7h-39.7c-4.9,0-8.9,4-8.9,8.9v7.9c0,4.9,4,8.9,8.9,8.9h39.7c4.9,0,8.9-4,8.9-8.9v-7.9
						C574.6,111.7,570.6,107.7,565.7,107.7L565.7,107.7z"/>
				</g>
			</g>
			<g>
				<path fill="#FF1900" d="M527.8,122.7c0-1.5-4.3-1.3-4.3-4.2c0-1.5,1.4-2.7,3.3-2.7c1.6,0,2.5,0.7,2.8,1.1l-1.3,1.5
					c-0.2-0.3-0.8-0.9-1.7-0.9c-0.7,0-1,0.4-1,0.8c0,1.5,4.3,1.3,4.3,4.2c0,1.4-1.2,2.7-3.5,2.7c-1.8,0-2.9-0.8-3.2-1.2l1.2-1.7
					c0.4,0.4,1.2,1.1,2.3,1.1C527.5,123.6,527.8,123.2,527.8,122.7z"/>
				<path fill="#FF1900" d="M531.5,125.2v-9.3h5.5v1.7h-3.5v2.1h3v1.7h-3v2.2h3.7v1.7H531.5z"/>
				<path fill="#FF1900" d="M542.6,115.8c1.8,0,2.7,0.8,2.9,1.1l-1.3,1.5c-0.3-0.4-0.7-0.8-1.7-0.8c-1.2,0-1.9,0.9-1.9,3
					c0,1.9,0.7,3.1,2.1,3.1c0.9,0,1.4-0.5,1.7-0.8l1.1,1.4c-0.4,0.5-1.3,1.1-2.9,1.1c-2.9,0-4-1.9-4-4.7
					C538.5,117.7,539.9,115.8,542.6,115.8z"/>
				<path fill="#FF1900" d="M549.8,115.9c2.1,0,3.2,0.8,3.2,2.7c0,1.6-0.9,2.4-2,2.6v0.1c0.5,0.2,0.8,0.6,1.2,1.4l1.4,2.6h-2.4
					l-1.5-3c-0.2-0.3-0.4-0.4-0.8-0.4h-0.1v3.5h-2v-9.3H549.8z M548.8,120.1h0.8c1.1,0,1.4-0.5,1.4-1.3c0-0.8-0.5-1.2-1.4-1.2h-0.8
					V120.1z"/>
				<path fill="#FF1900" d="M554.9,125.2v-9.3h5.5v1.7H557v2.1h3v1.7h-3v2.2h3.7v1.7H554.9z"/>
				<path fill="#FF1900" d="M563.7,117.6h-2.3v-1.7h6.7v1.7h-2.3v7.6h-2V117.6z"/>
			</g>
			<g>
				<path fill="#F9F0DF" d="M557.6,92.5c7.5,0,13.6-6.2,13.6-13.7l-0.1-15.4c0-7.5-6.2-13.6-13.7-13.6s-13.6,6.2-13.6,13.7l0.1,15.4
					C544,86.4,550.1,92.5,557.6,92.5z"/>
				<path fill="#FF1900" d="M557.6,91c6.8,0,12.3-5.6,12.3-12.4l0-15c0-6.8-5.6-12.3-12.4-12.3c-6.8,0-12.3,5.6-12.3,12.4l0,15
					C545.2,85.4,550.8,91,557.6,91z M560.2,77.9c0,1.4-1.2,2.6-2.6,2.6c-1.4,0-2.6-1.2-2.6-2.6c0-1.4,1.2-2.6,2.6-2.6
					C559,75.3,560.2,76.5,560.2,77.9z M548.3,61.1c0-3.5,3.9-7.4,8.9-7.4l0.5,0c4.6,0,8.9,3.9,8.9,7.4c0,3.5-2.6,4.7-6,4.7l-5.7,0
					C551.5,65.8,548.4,64.6,548.3,61.1z M549.2,79.1l0-1.7c0-0.1,0-0.1,0-0.2c0.3-4.3,3.9-7.7,8.4-7.8c4.4,0,8,3.4,8.4,7.7
					c0,0.1,0,0.1,0,0.2l0,1.7c0,0.8-0.7,1.5-1.5,1.5c-0.8,0-1.5-0.7-1.5-1.5l0-1.6c-0.2-2.8-2.6-5.1-5.5-5.1c-2.9,0-5.2,2.3-5.4,5.1
					l0,1.6c0,0.8-0.7,1.5-1.5,1.5C549.8,80.6,549.2,79.9,549.2,79.1z"/>
			</g>
		</g>
		<g>
			<path fill="#7897CC" d="M436.3,180.4l-13.5-13.5c-1.2-1.2-3.2-1.2-4.4,0l-13.5,13.5c-2,2-0.6,5.3,2.2,5.3h6.9v19.5
				c0,1.8,1.4,3.2,3.2,3.2h6.9c1.8,0,3.2-1.4,3.2-3.2v-19.5h6.9C436.9,185.7,438.3,182.4,436.3,180.4z"/>
			<g>
				<g>
					<g>
						<ellipse fill="#3C3C3B" cx="529.4" cy="375" rx="0.7" ry="0.9"/>
						<ellipse fill="#3C3C3B" cx="534.8" cy="375" rx="0.7" ry="0.9"/>
						<path fill="#3C3C3B" d="M530,379.4c0.1,0.6,0.6,1.1,1.4,1.3c0.1,0,0.1,0,0.2,0c0.2,0,0.4,0.1,0.6,0.1c0.2,0,0.4,0,0.6-0.1
							c0.1,0,0.1,0,0.2,0c0.7-0.2,1.3-0.7,1.4-1.3H530z M532.1,380.3c-0.4,0-1-0.1-1.2-0.5h2.3C533.1,380.3,532.4,380.3,532.1,380.3
							z"/>
						<path fill="#3C3C3B" d="M544.7,389.9c-0.6-2.4-2.4-4.1-3.7-4.7c-0.6-0.3-1.6-0.5-2.4-0.6c0,0-1.9-0.3-1.9-0.3
							s-1.1-0.1-1.3-0.3v-1.9c0.4-0.3,0.9-0.6,1.3-1.1l0.9,0.1c0.4-0.4,1.4-2.9,1.4-2.9l0.3,1.2c0,0,0.5-0.7,1.1-3
							c0.5-2.3-0.3-3.8-0.3-3.8s1.5,0.9,1.6,0.7c0.1-0.2-0.7-1.3-1.1-2.1c-0.5-1-1.1-2.9-2.2-4.5c-1.6-2.2-6.1-2.3-6.1-2.3
							s-4.5,0-6.1,2.3c-1.1,1.6-1.7,3.5-2.2,4.5c-0.4,0.8-1.2,1.9-1.1,2.1c0.1,0.2,1.6-0.7,1.6-0.7s-0.9,1.5-0.3,3.8
							c0.5,2.3,1.1,3,1.1,3l0.3-1.2c0,0,0.9,2.5,1.4,2.9l1-0.1c0.3,0.4,0.7,0.7,1.1,1c0,0,0,0,0,0v2.1l-0.6,0.1c0,0-4,0.6-4.8,0.9
							c-1.6,0.6-3.7,2.9-4.2,5.3c-0.3,1.5-0.2,4.3-0.1,6.3c0,0.8,0,1.5,0.1,2.1h0.1h0h8.2l-1.6-6.6l1.6-1.2l-1.9-0.9
							c-0.1-1.3,0.3-2.7,0.7-3.8c0.1-0.3,0.2-0.6,0.3-0.8l0.6-0.1l1.1-0.2c0,0.5,0.1,1.6,0.2,2.8c0,0.5,0.1,1.1,0.2,1.6
							c0.2,4.2,0.5,9.3,0.5,9.3h6.2c0,0,0.3-5,0.5-9.2c0,0,0,0,0-0.1c0.1-0.5,0.1-0.9,0.1-1.4c0.1-1.3,0.2-2.5,0.2-3.1l1,0.1
							l0.6,0.1c0.2,0.4,0.4,1,0.6,1.6c0.3,1,0.6,2.2,0.6,3.3l-1.9,0.9l1.6,1.2l-1.6,6.6h8.3h0.2
							C545.1,398.9,545.2,392.2,544.7,389.9z M534.8,388.6c-2.2,0.7-4.1,0.5-5.7-0.1c-0.1-1.4-0.2-2.8-0.3-3.4l0.4-0.1
							c0.2,0,0.4-0.2,0.4-0.4v-2c0.2,0.1,0.3,0.2,0.5,0.2c0.4,0.2,1.2,0.5,2,0.5c0,0,0,0,0.1,0c0.8,0,1.6-0.3,2-0.5
							c0.1,0,0.2-0.1,0.3-0.1v1.9c0,0.2,0.2,0.4,0.4,0.4l0.2,0C535,385.7,535,387.2,534.8,388.6z M534.6,381.6
							c-0.3,0.2-0.6,0.4-0.8,0.5c-0.3,0.1-1,0.4-1.7,0.4c-0.7,0-1.4-0.3-1.6-0.4c-0.2-0.1-0.5-0.3-0.8-0.5c-0.3-0.2-0.6-0.4-0.8-0.6
							c-0.6-0.5-1.2-1.2-1.5-2c-0.3-0.7-1-2.5-1.1-4.8c0-0.1,0-0.2,0-0.3c0-0.2,0.1-0.4,0.1-0.6c0.5-1.7,1.5-2.4,1.5-2.4
							s2.6,1.6,5.3,2.5c1.9,0.7,3.9,1,4.9,1.1c-0.2,2.2-0.8,3.9-1.1,4.5c-0.4,0.8-0.9,1.5-1.5,2
							C535.2,381.2,534.9,381.4,534.6,381.6z"/>
					</g>
					<g>
						<path fill="#3C3C3B" d="M359.7,392.8c-0.2-4.7-1.3-6.3-3.3-7.7c-0.8-0.6-2-0.9-3.1-1.1c0.1-1,0-2.5-0.3-3.7
							c-0.3-1.1-0.8-1.7-1.2-2c0.1-0.3,0.2-0.7,0.4-1.1c0.2-0.1,0.4-0.2,0.6-0.4c0.4-0.4,0.8-1,0.7-2.4c0-0.5-0.2-0.8-0.6-1.1
							c0,0,0,0,0,0c0.4-0.6,0.9-1.8,0.6-4.1c-0.2-1.3-0.6-2.3-1.3-3c0.1-1-0.9-3.5-3.6-3.6c-1.2-0.1-2.9,0.2-3.9,0.8
							c-0.7,0.4-0.9,0.9-0.9,1.4c-1.5,0.3-2.3,0.9-3.3,2c-2,2.4-1.2,4.6-0.5,5.8c0,0.2,0,0.4,0,0.6c-0.5,0.3-0.8,0.7-0.8,1.2
							c-0.1,1.4,0.3,2,0.7,2.4c0.2,0.2,0.6,0.3,0.8,0.4c0.1,0.4,0.3,0.9,0.4,1.3c0.5,1.3,1.4,2.2,2.2,2.8c-0.1,0.5-0.2,1.1-0.4,1.7
							c-0.1,0.4-1.6,0.6-2.6,0.8c-1.5,0.2-3.1,0.5-4.2,1.2c-1.9,1.3-3,3-3.3,7.7c-0.1,2.5-0.1,4.5,0,5.7l0,0.4h26.8l0-0.4
							C359.8,397.3,359.9,395.3,359.7,392.8z M349.2,367.2c1.5,0.3,2.3,3.3,2.8,5.2c0,0.3,0,0.6,0,1c0,0-0.1,0.1-0.1,0.1
							c-0.2,0.1-0.4,0-0.4,0s-0.5-0.4-0.9-0.6c-0.5-0.2-0.9-0.2-1.4-0.2c-0.7,0-1.6,0.2-2,0.4c-0.1,0-0.3,0.2-0.3,0.2l-0.6,0l-0.6,0
							c0,0-0.2-0.1-0.3-0.2c-0.4-0.2-1.2-0.4-2-0.4c-0.5,0-0.9,0.1-1.4,0.2c-0.5,0.2-0.9,0.6-0.9,0.6s-0.2,0-0.3-0.1
							c0-0.1,0-0.1,0-0.2C342.2,371.8,347.3,366.8,349.2,367.2z M351.1,374.5c-0.2,0.3-0.7,0.9-1.9,0.9c-1.3,0-1.8-0.5-2-1.1
							c-0.2-0.6,0.1-0.9,0.3-1c0.2-0.1,1.5-0.7,2.9-0.3c0,0,0.5,0.1,0.7,0.4C351.3,373.7,351.3,374.3,351.1,374.5z M345.6,374.3
							c-0.2,0.6-0.8,1.1-2,1.1c-1.2,0-1.8-0.6-1.9-0.9c-0.2-0.3-0.2-0.8,0-1.1c0.2-0.3,0.7-0.4,0.7-0.4c1.4-0.4,2.7,0.2,2.9,0.3
							C345.5,373.4,345.8,373.7,345.6,374.3z M341.9,378.3c-0.2-0.4-0.3-0.9-0.5-1.4l-0.1-0.3l-0.3,0c-0.2,0-0.5-0.1-0.6-0.2
							c-0.3-0.3-0.5-0.7-0.4-1.7c0-0.4,0.3-0.5,0.5-0.6l0.2-0.1l0.1-0.1c0,0,0.1,0,0.1,0.1c0.1,0,0.1,0.1,0.2,0.2
							c0.1,0.1,0.3,0.6,0.6,0.9c0.2,0.2,0.8,0.5,1.4,0.6c0.9,0.1,1.7,0,2.3-0.4c0.7-0.5,0.6-1.1,0.6-1.3c0-0.1,0.1-0.2,0.2-0.3
							c0.1,0,0.3-0.1,0.3-0.1s0.2,0,0.3,0.1s0.1,0.1,0.2,0.3c0,0.2,0,0.7,0.6,1.3c0.5,0.4,1.4,0.5,2.3,0.4c0.6-0.1,1.1-0.4,1.4-0.6
							c0.3-0.3,0.5-0.8,0.6-0.9s0.1-0.2,0.2-0.2c0,0,0.1-0.1,0.2-0.1l0,0.1c0,0,0.1,0,0.2,0.1c0.4,0.2,0.4,0.4,0.4,0.5
							c0.1,1.1-0.2,1.4-0.4,1.7c-0.1,0-0.3,0.1-0.4,0.2l-0.2,0.1l-0.1,0.2c-0.1,0.5-0.3,1-0.5,1.5c-0.4,1-1.1,1.8-1.8,2.3
							c-0.1,0.1-0.3,0.2-0.4,0.3c-0.1,0.1-0.3,0.2-0.4,0.3c-0.1,0.1-0.3,0.2-0.4,0.2c-0.2,0.1-0.9,0.4-1.5,0.4c0,0,0,0,0,0
							c-0.6,0-1.2-0.3-1.5-0.4c-0.2-0.1-0.4-0.2-0.6-0.4c-0.1-0.1-0.3-0.2-0.4-0.3c-0.1-0.1-0.3-0.2-0.4-0.3
							C342.9,379.9,342.3,379.2,341.9,378.3z M347,389.2c-4.3-0.2-6.4-3.3-7.5-4.3c0.3-0.1,0.6-0.1,0.9-0.1c1.7-0.3,3.1-0.5,3.4-1.5
							c0.1-0.4,0.2-0.9,0.3-1.4c0.1,0.1,0.3,0.1,0.4,0.2c0.4,0.2,1.1,0.5,1.9,0.5c0,0,0,0,0.1,0c0.8,0,1.5-0.3,1.9-0.5
							c0.1,0,0.1-0.1,0.2-0.1c0.1,0.4,0.2,0.8,0.3,1.2c0,0.1,0.1,0.3,0.2,0.4c-0.1,1.1-0.8,3.1-1.1,4c-0.1,0.2-0.1,0.5,0.3,0.3
							c0.8-0.2,1.9-1.7,2.3-2.2c0,0,0,0,0,0c0,0.9-0.4,1.9-0.6,2.4c0,0.1,0.1,0.1,0.1,0.1c0.7-0.8,1.3-2.4,1.6-3.6
							c0.2,0,0.3,0,0.5,0.1c0.1,0.7,0,1.3,0,1.4c0,0.2,0.5-0.2,0.9-1.1c0,0,0-0.1,0.1-0.1c0.3,0.1,0.6,0.1,0.9,0.2
							C353.1,386.2,351,389.4,347,389.2z"/>
						<ellipse fill="#3C3C3B" cx="343.5" cy="374.4" rx="0.7" ry="0.8"/>
						<ellipse fill="#3C3C3B" cx="349.1" cy="374.4" rx="0.7" ry="0.8"/>
						<path fill="#3C3C3B" d="M344.2,378.5c0.1,0.7,0.8,1.2,1.6,1.4c0.2,0,0.3,0.1,0.5,0.1c0.2,0,0.4,0,0.5-0.1
							c0.8-0.2,1.5-0.7,1.6-1.4H344.2z M346.3,379.4c-0.4,0-1-0.1-1.2-0.5h2.3C347.3,379.4,346.6,379.4,346.3,379.4z"/>
					</g>
					<g>
						<polygon fill="#3C3C3B" points="475.3,374 475.3,374 475.3,374 						"/>
						<ellipse fill="#3C3C3B" cx="466.2" cy="374.4" rx="0.7" ry="0.8"/>
						<ellipse fill="#3C3C3B" cx="471.7" cy="374.4" rx="0.7" ry="0.8"/>
						<path fill="#3C3C3B" d="M467.6,379.5c0.2,0.2,0.6,0.4,1.3,0.4c0.7,0,1.1-0.2,1.3-0.4c0.2-0.2,0.8-0.8,0.4-0.7
							c-1.1,0.2-1.7,0.2-1.7,0.2s-0.6,0-1.7-0.2C466.9,378.7,467.4,379.3,467.6,379.5z"/>
						<path fill="#3C3C3B" d="M482.3,392.8c-0.2-4.6-1.4-6.3-3.3-7.7c-1.1-0.7-2.7-1-4.1-1.2c-0.1,0-0.3,0-0.4-0.1
							c-0.1-0.3-0.2-0.7-0.3-1c-0.5-1.3,1.4,0.8,1.6,0.7c0.3-0.1-1.1-2.9-1.1-2.9s2.4,1.6,2.6,1.4c0.3-0.2-1.3-3.3-1.1-4.5
							c0.1-1,1.1-4.7,0.5-7.1c-0.8-6.8-7-6-9-5.8c-2,0.1-5.6,3.2-6,5.8c0,0,0,0.1,0,0.1c-0.3,0.9-1.2,4.1-1.6,7.3
							c-0.4,3.5-1,3.1-0.7,3.4c0.3,0.3,1.9-2.1,2.1-2.1c0.5,0.1,0.3,0.8-0.1,1.7c-0.4,0.9-0.9,2.3-0.7,2.4c0.1,0.1,1.4-1.6,1.9-1.8
							c0.4-0.1,0.9,1.4,1.1,2.3c-0.2,0-0.4,0.1-0.6,0.1c-1.5,0.2-3.1,0.5-4.2,1.2c-1.9,1.3-3,3-3.3,7.7c-0.1,2.5-0.1,4.5,0,5.7
							l0,0.4h26.8l0-0.4C482.3,397.3,482.4,395.3,482.3,392.8z M463.1,376.9c-0.2,0-0.3-0.1-0.4-0.2c-0.3-0.4-0.6-0.9-0.6-2.1
							c0-0.3,0.2-0.5,0.5-0.7c0.1-0.1,0.3-0.2,0.4-0.2c0.2-0.1,0.4-0.1,0.4-0.1c0,0,0,0,0,0c0-0.1,0-0.2,0-0.4
							c2.8-2.3,7.7-2.1,9.3-3.4c0.3-0.2,0.7-0.1,0.8,0.2l0.9,3c0,0.2,0,0.4,0,0.6c0,0,0,0,0,0c0.1,0,0.1,0,0.2,0.1
							c0.1,0,0.1,0,0.2,0.1c0.1,0.1,0.3,0.2,0.4,0.3c0,0,0,0,0,0c0,0,0,0,0,0c0.1,0.1,0.2,0.3,0.3,0.6c0.1,1.2-0.2,1.7-0.6,2.1
							c0,0-0.1,0.1-0.1,0.1c-0.1,0.1-0.3,0.2-0.5,0.2c-0.2,0-0.4,0-0.4,0l0,0c-0.1,0.6-0.3,0.9-0.4,1.4c-0.4,1-1.1,1.8-1.8,2.3
							c-0.1,0.1-0.3,0.2-0.4,0.3c-0.1,0.1-0.3,0.2-0.4,0.3c-0.1,0.1-0.3,0.2-0.4,0.2c-0.2,0.1-0.9,0.4-1.5,0.4
							c-0.6,0-1.3-0.3-1.5-0.4c-0.2-0.1-0.4-0.2-0.6-0.4c-0.1-0.1-0.3-0.2-0.4-0.3c-0.1-0.1-0.3-0.2-0.4-0.3
							c-0.6-0.5-1.2-1.2-1.6-2.1c-0.2-0.4-0.3-0.9-0.4-1.3c-0.1,0-0.2,0-0.5,0C463.4,376.9,463.2,376.9,463.1,376.9z M463.6,384.3
							c0,0,1,0,1.4,0c0.4,0,1.2-0.5,1.3-1.1c0.1-0.4,0.2-0.9,0.3-1.4c0.1,0.1,0.3,0.1,0.4,0.2c0.4,0.2,1.1,0.5,1.9,0.5
							c0,0,0,0,0.1,0c0.8,0,1.6-0.3,2-0.5c0.1,0,0.1-0.1,0.2-0.1c0.1,0.4,0.2,0.8,0.3,1.2c0.1,0.6,1.1,1.1,1.8,1.2s1.4,0,1.4,0
							l1.1,0c-0.1,0.1-0.1,0.2-0.2,0.3c-0.4,0.6-1.2,1.6-2.3,2.3c-0.2,0.1-4.2,2.6-8.3-1.3c-0.2-0.2-0.6-0.6-1-1
							c-0.1-0.1-0.1-0.1-0.2-0.2c0,0-0.1-0.1-0.1-0.1c-0.1-0.1-0.1-0.2-0.2-0.2L463.6,384.3z M469.6,389.2c-4.3-0.2-6.4-3.3-7.5-4.3
							c0.2,0,0.5-0.1,0.7-0.1c0.4,0.5,1,1.2,1.4,1.5c1.9,1.8,3.9,2.3,5.4,2.3c2.1,0,3.6-0.9,3.7-1c1.3-0.8,2.2-2.1,2.7-2.7
							c0.2,0,0.4,0.1,0.5,0.1C475.6,386.2,473.5,389.4,469.6,389.2z"/>
					</g>
					<g>
						<polygon fill="#3C3C3B" points="279.3,384.2 279.3,384.2 279.3,384.2 						"/>
						<polygon fill="#3C3C3B" points="285,383 285,383 285,383 						"/>
						<path fill="#3C3C3B" d="M300.9,393.1c-0.2-4.6-1.4-6.2-3.1-7.4c-1.2-0.8-4-1.2-6-1.6l-2.3-1.2c0-0.2,0-0.4,0-0.5
							c0-0.5-0.1-1-0.1-1.3c0.7-1,1.2-2.1,1.4-2.6c0.9-0.2,1.5-1.1,1.8-2.7c0.3-1.3-0.3-2.1-0.9-2.5c0.3-2.5-0.2-4.4-1.4-5.8
							c-1.9-2.1-4.9-2-5.3-1.9c-0.4,0-3.2-0.2-5.1,1.8c-1.3,1.3-1.8,3.3-1.6,5.9c-0.6,0.3-1.2,1.1-0.9,2.5c0.3,1.6,1,2.5,1.9,2.7
							c0.2,0.6,0.8,1.9,1.6,3c0,0.3-0.1,0.9-0.2,1.4c-0.3,0.2-2.1,1-2.1,1c-2,0.4-5.1,0.8-6.5,1.8c-1.7,1.2-2.9,2.8-3.1,7.4
							c-0.1,3-0.1,4.9,0,5.9h31.9C301,398,301,396.1,300.9,393.1z M280.5,368c1.3-1.4,3.3-1.5,4.1-1.5c0.2,0,0.3,0,0.3,0l0,0l0,0
							c0,0,2.9-0.2,4.6,1.7c1.1,1.2,1.5,2.9,1.2,5.2c-0.3,0.1-0.6,0.3-0.6,0.3c-0.2,0.1-0.4,0-0.4,0s-0.5-0.4-0.9-0.6
							c-0.5-0.2-0.9-0.2-1.4-0.2c-0.7,0-1.6,0.2-2,0.4c-0.1,0-0.3,0.2-0.3,0.2l-0.6,0l-0.6,0c0,0-0.2-0.1-0.3-0.2
							c-0.4-0.2-1.2-0.4-2-0.4c-0.5,0-0.9,0.1-1.4,0.2c-0.5,0.2-0.9,0.6-0.9,0.6s-0.2-0.1-0.4-0.2C278.9,371,279.3,369.2,280.5,368z
							 M289.4,374.7c-0.2,0.3-0.7,0.9-1.9,0.9c-1.3,0-1.8-0.5-2-1.1c-0.2-0.6,0.1-0.9,0.3-1c0.2-0.1,1.5-0.7,2.9-0.3
							c0,0,0.5,0.1,0.7,0.4C289.6,373.8,289.6,374.4,289.4,374.7z M283.9,374.4c-0.2,0.6-0.8,1.1-2,1.1c-1.2,0-1.8-0.6-1.9-0.9
							c-0.2-0.3-0.2-0.8,0-1.1c0.2-0.3,0.7-0.4,0.7-0.4c1.4-0.4,2.7,0.2,2.9,0.3C283.8,373.5,284.1,373.9,283.9,374.4z M280.4,378.9
							c-0.3-0.6-0.4-1-0.4-1l-0.1-0.3h-0.3c-0.8,0-1.2-1.6-1.3-2c-0.3-1.2,0.5-1.6,0.6-1.6l0.2-0.1c0.1,0.1,0.1,0.1,0.1,0.1
							c0.1,0,0.1,0.1,0.2,0.2c0.1,0.1,0.3,0.6,0.6,0.9c0.2,0.2,0.8,0.5,1.4,0.6c0.9,0.1,1.7,0,2.3-0.4c0.7-0.5,0.6-1.1,0.6-1.3
							c0-0.1,0.1-0.2,0.2-0.3c0.1,0,0.3-0.1,0.3-0.1s0.2,0,0.3,0.1c0.1,0,0.1,0.1,0.2,0.3c0,0.2,0,0.7,0.6,1.3
							c0.5,0.4,1.4,0.5,2.3,0.4c0.6-0.1,1.1-0.4,1.4-0.6c0.3-0.3,0.5-0.8,0.6-0.9c0.1-0.1,0.1-0.2,0.2-0.2c0,0,0.3-0.2,0.6-0.3
							l0,0.1l0.3,0.1c0.1,0,0.9,0.4,0.6,1.6c-0.2,0.7-0.5,2-1.3,2l-0.3,0l-0.1,0.3c0,0-0.2,0.4-0.4,1l-1.5,0.5
							c-0.1-0.1-0.1-0.2-0.2-0.2c-0.4-0.2-2-1-2.9-1.1c-0.9,0.1-2.5,0.9-2.9,1.1c-0.1,0.1-0.2,0.1-0.2,0.2L280.4,378.9z
							 M287.4,380.5c0,0.1-0.1,0.2-0.2,0.3c-0.2,0.2-1.5,0.5-1.7-0.1c0,0,0-0.1-0.1-0.1c-0.1-0.1-0.4-0.1-0.5-0.1
							c-0.1,0-0.4,0-0.6,0.2c0,0,0,0,0,0.1c-0.2,0.6-1.4,0.3-1.7,0.1c0,0-0.1-0.1-0.1-0.1c-0.2-0.3-0.2-1,0-1.1
							c0.5-0.2,2.4-0.3,2.4-0.3s2,0.1,2.4,0.3C287.5,379.7,287.5,380.2,287.4,380.5z M280.2,384.2c1.3-0.6,1.4-0.8,1.4-1
							c0-0.3,0.1-0.6,0.1-0.8c0.7,0.6,1.8,1,3.2,1.1l0,0l0,0c1.4-0.1,2.6-0.5,3.3-1.1c0.1-0.1,0.2-0.2,0.3-0.3c0,0.1,0,0.2,0,0.4
							c0,0.3,0,0.5,0.1,0.8l0,0.2l1.1,0.6l0.3,0.2c-1.1,1.7-2.9,3.6-5.2,3.6c-2.4,0-4.2-2-5.2-3.4
							C279.9,384.3,280.1,384.2,280.2,384.2z M285,389.2c-2.7,0-5-1.7-6.3-4.4c0.2-0.1,0.4-0.2,0.5-0.2c0.6,0.9,1.3,1.6,2,2.2
							c1.2,1,2.5,1.6,3.8,1.6c1.3,0,2.4-0.5,3.4-1.2c1-0.8,1.8-1.8,2.4-2.7l0.6,0.3C290,387.5,287.7,389.2,285,389.2z"/>
						<path fill="#3C3C3B" d="M286.6,379.7h-3.2c-0.1,0-0.2,0.1-0.2,0.2c0,0.1,0.1,0.2,0.2,0.2h3.2c0.1,0,0.2-0.1,0.2-0.2
							C286.8,379.8,286.7,379.7,286.6,379.7z"/>
						<ellipse fill="#3C3C3B" cx="281.9" cy="373.9" rx="0.6" ry="0.7"/>
						<ellipse fill="#3C3C3B" cx="287.5" cy="373.8" rx="0.6" ry="0.7"/>
					</g>
					<g>
						<path fill="#3C3C3B" d="M605.9,392.6c-0.2-4.7-0.7-6.4-2.3-7.7c-1-0.8-3.2-1.3-5-1.7l-2-0.6l0-1.8c0.7-0.8,1-1.9,1.2-2.4
							c0.6-0.1,1.4-0.8,1.7-2.6c0.3-1.3-0.3-2.1-0.8-2.5c0-0.3,0-0.5,0-0.7c0.4-1.1,0.7-2.6,0.1-3.9c-0.5-1.2-1.9-2.7-3.7-3.6
							c-1.8-0.8-4.3-0.4-5.3-0.2c-1,0.2-3.3,1.4-4.2,3.6c-0.5,1.3-0.2,2.9,0.2,4c0,0.3,0,0.5,0,0.8c-0.5,0.3-1.1,1.1-0.8,2.5
							c0.4,1.8,1.1,2.4,1.7,2.6c0.2,0.6,0.6,1.7,1.4,2.6c0,0.1,0.1,0.1,0.1,0.2l-0.1,1.4l-1.6,0.5c-0.3,0.1-0.7,0.2-1.1,0.3
							c-1.6,0.4-3.5,0.8-4.5,1.6c-1.6,1.3-2,3.6-2.1,8.3c-0.1,1.4-0.1,2.4-0.2,3.2c-0.1,1-0.1,1.6-0.1,2.2l0,0.4H606l0-0.4
							C606,397.9,606,396.2,605.9,392.6z M584.8,398h-5.2c0-0.4,0-0.9,0.1-1.6c0-0.8,0.1-1.8,0.2-3.2c0.2-4.4,0.5-6.6,1.8-7.7
							c0.4-0.3,1.1-0.6,1.9-0.8c0.4,1.1,1.3,4,1.4,6.4C584.9,393.3,584.8,396.8,584.8,398z M587.6,377.8l-0.1-0.3h-0.3
							c-0.7,0-1.1-1.2-1.2-1.9c-0.3-1.2,0.5-1.6,0.6-1.6l0.3-0.1l0-0.3c0-0.4-0.1-0.8-0.1-1.2c0.1-0.3,0.3-0.6,0.5-0.9
							c0.5-0.5,1.9-0.1,4.9-0.8c3-0.7,2.7-2.1,2.7-2.1s1.8,1.1,2.4,2.2c0.3,0.5,0.5,1.2,0.6,1.9c0,0.3,0,0.6-0.1,1l0,0.3l0.3,0.1
							c0,0,0,0,0.1,0c0,0,0,0,0,0s0,0,0,0c0.2,0.1,0.7,0.5,0.5,1.6c-0.1,0.7-0.5,1.9-1.2,1.9h-0.3l-0.1,0.3c0,0-0.3,1.1-0.9,2.1
							c-0.1,0.2-0.2,0.3-0.3,0.5c0,0,0,0,0,0c0,0,0,0,0,0c-0.1,0.2-0.3,0.3-0.4,0.5c-1.1,1.2-2.1,1.7-3.1,1.8
							c-0.8,0-1.7-0.5-2.6-1.3c-0.1-0.1-0.3-0.3-0.4-0.4c-0.1-0.1-0.1-0.1-0.2-0.2c-0.1-0.1-0.1-0.2-0.2-0.2c0,0-0.1-0.1-0.1-0.1
							C588,379.4,587.6,377.9,587.6,377.8z M587.8,383.6l0.4-0.1l0.2-0.1l0.2,0l0.7,0.5l2,1.4l0.4,0.2l-0.3,0.2l-0.3,0.3l-0.4,0.3
							l-0.4,0.3l-0.6,0.6l-1.2-1.9l-1.1-1.7L587.8,383.6z M591.2,388.7l0,3.4c-1.6-0.9-2.8-3.3-3.6-5.4c-0.3-0.9-0.6-1.7-0.8-2.3
							c0-0.1,0-0.1,0-0.1l0.1,0.1l2,3.2l0.7,1.1l0.5-0.4l1.1-1l0.7,0.7L591.2,388.7L591.2,388.7z M589.2,382.6l0-0.7
							c1.1,1,2.1,1.5,3.1,1.5l0,0l0,0c1.1-0.1,2.2-0.6,3.4-1.8l0,0.9l-3.4,2.3L589.2,382.6z M593.4,385.3l2.6-1.8l0.3-0.2l0,0
							l0.4,0.1l0,0l0.2,0.1l0.5,0.1l-0.1,0.1l-0.2,0.4l-2,3.1l-0.7-0.6l-0.4-0.3l-0.4-0.3l-0.2-0.2l-0.3-0.3L593.4,385.3z
							 M597.5,385.5c-0.2,0.5-0.4,1.1-0.6,1.7c-0.7,1.8-1.7,3.7-3,4.6l0.1-3.2l0-0.1l-0.6-0.7l0.6-0.6l1,0.9l0.4,0.4l0.6-0.9
							l1.5-2.4l0.3-0.4C597.6,385.1,597.5,385.3,597.5,385.5z M605.1,398H600c0-1.2-0.1-4.7,0-6.9c0-2.4,1-5.3,1.4-6.4
							c0.7,0.2,1.4,0.5,1.7,0.8c1.3,1.1,1.8,2.7,2,7.1C605.1,395.6,605.1,397.2,605.1,398z"/>
						<path fill="#3C3C3B" d="M590.2,378.9c0.1,0.6,0.5,1.1,1.1,1.4c0.3,0.2,0.7,0.2,1,0.2c0.5,0,1-0.2,1.3-0.4
							c0.4-0.3,0.7-0.7,0.8-1.2H590.2z M591.1,379.4l2.4,0c-0.1,0.5-0.8,0.7-1.2,0.7C591.9,380,591.3,379.9,591.1,379.4z"/>
						<ellipse fill="#3C3C3B" cx="589.5" cy="374.9" rx="0.7" ry="0.8"/>
						<ellipse fill="#3C3C3B" cx="595" cy="374.9" rx="0.7" ry="0.8"/>
					</g>
					<g>
						<path fill="#3C3C3B" d="M244.6,372.8C244.6,372.8,244.6,372.8,244.6,372.8C244.6,372.8,244.6,372.9,244.6,372.8
							C244.6,372.8,244.6,372.8,244.6,372.8z"/>
						<path fill="#3C3C3B" d="M249.8,388l-0.9-1l-1.5,1l-2.1-4.3c-1.7,0.5-5.9,1.1-7.4,2c-1.1,0.7-2.2,2.6-2.4,7.1
							c-0.1,3.3-0.2,5.3-0.3,6.1h14.3l-0.3-10.3L249.8,388z"/>
						<path fill="#3C3C3B" d="M252.2,387l-0.9,1l0,0l0.6,0.7l-0.3,10.3H266c0-0.8-0.1-2.8-0.3-6.1c-0.2-4.5-1.3-6.5-2.4-7.1
							c-1.5-0.9-5.9-1.5-7.5-2l-2,4.3L252.2,387z"/>
						<polygon fill="#3C3C3B" points="251.3,388 251.3,388 251.3,388 						"/>
						<path fill="#3C3C3B" d="M257,372.7c0.1-0.7,0.1-1.3,0-1.9l0.3-2c0,0,0.2-0.3,0.1-0.9c-0.1-0.6-0.9-1.5-1.1-1.8
							c-0.2-0.3-0.9-1.3-1.9-2.2c-1-0.9-1.6-1.5-3.2-1.9c-1.6-0.5-3-0.1-4.4,0.7c-1.4,0.8-0.8,2.4-0.8,2.4s-1,0.3-1.7,0.9
							c-0.7,0.7-0.8,1.7-0.9,3.2c0,0.6,0.1,1.3,0.3,2c0,0.5,0,1,0.1,1.5c-0.5,0.3-1.2,1.1-0.9,2.4c0.3,1.2,1.2,2.2,2.2,2.3
							c0.1,0.6,0.5,1.8,1.3,2.9c-0.1,0.6-0.2,1.8-0.3,2.4c0,0,0,0,0,0l-0.2,0.4l1.8,3.7l0.8-0.5l0.4-0.2l0.4-0.2l1.2-0.7l-3.4-2.8
							c0-0.4,0.1-0.7,0.1-1.1c0.7,0.6,1.8,1,3.2,1l0,0l0,0c1.4-0.1,2.6-0.5,3.3-1.1c0.1-0.1,0.2-0.2,0.3-0.3c0,0.5,0.1,1,0.1,1.5
							l0,0c0,0-3.4,2.8-3.4,2.8l0,0l1.2,0.8l0.4,0.2l0.4,0.2l0.8,0.5l1.8-3.8l-0.2-0.3l0,0c-0.1-0.8-0.2-2.5-0.3-3
							c0.5-0.8,0.7-1.6,0.8-2c1.1-0.2,2.1-1.5,2.3-2.7C258.2,373.9,257.6,373.1,257,372.7z M244.6,372.8c0-0.5,0.2-1.1,0.1-1.4
							c0-0.7,0-1.9,0.4-2.4c0.4-0.5,1.2-1.1,2.3-1.3c1.1-0.2,2.5,0.3,2.5,0.3s0.4-0.8,1.3-1c1.3-0.3,3.2,0.8,4.2,1.6
							c0.3,0.4,0.5,0.9,0.6,1.4c0,0.8,0,2.1,0,2.8c-0.1,0.1-0.1,0.2-0.2,0.2c-0.2,0.1-0.4,0-0.4,0s-0.5-0.6-0.9-0.8
							c-0.5-0.2-0.9-0.3-1.4-0.3c-0.7,0-1.6,0.3-2,0.6c-0.1,0.1-0.3,0.2-0.3,0.2l-0.6,0l-0.6,0c0,0-0.2-0.1-0.3-0.2
							c-0.4-0.2-1.2-0.6-2-0.6c-0.5,0-0.9,0.1-1.4,0.3c-0.5,0.2-0.9,0.8-0.9,0.8s-0.2,0.1-0.4,0C244.8,373,244.7,372.9,244.6,372.8
							C244.6,372.9,244.6,372.8,244.6,372.8C244.6,372.8,244.6,372.8,244.6,372.8z M255.1,374.5c-0.2,0.4-0.7,1.2-1.9,1.2
							c-1.3,0-1.8-0.7-2-1.5c-0.2-0.8,0.1-1.2,0.3-1.4c0.2-0.2,1.5-0.9,2.9-0.4c0,0,0.5,0.2,0.7,0.5
							C255.3,373.3,255.2,374.1,255.1,374.5z M249.6,374.2c-0.2,0.8-0.8,1.4-2,1.5c-1.2,0-1.8-0.8-1.9-1.2c-0.2-0.4-0.2-1.1,0-1.5
							c0.2-0.4,0.7-0.5,0.7-0.5c1.4-0.5,2.7,0.2,2.9,0.4C249.5,373,249.8,373.4,249.6,374.2z M257,375c-0.2,1-1.1,2-1.8,2l-0.4,0
							l-0.1,0.4c0,0-0.2,1-0.8,2.1c-0.1,0.2-0.2,0.3-0.3,0.5c-0.1,0.2-0.2,0.3-0.4,0.5c-0.1,0.1-0.2,0.2-0.3,0.3
							c-0.5,0.5-1.5,0.8-2.7,0.9c-1.2-0.1-2.2-0.4-2.7-0.9c0,0-0.1-0.1-0.1-0.1c-0.1-0.1-0.3-0.3-0.4-0.4c-0.1-0.1-0.2-0.3-0.3-0.4
							c-0.8-1.2-1-2.6-1-2.6l-0.1-0.4h-0.4c-0.8,0-1.5-0.7-1.7-1.7c-0.3-1.2,0.5-1.5,0.6-1.6l0.1,0c0,0,0.1,0.1,0.1,0.1v0
							c0,0,0.3,0.1,0.3,0.1c0.1,0.1,0.1,0.1,0.2,0.3c0.1,0.1,0.3,0.8,0.6,1.1c0.2,0.2,0.8,0.7,1.4,0.8c0.9,0.1,1.7,0,2.3-0.6
							c0.7-0.7,0.6-1.5,0.6-1.7c0-0.2,0.1-0.3,0.2-0.3c0.1-0.1,0.3-0.1,0.3-0.1s0.2,0,0.3,0.1c0.1,0.1,0.1,0.2,0.2,0.3
							c0,0.2,0,1,0.6,1.7c0.5,0.6,1.4,0.7,2.3,0.6c0.6-0.1,1.1-0.6,1.4-0.8c0.3-0.3,0.5-1,0.6-1.1c0.1-0.1,0.1-0.2,0.2-0.3
							c0,0,0.2-0.2,0.4-0.3l0.2,0.1C256.4,373.4,257.3,373.7,257,375z"/>
						<ellipse fill="#3C3C3B" cx="247.6" cy="373.9" rx="0.6" ry="0.7"/>
						<ellipse fill="#3C3C3B" cx="253.1" cy="373.9" rx="0.6" ry="0.7"/>
						<path fill="#3C3C3B" d="M251.8,378.2h-2.9c-0.1,0-0.2,0.1-0.2,0.2s0.1,0.2,0.2,0.2h2.9c0.1,0,0.2-0.1,0.2-0.2
							S251.9,378.2,251.8,378.2z"/>
					</g>
					<g>
						<rect x="433.3" y="398.9" fill="#3C3C3B" width="7.3" height="0"/>
						<ellipse fill="#3C3C3B" cx="434.1" cy="373.8" rx="0.6" ry="0.7"/>
						<ellipse fill="#3C3C3B" cx="439.7" cy="373.8" rx="0.6" ry="0.7"/>
						<path fill="#3C3C3B" d="M435.4,379h2.9c0.1,0,0.2-0.1,0.2-0.2c0-0.1-0.1-0.2-0.2-0.2h-2.9c-0.1,0-0.2,0.1-0.2,0.2
							C435.2,378.9,435.3,379,435.4,379z"/>
						<path fill="#3C3C3B" d="M452.1,392.8c-0.2-4.5-1.3-6.5-2.4-7.1c-1.5-0.9-5.5-1.5-7.3-2l-1.5,4.4l-1.1-1.1l-1-1l-0.4-0.4
							c-1.4,0.4-2.4,0.1-2.8-0.1l-0.4,0.4l-0.8,0.8l-1.3,1.3l-1.5-4.4c-1.8,0.5-5.8,1-7.2,1.9c-1.1,0.7-2.2,2.6-2.4,7.1
							c-0.1,3.3-0.2,5.3-0.3,6.1h11.6h7.3h11.8C452.3,398.1,452.2,396.1,452.1,392.8z M434.9,398l0.7-11.6c0.4,0.1,0.8,0.2,1.5,0.2
							c0.4,0,0.9-0.1,1.5-0.2l0.7,11.6H434.9z"/>
						<path fill="#3C3C3B" d="M443.6,372.7c0.1-0.7,0.1-1.4,0-2c0-1.5-0.6-2.7-0.8-3.2c0.3-0.2,0.6-0.3,0.6-0.4
							c0.1-0.3-0.1-0.2-1.6-1.4s-4.1-2.2-7.3-1.8s-4.1,2.3-4.3,3.7c-0.1,1.2-0.1,2.2,0,3.1c-0.1,0.6,0,1.2,0,1.9
							c-0.5,0.3-1.2,1.1-0.9,2.4c0.3,1.2,1.2,2.2,2.2,2.3c0.1,0.6,0.5,1.9,1.3,3l-0.4,2.5l-0.2,0.3v0l1.1,3.2l1.8-1.8l0.1-0.1
							l-1.9-2l0.2-1.2c0.7,0.6,1.8,0.9,3.2,1l0,0l0,0c1.4-0.1,2.6-0.5,3.3-1.1c0,0,0,0,0.1-0.1l0.2,1.4l-1.8,2l0.1,0.1l1.8,1.8
							l1.1-3.3l-0.2-0.4l-0.4-2.5c0.7-0.9,1-1.9,1.1-2.4c1.1-0.2,2.1-1.5,2.3-2.7C444.7,373.8,444.1,373.1,443.6,372.7z M432,369.2
							c0.3-0.6,0.7-1.1,1.2-1.4c0.6-0.4,3.7,2.5,6.9,0.9c0.5-0.2,0.9-0.4,1.3-0.6c0.2,0.8,1,3.6,0.9,4.6l0,0c0,0-0.8-0.2-1.7-0.3
							c-1-0.1-2.3,0.1-2.7,0.2c-0.4,0.1-1.1,0.1-1.1,0.1s-0.7,0-1.1-0.1c-0.4-0.1-1.7-0.2-2.7-0.2c-0.6,0-1.1,0.1-1.4,0.2
							C431.6,371.7,431.7,369.7,432,369.2z M441.4,374.5c-0.1,0.6-0.4,1.3-0.8,1.5c-0.4,0.2-1.5,0.3-2,0c-0.6-0.3-1.1-0.8-1.1-1.8
							c0-0.8,0.4-1,0.8-1.2c0.3-0.1,1.2-0.2,1.6-0.1c0,0,0.9,0,1.4,0.3C441.7,373.3,441.5,374.1,441.4,374.5z M435.9,374.1
							c0,1-0.5,1.4-1.1,1.8c-0.5,0.3-1.5,0.3-2,0c-0.4-0.2-0.7-0.9-0.8-1.5c-0.1-0.4-0.3-1.1,0-1.3c0.6-0.3,1.4-0.3,1.4-0.3
							c0.5,0,1.3,0,1.6,0.1C435.5,373.1,435.9,373.3,435.9,374.1z M443.6,375c-0.2,1-1.1,2-1.8,2l-0.4,0l-0.1,0.4c0,0-0.4,2-1.7,3.2
							c-0.5,0.5-1.5,0.8-2.7,0.9c-1.2-0.1-2.2-0.4-2.7-0.9c-1.4-1.2-1.8-3.6-1.8-3.6l-0.1-0.4H432c-0.8,0-1.5-0.7-1.7-1.7
							c-0.2-0.9,0.2-1.3,0.5-1.5l0.6,0.1c0.1,0,0.2,0.1,0.3,0.2c0,0.2,0.1,1.2,0.6,1.9c0.3,0.4,0.7,0.7,1.7,0.7c0.7,0,1.5-0.3,1.9-1
							c0.4-0.7,0.5-1.3,0.6-1.5c0.1-0.1,0.3-0.2,0.4-0.2c0.1,0,0.2,0,0.4,0.2c0.1,0.1,0.1,0.7,0.6,1.5c0.4,0.7,1.2,1,1.9,1
							c1,0,1.4-0.3,1.7-0.7c0.5-0.7,0.5-1.7,0.6-1.9c0-0.1,0.2-0.2,0.3-0.2l0.9-0.1v0c0,0,0-0.1,0-0.1
							C443.2,373.5,443.8,373.9,443.6,375z"/>
					</g>
					<g>
						<path fill="#3C3C3B" d="M403.4,378.9c0.1,0.5,0.6,1,1.2,1.2c0.3,0.1,0.6,0.2,0.9,0.2c0.3,0,0.7-0.1,0.9-0.2
							c0.6-0.2,1.1-0.7,1.2-1.2H403.4z M405.5,379.7c-0.4,0-1-0.1-1.2-0.5h2.3C406.4,379.7,405.7,379.7,405.5,379.7z"/>
						<ellipse fill="#3C3C3B" cx="402.7" cy="374.6" rx="0.7" ry="0.8"/>
						<ellipse fill="#3C3C3B" cx="408.2" cy="374.6" rx="0.7" ry="0.8"/>
						<path fill="#3C3C3B" d="M418.7,392.9c-0.2-4.6-1.3-6.3-3.2-7.6c-0.7-0.5-1.6-0.7-2.6-0.9c1-3.2,0.9-7.6,0.7-10.7
							c-0.1-2.2-0.1-5.2-3-8.1c-2.8-2.9-5.3-2-5.3-2s-2.5-0.9-5.3,2c-2.8,2.9-2.8,5.9-3,8.1c-0.2,3.1-0.3,7.6,0.7,10.8
							c-0.9,0.2-1.8,0.5-2.4,0.9c-1.9,1.3-3,3-3.2,7.6c-0.1,2.5-0.1,4.5,0,5.7l0,0.3h26.6l0-0.3
							C418.7,397.4,418.8,395.4,418.7,392.9z M399,374.4c0-0.1,0-0.2,0.1-0.3c0.1-0.2,0.2-0.3,0.4-0.4c0.1-0.1,0.3-0.2,0.4-0.2
							c0-0.3,0-0.7,0-1c0.2-0.1,0.5-0.1,0.8-0.2c0.1-0.5,0.4-1.7,0.7-2l0.3,1.8c2.3-0.4,5.7-0.7,9.2,0.3c0,0.3,0,0.7,0,1
							c0.1,0,0.3,0.1,0.4,0.2c0.2,0.1,0.3,0.3,0.4,0.6c0,0.1,0,0.1,0,0.2c0.1,0.9-0.1,1.4-0.3,1.8c-0.1,0.1-0.2,0.2-0.2,0.3
							c-0.1,0.1-0.2,0.2-0.3,0.2c-0.2,0.1-0.3,0.1-0.5,0.1c-0.2,0.8-0.4,1.3-0.5,1.6c-0.4,1.1-1.2,1.8-1.9,2.4
							c-0.1,0.1-0.2,0.1-0.3,0.2c-0.1,0.1-0.2,0.1-0.3,0.2c-0.2,0.1-0.3,0.2-0.5,0.3c-0.2,0.1-0.9,0.4-1.5,0.4
							c-0.6,0-1.3-0.3-1.5-0.4c-0.2-0.1-0.4-0.2-0.7-0.4c-0.1-0.1-0.2-0.1-0.3-0.2c-0.1-0.1-0.2-0.1-0.3-0.2
							c-0.6-0.5-1.3-1.3-1.7-2.2c-0.1-0.3-0.3-0.9-0.5-1.6c-0.1,0-0.3,0-0.5-0.1c-0.2-0.1-0.3-0.1-0.4-0.2c0,0-0.1-0.1-0.1-0.1
							C399.1,376,398.9,375.5,399,374.4z M405.5,388.8c-0.1,0-4.2-1.7-6.4-3.1c-0.4-0.2-0.7-0.5-0.9-0.7c0.4-0.1,0.9-0.1,1.3-0.2
							c1.7-0.3,3.1-0.5,3.3-1.4c0.1-0.5,0.2-0.9,0.3-1.4c0.2,0.1,0.3,0.2,0.5,0.3c0.4,0.2,1.1,0.5,1.9,0.5c0,0,0,0,0.1,0
							c0.8,0,1.5-0.3,1.9-0.5c0.1,0,0.2-0.1,0.3-0.1c0.1,0.4,0.2,0.9,0.3,1.3c0.2,0.9,1.6,1.1,3.3,1.4c0.5,0.1,0.9,0.1,1.4,0.2
							c0.2,0,0.4,0.1,0.6,0.1C410.1,387.7,406.8,388.1,405.5,388.8z"/>
					</g>
					<g>
						<path fill="#3C3C3B" d="M370.6,384.7L370.6,384.7C370.6,384.7,370.6,384.7,370.6,384.7C370.6,384.7,370.6,384.7,370.6,384.7
							L370.6,384.7z"/>
						<path fill="#3C3C3B" d="M362.9,396.8c0,0.8,0,1.5,0.1,2.1h0.1c0-0.1,0-0.2,0-0.3C363,398.3,362.9,397.6,362.9,396.8z"/>
						<path fill="#3C3C3B" d="M363,398.9L363,398.9c0,0,0-0.1,0-0.3C363,398.7,363,398.8,363,398.9z"/>
						<path fill="#3C3C3B" d="M388.5,389.9c-0.6-2.4-2.4-4.1-3.7-4.7c-0.7-0.3-1.8-0.5-2.6-0.6c1.9-0.5,3.2-1.3,3.2-2.3
							c0-0.7-3.2,0.3-1.3-4.4c1-2.6,0.9-5.1-0.9-9.3c-1.8-4.4-7.2-4.5-7.2-4.5s-5.4,0.1-7.2,4.5c-1.7,4.2-1.9,6.7-0.9,9.3
							c1.9,4.7-1.3,3.8-1.3,4.4c0.1,1.1,1.5,1.9,3.7,2.4c-0.7,0-2.1,0.2-3.1,0.5c-1.6,0.6-3.7,2.9-4.2,5.3c-0.3,1.5-0.2,4.3-0.1,6.3
							c0,0.8,0.1,1.4,0.1,1.8c0,0.2,0,0.3,0,0.3h8.2l-1.6-6.6l1.6-1.2l-1.9-0.9c-0.1-1.3,0.3-2.7,0.7-3.8c0.3-0.8,0.6-1.5,0.7-1.7
							c0,0,0-0.1,0-0.1l0.1,0c0,0,0,0,0,0c0,0,0,0,0,0l1.2-0.3c0,0,0,0,0,0.1c0,0.2,0,0.4,0,0.6c0,0.8,0.1,1.9,0.2,3
							c0,0.6,0.7,10.9,0.7,10.9h6.2c0,0,0.7-10.2,0.7-10.7c0.1-1.1,0.1-2.3,0.2-3.2c0-0.3,0-0.5,0-0.7c0-0.1,0-0.1,0-0.2l1,0.2
							l0.1,0c0,0,0,0.1,0.1,0.2c0,0,0.1,0.1,0.1,0.2c0.2,0.4,0.6,1.2,0.9,2.1c0.3,1,0.6,2.2,0.6,3.3l-1.9,0.9l1.6,1.2l-1.6,6.6h8.3
							h0.2C389,398.9,389.1,392.2,388.5,389.9z M378.9,383.8c0,0,0,0.5,0,1.3c0,1-0.1,2.3-0.2,3.5c-2.3,0.8-4.2,0.5-5.8-0.1
							c-0.1-1.1-0.2-2.4-0.2-3.3c0-0.4,0-0.8,0-1c0.2-0.1,0.3-0.3,0.4-0.5c0.1-0.5,0.2-1,0.3-1.4c0.2,0.2,0.5,0.3,0.7,0.4
							c0.4,0.2,1.2,0.5,2.1,0.5c0,0,0,0,0.1,0c0.8,0,1.6-0.3,2-0.5c0.1-0.1,0.3-0.2,0.5-0.3c0.1,0.4,0.2,0.9,0.3,1.3
							c0,0,0,0.1,0,0.1C379,383.8,378.9,383.8,378.9,383.8z M381,378.7c-0.6,1.3-1.6,2.2-2.5,2.7c-0.3,0.2-0.5,0.3-0.7,0.4
							c-0.3,0.1-1,0.4-1.6,0.4l0,0l0,0c-0.7,0-1.4-0.3-1.6-0.4c-0.3-0.1-0.6-0.3-0.9-0.5c-0.8-0.5-1.8-1.4-2.3-2.6
							c-0.2-0.5-0.7-1.7-0.9-3.2c0.6-1.5,2.5-2.6,4.5-3.6c2-1,3-1.8,3.5-2.4c0.5,1.7,1.6,4.5,3.6,5.9
							C381.6,377,381.2,378.2,381,378.7z"/>
						<ellipse fill="#3C3C3B" cx="373.2" cy="374.8" rx="0.7" ry="0.9"/>
						<ellipse fill="#3C3C3B" cx="378.7" cy="374.8" rx="0.7" ry="0.9"/>
						<path fill="#3C3C3B" d="M374,379.1c0.2,0.8,1,1.4,2.1,1.4c1.1,0,2-0.6,2.1-1.4H374z M376.1,380c-0.4,0-1-0.1-1.2-0.5h2.3
							C377.1,380,376.3,380,376.1,380z"/>
					</g>
					<g>
						<path fill="#3C3C3B" d="M575.5,392.7l0.2,0c0,0-0.5-2.6-0.8-3.5c-0.1-0.2-0.2-0.5-0.4-0.8c-0.6-1.2-1.3-2-2.3-2.7
							c-1.1-0.8-2.8-1-4.2-1.3c-0.4-0.1-0.8-0.1-1.1-0.2c0-0.4,0-1,0.1-1.6c0.2-1.2,0.6-2.3,0.4-2.8c0,0,0.6,0.7,0.8,1.2
							c0,0.1,0.2,0.1,0.2,0c0.3-0.6,0.5-1.5,0.2-2.2c-0.3-0.9-0.3-1.1-0.2-1.2s0.3,0,0.6,0.2c0.3,0.2,0.8,1.2,0.9,1.2
							c0.3,0,1.1-3.4,0.9-5c-0.2-1.4-0.9-5.8-2.5-7.4c-1.2-1.3-5.7-5.1-9.6-2c0,0-1.3-0.6-2.6,0.4c-1.3,1-3.1,4.1-3.2,6.1
							c-0.1,2.1,0.5,5.3,0.7,6.1s-0.1,2.1-0.1,2.1s0.9-0.6,1.1-1.4c0-0.1,0-0.2,0-0.3c0.1-1,0.8,1.6,0,2.7c0,0,0.7,0.7,1.2-0.3
							c0,0,0.2,2.9,0.9,4c-0.4,0.1-0.7,0.1-1.1,0.2c-1.5,0.2-3.2,0.5-4.2,1.3c-0.9,0.6-1.6,1.3-2.2,2.4c-0.2,0.4-0.4,0.8-0.6,1.1
							c-0.3,0.9-0.8,3.5-0.8,3.5l0.2,0c0,0.3,0,0.6-0.1,1c-0.1,1.7-0.1,3.3-0.1,4.8l0,0.4h27.3l0-0.4c0-1.5,0-3.1-0.1-4.8
							C575.5,393.3,575.5,393,575.5,392.7z M557.5,372.1L557.5,372.1c0.1-0.5,0.4-1.7,0.7-2l0.3,1.8c2.3-0.4,5.9-0.7,8.1,0
							c0.3,0.1,0.7,0.6,0.9,1c-0.3-0.1-1-0.2-1.8-0.2c-1.5,0-2.5,0.3-2.7,0.3c-0.2,0-0.6,0.1-0.6,0.1s-0.4-0.1-0.6-0.1
							c-0.2,0-1.2-0.3-2.7-0.3c-1,0-1.6,0.1-1.9,0.2C557.2,372.6,557.4,372.2,557.5,372.1z M564.9,374.4c0.4,0,0.7-0.3,0.7-0.8
							c0-0.3-0.1-0.5-0.3-0.6c0.4,0,0.9,0,1.2,0c0,0,0.5,0.1,0.7,0.2c0.1,0.2,0.1,0.7-0.1,1.2c-0.2,0.5-0.4,0.7-0.7,0.8
							c-0.4,0.1-1.4,0.2-2.2,0c-0.8-0.2-1.1-0.4-1.2-1c-0.1-0.7-0.1-0.9,0.2-1c0.2-0.1,0.6-0.1,1.2-0.2c-0.1,0.1-0.2,0.3-0.2,0.6
							C564.2,374,564.5,374.4,564.9,374.4z M559.4,374.4c0.4,0,0.7-0.3,0.7-0.8c0-0.2-0.1-0.4-0.2-0.6c0.7,0.1,1.4,0.2,1.5,0.2
							c0.3,0.1,0.3,0.3,0.2,1c-0.1,0.7-0.4,0.9-1.2,1c-0.8,0.2-1.8,0-2.2,0c-0.3-0.1-0.5-0.3-0.7-0.8c-0.2-0.5-0.2-1-0.1-1.2
							c0.1-0.2,0.7-0.2,0.7-0.2c0.3,0,0.6,0,1,0c-0.2,0.1-0.3,0.4-0.3,0.6C558.7,374,559,374.4,559.4,374.4z M556.8,377
							c-0.2,0-0.3-0.1-0.5-0.1c-0.1,0-0.2-0.1-0.3-0.2c-0.3-0.4-0.6-0.9-0.6-2.1c0-0.3,0.2-0.5,0.3-0.6c0.1-0.1,0.3-0.2,0.4-0.2
							c0.2-0.1,0.4-0.1,0.4-0.1c0,0,0,0,0,0l0.2,0c0,0.1,0,0.1,0.1,0.2c0.1,0.1,0.2,0.2,0.3,0.4c0.1,0.1,0.2,0.6,0.4,0.9
							c0.2,0.3,0.5,0.5,1.9,0.5c1.2,0,1.8-0.3,2-0.5c0.2-0.3,0.3-0.9,0.5-1.1c0.1-0.1,0.3-0.2,0.3-0.2c0.1,0,0.2,0.1,0.3,0.2
							c0.1,0.1,0.2,0.8,0.5,1.1c0.2,0.2,0.7,0.6,2,0.5c1.5,0,1.7-0.2,1.9-0.5c0.3-0.4,0.4-0.8,0.4-0.9c0-0.1,0.1-0.1,0.1-0.2
							c0,0,0,0,0-0.1c0,0,0.1-0.1,0.1-0.1c0,0,0.1-0.1,0.1-0.2c0,0,0,0,0,0c0,0,0.1,0,0.1,0c0,0,0.1,0,0.2,0.1
							c0.1,0.1,0.3,0.1,0.4,0.3c0.2,0.1,0.3,0.3,0.3,0.6c0.1,1.2-0.2,1.7-0.6,2.1c-0.1,0.1-0.1,0.1-0.2,0.1
							c-0.1,0.1-0.3,0.1-0.5,0.1c-0.2,0-0.4,0-0.5,0c-0.2,0.6-0.4,1.1-0.5,1.4c-0.4,1.1-1.2,1.9-1.9,2.4c-0.1,0.1-0.3,0.2-0.4,0.3
							c-0.2,0.1-0.4,0.2-0.5,0.3c0,0-0.1,0-0.1,0.1c-0.2,0.1-0.9,0.4-1.5,0.4c-0.6,0-1.3-0.3-1.5-0.4c0,0-0.1,0-0.1-0.1
							c-0.2-0.1-0.5-0.3-0.7-0.4c-0.2-0.1-0.4-0.3-0.6-0.4c-0.6-0.5-1.2-1.2-1.6-2.1c-0.1-0.3-0.3-0.7-0.4-1.2
							C557.1,377,557,377,556.8,377z M549.1,398c0-1.4,0-2.8,0.1-4.3c0-0.4,0-0.7,0.1-1l3.6,0c-0.4,2-0.2,3.5,0.1,5.3H549.1z
							 M568.6,387.8c-0.4,0.6-3.4,3.5-6.6,3.3c-3.2,0.2-6.3-2.9-6.7-3.4c-0.3-0.4-0.4-1.4-0.5-2c0.4-0.1,0.8-0.1,1.2-0.2
							c0.9-0.1,1.6-0.3,2.2-0.5c0.6-0.2,1.1-0.5,1.2-1c0.2-0.7,0.3-1.4,0.4-2c0.1,0.1,0.3,0.2,0.4,0.2c0.4,0.2,1.1,0.5,1.9,0.5
							c0,0,0,0,0.1,0c0.8,0,1.6-0.3,2-0.5c0,0,0,0,0,0c0.1,0.5,0.2,1.2,0.4,1.8c0.1,0.5,0.6,0.8,1.2,1.1c0.6,0.2,1.3,0.3,2.2,0.4
							c0.4,0.1,0.7,0.1,1.1,0.2C568.9,386.2,568.8,387.4,568.6,387.8z M574.7,398h-3.9c0.3-1.8,0.5-3.4,0.1-5.3l3.6,0
							c0,0.3,0,0.7,0.1,1C574.7,395.2,574.8,396.6,574.7,398z"/>
						<path fill="#3C3C3B" d="M564.1,378.4c0,0-1.3,0.2-1.9,0.2s-1.9-0.2-1.9-0.2c-0.1,0-0.2,0.1-0.1,0.2c0.1,0.3,0.4,0.6,0.6,0.7
							c0.4,0.2,0.9,0.4,1.4,0.4c0.5,0,1-0.1,1.4-0.4c0.2-0.1,0.5-0.4,0.6-0.7C564.2,378.4,564.2,378.4,564.1,378.4z"/>
					</g>
					<g>
						<path fill="#3C3C3B" d="M311.3,384.7c0,0-0.1,0-0.1,0C311.2,384.7,311.2,384.7,311.3,384.7
							C311.3,384.7,311.3,384.7,311.3,384.7z"/>
						<path fill="#3C3C3B" d="M310.6,392.4l1.6-1.2l-1.9-0.9c0-1.2,0.2-2.3,0.4-3.2c0.3-1.1,0.8-1.9,0.9-2.2c0,0,0,0,0.1-0.1
							c-0.1,0-0.2-0.1-0.3-0.1c0,0-0.1,0-0.1,0c-0.7,0-2.1,0.1-3,0.5c-0.3,0.1-1.1,0.6-1.1,0.6c-1.7,1.2-2.9,2.7-3.1,7.3
							c-0.1,2.5-0.1,4.5,0,5.7h0.1h8.1L310.6,392.4z"/>
						<path fill="#3C3C3B" d="M329.4,390c-0.3-2.4-2.4-4.1-3.7-4.7c-1.1-0.5-3.1-0.7-3.7-0.8c0.7-0.7,1.3-1.5,1.7-2.3
							c0.7-1.5,2.3-6,0.7-11.2c-0.7-2.4-4.2-7.2-7.6-5.5c0,0-4.9-0.6-6.8,2.7c-1.9,3.2-3.7,8.6-2.9,11.3c0.7,2.4,1.6,2.9,2.7,4.1
							c0.4,0.4,0.9,0.8,1.5,1.1c0,0,0,0,0,0c0.1,0,0.2,0.1,0.3,0.1c0,0,0.1,0,0.1,0c0.4,0.2,0.8,0.4,1.1,0.6
							c0.1,0.8,0.1,1.8,0.2,2.8c0.1,0.6,0.7,10.7,0.7,10.7h6.1c0,0,0.8-12.5,0.8-13.2c0.3-0.3,0.7-0.6,1-1c0,0,0,0,0.1-0.1
							c0.1,0.1,0.2,0.1,0.3,0.2c0.2,0.3,0.6,1.1,1,2.3c0.2,0.9,0.4,1.9,0.4,3l-1.9,0.9l1.6,1.2l-1.6,6.5h8.3h0.2
							C329.9,398.9,329.7,392,329.4,390z M319.6,384.5c-0.1,0.1-0.1,0.3-0.2,0.4c-0.4,1.1,0.2,1.7,0.2,1.7s0.1,0,0.1-0.1
							c0,0.7-0.1,1.6-0.2,2.4c-0.9,0.4-1.8,0.7-2.3,0.7c-0.7,0-1.9-0.4-3.3-1c-0.1-0.9-0.2-1.9-0.2-2.8c0.2,0.1,0.3,0.1,0.3,0.1
							s0.5-0.3,0.4-1.1c0-0.3-0.1-0.6-0.4-1.1c0-0.1,0.1-0.1,0.1-0.2c0.1-0.5,0.2-1,0.3-1.5c0.3,0.2,0.5,0.3,0.8,0.5
							c0.4,0.2,1.1,0.5,1.9,0.5c0,0,0,0,0.1,0c0.8,0,1.6-0.3,2-0.5c0.2-0.1,0.4-0.2,0.6-0.3c0.1,0.4,0.2,0.9,0.3,1.3
							C319.8,384,319.6,384.4,319.6,384.5z M321.5,377c-0.1,0.8-0.2,1.5-0.3,2.3c0,0.2-0.1,0.4-0.1,0.5c-0.5,0.7-1.1,1.2-1.6,1.5
							c-0.3,0.2-0.6,0.4-0.8,0.5c-0.2,0.1-0.9,0.4-1.5,0.4c-0.6,0-1.3-0.3-1.5-0.4c-0.3-0.1-0.6-0.4-1-0.6c-0.6-0.4-1.2-1.1-1.7-1.9
							c-0.1-0.2-0.2-0.4-0.3-0.6c-0.1-0.3-0.4-1-0.6-1.8c0.1-1.4,0.9-3.2,1.7-4.1c2.2-2.6,1.9-4.7,3.4-4.6c0,0,2.1,0.4,3.1,2.3
							C321.2,372.5,321.7,373.6,321.5,377z"/>
						<ellipse fill="#3C3C3B" cx="314.4" cy="374.8" rx="0.7" ry="0.8"/>
						<ellipse fill="#3C3C3B" cx="319.3" cy="374.8" rx="0.7" ry="0.8"/>
						<path fill="#3C3C3B" d="M315.8,380.2c0.4,0.2,0.8,0.3,1.2,0.3c0.4,0,0.9-0.1,1.2-0.3c0.2-0.1,0.4-0.4,0.5-0.6
							c0-0.1,0-0.1-0.1-0.1c0,0-1.1,0.2-1.7,0.2c-0.6,0-1.7-0.2-1.7-0.2c-0.1,0-0.1,0.1-0.1,0.1C315.4,379.8,315.6,380,315.8,380.2z
							"/>
					</g>
					<g>
						<ellipse fill="#3C3C3B" cx="497.8" cy="373.3" rx="0.6" ry="0.7"/>
						<ellipse fill="#3C3C3B" cx="502.8" cy="373.2" rx="0.6" ry="0.7"/>
						<path fill="#3C3C3B" d="M515.7,392.8c-0.2-4.5-1.3-6.5-2.4-7.1c-1.5-0.9-5.5-1.5-7.3-2l-1.5,4.4l-2.5-2.5
							c-0.4,0.1-0.7,0.2-1.1,0.2c-0.3,0-0.6,0-0.9,0c-0.4-0.1-0.7-0.2-0.9-0.2l-2.6,2.6l-1.1-3.3l-0.3-1c-1.8,0.5-5.8,1-7.2,1.9
							c-1.1,0.7-2.2,2.6-2.4,7.1c-0.1,3.3-0.2,5.3-0.3,6.1h8.7v0h13v0h8.9C515.9,398.1,515.8,396.1,515.7,392.8z M498.5,398l0.6-9.3
							l0-0.5l0-0.5l0.1-1.3c0.4,0.1,0.8,0.2,1.5,0.2c0.4,0,0.9-0.1,1.5-0.2l0.1,1.3l0,0.5l0,0.5l0.6,9.3H498.5z"/>
						<path fill="#3C3C3B" d="M505.3,383.2L505.3,383.2L505.3,383.2l-0.2-0.2l0,0C505.2,383,505.2,383.1,505.3,383.2z"/>
						<path fill="#3C3C3B" d="M507.6,369.9c0.3-0.2,0.9-0.4,0.8-0.6c0-0.2-0.7-0.7-0.6-0.8c0.1-0.2,0.2-0.5,0.2-0.6
							c-0.1-2.9-2.9-3.1-2.9-3.1s-3.1-3.3-6.8-0.8c0,0-3.4,0.2-4.3,1.3c-0.4,0.5-1.7,2.3-0.9,4.1c0.2,0.5,0.4,0.9,0.5,1.3
							c0,0.5,0,1.1,0,1.7c-0.6,0.3-1.2,1.1-0.9,2.5c0.4,1.9,1.2,2.5,1.9,2.6c0.2,0.6,0.8,2.2,1.8,3.5c0,0.4-0.1,0.9-0.2,1.5
							c0,0.2-0.1,0.5-0.1,0.9l-0.1,0.1v0l0,0.1l0.3,0.8l0.3,0.9l0.5,1.4l1.8-1.8l0.1-0.1l-1.9-2.1c0,0,0,0,0-0.1
							c0-0.2,0-0.5,0.1-0.7c0.7,0.6,1.8,0.9,3.2,1l0,0l0,0c1.5-0.1,2.9-0.6,3.6-1.2c0,0,0.1-0.1,0.1-0.1c0,0.1,0,0.2,0,0.3l0.1,0.8
							l0,0.1l-1.9,2.1l0.1,0.1l0.9,0.9l0.2,0.2l0.7,0.7l0.5-1.5l0.2-0.6l0.3-0.9l0.1-0.3l0,0c-0.1-0.1-0.1-0.2-0.1-0.2l0,0l-0.1-0.6
							l-0.1-0.8c0-0.5-0.1-0.9-0.1-1.2c0.8-1.1,1.2-2.4,1.4-3c1.1-0.2,1.5-1.7,1.7-2.6c0.3-1.3-0.3-2.1-0.9-2.5
							c0.1-0.5,0.1-1,0.1-1.4c0.1,0.1,0.7,0.2,0.8,0C508,370.6,507.2,370.1,507.6,369.9z M502.8,379.7c0,0.1-0.1,0.2-0.2,0.3
							c-0.1,0.1-0.3,0.1-0.6,0.2c-0.2,0-0.5,0.1-0.7,0c-0.2,0-0.4-0.1-0.4-0.3c0,0,0-0.1-0.1-0.1c-0.1-0.1-0.4-0.1-0.5-0.1
							c-0.1,0-0.4,0-0.6,0.2c0,0,0,0,0,0.1c-0.2,0.6-1.4,0.3-1.7,0.1c0,0-0.1-0.1-0.1-0.1c-0.2-0.3-0.2-1,0-1.1
							c0.5-0.2,2.4-0.3,2.4-0.3s2,0.1,2.4,0.3C502.9,378.9,502.9,379.4,502.8,379.7z M507.1,374.5c-0.3,1.4-0.6,1.9-1.1,1.9h-0.3
							l-0.1,0.3c0,0-0.2,0.6-0.5,1.3l-1.5,0.5c-0.1-0.1-0.1-0.2-0.2-0.2c-0.4-0.2-2-0.6-2.9-0.6c-0.9,0.1-2.5,0.4-2.9,0.6
							c-0.1,0.1-0.2,0.1-0.2,0.2l-1.5-0.5c-0.3-0.7-0.5-1.3-0.5-1.3l-0.1-0.3h-0.3c-0.8,0-1.2-1.2-1.3-1.9c-0.3-1.2,0.5-1.6,0.6-1.6
							l0.1,0c0.2,0.3,0.5,0.8,0.6,0.8c0.1,0,0.4-3.9,0.4-4.2c0.1-0.3,1.6-1.4,2.4-1.9c1-0.5,1.8-1.7,2-2c0,0,0.1,0,0.1,0
							c0.3,0.5,2,3.2,2.9,3.9c1,0.7,3,1.6,3,1.6s0.2,2.4,0.3,2.5c0.1,0,0.2-0.2,0.4-0.5C506.8,373.1,507.3,373.6,507.1,374.5z"/>
						<path fill="#3C3C3B" d="M501.5,378.8c-1.2,0.6-2.3,0-2.3,0c-0.1-0.1-0.2,0-0.3,0.1c-0.1,0.1,0,0.2,0.1,0.3
							c0,0,0.6,0.4,1.4,0.4c0.4,0,0.8-0.1,1.3-0.3c0.1-0.1,0.2-0.2,0.1-0.3C501.7,378.8,501.6,378.7,501.5,378.8z"/>
					</g>
				</g>
				<path fill="#7897CC" d="M246.9,313.3l3.4-3.4c0.3-0.3,0.8-0.3,1.1,0l3.4,3.4c0.5,0.5,0.1,1.3-0.6,1.3h-1.7v4.9
					c0,0.4-0.4,0.8-0.8,0.8h-1.7c-0.4,0-0.8-0.4-0.8-0.8v-4.9h-1.7C246.7,314.7,246.4,313.8,246.9,313.3z"/>
				<path fill="#7897CC" d="M277.9,313.3l3.4-3.4c0.3-0.3,0.8-0.3,1.1,0l3.4,3.4c0.5,0.5,0.1,1.3-0.6,1.3h-1.7v4.9
					c0,0.4-0.4,0.8-0.8,0.8h-1.7c-0.4,0-0.8-0.4-0.8-0.8v-4.9h-1.7C277.7,314.7,277.4,313.8,277.9,313.3z"/>
				<path fill="#7897CC" d="M308.9,313.3l3.4-3.4c0.3-0.3,0.8-0.3,1.1,0l3.4,3.4c0.5,0.5,0.1,1.3-0.6,1.3h-1.7v4.9
					c0,0.4-0.4,0.8-0.8,0.8h-1.7c-0.4,0-0.8-0.4-0.8-0.8v-4.9h-1.7C308.7,314.7,308.4,313.8,308.9,313.3z"/>
				<path fill="#7897CC" d="M339.9,313.3l3.4-3.4c0.3-0.3,0.8-0.3,1.1,0l3.4,3.4c0.5,0.5,0.1,1.3-0.6,1.3h-1.7v4.9
					c0,0.4-0.4,0.8-0.8,0.8h-1.7c-0.4,0-0.8-0.4-0.8-0.8v-4.9h-1.7C339.7,314.7,339.4,313.8,339.9,313.3z"/>
				<path fill="#7897CC" d="M370.9,313.3l3.4-3.4c0.3-0.3,0.8-0.3,1.1,0l3.4,3.4c0.5,0.5,0.1,1.3-0.6,1.3h-1.7v4.9
					c0,0.4-0.4,0.8-0.8,0.8H374c-0.4,0-0.8-0.4-0.8-0.8v-4.9h-1.7C370.7,314.7,370.4,313.8,370.9,313.3z"/>
				<path fill="#7897CC" d="M401.9,313.3l3.4-3.4c0.3-0.3,0.8-0.3,1.1,0l3.4,3.4c0.5,0.5,0.1,1.3-0.6,1.3h-1.7v4.9
					c0,0.4-0.4,0.8-0.8,0.8H405c-0.4,0-0.8-0.4-0.8-0.8v-4.9h-1.7C401.8,314.7,401.4,313.8,401.9,313.3z"/>
				<path fill="#7897CC" d="M432.9,313.3l3.4-3.4c0.3-0.3,0.8-0.3,1.1,0l3.4,3.4c0.5,0.5,0.1,1.3-0.6,1.3h-1.7v4.9
					c0,0.4-0.4,0.8-0.8,0.8H436c-0.4,0-0.8-0.4-0.8-0.8v-4.9h-1.7C432.8,314.7,432.4,313.8,432.9,313.3z"/>
				<path fill="#7897CC" d="M463.9,313.3l3.4-3.4c0.3-0.3,0.8-0.3,1.1,0l3.4,3.4c0.5,0.5,0.1,1.3-0.6,1.3h-1.7v4.9
					c0,0.4-0.4,0.8-0.8,0.8H467c-0.4,0-0.8-0.4-0.8-0.8v-4.9h-1.7C463.8,314.7,463.4,313.8,463.9,313.3z"/>
				<path fill="#7897CC" d="M494.9,313.3l3.4-3.4c0.3-0.3,0.8-0.3,1.1,0l3.4,3.4c0.5,0.5,0.1,1.3-0.6,1.3h-1.7v4.9
					c0,0.4-0.4,0.8-0.8,0.8H498c-0.4,0-0.8-0.4-0.8-0.8v-4.9h-1.7C494.8,314.7,494.4,313.8,494.9,313.3z"/>
				<path fill="#7897CC" d="M525.9,313.3l3.4-3.4c0.3-0.3,0.8-0.3,1.1,0l3.4,3.4c0.5,0.5,0.1,1.3-0.6,1.3h-1.7v4.9
					c0,0.4-0.4,0.8-0.8,0.8H529c-0.4,0-0.8-0.4-0.8-0.8v-4.9h-1.7C525.8,314.7,525.4,313.8,525.9,313.3z"/>
				<path fill="#7897CC" d="M556.9,313.3l3.4-3.4c0.3-0.3,0.8-0.3,1.1,0l3.4,3.4c0.5,0.5,0.1,1.3-0.6,1.3h-1.7v4.9
					c0,0.4-0.4,0.8-0.8,0.8H560c-0.4,0-0.8-0.4-0.8-0.8v-4.9h-1.7C556.8,314.7,556.4,313.8,556.9,313.3z"/>
				<path fill="#7897CC" d="M587.9,313.3l3.4-3.4c0.3-0.3,0.8-0.3,1.1,0l3.4,3.4c0.5,0.5,0.1,1.3-0.6,1.3h-1.7v4.9
					c0,0.4-0.4,0.8-0.8,0.8H591c-0.4,0-0.8-0.4-0.8-0.8v-4.9h-1.7C587.8,314.7,587.4,313.8,587.9,313.3z"/>
				<path fill="#7897CC" d="M585.6,347.9h5.6v-2c0-2.9,2.2-5.2,5-5.5v-5.6c-5.7,0.2-10.3,4.8-10.6,10.5h-0.1V347.9z"/>
				<path fill="#7897CC" d="M461.1,348.4h5.6v-2c0-2.9,2.2-5.2,5-5.5v-5.6c-5.7,0.2-10.3,4.8-10.6,10.5h-0.1V348.4z"/>
				<rect x="432.2" y="339.7" fill="#7897CC" width="6.1" height="5.6"/>
				<path fill="#7897CC" d="M528.4,336.5v1.8c0,2.9-2.3,5.3-5.2,5.5v5.6c5.9-0.2,10.7-5.1,10.7-11v-1.8H528.4z"/>
				<path fill="#7897CC" d="M279.4,335.7v1.8c0,2.9-2.3,5.3-5.2,5.5v5.6c5.9-0.2,10.7-5.1,10.7-11v-1.8H279.4z"/>
				<rect x="556.9" y="339.2" fill="#7897CC" width="5.8" height="5.6"/>
				<path fill="#7897CC" d="M336.5,341.2c2.9,0.2,5.2,2.6,5.2,5.5v2h5.6v-2c0-6-4.8-10.9-10.7-11V341.2z"/>
				<path fill="#7897CC" d="M409.4,343.5c-2.8-0.2-5-2.6-5-5.5v-1.8h-5.6v2.3h0.1c0.2,5.7,4.9,10.3,10.6,10.6V343.5z"/>
				<path fill="#7897CC" d="M249.9,339.4c-1.5,0-2.8,1.3-2.8,2.8c0,1.5,1.2,2.8,2.8,2.8V339.4z"/>
				<path fill="#7897CC" d="M374.4,339.7c-1.5,0-2.8,1.3-2.8,2.8c0,1.5,1.2,2.8,2.8,2.8V339.7z"/>
				<path fill="#7897CC" d="M500.3,335.9h-5.6v9.2c0.5,0.2,0.9,0.6,0.9,1.2v1.5c0.2,1,1.2,1.8,2.3,1.8c1.3,0,2.4-1.1,2.4-2.4v-5.8h0
					V335.9z"/>
				<path fill="#7897CC" d="M313.4,335.6h-5.4v11.9c0.2,1.1,1.2,1.9,2.3,1.9c1,0,1.8-0.6,2.2-1.5v-1.9c0-0.6,0.4-1,0.9-1.2V335.6z"
					/>
			</g>
			<g>
				<path fill="#3C3C3B" d="M400.3,230.8c0-1.5-4.3-1.3-4.3-4.2c0-1.5,1.4-2.7,3.3-2.7c1.6,0,2.5,0.7,2.8,1.1l-1.3,1.5
					c-0.2-0.3-0.8-0.9-1.7-0.9c-0.7,0-1,0.4-1,0.8c0,1.5,4.3,1.3,4.3,4.2c0,1.4-1.2,2.7-3.5,2.7c-1.8,0-2.9-0.8-3.2-1.2l1.2-1.7
					c0.4,0.4,1.2,1.1,2.3,1.1C400,231.7,400.3,231.3,400.3,230.8z"/>
				<path fill="#3C3C3B" d="M404,233.3V224h5.5v1.7H406v2.1h3v1.7h-3v2.2h3.7v1.7H404z"/>
				<path fill="#3C3C3B" d="M415.1,223.9c1.8,0,2.7,0.8,2.9,1.1l-1.3,1.5c-0.3-0.4-0.7-0.8-1.7-0.8c-1.2,0-1.9,0.9-1.9,3
					c0,1.9,0.7,3.1,2.1,3.1c0.9,0,1.4-0.5,1.7-0.8l1.1,1.4c-0.4,0.5-1.3,1.1-2.9,1.1c-2.9,0-4-1.9-4-4.7
					C411,225.8,412.4,223.9,415.1,223.9z"/>
				<path fill="#3C3C3B" d="M422.6,233.5c-2.3,0-3.8-1.2-3.8-4.7c0-3.4,1.6-4.8,3.9-4.8c2.3,0,3.8,1.3,3.8,4.7
					C426.6,232,424.9,233.5,422.6,233.5z M422.7,231.8c1.1,0,1.7-0.8,1.7-3.1c0-2.3-0.7-3.1-1.8-3.1c-1,0-1.7,0.7-1.7,3
					C420.9,230.9,421.6,231.8,422.7,231.8z"/>
				<path fill="#3C3C3B" d="M430.1,226.6c0.1,0.9,0.1,1.6,0.1,3.3v3.5h-1.9V224h2.4l1.9,3.7c0.5,0.9,1,1.9,1.3,2.9h0.1
					c-0.1-1.3-0.1-2.6-0.1-3.6V224h1.9v9.3h-2.4l-2-3.9C430.9,228.5,430.5,227.6,430.1,226.6L430.1,226.6z"/>
				<path fill="#3C3C3B" d="M438,224h2.9c3,0,4.4,1.5,4.4,4.4c0,2.4-0.9,4.9-4.4,4.9H438V224z M440,231.7h0.7c1.9,0,2.4-1.2,2.4-3
					c0-2.2-1-3-2.5-3H440V231.7z"/>
				<path fill="#3C3C3B" d="M411.5,247h-2v-9.3h2V247z M414.3,237.7h2.3l-2.9,4.5l3.2,4.8h-2.5l-2.9-4.7v-0.1L414.3,237.7z"/>
				<path fill="#3C3C3B" d="M418.1,247v-9.3h5.5v1.7h-3.5v2.1h3v1.7h-3v2.2h3.7v1.7H418.1z"/>
				<path fill="#3C3C3B" d="M429.6,244v3h-2v-3l-3.1-6.3h2.3l1.9,4.3h0.1l1.9-4.3h2.2L429.6,244z"/>
			</g>
			<g>
				<path fill="#7897CC" d="M425.5,270.7h7.4V268c0-3.8,2.9-7,6.7-7.3v-7.4c-7.6,0.3-13.7,6.4-14,14h-0.1V270.7z"/>
				<rect x="416.4" y="267.4" fill="#7897CC" width="8.1" height="7.4"/>
				<path fill="#7897CC" d="M447.5,271.8v2.4c0,3.9-3,7-6.8,7.3v7.4c7.9-0.2,14.2-6.7,14.2-14.7v-2.4H447.5z"/>
				<rect x="407.6" y="267.4" fill="#7897CC" width="7.7" height="7.4"/>
				<path fill="#7897CC" d="M440.7,260.8c3.8,0.2,6.8,3.4,6.8,7.3v2.7h7.4V268c0-7.9-6.4-14.4-14.2-14.7V260.8z"/>
				<path fill="#7897CC" d="M439.6,281.4c-3.7-0.3-6.7-3.4-6.7-7.3v-2.4h-7.4v3h0.1c0.3,7.6,6.5,13.7,14,14.1V281.4z"/>
				<path fill="#7897CC" d="M389.9,267.4c-2,0-3.7,1.7-3.7,3.7c0,2,1.6,3.7,3.7,3.7V267.4z"/>
				<path fill="#7897CC" d="M406.6,267.4h-7.5v12.2c0.7,0.2,1.2,0.8,1.2,1.6v2c0.3,1.4,1.6,2.4,3.1,2.4c1.7,0,3.2-1.4,3.2-3.2v-7.7
					h0.1V267.4z"/>
				<path fill="#7897CC" d="M398.1,267.4H391v15.8c0.3,1.4,1.6,2.5,3.1,2.5c1.3,0,2.4-0.8,2.9-1.9v-2.5c0-0.7,0.5-1.4,1.1-1.6V267.4
					z"/>
			</g>
		</g>
		<g>
			<path fill="#FF1900" d="M440.3,151.3h-42.2c-5.8,0-10.6-4.8-10.6-10.6V77c0-5.8,4.8-10.6,10.6-10.6h42.2
				c5.8,0,10.6,4.8,10.6,10.6v63.7C451,146.5,446.2,151.3,440.3,151.3z"/>
			<g>
				<g>
					<path fill="#FFFFFF" d="M387.6,131.8c-4,0-7.2-3.2-7.2-7.2v-7.9c0-4,3.2-7.2,7.2-7.2h39.7c4,0,7.2,3.2,7.2,7.2v7.9
						c0,4-3.2,7.2-7.2,7.2H387.6z"/>
					<path fill="#FF1900" d="M427.4,111.1c3,0,5.5,2.5,5.5,5.5v7.9c0,3-2.5,5.5-5.5,5.5h-39.7c-3,0-5.5-2.5-5.5-5.5v-7.9
						c0-3,2.5-5.5,5.5-5.5H427.4 M427.4,107.7h-39.7c-4.9,0-8.9,4-8.9,8.9v7.9c0,4.9,4,8.9,8.9,8.9h39.7c4.9,0,8.9-4,8.9-8.9v-7.9
						C436.3,111.7,432.3,107.7,427.4,107.7L427.4,107.7z"/>
				</g>
			</g>
			<g>
				<path fill="#FF1900" d="M389.5,122.7c0-1.5-4.3-1.3-4.3-4.2c0-1.5,1.4-2.7,3.3-2.7c1.6,0,2.5,0.7,2.8,1.1l-1.3,1.5
					c-0.2-0.3-0.8-0.9-1.7-0.9c-0.7,0-1,0.4-1,0.8c0,1.5,4.3,1.3,4.3,4.2c0,1.4-1.2,2.7-3.5,2.7c-1.8,0-2.9-0.8-3.2-1.2l1.2-1.7
					c0.4,0.4,1.2,1.1,2.3,1.1C389.1,123.6,389.5,123.2,389.5,122.7z"/>
				<path fill="#FF1900" d="M393.2,125.2v-9.3h5.5v1.7h-3.5v2.1h3v1.7h-3v2.2h3.7v1.7H393.2z"/>
				<path fill="#FF1900" d="M404.3,115.8c1.8,0,2.7,0.8,2.9,1.1l-1.3,1.5c-0.3-0.4-0.7-0.8-1.7-0.8c-1.2,0-1.9,0.9-1.9,3
					c0,1.9,0.7,3.1,2.1,3.1c0.9,0,1.4-0.5,1.7-0.8l1.1,1.4c-0.4,0.5-1.3,1.1-2.9,1.1c-2.9,0-4-1.9-4-4.7
					C400.2,117.7,401.6,115.8,404.3,115.8z"/>
				<path fill="#FF1900" d="M411.5,115.9c2.1,0,3.2,0.8,3.2,2.7c0,1.6-0.9,2.4-2,2.6v0.1c0.5,0.2,0.8,0.6,1.2,1.4l1.4,2.6H413
					l-1.5-3c-0.2-0.3-0.4-0.4-0.8-0.4h-0.1v3.5h-2v-9.3H411.5z M410.5,120.1h0.8c1.1,0,1.4-0.5,1.4-1.3c0-0.8-0.5-1.2-1.4-1.2h-0.8
					V120.1z"/>
				<path fill="#FF1900" d="M416.6,125.2v-9.3h5.5v1.7h-3.5v2.1h3v1.7h-3v2.2h3.7v1.7H416.6z"/>
				<path fill="#FF1900" d="M425.4,117.6h-2.3v-1.7h6.7v1.7h-2.3v7.6h-2V117.6z"/>
			</g>
			<g>
				<path fill="#F9F0DF" d="M419.3,92.5c7.5,0,13.6-6.2,13.6-13.7l-0.1-15.4c0-7.5-6.2-13.6-13.7-13.6c-7.5,0-13.6,6.2-13.6,13.7
					l0.1,15.4C405.6,86.4,411.8,92.5,419.3,92.5z"/>
				<path fill="#FF1900" d="M419.3,91c6.8,0,12.3-5.6,12.3-12.4l0-15c0-6.8-5.6-12.3-12.4-12.3c-6.8,0-12.3,5.6-12.3,12.4l0,15
					C406.9,85.4,412.5,91,419.3,91z M421.8,77.9c0,1.4-1.2,2.6-2.6,2.6c-1.4,0-2.6-1.2-2.6-2.6c0-1.4,1.2-2.6,2.6-2.6
					C420.7,75.3,421.8,76.5,421.8,77.9z M410,61.1c0-3.5,3.9-7.4,8.9-7.4l0.5,0c4.6,0,8.9,3.9,8.9,7.4c0,3.5-2.6,4.7-6,4.7l-5.7,0
					C413.2,65.8,410,64.6,410,61.1z M410.8,79.1l0-1.7c0-0.1,0-0.1,0-0.2c0.3-4.3,3.9-7.7,8.4-7.8c4.4,0,8,3.4,8.4,7.7
					c0,0.1,0,0.1,0,0.2l0,1.7c0,0.8-0.7,1.5-1.5,1.5c-0.8,0-1.5-0.7-1.5-1.5l0-1.6c-0.2-2.8-2.6-5.1-5.5-5.1c-2.9,0-5.2,2.3-5.4,5.1
					l0,1.6c0,0.8-0.7,1.5-1.5,1.5C411.5,80.6,410.8,79.9,410.8,79.1z"/>
			</g>
			<g>
				<path fill="#F9F0DF" d="M445.5,92.5c7.5,0,13.6-6.2,13.6-13.7L459,63.3c0-7.5-6.2-13.6-13.7-13.6c-7.5,0-13.6,6.2-13.6,13.7
					l0.1,15.4C431.8,86.4,437.9,92.5,445.5,92.5z"/>
				<path fill="#7897CC" d="M445.4,91c6.8,0,12.3-5.6,12.3-12.4l0-15c0-6.8-5.6-12.3-12.4-12.3c-6.8,0-12.3,5.6-12.3,12.4l0,15
					C433.1,85.4,438.7,91,445.4,91z M448,77.9c0,1.4-1.2,2.6-2.6,2.6c-1.4,0-2.6-1.2-2.6-2.6c0-1.4,1.2-2.6,2.6-2.6
					C446.8,75.3,448,76.5,448,77.9z M436.2,61.1c0-3.5,3.9-7.4,8.9-7.4l0.5,0c4.6,0,8.9,3.9,8.9,7.4c0,3.5-2.6,4.7-6,4.7l-5.7,0
					C439.3,65.8,436.2,64.6,436.2,61.1z M437,79.1l0-1.7c0-0.1,0-0.1,0-0.2c0.3-4.3,3.9-7.7,8.4-7.8c4.4,0,8,3.4,8.4,7.7
					c0,0.1,0,0.1,0,0.2l0,1.7c0,0.8-0.7,1.5-1.5,1.5c-0.8,0-1.5-0.7-1.5-1.5l0-1.6c-0.2-2.8-2.6-5.1-5.5-5.1c-2.9,0-5.2,2.3-5.4,5.1
					l0,1.6c0,0.8-0.7,1.5-1.5,1.5C437.7,80.6,437,79.9,437,79.1z"/>
			</g>
		</g>
		<g>
			<circle fill="#304D7F" cx="739.8" cy="106.6" r="78.8"/>
			<path fill="#FF1900" stroke="#F9F0DF" stroke-width="1.1369" stroke-miterlimit="10" d="M761.9,66.4h-42.2
				c-5.8,0-10.6,4.8-10.6,10.6v30.7c-4.9,0.1-8.8,4-8.8,8.9v7.9c0,4.9,3.9,8.9,8.8,8.9v7.1c0,5.8,4.8,10.6,10.6,10.6h42.2
				c5.8,0,10.6-4.8,10.6-10.6V77C772.6,71.1,767.8,66.4,761.9,66.4z"/>
			<g>
				<circle fill="none" stroke="#304D7F" stroke-width="2.7868" stroke-miterlimit="10" cx="739.8" cy="106.6" r="82.4"/>
				<g>
					<g>
						<polygon fill="#FFFFFF" stroke="#304D7F" stroke-width="2.7171" stroke-miterlimit="10" points="747.5,28.3 739.8,33.1 
							732.1,28.3 732.1,19.4 739.8,14.5 747.5,19.4 						"/>
						
							<line fill="none" stroke="#304D7F" stroke-width="1.3585" stroke-miterlimit="10" x1="739.8" y1="24.1" x2="739.8" y2="33.2"/>
						<polyline fill="none" stroke="#304D7F" stroke-width="1.3585" stroke-miterlimit="10" points="747.5,19.4 739.8,24.2 
							732.1,19.4 						"/>
					</g>
					<g>
						<polygon fill="#FFFFFF" stroke="#304D7F" stroke-width="2.7171" stroke-miterlimit="10" points="747.5,193.7 739.8,198.5 
							732.1,193.7 732.1,184.8 739.8,179.9 747.5,184.8 						"/>
						
							<line fill="none" stroke="#304D7F" stroke-width="1.3585" stroke-miterlimit="10" x1="739.8" y1="189.5" x2="739.8" y2="198.6"/>
						<polyline fill="none" stroke="#304D7F" stroke-width="1.3585" stroke-miterlimit="10" points="747.5,184.8 739.8,189.6 
							732.1,184.8 						"/>
					</g>
					<g>
						<polygon fill="#FFFFFF" stroke="#304D7F" stroke-width="2.7171" stroke-miterlimit="10" points="719.2,33.3 711.5,38.1 
							703.8,33.3 703.8,24.3 711.5,19.5 719.2,24.3 						"/>
						
							<line fill="none" stroke="#304D7F" stroke-width="1.3585" stroke-miterlimit="10" x1="711.5" y1="29.1" x2="711.5" y2="38.2"/>
						<polyline fill="none" stroke="#304D7F" stroke-width="1.3585" stroke-miterlimit="10" points="719.2,24.3 711.5,29.2 
							703.8,24.3 						"/>
					</g>
					<g>
						<polygon fill="#FFFFFF" stroke="#304D7F" stroke-width="2.7171" stroke-miterlimit="10" points="775.8,188.7 768.1,193.6 
							760.4,188.7 760.4,179.8 768.1,175 775.8,179.8 						"/>
						
							<line fill="none" stroke="#304D7F" stroke-width="1.3585" stroke-miterlimit="10" x1="768.1" y1="184.5" x2="768.1" y2="193.6"/>
						<polyline fill="none" stroke="#304D7F" stroke-width="1.3585" stroke-miterlimit="10" points="775.8,179.8 768.1,184.6 
							760.4,179.8 						"/>
					</g>
					<g>
						<polygon fill="#FFFFFF" stroke="#304D7F" stroke-width="2.7171" stroke-miterlimit="10" points="694.3,47.7 686.6,52.5 
							678.9,47.7 678.9,38.7 686.6,33.9 694.3,38.7 						"/>
						
							<line fill="none" stroke="#304D7F" stroke-width="1.3585" stroke-miterlimit="10" x1="686.6" y1="43.5" x2="686.6" y2="52.5"/>
						<polyline fill="none" stroke="#304D7F" stroke-width="1.3585" stroke-miterlimit="10" points="694.3,38.7 686.6,43.5 
							678.9,38.7 						"/>
					</g>
					<g>
						<polygon fill="#FFFFFF" stroke="#304D7F" stroke-width="2.7171" stroke-miterlimit="10" points="800.7,174.4 792.9,179.2 
							785.2,174.4 785.2,165.4 792.9,160.6 800.7,165.4 						"/>
						
							<line fill="none" stroke="#304D7F" stroke-width="1.3585" stroke-miterlimit="10" x1="792.9" y1="170.2" x2="792.9" y2="179.2"/>
						<polyline fill="none" stroke="#304D7F" stroke-width="1.3585" stroke-miterlimit="10" points="800.7,165.4 792.9,170.2 
							785.2,165.4 						"/>
					</g>
					<g>
						<polygon fill="#FFFFFF" stroke="#304D7F" stroke-width="2.7171" stroke-miterlimit="10" points="675.9,69.7 668.2,74.5 
							660.5,69.7 660.5,60.7 668.2,55.9 675.9,60.7 						"/>
						
							<line fill="none" stroke="#304D7F" stroke-width="1.3585" stroke-miterlimit="10" x1="668.1" y1="65.5" x2="668.1" y2="74.5"/>
						<polyline fill="none" stroke="#304D7F" stroke-width="1.3585" stroke-miterlimit="10" points="675.9,60.7 668.2,65.5 
							660.5,60.7 						"/>
					</g>
					<g>
						<polygon fill="#FFFFFF" stroke="#304D7F" stroke-width="2.7171" stroke-miterlimit="10" points="819.1,152.4 811.4,157.2 
							803.7,152.4 803.7,143.4 811.4,138.6 819.1,143.4 						"/>
						
							<line fill="none" stroke="#304D7F" stroke-width="1.3585" stroke-miterlimit="10" x1="811.4" y1="148.2" x2="811.4" y2="157.2"/>
						<polyline fill="none" stroke="#304D7F" stroke-width="1.3585" stroke-miterlimit="10" points="819.1,143.4 811.4,148.2 
							803.7,143.4 						"/>
					</g>
					<g>
						<polygon fill="#FFFFFF" stroke="#304D7F" stroke-width="2.7171" stroke-miterlimit="10" points="666,96.7 658.3,101.5 
							650.6,96.7 650.6,87.7 658.3,82.9 666,87.7 						"/>
						
							<line fill="none" stroke="#304D7F" stroke-width="1.3585" stroke-miterlimit="10" x1="658.3" y1="92.5" x2="658.3" y2="101.5"/>
						<polyline fill="none" stroke="#304D7F" stroke-width="1.3585" stroke-miterlimit="10" points="666,87.7 658.3,92.5 
							650.6,87.7 						"/>
					</g>
					<g>
						<polygon fill="#FFFFFF" stroke="#304D7F" stroke-width="2.7171" stroke-miterlimit="10" points="828.9,125.4 821.2,130.2 
							813.5,125.4 813.5,116.4 821.2,111.6 828.9,116.4 						"/>
						
							<line fill="none" stroke="#304D7F" stroke-width="1.3585" stroke-miterlimit="10" x1="821.2" y1="121.2" x2="821.2" y2="130.2"/>
						<polyline fill="none" stroke="#304D7F" stroke-width="1.3585" stroke-miterlimit="10" points="828.9,116.4 821.2,121.2 
							813.5,116.4 						"/>
					</g>
					<g>
						<polygon fill="#FFFFFF" stroke="#304D7F" stroke-width="2.7171" stroke-miterlimit="10" points="666.1,125.4 658.4,130.2 
							650.6,125.4 650.6,116.4 658.4,111.6 666.1,116.4 						"/>
						
							<line fill="none" stroke="#304D7F" stroke-width="1.3585" stroke-miterlimit="10" x1="658.3" y1="121.2" x2="658.3" y2="130.2"/>
						<polyline fill="none" stroke="#304D7F" stroke-width="1.3585" stroke-miterlimit="10" points="666.1,116.4 658.4,121.2 
							650.6,116.4 						"/>
					</g>
					<g>
						<polygon fill="#FFFFFF" stroke="#304D7F" stroke-width="2.7171" stroke-miterlimit="10" points="828.9,96.7 821.2,101.5 
							813.5,96.7 813.5,87.7 821.2,82.9 828.9,87.7 						"/>
						
							<line fill="none" stroke="#304D7F" stroke-width="1.3585" stroke-miterlimit="10" x1="821.2" y1="92.5" x2="821.2" y2="101.5"/>
						<polyline fill="none" stroke="#304D7F" stroke-width="1.3585" stroke-miterlimit="10" points="828.9,87.7 821.2,92.5 
							813.5,87.7 						"/>
					</g>
					<g>
						<polygon fill="#FFFFFF" stroke="#304D7F" stroke-width="2.7171" stroke-miterlimit="10" points="675.9,152.4 668.2,157.2 
							660.5,152.4 660.5,143.4 668.2,138.6 675.9,143.4 						"/>
						
							<line fill="none" stroke="#304D7F" stroke-width="1.3585" stroke-miterlimit="10" x1="668.2" y1="148.2" x2="668.2" y2="157.2"/>
						<polyline fill="none" stroke="#304D7F" stroke-width="1.3585" stroke-miterlimit="10" points="675.9,143.4 668.2,148.2 
							660.5,143.4 						"/>
					</g>
					<g>
						<polygon fill="#FFFFFF" stroke="#304D7F" stroke-width="2.7171" stroke-miterlimit="10" points="819.1,69.7 811.4,74.5 
							803.7,69.7 803.7,60.7 811.4,55.9 819.1,60.7 						"/>
						
							<line fill="none" stroke="#304D7F" stroke-width="1.3585" stroke-miterlimit="10" x1="811.4" y1="65.5" x2="811.4" y2="74.5"/>
						<polyline fill="none" stroke="#304D7F" stroke-width="1.3585" stroke-miterlimit="10" points="819.1,60.7 811.4,65.5 
							803.7,60.7 						"/>
					</g>
					<g>
						<polygon fill="#FFFFFF" stroke="#304D7F" stroke-width="2.7171" stroke-miterlimit="10" points="694.3,174.4 686.6,179.2 
							678.9,174.4 678.9,165.4 686.6,160.6 694.3,165.4 						"/>
						
							<line fill="none" stroke="#304D7F" stroke-width="1.3585" stroke-miterlimit="10" x1="686.6" y1="170.2" x2="686.6" y2="179.2"/>
						<polyline fill="none" stroke="#304D7F" stroke-width="1.3585" stroke-miterlimit="10" points="694.3,165.4 686.6,170.2 
							678.9,165.4 						"/>
					</g>
					<g>
						<polygon fill="#FFFFFF" stroke="#304D7F" stroke-width="2.7171" stroke-miterlimit="10" points="800.7,47.7 792.9,52.5 
							785.2,47.7 785.2,38.7 792.9,33.9 800.7,38.7 						"/>
						
							<line fill="none" stroke="#304D7F" stroke-width="1.3585" stroke-miterlimit="10" x1="792.9" y1="43.5" x2="792.9" y2="52.5"/>
						<polyline fill="none" stroke="#304D7F" stroke-width="1.3585" stroke-miterlimit="10" points="800.7,38.7 792.9,43.5 
							785.2,38.7 						"/>
					</g>
					<g>
						<polygon fill="#FFFFFF" stroke="#304D7F" stroke-width="2.7171" stroke-miterlimit="10" points="719.2,188.8 711.5,193.6 
							703.8,188.8 703.8,179.8 711.5,175 719.2,179.8 						"/>
						
							<line fill="none" stroke="#304D7F" stroke-width="1.3585" stroke-miterlimit="10" x1="711.5" y1="184.5" x2="711.5" y2="193.6"/>
						<polyline fill="none" stroke="#304D7F" stroke-width="1.3585" stroke-miterlimit="10" points="719.2,179.8 711.5,184.6 
							703.8,179.8 						"/>
					</g>
					<g>
						<polygon fill="#FFFFFF" stroke="#304D7F" stroke-width="2.7171" stroke-miterlimit="10" points="775.8,33.3 768.1,38.1 
							760.4,33.3 760.4,24.3 768.1,19.5 775.8,24.3 						"/>
						
							<line fill="none" stroke="#304D7F" stroke-width="1.3585" stroke-miterlimit="10" x1="768.1" y1="29.1" x2="768.1" y2="38.2"/>
						<polyline fill="none" stroke="#304D7F" stroke-width="1.3585" stroke-miterlimit="10" points="775.8,24.3 768.1,29.2 
							760.4,24.3 						"/>
					</g>
				</g>
			</g>
			<path d="M723.3,80"/>
			<path fill="none" stroke="#DA3A36" stroke-width="0.1697" stroke-miterlimit="10" d="M789.8,133.8"/>
			<path fill="none" stroke="#DA3A36" stroke-width="0.1697" stroke-miterlimit="10" d="M789.8,94.7"/>
			<path fill="none" stroke="#DA3A36" stroke-width="0.1697" stroke-miterlimit="10" d="M791,131.3"/>
			<path fill="none" stroke="#DA3A36" stroke-width="0.1697" stroke-miterlimit="10" d="M791,100.4"/>
			<path fill="#FFFFFF" d="M709.2,111.1c-3,0-5.5,2.5-5.5,5.5v7.9c0,3,2.5,5.5,5.5,5.5H749c3,0,5.5-2.5,5.5-5.5v-7.9
				c0-3-2.5-5.5-5.5-5.5H709.2z"/>
			<g>
				<path fill="#FF1900" d="M711.1,122.7c0-1.5-4.3-1.3-4.3-4.2c0-1.5,1.4-2.7,3.3-2.7c1.6,0,2.5,0.7,2.8,1.1l-1.3,1.5
					c-0.2-0.3-0.8-0.9-1.7-0.9c-0.7,0-1,0.4-1,0.8c0,1.5,4.3,1.3,4.3,4.2c0,1.4-1.2,2.7-3.5,2.7c-1.8,0-2.9-0.8-3.2-1.2l1.2-1.7
					c0.4,0.4,1.2,1.1,2.3,1.1C710.8,123.6,711.1,123.2,711.1,122.7z"/>
				<path fill="#FF1900" d="M714.8,125.2v-9.3h5.5v1.7h-3.5v2.1h3v1.7h-3v2.2h3.7v1.7H714.8z"/>
				<path fill="#FF1900" d="M725.9,115.8c1.8,0,2.7,0.8,2.9,1.1l-1.3,1.5c-0.3-0.4-0.7-0.8-1.7-0.8c-1.2,0-1.9,0.9-1.9,3
					c0,1.9,0.7,3.1,2.1,3.1c0.9,0,1.4-0.5,1.7-0.8l1.1,1.4c-0.4,0.5-1.3,1.1-2.9,1.1c-2.9,0-4-1.9-4-4.7
					C721.8,117.7,723.2,115.8,725.9,115.8z"/>
				<path fill="#FF1900" d="M733.1,115.9c2.1,0,3.2,0.8,3.2,2.7c0,1.6-0.9,2.4-2,2.6v0.1c0.5,0.2,0.8,0.6,1.2,1.4l1.4,2.6h-2.4
					l-1.5-3c-0.2-0.3-0.4-0.4-0.8-0.4h-0.1v3.5h-2v-9.3H733.1z M732.1,120.1h0.8c1.1,0,1.4-0.5,1.4-1.3c0-0.8-0.5-1.2-1.4-1.2h-0.8
					V120.1z"/>
				<path fill="#FF1900" d="M738.2,125.2v-9.3h5.5v1.7h-3.5v2.1h3v1.7h-3v2.2h3.7v1.7H738.2z"/>
				<path fill="#FF1900" d="M747,117.6h-2.3v-1.7h6.7v1.7H749v7.6h-2V117.6z"/>
			</g>
			<g>
				<path fill="#F9F0DF" d="M740.9,92.5c7.5,0,13.6-6.2,13.6-13.7l-0.1-15.4c0-7.5-6.2-13.6-13.7-13.6c-7.5,0-13.6,6.2-13.6,13.7
					l0.1,15.4C727.3,86.4,733.4,92.5,740.9,92.5z"/>
				<path fill="#FF1900" d="M740.9,91c6.8,0,12.3-5.6,12.3-12.4l0-15c0-6.8-5.6-12.3-12.4-12.3c-6.8,0-12.3,5.6-12.3,12.4l0,15
					C728.5,85.4,734.1,91,740.9,91z M743.5,77.9c0,1.4-1.2,2.6-2.6,2.6s-2.6-1.2-2.6-2.6c0-1.4,1.2-2.6,2.6-2.6
					C742.3,75.3,743.5,76.5,743.5,77.9z M731.6,61.1c0-3.5,3.9-7.4,8.9-7.4l0.5,0c4.6,0,8.9,3.9,8.9,7.4c0,3.5-2.6,4.7-6,4.7l-5.7,0
					C734.8,65.8,731.7,64.6,731.6,61.1z M732.5,79.1l0-1.7c0-0.1,0-0.1,0-0.2c0.3-4.3,3.9-7.7,8.4-7.8c4.4,0,8,3.4,8.4,7.7
					c0,0.1,0,0.1,0,0.2l0,1.7c0,0.8-0.7,1.5-1.5,1.5c-0.8,0-1.5-0.7-1.5-1.5l0-1.6c-0.2-2.8-2.6-5.1-5.5-5.1c-2.9,0-5.2,2.3-5.4,5.1
					l0,1.6c0,0.8-0.7,1.5-1.5,1.5C733.1,80.6,732.5,79.9,732.5,79.1z"/>
			</g>
		</g>
		<path fill="#3C3C3B" d="M59.3,81.4l-6.6-10.2l10.2-6.6c1.3-0.9,2.2-2.2,2.5-3.6s0.1-3-0.8-4.3c-1.7-2.6-5.2-3.4-7.9-1.7l-10.2,6.6
			L40,51.4c-1.7-2.6-5.2-3.4-7.9-1.7c-2.6,1.7-3.4,5.2-1.7,7.9L37,67.8l-10.2,6.6c-2.6,1.7-3.4,5.2-1.7,7.9c1.7,2.6,5.2,3.4,7.9,1.7
			l10.2-6.6l6.6,10.2c0.9,1.3,2.2,2.2,3.6,2.5s3,0.1,4.3-0.8C60.3,87.6,61,84,59.3,81.4z"/>
	</g>
</g>
</svg>
