<?xml version="1.0" encoding="utf-8"?>
<!-- Generator: Adobe Illustrator 18.1.1, SVG Export Plug-In . SVG Version: 6.00 Build 0)  -->
<svg version="1.1" xmlns="http://www.w3.org/2000/svg" xmlns:xlink="http://www.w3.org/1999/xlink" x="0px" y="0px"
	 viewBox="0 0 841.9 274.8" enable-background="new 0 0 841.9 274.8" xml:space="preserve">
<g id="bg">
	<rect x="0" y="0" fill="#F9F0DF" width="841.9" height="274.8"/>
</g>
<g id="Layer_1">
	<g>
		<g>
			<rect x="13.5" y="54" fill="#FFFFFF" width="29.3" height="29.3"/>
			<g>
				<path fill="#F9F0DF" d="M31.5,60.8v15.5h-3.4v-7.8l0.1-4.4h-0.1l-2,1.7l-1.2,0.8L23.1,64l4.9-3.2H31.5z"/>
			</g>
			<rect x="46.8" y="54" fill="#FFFFFF" width="29.3" height="29.3"/>
			<g>
				<path fill="#F9F0DF" d="M60.6,73.7l2.7-0.1h3.4v2.8h-9.6l-0.6-2.8c2.4-2.3,4.3-4.2,5.4-5.7c0.7-1,1.1-1.8,1.1-2.6
					c0-1.2-0.6-1.7-1.5-1.7c-1.1,0-1.5,1-1.5,2.1l-3.4-0.6c0.3-2.4,1.8-4.3,5.1-4.3c3,0,4.8,1.5,4.8,4.1c0,1.7-0.5,3.1-1.9,4.9
					c-0.6,0.7-1.3,1.5-2.1,2.3C61.9,72.4,61.3,73,60.6,73.7L60.6,73.7z"/>
			</g>
			<rect x="80.2" y="54" fill="#FFFFFF" width="29.3" height="29.3"/>
			<g>
				<path fill="#F9F0DF" d="M97.1,68.3c1.4,0.1,2.9,1,2.9,3.3c0,3.3-2.2,5-5.7,5c-2.8,0-4.5-1.6-5.1-3.3l3.2-1.4
					c0.3,0.7,1,1.9,2.4,1.9c1.3,0,1.9-0.7,1.9-2c0-1.2-0.8-1.8-2.6-1.8h-1v-2.8h1c1.5,0,2.1-0.6,2.1-2c0-1.1-0.5-1.7-1.5-1.7
					c-1,0-1.6,0.7-1.6,1.8l-3.3-0.3c0.1-2.4,1.8-4.3,4.8-4.3c3.3,0,4.9,1.4,4.9,4.2C99.5,66.6,98.4,67.8,97.1,68.3L97.1,68.3z"/>
			</g>
			<rect x="113.5" y="54" fill="#FFFFFF" width="29.3" height="29.3"/>
			<g>
				<path fill="#F9F0DF" d="M123.2,72.9l-0.7-2.6l5.8-9.5h3.8v9.3h2.1v2.7h-2.1v3.4h-3.3v-3.4H123.2z M129.2,64.3l-1.5,3l-1.8,2.8h3
					v-2.1L129.2,64.3L129.2,64.3z"/>
			</g>
			<rect x="146.9" y="54" fill="#FFFFFF" width="29.3" height="29.3"/>
			<g>
				<path fill="#F9F0DF" d="M156.1,73.3l3.3-1.4c0.4,1.1,1,1.9,2.2,1.9c1.3,0,1.9-0.9,1.9-2.4c0-1.6-0.7-2.5-2.1-2.5
					c-0.7,0-1.3,0.3-1.7,0.7l-2.8-1l0.6-7.8h8.5v2.8h-5.5l-0.3,3.3h0.1c0.4-0.3,1.3-0.6,2-0.6c3.2,0,4.6,1.7,4.6,4.7
					c0,3.3-2,5.6-5.5,5.6C158,76.6,156.7,74.9,156.1,73.3z"/>
			</g>
			<rect x="180.2" y="54" fill="#FFFFFF" width="29.3" height="29.3"/>
			<g>
				<path fill="#F9F0DF" d="M194.3,66.2c0.3-0.1,0.9-0.2,1.4-0.2c2.7,0,4.7,1.4,4.7,4.8c0,3.5-2.2,5.7-5.5,5.7c-3.8,0-5.1-2.4-5.1-6
					c0-4.2,2.4-7.8,5.1-9.7h4.3v0.4C196.6,62.8,195.2,64.5,194.3,66.2L194.3,66.2z M193.3,68.9c-0.1,0.5-0.1,1-0.1,1.5
					c0,2.6,1.1,3.3,2.2,3.3c1.2,0,1.8-0.8,1.8-2.5c0-1.5-0.8-2.5-2.3-2.5C194.1,68.7,193.7,68.8,193.3,68.9z"/>
			</g>
			<rect x="213.6" y="54" fill="#FFFFFF" width="29.3" height="29.3"/>
			<g>
				<path fill="#F9F0DF" d="M229.7,63.7c0,0-1.3,0.2-2.7,0.2h-4.1v-3h10l0.5,3.3l-3.2,5.4c-1.2,2-1.8,3.6-1.8,6.3v0.6H225v-0.6
					c0-2.9,0.9-5,1.8-6.9l1.2-2.2C228.8,65.1,229.7,63.7,229.7,63.7L229.7,63.7z"/>
			</g>
			<rect x="13.5" y="86.7" fill="#FFFFFF" width="29.3" height="29.3"/>
			<g>
				<path fill="#F9F0DF" d="M22.8,104.8c0-1.9,1.2-3.1,2.8-3.6v-0.1c-1.3-0.3-2.4-1.5-2.4-3.3c0-2.9,1.9-4.5,5.1-4.5
					c3.3,0,5,1.4,5,4.2c0,1.7-1.1,2.9-2.4,3.3v0.1c1.5,0.3,2.8,1.2,2.8,3.4c0,3.3-2.1,4.8-5.5,4.8C24.8,109.2,22.8,107.9,22.8,104.8
					z M26.1,104.6c0,1.2,0.6,2,2.2,2c1.5,0,2.1-0.7,2.1-2c0-1-0.4-2-2.2-2C26.6,102.5,26.1,103.6,26.1,104.6z M30,97.8
					c0-1-0.5-1.8-1.7-1.8c-1.3,0-1.8,0.7-1.8,1.8c0,1.2,0.4,2,1.8,2C29.6,99.8,30,99.1,30,97.8z"/>
			</g>
			<rect x="46.8" y="86.7" fill="#FFFFFF" width="29.3" height="29.3"/>
			<g>
				<path fill="#F9F0DF" d="M62.4,103.5c-0.4,0.1-0.8,0.1-1.3,0.1c-2.7,0-4.9-1.3-4.9-4.8c0-3.5,2.2-5.5,5.5-5.5
					c3.7,0,5.1,2.4,5.1,5.9c0,3.9-2.3,7.8-5,9.8h-4.3v-0.4C60.1,107.1,61.7,105.2,62.4,103.5L62.4,103.5z M63.4,100.6
					c0.1-0.5,0.1-0.8,0.1-1.3c0-2.5-1.1-3.3-2.1-3.3c-1.2,0-1.8,0.6-1.8,2.3c0,1.6,0.7,2.4,2.3,2.4
					C62.5,100.9,62.9,100.8,63.4,100.6z"/>
			</g>
			<rect x="80.2" y="86.7" fill="#FFFFFF" width="29.3" height="29.3"/>
			<g>
				<path fill="#F9F0DF" d="M91.6,93.5V109h-3.4v-7.8l0.1-4.4h-0.1l-2,1.7l-1.2,0.8l-1.8-2.6l4.9-3.2H91.6z"/>
				<path fill="#F9F0DF" d="M94.5,101.4c0-5.6,2-8.1,5.8-8.1c3.9,0,5.5,2.6,5.5,8c0,5.5-2.1,8-5.9,8
					C96.1,109.2,94.5,106.7,94.5,101.4z M100.3,106.4c1.8,0,2.3-1.5,2.3-5c0-3.5-0.7-5.2-2.4-5.2c-1.8,0-2.2,1.6-2.2,5.1
					C97.9,104.8,98.6,106.4,100.3,106.4z"/>
			</g>
			<rect x="113.5" y="86.7" fill="#FFFFFF" width="29.3" height="29.3"/>
			<g>
				<path fill="#F9F0DF" d="M126.2,93.5V109h-3.4v-7.8l0.1-4.4h-0.1l-2,1.7l-1.2,0.8l-1.8-2.6l4.9-3.2H126.2z"/>
				<path fill="#F9F0DF" d="M136.8,93.5V109h-3.4v-7.8l0.1-4.4h-0.1l-2,1.7l-1.2,0.8l-1.8-2.6l4.9-3.2H136.8z"/>
			</g>
			<rect x="146.9" y="86.7" fill="#FFFFFF" width="29.3" height="29.3"/>
			<g>
				<path fill="#F9F0DF" d="M158.9,93.5V109h-3.4v-7.8l0.1-4.4h-0.1l-2,1.7l-1.2,0.8l-1.8-2.6l4.9-3.2H158.9z"/>
				<path fill="#F9F0DF" d="M165.9,106.4l2.7-0.1h3.4v2.8h-9.6l-0.6-2.8c2.4-2.3,4.3-4.2,5.4-5.7c0.7-1,1.1-1.8,1.1-2.6
					c0-1.2-0.6-1.7-1.5-1.7c-1.1,0-1.5,1-1.5,2.1l-3.4-0.6c0.3-2.4,1.8-4.3,5.1-4.3c3,0,4.8,1.5,4.8,4.1c0,1.7-0.5,3.1-1.9,4.9
					c-0.6,0.7-1.3,1.5-2.1,2.3C167.3,105.1,166.6,105.7,165.9,106.4L165.9,106.4z"/>
			</g>
			<rect x="180.2" y="86.7" fill="#FFFFFF" width="29.3" height="29.3"/>
			<g>
				<path fill="#F9F0DF" d="M192.3,93.5V109h-3.4v-7.8l0.1-4.4h-0.1l-2,1.7l-1.2,0.8l-1.8-2.6l4.9-3.2H192.3z"/>
				<path fill="#F9F0DF" d="M202.4,101c1.4,0.1,2.9,1,2.9,3.3c0,3.3-2.2,5-5.7,5c-2.8,0-4.5-1.6-5.1-3.3l3.2-1.4
					c0.3,0.7,1,1.9,2.4,1.9c1.3,0,1.9-0.7,1.9-2c0-1.2-0.8-1.8-2.6-1.8h-1v-2.8h1c1.5,0,2.1-0.6,2.1-2c0-1.1-0.5-1.7-1.5-1.7
					c-1,0-1.6,0.7-1.6,1.8l-3.3-0.3c0.1-2.4,1.8-4.3,4.8-4.3c3.3,0,4.9,1.4,4.9,4.2C204.8,99.3,203.7,100.5,202.4,101L202.4,101z"/>
			</g>
			<rect x="213.6" y="86.7" fill="#FFFFFF" width="29.3" height="29.3"/>
			<g>
				<path fill="#F9F0DF" d="M225.3,93.5V109h-3.4v-7.8l0.1-4.4H222l-2,1.7l-1.2,0.8l-1.8-2.6l4.9-3.2H225.3z"/>
				<path fill="#F9F0DF" d="M228.5,105.6l-0.7-2.6l5.8-9.5h3.8v9.3h2.1v2.7h-2.1v3.4h-3.3v-3.4H228.5z M234.5,97l-1.5,3l-1.8,2.8h3
					v-2.1L234.5,97L234.5,97z"/>
			</g>
			<rect x="13.5" y="119.4" fill="#FFFFFF" width="29.3" height="29.3"/>
			<g>
				<path fill="#F9F0DF" d="M25.1,126.2v15.5h-3.4v-7.8l0.1-4.4h-0.1l-2,1.7l-1.2,0.8l-1.8-2.6l4.9-3.2H25.1z"/>
				<path fill="#F9F0DF" d="M28,138.7l3.3-1.4c0.4,1.1,1,1.9,2.2,1.9c1.3,0,1.9-0.9,1.9-2.4c0-1.6-0.7-2.5-2.1-2.5
					c-0.7,0-1.3,0.3-1.7,0.7l-2.8-1l0.6-7.8h8.5v2.8h-5.5l-0.3,3.3h0.1c0.4-0.3,1.3-0.6,2-0.6c3.2,0,4.6,1.7,4.6,4.7
					c0,3.3-2,5.6-5.5,5.6C29.9,141.9,28.6,140.3,28,138.7z"/>
			</g>
			<rect x="46.8" y="119.4" fill="#FFFFFF" width="29.3" height="29.3"/>
			<g>
				<path fill="#F9F0DF" d="M58.5,126.2v15.5h-3.4v-7.8l0.1-4.4h-0.1l-2,1.7L52,132l-1.8-2.6l4.9-3.2H58.5z"/>
				<path fill="#F9F0DF" d="M66.2,131.6c0.3-0.1,0.9-0.2,1.4-0.2c2.7,0,4.7,1.4,4.7,4.8c0,3.5-2.2,5.7-5.5,5.7c-3.8,0-5.1-2.4-5.1-6
					c0-4.2,2.4-7.8,5.1-9.7h4.3v0.4C68.4,128.2,67.1,129.9,66.2,131.6L66.2,131.6z M65.1,134.3c-0.1,0.5-0.1,1-0.1,1.5
					c0,2.6,1.1,3.3,2.2,3.3c1.2,0,1.8-0.8,1.8-2.5c0-1.5-0.8-2.5-2.3-2.5C66,134.1,65.6,134.2,65.1,134.3z"/>
			</g>
			<rect x="80.2" y="119.4" fill="#FFFFFF" width="29.3" height="29.3"/>
			<g>
				<path fill="#F9F0DF" d="M92.9,126.2v15.5h-3.4v-7.8l0.1-4.4h-0.1l-2,1.7l-1.2,0.8l-1.8-2.6l4.9-3.2H92.9z"/>
				<path fill="#F9F0DF" d="M101.5,129c0,0-1.3,0.2-2.7,0.2h-4.1v-3h10l0.5,3.3l-3.2,5.4c-1.2,2-1.8,3.6-1.8,6.3v0.6h-3.4v-0.6
					c0-2.9,0.9-5,1.8-6.9l1.2-2.2C100.7,130.5,101.5,129.1,101.5,129L101.5,129z"/>
			</g>
			<rect x="113.5" y="119.4" fill="#FFFFFF" width="29.3" height="29.3"/>
			<g>
				<path fill="#F9F0DF" d="M125,126.2v15.5h-3.4v-7.8l0.1-4.4h-0.1l-2,1.7l-1.2,0.8l-1.8-2.6l4.9-3.2H125z"/>
				<path fill="#F9F0DF" d="M128.1,137.5c0-1.9,1.2-3.1,2.8-3.6v-0.1c-1.3-0.3-2.4-1.5-2.4-3.3c0-2.9,1.9-4.5,5.1-4.5
					c3.3,0,5,1.4,5,4.2c0,1.7-1.1,2.9-2.4,3.3v0.1c1.5,0.3,2.8,1.2,2.8,3.4c0,3.3-2.1,4.8-5.5,4.8
					C130.1,141.9,128.1,140.6,128.1,137.5z M131.4,137.2c0,1.2,0.6,2,2.2,2c1.5,0,2.1-0.7,2.1-2c0-1-0.4-2-2.2-2
					C131.9,135.2,131.4,136.3,131.4,137.2z M135.3,130.5c0-1-0.5-1.8-1.7-1.8c-1.3,0-1.8,0.7-1.8,1.8c0,1.2,0.4,2,1.8,2
					C134.9,132.5,135.3,131.8,135.3,130.5z"/>
			</g>
			<rect x="146.9" y="119.4" fill="#FFFFFF" width="29.3" height="29.3"/>
			<g>
				<path fill="#F9F0DF" d="M158.8,126.2v15.5h-3.4v-7.8l0.1-4.4h-0.1l-2,1.7l-1.2,0.8l-1.8-2.6l4.9-3.2H158.8z"/>
				<path fill="#F9F0DF" d="M167.7,136.2c-0.4,0.1-0.8,0.1-1.3,0.1c-2.7,0-4.9-1.3-4.9-4.8c0-3.5,2.2-5.5,5.5-5.5
					c3.7,0,5.1,2.4,5.1,5.9c0,3.9-2.3,7.8-5,9.8h-4.3v-0.4C165.4,139.8,167,137.9,167.7,136.2L167.7,136.2z M168.7,133.3
					c0.1-0.5,0.1-0.8,0.1-1.3c0-2.5-1.1-3.3-2.1-3.3c-1.2,0-1.8,0.6-1.8,2.3c0,1.6,0.7,2.4,2.3,2.4
					C167.8,133.6,168.2,133.5,168.7,133.3z"/>
			</g>
			<rect x="180.2" y="119.4" fill="#FFFFFF" width="29.3" height="29.3"/>
			<g>
				<path fill="#F9F0DF" d="M187.5,139l2.7-0.1h3.4v2.8H184l-0.6-2.8c2.4-2.3,4.3-4.2,5.4-5.7c0.7-1,1.1-1.8,1.1-2.6
					c0-1.2-0.6-1.7-1.5-1.7c-1.1,0-1.5,1-1.5,2.1l-3.4-0.6c0.3-2.4,1.8-4.3,5.1-4.3c3,0,4.8,1.5,4.8,4.1c0,1.7-0.5,3.1-1.9,4.9
					c-0.6,0.7-1.3,1.5-2.1,2.3C188.8,137.8,188.2,138.4,187.5,139L187.5,139z"/>
				<path fill="#F9F0DF" d="M195.2,134.1c0-5.6,2-8.1,5.8-8.1c3.9,0,5.5,2.6,5.5,8c0,5.5-2.1,8-5.9,8
					C196.8,141.9,195.2,139.3,195.2,134.1z M201,139.1c1.8,0,2.3-1.5,2.3-5c0-3.5-0.7-5.2-2.4-5.2c-1.8,0-2.2,1.6-2.2,5.1
					C198.6,137.5,199.3,139.1,201,139.1z"/>
			</g>
			<rect x="213.6" y="119.4" fill="#FFFFFF" width="29.3" height="29.3"/>
			<g>
				<path fill="#F9F0DF" d="M222.1,139l2.7-0.1h3.4v2.8h-9.6l-0.6-2.8c2.4-2.3,4.3-4.2,5.4-5.7c0.7-1,1.1-1.8,1.1-2.6
					c0-1.2-0.6-1.7-1.5-1.7c-1.1,0-1.5,1-1.5,2.1l-3.4-0.6c0.3-2.4,1.8-4.3,5.1-4.3c3,0,4.8,1.5,4.8,4.1c0,1.7-0.5,3.1-1.9,4.9
					c-0.6,0.7-1.3,1.5-2.1,2.3C223.4,137.8,222.8,138.4,222.1,139L222.1,139z"/>
				<path fill="#F9F0DF" d="M237.5,126.2v15.5h-3.4v-7.8l0.1-4.4h-0.1l-2,1.7L231,132l-1.8-2.6l4.9-3.2H237.5z"/>
			</g>
			<rect x="13.5" y="152.1" fill="#FFFFFF" width="29.3" height="29.3"/>
			<g>
				<path fill="#F9F0DF" d="M21.3,171.7l2.7-0.1h3.4v2.8h-9.6l-0.6-2.8c2.4-2.3,4.3-4.2,5.4-5.7c0.7-1,1.1-1.8,1.1-2.6
					c0-1.2-0.6-1.7-1.5-1.7c-1.1,0-1.5,1-1.5,2.1l-3.4-0.6c0.3-2.4,1.8-4.3,5.1-4.3c3,0,4.8,1.5,4.8,4.1c0,1.7-0.5,3.1-1.9,4.9
					c-0.6,0.7-1.3,1.5-2.1,2.3C22.7,170.5,22,171,21.3,171.7L21.3,171.7z"/>
				<path fill="#F9F0DF" d="M33.2,171.7l2.7-0.1h3.4v2.8h-9.6l-0.6-2.8c2.4-2.3,4.3-4.2,5.4-5.7c0.7-1,1.1-1.8,1.1-2.6
					c0-1.2-0.6-1.7-1.5-1.7c-1.1,0-1.5,1-1.5,2.1l-3.4-0.6c0.3-2.4,1.8-4.3,5.1-4.3c3,0,4.8,1.5,4.8,4.1c0,1.7-0.5,3.1-1.9,4.9
					c-0.6,0.7-1.3,1.5-2.1,2.3C34.5,170.5,33.9,171,33.2,171.7L33.2,171.7z"/>
			</g>
			<rect x="46.8" y="152.1" fill="#FFFFFF" width="29.3" height="29.3"/>
			<g>
				<path fill="#F9F0DF" d="M54.7,171.7l2.7-0.1h3.4v2.8h-9.6l-0.6-2.8c2.4-2.3,4.3-4.2,5.4-5.7c0.7-1,1.1-1.8,1.1-2.6
					c0-1.2-0.6-1.7-1.5-1.7c-1.1,0-1.5,1-1.5,2.1l-3.4-0.6c0.3-2.4,1.8-4.3,5.1-4.3c3,0,4.8,1.5,4.8,4.1c0,1.7-0.5,3.1-1.9,4.9
					c-0.6,0.7-1.3,1.5-2.1,2.3C56,170.5,55.4,171,54.7,171.7L54.7,171.7z"/>
				<path fill="#F9F0DF" d="M69.7,166.3c1.4,0.1,2.9,1,2.9,3.3c0,3.3-2.2,5-5.7,5c-2.8,0-4.5-1.6-5.1-3.3l3.2-1.4
					c0.3,0.7,1,1.9,2.4,1.9c1.3,0,1.9-0.7,1.9-2c0-1.2-0.8-1.8-2.6-1.8h-1v-2.8h1c1.5,0,2.1-0.6,2.1-2c0-1.1-0.5-1.7-1.5-1.7
					c-1,0-1.6,0.7-1.6,1.8l-3.3-0.3c0.1-2.4,1.8-4.3,4.8-4.3c3.3,0,4.9,1.4,4.9,4.2C72,164.7,71,165.8,69.7,166.3L69.7,166.3z"/>
			</g>
			<rect x="80.2" y="152.1" fill="#FFFFFF" width="29.3" height="29.3"/>
			<g>
				<path fill="#F9F0DF" d="M87.7,171.7l2.7-0.1h3.4v2.8h-9.6l-0.6-2.8c2.4-2.3,4.3-4.2,5.4-5.7c0.7-1,1.1-1.8,1.1-2.6
					c0-1.2-0.6-1.7-1.5-1.7c-1.1,0-1.5,1-1.5,2.1l-3.4-0.6c0.3-2.4,1.8-4.3,5.1-4.3c3,0,4.8,1.5,4.8,4.1c0,1.7-0.5,3.1-1.9,4.9
					c-0.6,0.7-1.3,1.5-2.1,2.3C89,170.5,88.4,171,87.7,171.7L87.7,171.7z"/>
				<path fill="#F9F0DF" d="M95.7,171l-0.7-2.6l5.8-9.5h3.8v9.3h2.1v2.7h-2.1v3.4h-3.3V171H95.7z M101.7,162.4l-1.5,3l-1.8,2.8h3
					v-2.1L101.7,162.4L101.7,162.4z"/>
			</g>
			<rect x="13.5" y="184.7" fill="#FFFFFF" width="29.3" height="29.3"/>
			<g>
				<path fill="#F9F0DF" d="M21.2,204.4l2.7-0.1h3.4v2.8h-9.6l-0.6-2.8c2.4-2.3,4.3-4.2,5.4-5.7c0.7-1,1.1-1.8,1.1-2.6
					c0-1.2-0.6-1.7-1.5-1.7c-1.1,0-1.5,1-1.5,2.1l-3.4-0.6c0.3-2.4,1.8-4.3,5.1-4.3c3,0,4.8,1.5,4.8,4.1c0,1.7-0.5,3.1-1.9,4.9
					c-0.6,0.7-1.3,1.5-2.1,2.3C22.5,203.2,21.9,203.7,21.2,204.4L21.2,204.4z"/>
				<path fill="#F9F0DF" d="M35,201.6c-0.4,0.1-0.8,0.1-1.3,0.1c-2.7,0-4.9-1.3-4.9-4.8c0-3.5,2.2-5.5,5.5-5.5
					c3.7,0,5.1,2.4,5.1,5.9c0,3.9-2.3,7.8-5,9.8H30v-0.4C32.7,205.1,34.2,203.2,35,201.6L35,201.6z M35.9,198.7
					c0.1-0.5,0.1-0.8,0.1-1.3c0-2.5-1.1-3.3-2.1-3.3c-1.2,0-1.8,0.6-1.8,2.3c0,1.6,0.7,2.4,2.3,2.4C35,198.9,35.5,198.8,35.9,198.7z
					"/>
			</g>
			<rect x="46.8" y="184.7" fill="#FFFFFF" width="29.3" height="29.3"/>
			<g>
				<path fill="#F9F0DF" d="M57.2,199c1.4,0.1,2.9,1,2.9,3.3c0,3.3-2.2,5-5.7,5c-2.8,0-4.5-1.6-5.1-3.3l3.2-1.4
					c0.3,0.7,1,1.9,2.4,1.9c1.3,0,1.9-0.7,1.9-2c0-1.2-0.8-1.8-2.6-1.8h-1v-2.8h1c1.5,0,2.1-0.6,2.1-2c0-1.1-0.5-1.7-1.5-1.7
					c-1,0-1.6,0.7-1.6,1.8l-3.3-0.3c0.1-2.4,1.8-4.3,4.8-4.3c3.3,0,4.9,1.4,4.9,4.2C59.6,197.4,58.5,198.5,57.2,199L57.2,199z"/>
				<path fill="#F9F0DF" d="M61.8,199.4c0-5.6,2-8.1,5.8-8.1c3.9,0,5.5,2.6,5.5,8c0,5.5-2.1,8-5.9,8
					C63.4,207.3,61.8,204.7,61.8,199.4z M67.6,204.4c1.8,0,2.3-1.5,2.3-5c0-3.5-0.7-5.2-2.4-5.2c-1.8,0-2.2,1.6-2.2,5.1
					C65.2,202.9,65.9,204.4,67.6,204.4z"/>
			</g>
			<rect x="80.2" y="184.7" fill="#FFFFFF" width="29.3" height="29.3"/>
			<g>
				<path fill="#F9F0DF" d="M91.9,199c1.4,0.1,2.9,1,2.9,3.3c0,3.3-2.2,5-5.7,5c-2.8,0-4.5-1.6-5.1-3.3l3.2-1.4
					c0.3,0.7,1,1.9,2.4,1.9c1.3,0,1.9-0.7,1.9-2c0-1.2-0.8-1.8-2.6-1.8h-1v-2.8h1c1.5,0,2.1-0.6,2.1-2c0-1.1-0.5-1.7-1.5-1.7
					c-1,0-1.6,0.7-1.6,1.8l-3.3-0.3c0.1-2.4,1.8-4.3,4.8-4.3c3.3,0,4.9,1.4,4.9,4.2C94.2,197.4,93.2,198.5,91.9,199L91.9,199z"/>
				<path fill="#F9F0DF" d="M104.1,191.6v15.5h-3.4v-7.8l0.1-4.4h-0.1l-2,1.7l-1.2,0.8l-1.8-2.6l4.9-3.2H104.1z"/>
			</g>
			<rect x="113.5" y="152.1" fill="#FFFFFF" width="29.3" height="29.3"/>
			<g>
				<path fill="#F9F0DF" d="M121,171.7l2.7-0.1h3.4v2.8h-9.6l-0.6-2.8c2.4-2.3,4.3-4.2,5.4-5.7c0.7-1,1.1-1.8,1.1-2.6
					c0-1.2-0.6-1.7-1.5-1.7c-1.1,0-1.5,1-1.5,2.1L117,163c0.3-2.4,1.8-4.3,5.1-4.3c3,0,4.8,1.5,4.8,4.1c0,1.7-0.5,3.1-1.9,4.9
					c-0.6,0.7-1.3,1.5-2.1,2.3C122.3,170.5,121.7,171,121,171.7L121,171.7z"/>
				<path fill="#F9F0DF" d="M128.7,171.4l3.3-1.4c0.4,1.1,1,1.9,2.2,1.9c1.3,0,1.9-0.9,1.9-2.4c0-1.6-0.7-2.5-2.1-2.5
					c-0.7,0-1.3,0.3-1.7,0.7l-2.8-1l0.6-7.8h8.5v2.8h-5.5l-0.3,3.3h0.1c0.4-0.3,1.3-0.6,2-0.6c3.2,0,4.6,1.7,4.6,4.7
					c0,3.3-2,5.6-5.5,5.6C130.6,174.6,129.3,173,128.7,171.4z"/>
			</g>
			<rect x="146.9" y="152.1" fill="#FFFFFF" width="29.3" height="29.3"/>
			<g>
				<path fill="#F9F0DF" d="M154.3,171.7l2.7-0.1h3.4v2.8h-9.6l-0.6-2.8c2.4-2.3,4.3-4.2,5.4-5.7c0.7-1,1.1-1.8,1.1-2.6
					c0-1.2-0.6-1.7-1.5-1.7c-1.1,0-1.5,1-1.5,2.1l-3.4-0.6c0.3-2.4,1.8-4.3,5.1-4.3c3,0,4.8,1.5,4.8,4.1c0,1.7-0.5,3.1-1.9,4.9
					c-0.6,0.7-1.3,1.5-2.1,2.3C155.7,170.5,155,171,154.3,171.7L154.3,171.7z"/>
				<path fill="#F9F0DF" d="M166.9,164.3c0.3-0.1,0.9-0.2,1.4-0.2c2.7,0,4.7,1.4,4.7,4.8c0,3.5-2.2,5.7-5.5,5.7
					c-3.8,0-5.1-2.4-5.1-6c0-4.2,2.4-7.8,5.1-9.7h4.3v0.4C169.1,160.9,167.7,162.5,166.9,164.3L166.9,164.3z M165.8,167
					c-0.1,0.5-0.1,1-0.1,1.5c0,2.6,1.1,3.3,2.2,3.3c1.2,0,1.8-0.8,1.8-2.5c0-1.5-0.8-2.5-2.3-2.5C166.7,166.8,166.3,166.9,165.8,167
					z"/>
			</g>
			<rect x="180.2" y="152.1" fill="#FFFFFF" width="29.3" height="29.3"/>
			<g>
				<path fill="#F9F0DF" d="M188.7,171.7l2.7-0.1h3.4v2.8h-9.6l-0.6-2.8c2.4-2.3,4.3-4.2,5.4-5.7c0.7-1,1.1-1.8,1.1-2.6
					c0-1.2-0.6-1.7-1.5-1.7c-1.1,0-1.5,1-1.5,2.1l-3.4-0.6c0.3-2.4,1.8-4.3,5.1-4.3c3,0,4.8,1.5,4.8,4.1c0,1.7-0.5,3.1-1.9,4.9
					c-0.6,0.7-1.3,1.5-2.1,2.3C190,170.5,189.4,171,188.7,171.7L188.7,171.7z"/>
				<path fill="#F9F0DF" d="M202.2,161.7c0,0-1.3,0.2-2.7,0.2h-4.1v-3h10l0.5,3.3l-3.2,5.4c-1.2,2-1.8,3.6-1.8,6.3v0.6h-3.4v-0.6
					c0-2.9,0.9-5,1.8-6.9l1.2-2.2C201.4,163.1,202.2,161.8,202.2,161.7L202.2,161.7z"/>
			</g>
			<rect x="213.6" y="152.1" fill="#FFFFFF" width="29.3" height="29.3"/>
			<g>
				<path fill="#F9F0DF" d="M220.9,171.7l2.7-0.1h3.4v2.8h-9.6l-0.6-2.8c2.4-2.3,4.3-4.2,5.4-5.7c0.7-1,1.1-1.8,1.1-2.6
					c0-1.2-0.6-1.7-1.5-1.7c-1.1,0-1.5,1-1.5,2.1l-3.4-0.6c0.3-2.4,1.8-4.3,5.1-4.3c3,0,4.8,1.5,4.8,4.1c0,1.7-0.5,3.1-1.9,4.9
					c-0.6,0.7-1.3,1.5-2.1,2.3C222.2,170.5,221.6,171,220.9,171.7L220.9,171.7z"/>
				<path fill="#F9F0DF" d="M228.8,170.1c0-1.9,1.2-3.1,2.8-3.6v-0.1c-1.3-0.3-2.4-1.5-2.4-3.3c0-2.9,1.9-4.5,5.1-4.5
					c3.3,0,5,1.4,5,4.2c0,1.7-1.1,2.9-2.4,3.3v0.1c1.5,0.3,2.8,1.2,2.8,3.4c0,3.3-2.1,4.8-5.5,4.8
					C230.8,174.6,228.8,173.3,228.8,170.1z M232.1,169.9c0,1.2,0.6,2,2.2,2c1.5,0,2.1-0.7,2.1-2c0-1-0.4-2-2.2-2
					C232.6,167.9,232.1,168.9,232.1,169.9z M236,163.2c0-1-0.5-1.8-1.7-1.8c-1.3,0-1.8,0.7-1.8,1.8c0,1.2,0.4,2,1.8,2
					C235.6,165.2,236,164.5,236,163.2z"/>
			</g>
		</g>
		<g>
			<rect x="599" y="54" fill="#FFFFFF" width="29.3" height="29.3"/>
			<g>
				<path fill="#F9F0DF" d="M617,60.8v15.5h-3.4v-7.8l0.1-4.4h-0.1l-2,1.7l-1.2,0.8l-1.8-2.6l4.9-3.2H617z"/>
			</g>
			<rect x="632.3" y="54" fill="#FFFFFF" width="29.3" height="29.3"/>
			<g>
				<path fill="#F9F0DF" d="M646.1,73.7l2.7-0.1h3.4v2.8h-9.6l-0.6-2.8c2.4-2.3,4.3-4.2,5.4-5.7c0.7-1,1.1-1.8,1.1-2.6
					c0-1.2-0.6-1.7-1.5-1.7c-1.1,0-1.5,1-1.5,2.1l-3.4-0.6c0.3-2.4,1.8-4.3,5.1-4.3c3,0,4.8,1.5,4.8,4.1c0,1.7-0.5,3.1-1.9,4.9
					c-0.6,0.7-1.3,1.5-2.1,2.3C647.4,72.4,646.8,73,646.1,73.7L646.1,73.7z"/>
			</g>
			<rect x="665.7" y="54" fill="#FFFFFF" width="29.3" height="29.3"/>
			<g>
				<path fill="#F9F0DF" d="M682.6,68.3c1.4,0.1,2.9,1,2.9,3.3c0,3.3-2.2,5-5.7,5c-2.8,0-4.5-1.6-5.1-3.3l3.2-1.4
					c0.3,0.7,1,1.9,2.4,1.9c1.3,0,1.9-0.7,1.9-2c0-1.2-0.8-1.8-2.6-1.8h-1v-2.8h1c1.5,0,2.1-0.6,2.1-2c0-1.1-0.5-1.7-1.5-1.7
					c-1,0-1.6,0.7-1.6,1.8l-3.3-0.3c0.1-2.4,1.8-4.3,4.8-4.3c3.3,0,4.9,1.4,4.9,4.2C685,66.6,683.9,67.8,682.6,68.3L682.6,68.3z"/>
			</g>
			<rect x="699" y="54" fill="#FFFFFF" width="29.3" height="29.3"/>
			<g>
				<path fill="#F9F0DF" d="M708.7,72.9l-0.7-2.6l5.8-9.5h3.8v9.3h2.1v2.7h-2.1v3.4h-3.3v-3.4H708.7z M714.7,64.3l-1.5,3l-1.8,2.8h3
					v-2.1L714.7,64.3L714.7,64.3z"/>
			</g>
			<rect x="732.4" y="54" fill="#FFFFFF" width="29.3" height="29.3"/>
			<g>
				<path fill="#F9F0DF" d="M741.6,73.3l3.3-1.4c0.4,1.1,1,1.9,2.2,1.9c1.3,0,1.9-0.9,1.9-2.4c0-1.6-0.7-2.5-2.1-2.5
					c-0.7,0-1.3,0.3-1.7,0.7l-2.8-1l0.6-7.8h8.5v2.8H746l-0.3,3.3h0.1c0.4-0.3,1.3-0.6,2-0.6c3.2,0,4.6,1.7,4.6,4.7
					c0,3.3-2,5.6-5.5,5.6C743.5,76.6,742.2,74.9,741.6,73.3z"/>
			</g>
			<rect x="765.7" y="54" fill="#FFFFFF" width="29.3" height="29.3"/>
			<g>
				<path fill="#F9F0DF" d="M779.8,66.2c0.3-0.1,0.9-0.2,1.4-0.2c2.7,0,4.7,1.4,4.7,4.8c0,3.5-2.2,5.7-5.5,5.7c-3.8,0-5.1-2.4-5.1-6
					c0-4.2,2.4-7.8,5.1-9.7h4.3v0.4C782.1,62.8,780.7,64.5,779.8,66.2L779.8,66.2z M778.8,68.9c-0.1,0.5-0.1,1-0.1,1.5
					c0,2.6,1.1,3.3,2.2,3.3c1.2,0,1.8-0.8,1.8-2.5c0-1.5-0.8-2.5-2.3-2.5C779.6,68.7,779.2,68.8,778.8,68.9z"/>
			</g>
			<rect x="799.1" y="54" fill="#FFFFFF" width="29.3" height="29.3"/>
			<g>
				<path fill="#F9F0DF" d="M815.2,63.7c0,0-1.3,0.2-2.7,0.2h-4.1v-3h10l0.5,3.3l-3.2,5.4c-1.2,2-1.8,3.6-1.8,6.3v0.6h-3.4v-0.6
					c0-2.9,0.9-5,1.8-6.9l1.2-2.2C814.3,65.1,815.2,63.7,815.2,63.7L815.2,63.7z"/>
			</g>
			<rect x="599" y="86.7" fill="#FFFFFF" width="29.3" height="29.3"/>
			<g>
				<path fill="#F9F0DF" d="M608.3,104.8c0-1.9,1.2-3.1,2.8-3.6v-0.1c-1.3-0.3-2.4-1.5-2.4-3.3c0-2.9,1.9-4.5,5.1-4.5
					c3.3,0,5,1.4,5,4.2c0,1.7-1.1,2.9-2.4,3.3v0.1c1.5,0.3,2.8,1.2,2.8,3.4c0,3.3-2.1,4.8-5.5,4.8
					C610.3,109.2,608.3,107.9,608.3,104.8z M611.6,104.6c0,1.2,0.6,2,2.2,2c1.5,0,2.1-0.7,2.1-2c0-1-0.4-2-2.2-2
					C612.1,102.5,611.6,103.6,611.6,104.6z M615.5,97.8c0-1-0.5-1.8-1.7-1.8c-1.3,0-1.8,0.7-1.8,1.8c0,1.2,0.4,2,1.8,2
					C615.1,99.8,615.5,99.1,615.5,97.8z"/>
			</g>
			<rect x="632.3" y="86.7" fill="#FFFFFF" width="29.3" height="29.3"/>
			<g>
				<path fill="#F9F0DF" d="M647.9,103.5c-0.4,0.1-0.8,0.1-1.3,0.1c-2.7,0-4.9-1.3-4.9-4.8c0-3.5,2.2-5.5,5.5-5.5
					c3.7,0,5.1,2.4,5.1,5.9c0,3.9-2.3,7.8-5,9.8H643v-0.4C645.6,107.1,647.2,105.2,647.9,103.5L647.9,103.5z M648.9,100.6
					c0.1-0.5,0.1-0.8,0.1-1.3c0-2.5-1.1-3.3-2.1-3.3c-1.2,0-1.8,0.6-1.8,2.3c0,1.6,0.7,2.4,2.3,2.4
					C648,100.9,648.4,100.8,648.9,100.6z"/>
			</g>
			<rect x="665.7" y="86.7" fill="#FFFFFF" width="29.3" height="29.3"/>
			<g>
				<path fill="#F9F0DF" d="M677.1,93.5V109h-3.4v-7.8l0.1-4.4h-0.1l-2,1.7l-1.2,0.8l-1.8-2.6l4.9-3.2H677.1z"/>
				<path fill="#F9F0DF" d="M680,101.4c0-5.6,2-8.1,5.8-8.1c3.9,0,5.5,2.6,5.5,8c0,5.5-2.1,8-5.9,8C681.6,109.2,680,106.7,680,101.4
					z M685.8,106.4c1.8,0,2.3-1.5,2.3-5c0-3.5-0.7-5.2-2.4-5.2c-1.8,0-2.2,1.6-2.2,5.1C683.4,104.8,684.1,106.4,685.8,106.4z"/>
			</g>
			<rect x="699" y="86.7" fill="#FFFFFF" width="29.3" height="29.3"/>
			<g>
				<path fill="#F9F0DF" d="M711.7,93.5V109h-3.4v-7.8l0.1-4.4h-0.1l-2,1.7l-1.2,0.8l-1.8-2.6l4.9-3.2H711.7z"/>
				<path fill="#F9F0DF" d="M722.3,93.5V109h-3.4v-7.8l0.1-4.4h-0.1l-2,1.7l-1.2,0.8l-1.8-2.6l4.9-3.2H722.3z"/>
			</g>
			<rect x="732.4" y="86.7" fill="#FFFFFF" width="29.3" height="29.3"/>
			<g>
				<path fill="#F9F0DF" d="M744.4,93.5V109h-3.4v-7.8l0.1-4.4h-0.1l-2,1.7l-1.2,0.8l-1.8-2.6l4.9-3.2H744.4z"/>
				<path fill="#F9F0DF" d="M751.4,106.4l2.7-0.1h3.4v2.8h-9.6l-0.6-2.8c2.4-2.3,4.3-4.2,5.4-5.7c0.7-1,1.1-1.8,1.1-2.6
					c0-1.2-0.6-1.7-1.5-1.7c-1.1,0-1.5,1-1.5,2.1l-3.4-0.6c0.3-2.4,1.8-4.3,5.1-4.3c3,0,4.8,1.5,4.8,4.1c0,1.7-0.5,3.1-1.9,4.9
					c-0.6,0.7-1.3,1.5-2.1,2.3C752.8,105.1,752.1,105.7,751.4,106.4L751.4,106.4z"/>
			</g>
			<rect x="765.7" y="86.7" fill="#FFFFFF" width="29.3" height="29.3"/>
			<g>
				<path fill="#F9F0DF" d="M777.8,93.5V109h-3.4v-7.8l0.1-4.4h-0.1l-2,1.7l-1.2,0.8l-1.8-2.6l4.9-3.2H777.8z"/>
				<path fill="#F9F0DF" d="M788,101c1.4,0.1,2.9,1,2.9,3.3c0,3.3-2.2,5-5.7,5c-2.8,0-4.5-1.6-5.1-3.3l3.2-1.4
					c0.3,0.7,1,1.9,2.4,1.9c1.3,0,1.9-0.7,1.9-2c0-1.2-0.8-1.8-2.6-1.8h-1v-2.8h1c1.5,0,2.1-0.6,2.1-2c0-1.1-0.5-1.7-1.5-1.7
					c-1,0-1.6,0.7-1.6,1.8l-3.3-0.3c0.1-2.4,1.8-4.3,4.8-4.3c3.3,0,4.9,1.4,4.9,4.2C790.3,99.3,789.2,100.5,788,101L788,101z"/>
			</g>
			<rect x="799.1" y="86.7" fill="#FFFFFF" width="29.3" height="29.3"/>
			<g>
				<path fill="#F9F0DF" d="M810.8,93.5V109h-3.4v-7.8l0.1-4.4h-0.1l-2,1.7l-1.2,0.8l-1.8-2.6l4.9-3.2H810.8z"/>
				<path fill="#F9F0DF" d="M814,105.6l-0.7-2.6l5.8-9.5h3.8v9.3h2.1v2.7H823v3.4h-3.3v-3.4H814z M820,97l-1.5,3l-1.8,2.8h3v-2.1
					L820,97L820,97z"/>
			</g>
			<rect x="599" y="119.4" fill="#FFFFFF" width="29.3" height="29.3"/>
			<g>
				<path fill="#F9F0DF" d="M610.6,126.2v15.5h-3.4v-7.8l0.1-4.4h-0.1l-2,1.7l-1.2,0.8l-1.8-2.6l4.9-3.2H610.6z"/>
				<path fill="#F9F0DF" d="M613.5,138.7l3.3-1.4c0.4,1.1,1,1.9,2.2,1.9c1.3,0,1.9-0.9,1.9-2.4c0-1.6-0.7-2.5-2.1-2.5
					c-0.7,0-1.3,0.3-1.7,0.7l-2.8-1l0.6-7.8h8.5v2.8h-5.5l-0.3,3.3h0.1c0.4-0.3,1.3-0.6,2-0.6c3.2,0,4.6,1.7,4.6,4.7
					c0,3.3-2,5.6-5.5,5.6C615.4,141.9,614.1,140.3,613.5,138.7z"/>
			</g>
			<rect x="632.3" y="119.4" fill="#FFFFFF" width="29.3" height="29.3"/>
			<g>
				<path fill="#F9F0DF" d="M644,126.2v15.5h-3.4v-7.8l0.1-4.4h-0.1l-2,1.7l-1.2,0.8l-1.8-2.6l4.9-3.2H644z"/>
				<path fill="#F9F0DF" d="M651.7,131.6c0.3-0.1,0.9-0.2,1.4-0.2c2.7,0,4.7,1.4,4.7,4.8c0,3.5-2.2,5.7-5.5,5.7
					c-3.8,0-5.1-2.4-5.1-6c0-4.2,2.4-7.8,5.1-9.7h4.3v0.4C653.9,128.2,652.6,129.9,651.7,131.6L651.7,131.6z M650.6,134.3
					c-0.1,0.5-0.1,1-0.1,1.5c0,2.6,1.1,3.3,2.2,3.3c1.2,0,1.8-0.8,1.8-2.5c0-1.5-0.8-2.5-2.3-2.5
					C651.5,134.1,651.1,134.2,650.6,134.3z"/>
			</g>
			<rect x="665.7" y="119.4" fill="#FFFFFF" width="29.3" height="29.3"/>
			<g>
				<path fill="#F9F0DF" d="M678.4,126.2v15.5H675v-7.8l0.1-4.4H675l-2,1.7l-1.2,0.8l-1.8-2.6l4.9-3.2H678.4z"/>
				<path fill="#F9F0DF" d="M687,129c0,0-1.3,0.2-2.7,0.2h-4.1v-3h10l0.5,3.3l-3.2,5.4c-1.2,2-1.8,3.6-1.8,6.3v0.6h-3.4v-0.6
					c0-2.9,0.9-5,1.8-6.9l1.2-2.2C686.2,130.5,687,129.1,687,129L687,129z"/>
			</g>
			<rect x="699" y="119.4" fill="#FFFFFF" width="29.3" height="29.3"/>
			<g>
				<path fill="#F9F0DF" d="M710.5,126.2v15.5h-3.4v-7.8l0.1-4.4h-0.1l-2,1.7L704,132l-1.8-2.6l4.9-3.2H710.5z"/>
				<path fill="#F9F0DF" d="M713.6,137.5c0-1.9,1.2-3.1,2.8-3.6v-0.1c-1.3-0.3-2.4-1.5-2.4-3.3c0-2.9,1.9-4.5,5.1-4.5
					c3.3,0,5,1.4,5,4.2c0,1.7-1.1,2.9-2.4,3.3v0.1c1.5,0.3,2.8,1.2,2.8,3.4c0,3.3-2.1,4.8-5.5,4.8
					C715.6,141.9,713.6,140.6,713.6,137.5z M716.9,137.2c0,1.2,0.6,2,2.2,2c1.5,0,2.1-0.7,2.1-2c0-1-0.4-2-2.2-2
					C717.4,135.2,716.9,136.3,716.9,137.2z M720.8,130.5c0-1-0.5-1.8-1.7-1.8c-1.3,0-1.8,0.7-1.8,1.8c0,1.2,0.4,2,1.8,2
					C720.4,132.5,720.8,131.8,720.8,130.5z"/>
			</g>
			<rect x="732.4" y="119.4" fill="#FFFFFF" width="29.3" height="29.3"/>
			<g>
				<path fill="#F9F0DF" d="M744.3,126.2v15.5h-3.4v-7.8l0.1-4.4H741l-2,1.7l-1.2,0.8l-1.8-2.6l4.9-3.2H744.3z"/>
				<path fill="#F9F0DF" d="M753.2,136.2c-0.4,0.1-0.8,0.1-1.3,0.1c-2.7,0-4.9-1.3-4.9-4.8c0-3.5,2.2-5.5,5.5-5.5
					c3.7,0,5.1,2.4,5.1,5.9c0,3.9-2.3,7.8-5,9.8h-4.3v-0.4C750.9,139.8,752.5,137.9,753.2,136.2L753.2,136.2z M754.2,133.3
					c0.1-0.5,0.1-0.8,0.1-1.3c0-2.5-1.1-3.3-2.1-3.3c-1.2,0-1.8,0.6-1.8,2.3c0,1.6,0.7,2.4,2.3,2.4
					C753.3,133.6,753.7,133.5,754.2,133.3z"/>
			</g>
			<rect x="765.7" y="119.4" fill="#FFFFFF" width="29.3" height="29.3"/>
			<g>
				<path fill="#F9F0DF" d="M773,139l2.7-0.1h3.4v2.8h-9.6l-0.6-2.8c2.4-2.3,4.3-4.2,5.4-5.7c0.7-1,1.1-1.8,1.1-2.6
					c0-1.2-0.6-1.7-1.5-1.7c-1.1,0-1.5,1-1.5,2.1l-3.4-0.6c0.3-2.4,1.8-4.3,5.1-4.3c3,0,4.8,1.5,4.8,4.1c0,1.7-0.5,3.1-1.9,4.9
					c-0.6,0.7-1.3,1.5-2.1,2.3C774.3,137.8,773.7,138.4,773,139L773,139z"/>
				<path fill="#F9F0DF" d="M780.7,134.1c0-5.6,2-8.1,5.8-8.1c3.9,0,5.5,2.6,5.5,8c0,5.5-2.1,8-5.9,8
					C782.3,141.9,780.7,139.3,780.7,134.1z M786.5,139.1c1.8,0,2.3-1.5,2.3-5c0-3.5-0.7-5.2-2.4-5.2c-1.8,0-2.2,1.6-2.2,5.1
					C784.1,137.5,784.8,139.1,786.5,139.1z"/>
			</g>
			<rect x="799.1" y="119.4" fill="#FFFFFF" width="29.3" height="29.3"/>
			<g>
				<path fill="#F9F0DF" d="M807.6,139l2.7-0.1h3.4v2.8h-9.6l-0.6-2.8c2.4-2.3,4.3-4.2,5.4-5.7c0.7-1,1.1-1.8,1.1-2.6
					c0-1.2-0.6-1.7-1.5-1.7c-1.1,0-1.5,1-1.5,2.1l-3.4-0.6c0.3-2.4,1.8-4.3,5.1-4.3c3,0,4.8,1.5,4.8,4.1c0,1.7-0.5,3.1-1.9,4.9
					c-0.6,0.7-1.3,1.5-2.1,2.3C808.9,137.8,808.3,138.4,807.6,139L807.6,139z"/>
				<path fill="#F9F0DF" d="M823,126.2v15.5h-3.4v-7.8l0.1-4.4h-0.1l-2,1.7l-1.2,0.8l-1.8-2.6l4.9-3.2H823z"/>
			</g>
			<rect x="599" y="152.1" fill="#FFFFFF" width="29.3" height="29.3"/>
			<g>
				<path fill="#F9F0DF" d="M606.9,171.7l2.7-0.1h3.4v2.8h-9.6l-0.6-2.8c2.4-2.3,4.3-4.2,5.4-5.7c0.7-1,1.1-1.8,1.1-2.6
					c0-1.2-0.6-1.7-1.5-1.7c-1.1,0-1.5,1-1.5,2.1l-3.4-0.6c0.3-2.4,1.8-4.3,5.1-4.3c3,0,4.8,1.5,4.8,4.1c0,1.7-0.5,3.1-1.9,4.9
					c-0.6,0.7-1.3,1.5-2.1,2.3C608.2,170.5,607.5,171,606.9,171.7L606.9,171.7z"/>
				<path fill="#F9F0DF" d="M618.7,171.7l2.7-0.1h3.4v2.8h-9.6l-0.6-2.8c2.4-2.3,4.3-4.2,5.4-5.7c0.7-1,1.1-1.8,1.1-2.6
					c0-1.2-0.6-1.7-1.5-1.7c-1.1,0-1.5,1-1.5,2.1l-3.4-0.6c0.3-2.4,1.8-4.3,5.1-4.3c3,0,4.8,1.5,4.8,4.1c0,1.7-0.5,3.1-1.9,4.9
					c-0.6,0.7-1.3,1.5-2.1,2.3C620,170.5,619.4,171,618.7,171.7L618.7,171.7z"/>
			</g>
			<rect x="632.3" y="152.1" fill="#FFFFFF" width="29.3" height="29.3"/>
			<g>
				<path fill="#F9F0DF" d="M640.2,171.7l2.7-0.1h3.4v2.8h-9.6l-0.6-2.8c2.4-2.3,4.3-4.2,5.4-5.7c0.7-1,1.1-1.8,1.1-2.6
					c0-1.2-0.6-1.7-1.5-1.7c-1.1,0-1.5,1-1.5,2.1l-3.4-0.6c0.3-2.4,1.8-4.3,5.1-4.3c3,0,4.8,1.5,4.8,4.1c0,1.7-0.5,3.1-1.9,4.9
					c-0.6,0.7-1.3,1.5-2.1,2.3C641.5,170.5,640.9,171,640.2,171.7L640.2,171.7z"/>
				<path fill="#F9F0DF" d="M655.2,166.3c1.4,0.1,2.9,1,2.9,3.3c0,3.3-2.2,5-5.7,5c-2.8,0-4.5-1.6-5.1-3.3l3.2-1.4
					c0.3,0.7,1,1.9,2.4,1.9c1.3,0,1.9-0.7,1.9-2c0-1.2-0.8-1.8-2.6-1.8h-1v-2.8h1c1.5,0,2.1-0.6,2.1-2c0-1.1-0.5-1.7-1.5-1.7
					c-1,0-1.6,0.7-1.6,1.8l-3.3-0.3c0.1-2.4,1.8-4.3,4.8-4.3c3.3,0,4.9,1.4,4.9,4.2C657.5,164.7,656.5,165.8,655.2,166.3
					L655.2,166.3z"/>
			</g>
			<rect x="665.7" y="152.1" fill="#FFFFFF" width="29.3" height="29.3"/>
			<g>
				<path fill="#F9F0DF" d="M673.2,171.7l2.7-0.1h3.4v2.8h-9.6l-0.6-2.8c2.4-2.3,4.3-4.2,5.4-5.7c0.7-1,1.1-1.8,1.1-2.6
					c0-1.2-0.6-1.7-1.5-1.7c-1.1,0-1.5,1-1.5,2.1l-3.4-0.6c0.3-2.4,1.8-4.3,5.1-4.3c3,0,4.8,1.5,4.8,4.1c0,1.7-0.5,3.1-1.9,4.9
					c-0.6,0.7-1.3,1.5-2.1,2.3C674.6,170.5,673.9,171,673.2,171.7L673.2,171.7z"/>
				<path fill="#F9F0DF" d="M681.2,171l-0.7-2.6l5.8-9.5h3.8v9.3h2.1v2.7h-2.1v3.4h-3.3V171H681.2z M687.2,162.4l-1.5,3l-1.8,2.8h3
					v-2.1L687.2,162.4L687.2,162.4z"/>
			</g>
			<rect x="599" y="184.7" fill="#FFFFFF" width="29.3" height="29.3"/>
			<g>
				<path fill="#F9F0DF" d="M606.7,204.4l2.7-0.1h3.4v2.8h-9.6l-0.6-2.8c2.4-2.3,4.3-4.2,5.4-5.7c0.7-1,1.1-1.8,1.1-2.6
					c0-1.2-0.6-1.7-1.5-1.7c-1.1,0-1.5,1-1.5,2.1l-3.4-0.6c0.3-2.4,1.8-4.3,5.1-4.3c3,0,4.8,1.5,4.8,4.1c0,1.7-0.5,3.1-1.9,4.9
					c-0.6,0.7-1.3,1.5-2.1,2.3C608.1,203.2,607.4,203.7,606.7,204.4L606.7,204.4z"/>
				<path fill="#F9F0DF" d="M620.5,201.6c-0.4,0.1-0.8,0.1-1.3,0.1c-2.7,0-4.9-1.3-4.9-4.8c0-3.5,2.2-5.5,5.5-5.5
					c3.7,0,5.1,2.4,5.1,5.9c0,3.9-2.3,7.8-5,9.8h-4.3v-0.4C618.2,205.1,619.7,203.2,620.5,201.6L620.5,201.6z M621.4,198.7
					c0.1-0.5,0.1-0.8,0.1-1.3c0-2.5-1.1-3.3-2.1-3.3c-1.2,0-1.8,0.6-1.8,2.3c0,1.6,0.7,2.4,2.3,2.4
					C620.5,198.9,621,198.8,621.4,198.7z"/>
			</g>
			<rect x="632.3" y="184.7" fill="#FFFFFF" width="29.3" height="29.3"/>
			<g>
				<path fill="#F9F0DF" d="M642.8,199c1.4,0.1,2.9,1,2.9,3.3c0,3.3-2.2,5-5.7,5c-2.8,0-4.5-1.6-5.1-3.3l3.2-1.4
					c0.3,0.7,1,1.9,2.4,1.9c1.3,0,1.9-0.7,1.9-2c0-1.2-0.8-1.8-2.6-1.8h-1v-2.8h1c1.5,0,2.1-0.6,2.1-2c0-1.1-0.5-1.7-1.5-1.7
					c-1,0-1.6,0.7-1.6,1.8l-3.3-0.3c0.1-2.4,1.8-4.3,4.8-4.3c3.3,0,4.9,1.4,4.9,4.2C645.1,197.4,644,198.5,642.8,199L642.8,199z"/>
				<path fill="#F9F0DF" d="M647.3,199.4c0-5.6,2-8.1,5.8-8.1c3.9,0,5.5,2.6,5.5,8c0,5.5-2.1,8-5.9,8
					C648.9,207.3,647.3,204.7,647.3,199.4z M653.1,204.4c1.8,0,2.3-1.5,2.3-5c0-3.5-0.7-5.2-2.4-5.2c-1.8,0-2.2,1.6-2.2,5.1
					C650.7,202.9,651.4,204.4,653.1,204.4z"/>
			</g>
			<rect x="665.7" y="184.7" fill="#FFFFFF" width="29.3" height="29.3"/>
			<g>
				<path fill="#F9F0DF" d="M677.4,199c1.4,0.1,2.9,1,2.9,3.3c0,3.3-2.2,5-5.7,5c-2.8,0-4.5-1.6-5.1-3.3l3.2-1.4
					c0.3,0.7,1,1.9,2.4,1.9c1.3,0,1.9-0.7,1.9-2c0-1.2-0.8-1.8-2.6-1.8h-1v-2.8h1c1.5,0,2.1-0.6,2.1-2c0-1.1-0.5-1.7-1.5-1.7
					c-1,0-1.6,0.7-1.6,1.8l-3.3-0.3c0.1-2.4,1.8-4.3,4.8-4.3c3.3,0,4.9,1.4,4.9,4.2C679.7,197.4,678.7,198.5,677.4,199L677.4,199z"
					/>
				<path fill="#F9F0DF" d="M689.6,191.6v15.5h-3.4v-7.8l0.1-4.4h-0.1l-2,1.7l-1.2,0.8l-1.8-2.6l4.9-3.2H689.6z"/>
			</g>
			<rect x="699" y="152.1" fill="#FFFFFF" width="29.3" height="29.3"/>
			<g>
				<path fill="#F9F0DF" d="M706.5,171.7l2.7-0.1h3.4v2.8H703l-0.6-2.8c2.4-2.3,4.3-4.2,5.4-5.7c0.7-1,1.1-1.8,1.1-2.6
					c0-1.2-0.6-1.7-1.5-1.7c-1.1,0-1.5,1-1.5,2.1l-3.4-0.6c0.3-2.4,1.8-4.3,5.1-4.3c3,0,4.8,1.5,4.8,4.1c0,1.7-0.5,3.1-1.9,4.9
					c-0.6,0.7-1.3,1.5-2.1,2.3C707.8,170.5,707.2,171,706.5,171.7L706.5,171.7z"/>
				<path fill="#F9F0DF" d="M714.2,171.4l3.3-1.4c0.4,1.1,1,1.9,2.2,1.9c1.3,0,1.9-0.9,1.9-2.4c0-1.6-0.7-2.5-2.1-2.5
					c-0.7,0-1.3,0.3-1.7,0.7l-2.8-1l0.6-7.8h8.5v2.8h-5.5l-0.3,3.3h0.1c0.4-0.3,1.3-0.6,2-0.6c3.2,0,4.6,1.7,4.6,4.7
					c0,3.3-2,5.6-5.5,5.6C716.1,174.6,714.8,173,714.2,171.4z"/>
			</g>
			<rect x="732.4" y="152.1" fill="#FFFFFF" width="29.3" height="29.3"/>
			<g>
				<path fill="#F9F0DF" d="M739.8,171.7l2.7-0.1h3.4v2.8h-9.6l-0.6-2.8c2.4-2.3,4.3-4.2,5.4-5.7c0.7-1,1.1-1.8,1.1-2.6
					c0-1.2-0.6-1.7-1.5-1.7c-1.1,0-1.5,1-1.5,2.1l-3.4-0.6c0.3-2.4,1.8-4.3,5.1-4.3c3,0,4.8,1.5,4.8,4.1c0,1.7-0.5,3.1-1.9,4.9
					c-0.6,0.7-1.3,1.5-2.1,2.3C741.2,170.5,740.5,171,739.8,171.7L739.8,171.7z"/>
				<path fill="#F9F0DF" d="M752.4,164.3c0.3-0.1,0.9-0.2,1.4-0.2c2.7,0,4.7,1.4,4.7,4.8c0,3.5-2.2,5.7-5.5,5.7
					c-3.8,0-5.1-2.4-5.1-6c0-4.2,2.4-7.8,5.1-9.7h4.3v0.4C754.6,160.9,753.3,162.5,752.4,164.3L752.4,164.3z M751.3,167
					c-0.1,0.5-0.1,1-0.1,1.5c0,2.6,1.1,3.3,2.2,3.3c1.2,0,1.8-0.8,1.8-2.5c0-1.5-0.8-2.5-2.3-2.5C752.2,166.8,751.8,166.9,751.3,167
					z"/>
			</g>
			<rect x="765.7" y="152.1" fill="#FFFFFF" width="29.3" height="29.3"/>
			<g>
				<path fill="#F9F0DF" d="M774.2,171.7l2.7-0.1h3.4v2.8h-9.6l-0.6-2.8c2.4-2.3,4.3-4.2,5.4-5.7c0.7-1,1.1-1.8,1.1-2.6
					c0-1.2-0.6-1.7-1.5-1.7c-1.1,0-1.5,1-1.5,2.1l-3.4-0.6c0.3-2.4,1.8-4.3,5.1-4.3c3,0,4.8,1.5,4.8,4.1c0,1.7-0.5,3.1-1.9,4.9
					c-0.6,0.7-1.3,1.5-2.1,2.3C775.5,170.5,774.9,171,774.2,171.7L774.2,171.7z"/>
				<path fill="#F9F0DF" d="M787.7,161.7c0,0-1.3,0.2-2.7,0.2h-4.1v-3h10l0.5,3.3l-3.2,5.4c-1.2,2-1.8,3.6-1.8,6.3v0.6h-3.4v-0.6
					c0-2.9,0.9-5,1.8-6.9l1.2-2.2C786.9,163.1,787.7,161.8,787.7,161.7L787.7,161.7z"/>
			</g>
			<rect x="799.1" y="152.1" fill="#FFFFFF" width="29.3" height="29.3"/>
			<g>
				<path fill="#F9F0DF" d="M806.4,171.7l2.7-0.1h3.4v2.8h-9.6l-0.6-2.8c2.4-2.3,4.3-4.2,5.4-5.7c0.7-1,1.1-1.8,1.1-2.6
					c0-1.2-0.6-1.7-1.5-1.7c-1.1,0-1.5,1-1.5,2.1l-3.4-0.6c0.3-2.4,1.8-4.3,5.1-4.3c3,0,4.8,1.5,4.8,4.1c0,1.7-0.5,3.1-1.9,4.9
					c-0.6,0.7-1.3,1.5-2.1,2.3C807.7,170.5,807.1,171,806.4,171.7L806.4,171.7z"/>
				<path fill="#F9F0DF" d="M814.3,170.1c0-1.9,1.2-3.1,2.8-3.6v-0.1c-1.3-0.3-2.4-1.5-2.4-3.3c0-2.9,1.9-4.5,5.1-4.5
					c3.3,0,5,1.4,5,4.2c0,1.7-1.1,2.9-2.4,3.3v0.1c1.5,0.3,2.8,1.2,2.8,3.4c0,3.3-2.1,4.8-5.5,4.8
					C816.3,174.6,814.3,173.3,814.3,170.1z M817.6,169.9c0,1.2,0.6,2,2.2,2c1.5,0,2.1-0.7,2.1-2c0-1-0.4-2-2.2-2
					C818.1,167.9,817.6,168.9,817.6,169.9z M821.5,163.2c0-1-0.5-1.8-1.7-1.8c-1.3,0-1.8,0.7-1.8,1.8c0,1.2,0.4,2,1.8,2
					C821.1,165.2,821.5,164.5,821.5,163.2z"/>
			</g>
		</g>
		<g>
			<path fill="#4D4D4D" d="M265.8,161.8c0,1.7-0.9,3.2-3.6,3.2h-0.8v3.3h-2v-9.3h3.2C264.4,159.1,265.8,159.8,265.8,161.8z
				 M261.4,160.8v2.6h0.7c1.4,0,1.6-0.6,1.6-1.3c0-0.9-0.5-1.3-1.5-1.3H261.4z"/>
			<path fill="#4D4D4D" d="M267.3,168.4v-9.3h5.5v1.7h-3.5v2.1h3v1.7h-3v2.2h3.7v1.7H267.3z"/>
			<path fill="#4D4D4D" d="M277.8,159.1c2.1,0,3.2,0.8,3.2,2.7c0,1.6-0.9,2.4-2,2.6v0.1c0.5,0.2,0.8,0.6,1.2,1.4l1.4,2.6h-2.4
				l-1.5-3c-0.2-0.3-0.4-0.4-0.8-0.4h-0.1v3.5h-2v-9.3H277.8z M276.8,163.3h0.8c1.1,0,1.4-0.5,1.4-1.3c0-0.8-0.5-1.2-1.4-1.2h-0.8
				V163.3z"/>
			<path fill="#4D4D4D" d="M283,159.1h2v9.3h-2V159.1z"/>
			<path fill="#4D4D4D" d="M290.6,168.5c-2.3,0-3.8-1.2-3.8-4.7c0-3.4,1.6-4.8,3.9-4.8c2.3,0,3.8,1.3,3.8,4.7
				C294.6,167.1,292.9,168.5,290.6,168.5z M290.8,166.8c1.1,0,1.7-0.8,1.7-3.1c0-2.3-0.7-3.1-1.8-3.1c-1,0-1.7,0.7-1.7,3
				C288.9,166,289.6,166.8,290.8,166.8z"/>
			<path fill="#4D4D4D" d="M296.3,159.1h2.9c3,0,4.4,1.5,4.4,4.4c0,2.4-0.9,4.9-4.4,4.9h-2.9V159.1z M298.3,166.7h0.7
				c1.9,0,2.4-1.2,2.4-3c0-2.2-1-3-2.5-3h-0.7V166.7z"/>
			<path fill="#4D4D4D" d="M305.3,159.1h2v9.3h-2V159.1z"/>
			<path fill="#4D4D4D" d="M313.3,159c1.8,0,2.7,0.8,2.9,1.1l-1.3,1.5c-0.3-0.4-0.7-0.8-1.7-0.8c-1.2,0-1.9,0.9-1.9,3
				c0,1.9,0.7,3.1,2.1,3.1c0.9,0,1.4-0.5,1.7-0.8l1.1,1.4c-0.4,0.5-1.3,1.1-2.9,1.1c-2.9,0-4-1.9-4-4.7
				C309.2,160.9,310.5,159,313.3,159z"/>
			<path fill="#4D4D4D" d="M261.9,172.6c1.8,0,2.7,0.8,2.9,1.1l-1.3,1.5c-0.3-0.4-0.7-0.8-1.7-0.8c-1.2,0-1.9,0.9-1.9,3
				c0,1.9,0.7,3.1,2.1,3.1c0.9,0,1.4-0.5,1.7-0.8l1.1,1.4c-0.4,0.5-1.3,1.1-2.9,1.1c-2.9,0-4-1.9-4-4.7
				C257.7,174.5,259.1,172.6,261.9,172.6z"/>
			<path fill="#4D4D4D" d="M273.5,172.7v9.3h-2v-3.8h-3.4v3.8h-2v-9.3h2v3.8h3.4v-3.8H273.5z"/>
			<path fill="#4D4D4D" d="M275.6,182v-9.3h5.5v1.7h-3.5v2.1h3v1.7h-3v2.2h3.7v1.7H275.6z"/>
			<path fill="#4D4D4D" d="M286.8,172.6c1.8,0,2.7,0.8,2.9,1.1l-1.3,1.5c-0.3-0.4-0.7-0.8-1.7-0.8c-1.2,0-1.9,0.9-1.9,3
				c0,1.9,0.7,3.1,2.1,3.1c0.9,0,1.4-0.5,1.7-0.8l1.1,1.4c-0.4,0.5-1.3,1.1-2.9,1.1c-2.9,0-4-1.9-4-4.7
				C282.6,174.5,284,172.6,286.8,172.6z"/>
			<path fill="#4D4D4D" d="M293,182h-2v-9.3h2V182z M295.8,172.7h2.3l-2.9,4.5l3.2,4.8h-2.5l-2.9-4.7v-0.1L295.8,172.7z"/>
			<path fill="#4D4D4D" d="M298.7,178.6V177h4.4v1.6H298.7z"/>
			<path fill="#4D4D4D" d="M304.6,172.7h2v9.3h-2V172.7z"/>
			<path fill="#4D4D4D" d="M310.7,175.3c0.1,0.9,0.1,1.6,0.1,3.3v3.5h-1.9v-9.3h2.4l1.9,3.7c0.5,0.9,1,1.9,1.3,2.9h0.1
				c-0.1-1.3-0.1-2.6-0.1-3.6v-2.9h1.9v9.3h-2.4l-2-3.9C311.6,177.2,311.2,176.3,310.7,175.3L310.7,175.3z"/>
		</g>
		<path fill="#FF1900" d="M32.7,77.6L18.2,63c-2-2-2-5.2,0-7.2c2-2,5.2-2,7.2,0l7.3,7.3l17.6-17.6c2-2,5.2-2,7.2,0c2,2,2,5.2,0,7.2
			L32.7,77.6z"/>
		<path fill="#FF1900" d="M32.7,111L18.2,96.5c-2-2-2-5.2,0-7.2c2-2,5.2-2,7.2,0l7.3,7.3L50.3,79c2-2,5.2-2,7.2,0c2,2,2,5.2,0,7.2
			L32.7,111z"/>
		<path fill="#FF1900" d="M32.7,144.5l-14.6-14.6c-2-2-2-5.2,0-7.2c2-2,5.2-2,7.2,0l7.3,7.3l17.6-17.6c2-2,5.2-2,7.2,0
			c2,2,2,5.2,0,7.2L32.7,144.5z"/>
		<path fill="#FF1900" d="M32.7,177.9l-14.6-14.6c-2-2-2-5.2,0-7.2c2-2,5.2-2,7.2,0l7.3,7.3l17.6-17.6c2-2,5.2-2,7.2,0
			c2,2,2,5.2,0,7.2L32.7,177.9z"/>
		<path fill="#FF1900" d="M32.7,211.3l-14.6-14.6c-2-2-2-5.2,0-7.2c2-2,5.2-2,7.2,0l7.3,7.3l17.6-17.6c2-2,5.2-2,7.2,0
			c2,2,2,5.2,0,7.2L32.7,211.3z"/>
		<path fill="#3C3C3B" d="M294.1,127.6l13.5-13.5c1.2-1.2,1.2-3.2,0-4.4l-13.5-13.5c-2-2-5.3-0.6-5.3,2.2v6.9h-19.5
			c-1.8,0-3.2,1.4-3.2,3.2v6.9c0,1.8,1.4,3.2,3.2,3.2h19.5v6.9C288.8,128.1,292.1,129.5,294.1,127.6z"/>
		<g>
			<path fill="#4D4D4D" d="M533,161.8c0,1.7-0.9,3.2-3.6,3.2h-0.8v3.3h-2v-9.3h3.2C531.7,159.1,533,159.8,533,161.8z M528.6,160.8
				v2.6h0.7c1.4,0,1.6-0.6,1.6-1.3c0-0.9-0.5-1.3-1.5-1.3H528.6z"/>
			<path fill="#4D4D4D" d="M534.5,168.4v-9.3h5.5v1.7h-3.5v2.1h3v1.7h-3v2.2h3.7v1.7H534.5z"/>
			<path fill="#4D4D4D" d="M545,159.1c2.1,0,3.2,0.8,3.2,2.7c0,1.6-0.9,2.4-2,2.6v0.1c0.5,0.2,0.8,0.6,1.2,1.4l1.4,2.6h-2.4l-1.5-3
				c-0.2-0.3-0.4-0.4-0.8-0.4H544v3.5h-2v-9.3H545z M544,163.3h0.8c1.1,0,1.4-0.5,1.4-1.3c0-0.8-0.5-1.2-1.4-1.2H544V163.3z"/>
			<path fill="#4D4D4D" d="M550.2,159.1h2v9.3h-2V159.1z"/>
			<path fill="#4D4D4D" d="M557.8,168.5c-2.3,0-3.8-1.2-3.8-4.7c0-3.4,1.6-4.8,3.9-4.8c2.3,0,3.8,1.3,3.8,4.7
				C561.8,167.1,560.1,168.5,557.8,168.5z M558,166.8c1.1,0,1.7-0.8,1.7-3.1c0-2.3-0.7-3.1-1.8-3.1c-1,0-1.7,0.7-1.7,3
				C556.1,166,556.8,166.8,558,166.8z"/>
			<path fill="#4D4D4D" d="M563.5,159.1h2.9c3,0,4.4,1.5,4.4,4.4c0,2.4-0.9,4.9-4.4,4.9h-2.9V159.1z M565.5,166.7h0.7
				c1.9,0,2.4-1.2,2.4-3c0-2.2-1-3-2.5-3h-0.7V166.7z"/>
			<path fill="#4D4D4D" d="M572.5,159.1h2v9.3h-2V159.1z"/>
			<path fill="#4D4D4D" d="M580.5,159c1.8,0,2.7,0.8,2.9,1.1l-1.3,1.5c-0.3-0.4-0.7-0.8-1.7-0.8c-1.2,0-1.9,0.9-1.9,3
				c0,1.9,0.7,3.1,2.1,3.1c0.9,0,1.4-0.5,1.7-0.8l1.1,1.4c-0.4,0.5-1.3,1.1-2.9,1.1c-2.9,0-4-1.9-4-4.7
				C576.4,160.9,577.8,159,580.5,159z"/>
			<path fill="#4D4D4D" d="M529.1,172.6c1.8,0,2.7,0.8,2.9,1.1l-1.3,1.5c-0.3-0.4-0.7-0.8-1.7-0.8c-1.2,0-1.9,0.9-1.9,3
				c0,1.9,0.7,3.1,2.1,3.1c0.9,0,1.4-0.5,1.7-0.8l1.1,1.4c-0.4,0.5-1.3,1.1-2.9,1.1c-2.9,0-4-1.9-4-4.7
				C524.9,174.5,526.3,172.6,529.1,172.6z"/>
			<path fill="#4D4D4D" d="M540.7,172.7v9.3h-2v-3.8h-3.4v3.8h-2v-9.3h2v3.8h3.4v-3.8H540.7z"/>
			<path fill="#4D4D4D" d="M542.8,182v-9.3h5.5v1.7h-3.5v2.1h3v1.7h-3v2.2h3.7v1.7H542.8z"/>
			<path fill="#4D4D4D" d="M554,172.6c1.8,0,2.7,0.8,2.9,1.1l-1.3,1.5c-0.3-0.4-0.7-0.8-1.7-0.8c-1.2,0-1.9,0.9-1.9,3
				c0,1.9,0.7,3.1,2.1,3.1c0.9,0,1.4-0.5,1.7-0.8l1.1,1.4c-0.4,0.5-1.3,1.1-2.9,1.1c-2.9,0-4-1.9-4-4.7
				C549.9,174.5,551.2,172.6,554,172.6z"/>
			<path fill="#4D4D4D" d="M560.2,182h-2v-9.3h2V182z M563,172.7h2.3l-2.9,4.5l3.2,4.8h-2.5l-2.9-4.7v-0.1L563,172.7z"/>
			<path fill="#4D4D4D" d="M566,178.6V177h4.4v1.6H566z"/>
			<path fill="#4D4D4D" d="M571.8,172.7h2v9.3h-2V172.7z"/>
			<path fill="#4D4D4D" d="M577.9,175.3c0.1,0.9,0.1,1.6,0.1,3.3v3.5h-1.9v-9.3h2.4l1.9,3.7c0.5,0.9,1,1.9,1.3,2.9h0.1
				c-0.1-1.3-0.1-2.6-0.1-3.6v-2.9h1.9v9.3h-2.4l-2-3.9C578.8,177.2,578.4,176.3,577.9,175.3L577.9,175.3z"/>
		</g>
		<path fill="#3C3C3B" d="M547.8,127.6L534.3,114c-1.2-1.2-1.2-3.2,0-4.4l13.5-13.5c2-2,5.3-0.6,5.3,2.2v6.9h19.5
			c1.8,0,3.2,1.4,3.2,3.2v6.9c0,1.8-1.4,3.2-3.2,3.2h-19.5v6.9C553.1,128.1,549.8,129.5,547.8,127.6z"/>
		<g>
			<g>
				<path fill="#3C3C3B" d="M138.8,121c-2.3,3.5-5.8,6.5-10.6,6.3c-5.3-0.2-9.3-3.8-11.6-6.4l3.2,28.7h15.6L138.8,121z"/>
				<path fill="#3C3C3B" d="M160.8,139.4c-0.1-1.5-0.2-3.1-0.2-4.8c-0.4-9.1-1.7-14.7-7.5-18.7c-2.6-1.8-6.7-2.4-10.2-3
					c-2.5-0.4-6.2-1-6.4-1.9c-0.3-1.2-0.6-2.6-0.8-3.8c1.3-1,2.8-2.2,4-3.9c0.1,0.4,0.3,0.9,0.6,1.5c0.5,1.3,2.2-5.6,2.8-5.5
					c0.7,0,1.5,1.8,2.7,2.2c0.7,0.3,0.4-5.6,0.1-6.6c-0.4-1.6-1.3-2.8,0.6-2.3c1.2,0.3,3.8,2.7,3.8,1.8c0.1-2.5-3.4-8-2.8-8.8
					c0.6-0.8,2,1,3,1c1,0-2.4-4.7-2.6-6.1c-0.2-1.4,3,1.4,3,1.4s-0.4-2.5-2.8-4.7c-2.4-2.3-5.8-4.7-5.6-6.3c0.2-1.6,5.2-1.4,6.8-1.6
					c1.6-0.2-4.8-3.9-8.8-4.5c-4-0.6-9.6,2.5-9.6,2.5l-0.3,0.3c-0.3-0.3-0.7-0.6-1.3-0.7c0,0-10.8-2.5-17.2,0.4
					c-6.4,2.9-9,7-7.2,5.7c1.8-1.2,4.4-1.6,3.8-0.4c-0.6,1.2-8.1,11.7-6.6,14.5c0.3,0.6,0.9-0.9,1.9-1.8c0.7-0.6,3.3-2.7,2.9-0.8
					c-0.4,1.8-4.4,7.8-3.2,12.5c1.2,4.7,2-3.5,2.8-3.9c0.8-0.4,0,6.3,0.8,6.8c0.8,0.4,0.6-3.9,1.4-3.3c0.8,0.6,1.4,9,2.2,8.8
					c0.8-0.2,0-5.9,1-4.7c1,1.2,6,5.7,6.6,5.5c0.1,0,0-0.8-0.3-1.9c0.9,1,1.8,1.9,2.7,2.5c-0.3,1.3-0.6,2.8-0.9,4.1
					c-0.2,0.9-3.9,1.5-6.4,1.9c-3.6,0.6-7.6,1.2-10.2,3c-4.7,3.2-7.5,7.3-7.9,18.7c-0.3,6.2-0.2,11,0,14l0,1h22.7l-4-34.7l0,0l0,0
					c4.2-0.7,7.4-1.2,8-3.5c0.2-1.1,0.5-2.2,0.7-3.3c0.3,0.2,0.6,0.4,0.9,0.5c0.9,0.5,2.7,1.3,4.6,1.3c0.1,0,0.1,0,0.2,0
					c2,0.1,3.9-0.8,4.8-1.3c0.1-0.1,0.3-0.1,0.4-0.2c0.2,1,0.4,2,0.7,3c0.5,2.1,3.2,2.7,6.8,3.3l-0.3,1.8l-3.8,33.1h24l0-1
					C161.2,146.4,161,143.3,160.8,139.4z M132.3,106.8c-0.6,0.3-2.1,1-3.6,1c-0.1,0-0.2,0-0.2,0c-1.5,0-3-0.7-3.6-1
					c-2-1.1-5.6-3.5-7.3-7.5c-0.5-1.1-1.4-3.6-2-6.9c-0.2-1.9-0.2-3.7,0.1-5c1.4-5.5,5.4-11.3,8.6-12.7c1.6-0.7,3.2-1.8,4.4-2.8
					c0.4,0.9,1.2,2.2,2.8,3.7c2.1,1.9,5.8,2,8.6,10c1.1,3.1,1.2,6.3,0.9,9c-0.5,2.2-1.2,3.9-1.5,4.7
					C137.9,103.3,134.3,105.7,132.3,106.8z"/>
			</g>
			<ellipse fill="#3C3C3B" cx="121.6" cy="90" rx="1.7" ry="1.9"/>
			<ellipse fill="#3C3C3B" cx="135.1" cy="90" rx="1.7" ry="1.9"/>
			<g>
				<path fill="#3C3C3B" d="M128.3,103.5c-1.7-0.1-3.2-0.9-3.2-0.9s-1-0.6-0.2-1c0.8-0.4,3.4-0.1,3.4-0.1s2.6-0.3,3.4,0.1
					c0.8,0.4-0.2,1-0.2,1S130,103.5,128.3,103.5z"/>
			</g>
		</g>
		<g>
			<path fill="#4D4D4D" d="M120.1,235.1v3h-2v-3l-3.1-6.3h2.3l1.9,4.3h0.1l1.9-4.3h2.2L120.1,235.1z"/>
			<path fill="#4D4D4D" d="M127.6,238.2c-2.3,0-3.8-1.2-3.8-4.7c0-3.4,1.6-4.8,3.9-4.8c2.3,0,3.8,1.3,3.8,4.7
				C131.6,236.8,129.9,238.2,127.6,238.2z M127.8,236.5c1.1,0,1.7-0.8,1.7-3.1c0-2.3-0.7-3.1-1.8-3.1c-1,0-1.7,0.7-1.7,3
				C125.9,235.7,126.6,236.5,127.8,236.5z"/>
			<path fill="#4D4D4D" d="M138.4,234.7v-5.9h2v5.6c0,2.8-1.7,3.8-3.8,3.8c-2.4,0-3.4-1.4-3.4-3.4v-6.1h2v5.7c0,1.3,0.5,2.1,1.7,2.1
				C137.9,236.5,138.4,236,138.4,234.7z"/>
		</g>
		<g>
			<path fill="#4D4D4D" d="M689.5,238.1h-2v-9.3h2V238.1z M692.3,228.8h2.3l-2.9,4.5l3.2,4.8h-2.5l-2.9-4.7v-0.1L692.3,228.8z"/>
			<path fill="#4D4D4D" d="M696,238.1v-9.3h5.5v1.7H698v2.1h3v1.7h-3v2.2h3.7v1.7H696z"/>
			<path fill="#4D4D4D" d="M703.5,238.1v-9.3h5.5v1.7h-3.5v2.1h3v1.7h-3v2.2h3.7v1.7H703.5z"/>
			<path fill="#4D4D4D" d="M717.4,231.6c0,1.7-0.9,3.2-3.6,3.2H713v3.3h-2v-9.3h3.2C716,228.8,717.4,229.5,717.4,231.6z M713,230.5
				v2.6h0.7c1.4,0,1.6-0.6,1.6-1.3c0-0.9-0.5-1.3-1.5-1.3H713z"/>
			<path fill="#4D4D4D" d="M718.9,238.1v-9.3h5.5v1.7h-3.5v2.1h3v1.7h-3v2.2h3.7v1.7H718.9z"/>
			<path fill="#4D4D4D" d="M729.4,228.8c2.1,0,3.2,0.8,3.2,2.7c0,1.6-0.9,2.4-2,2.6v0.1c0.5,0.2,0.8,0.6,1.2,1.4l1.4,2.6h-2.4
				l-1.5-3c-0.2-0.3-0.4-0.4-0.8-0.4h-0.1v3.5h-2v-9.3H729.4z M728.4,233h0.8c1.1,0,1.4-0.5,1.4-1.3c0-0.8-0.5-1.2-1.4-1.2h-0.8V233
				z"/>
			<path fill="#4D4D4D" d="M738.5,235.6c0-1.5-4.3-1.3-4.3-4.2c0-1.5,1.4-2.7,3.3-2.7c1.6,0,2.5,0.7,2.8,1.1l-1.3,1.5
				c-0.2-0.3-0.8-0.9-1.7-0.9c-0.7,0-1,0.4-1,0.8c0,1.5,4.3,1.3,4.3,4.2c0,1.4-1.2,2.7-3.5,2.7c-1.8,0-2.9-0.8-3.2-1.2l1.2-1.7
				c0.4,0.4,1.2,1.1,2.3,1.1C738.1,236.5,738.5,236.1,738.5,235.6z"/>
		</g>
		<g>
			<g>
				<ellipse fill="#3C3C3B" cx="729.2" cy="81.1" rx="0.7" ry="0.9"/>
				<ellipse fill="#3C3C3B" cx="734.7" cy="81.1" rx="0.7" ry="0.9"/>
				<path fill="#3C3C3B" d="M729.9,85.5c0.1,0.6,0.6,1.1,1.4,1.3c0.1,0,0.1,0,0.2,0c0.2,0,0.4,0.1,0.6,0.1c0.2,0,0.4,0,0.6-0.1
					c0.1,0,0.1,0,0.1,0c0.7-0.2,1.3-0.7,1.4-1.3H729.9z M732,86.4c-0.4,0-1-0.1-1.2-0.5h2.3C732.9,86.3,732.2,86.4,732,86.4z"/>
				<path fill="#3C3C3B" d="M744.5,96c-0.6-2.4-2.4-4.1-3.7-4.7c-0.6-0.3-1.6-0.5-2.4-0.6c0,0-1.9-0.3-1.9-0.3s-1.1-0.1-1.3-0.3
					v-1.9c0.4-0.3,0.9-0.6,1.3-1.1l0.9,0.1c0.4-0.4,1.4-2.9,1.4-2.9l0.3,1.2c0,0,0.5-0.7,1.1-3c0.5-2.3-0.3-3.8-0.3-3.8
					s1.5,0.9,1.6,0.7c0.1-0.2-0.7-1.3-1.1-2.1c-0.5-1-1.1-2.9-2.2-4.5c-1.6-2.2-6.1-2.3-6.1-2.3s-4.5,0-6.1,2.3
					c-1.1,1.6-1.7,3.5-2.2,4.5c-0.4,0.8-1.2,1.9-1.1,2.1c0.1,0.2,1.6-0.7,1.6-0.7s-0.9,1.5-0.3,3.8c0.5,2.3,1.1,3,1.1,3l0.3-1.2
					c0,0,0.9,2.5,1.4,2.9l1-0.1c0.3,0.4,0.7,0.7,1.1,1c0,0,0,0,0,0v2.1l-0.6,0.1c0,0-4,0.6-4.8,0.9c-1.6,0.6-3.7,2.9-4.2,5.3
					c-0.3,1.5-0.2,4.3-0.1,6.3c0,0.8,0,1.5,0.1,2.1h0.1h0h8.2l-1.6-6.6l1.6-1.2l-1.9-0.9c-0.1-1.3,0.3-2.7,0.7-3.8
					c0.1-0.3,0.2-0.6,0.3-0.8l0.6-0.1l1.1-0.2c0,0.5,0.1,1.6,0.2,2.8c0,0.5,0.1,1.1,0.2,1.6c0.2,4.2,0.5,9.3,0.5,9.3h6.2
					c0,0,0.3-5,0.5-9.2c0,0,0,0,0-0.1c0.1-0.5,0.1-0.9,0.1-1.4c0.1-1.3,0.2-2.5,0.2-3.1l1,0.1l0.6,0.1c0.2,0.4,0.4,1,0.6,1.6
					c0.3,1,0.6,2.2,0.6,3.3l-1.9,0.9l1.6,1.2l-1.6,6.6h8.3h0.2C745,105,745.1,98.3,744.5,96z M734.7,94.7c-2.2,0.7-4.1,0.5-5.7-0.1
					c-0.1-1.4-0.2-2.8-0.3-3.4l0.4-0.1c0.2,0,0.4-0.2,0.4-0.4v-2c0.2,0.1,0.3,0.2,0.5,0.2c0.4,0.2,1.2,0.5,2,0.5c0,0,0,0,0.1,0
					c0.8,0,1.6-0.3,2-0.5c0.1,0,0.2-0.1,0.3-0.1v1.9c0,0.2,0.2,0.4,0.4,0.4l0.2,0C734.9,91.8,734.8,93.2,734.7,94.7z M734.5,87.7
					c-0.3,0.2-0.6,0.4-0.8,0.5c-0.3,0.1-1,0.4-1.7,0.4c-0.7,0-1.4-0.3-1.6-0.4c-0.2-0.1-0.5-0.3-0.8-0.5c-0.3-0.2-0.6-0.4-0.8-0.6
					c-0.6-0.5-1.2-1.2-1.5-2c-0.3-0.7-1-2.5-1.1-4.8c0-0.1,0-0.2,0-0.3c0-0.2,0.1-0.4,0.1-0.6c0.5-1.7,1.5-2.4,1.5-2.4
					s2.6,1.6,5.3,2.5c1.9,0.7,3.9,1,4.9,1.1c-0.2,2.2-0.8,3.9-1.1,4.5c-0.4,0.8-0.9,1.5-1.5,2C735,87.3,734.7,87.5,734.5,87.7z"/>
			</g>
			<g>
				<path fill="#3C3C3B" d="M746.8,143.6c-0.2-4.7-1.3-6.3-3.3-7.7c-0.8-0.6-2-0.9-3.1-1.1c0.1-1,0-2.5-0.3-3.7
					c-0.3-1.1-0.8-1.7-1.2-2c0.1-0.3,0.2-0.7,0.4-1.1c0.2-0.1,0.4-0.2,0.6-0.4c0.4-0.4,0.8-1,0.7-2.4c0-0.5-0.2-0.8-0.6-1.1
					c0,0,0,0,0,0c0.4-0.6,0.9-1.8,0.6-4.1c-0.2-1.3-0.6-2.3-1.3-3c0.1-1-0.9-3.5-3.6-3.6c-1.2-0.1-2.9,0.2-3.9,0.8
					c-0.7,0.4-0.9,0.9-0.9,1.4c-1.5,0.3-2.3,0.9-3.3,2c-2,2.4-1.2,4.6-0.5,5.8c0,0.2,0,0.4,0,0.6c-0.5,0.3-0.8,0.7-0.8,1.2
					c-0.1,1.4,0.3,2,0.7,2.4c0.2,0.2,0.6,0.3,0.8,0.4c0.1,0.4,0.3,0.9,0.4,1.3c0.5,1.3,1.4,2.2,2.2,2.8c-0.1,0.5-0.2,1.1-0.4,1.7
					c-0.1,0.4-1.6,0.6-2.6,0.8c-1.5,0.2-3.1,0.5-4.2,1.2c-1.9,1.3-3,3-3.3,7.7c-0.1,2.5-0.1,4.5,0,5.7l0,0.4h26.8l0-0.4
					C746.9,148.1,746.9,146.1,746.8,143.6z M736.3,118c1.5,0.3,2.3,3.3,2.8,5.2c0,0.3,0,0.6,0,1c0,0-0.1,0.1-0.1,0.1
					c-0.2,0.1-0.4,0-0.4,0s-0.5-0.4-0.9-0.6c-0.5-0.2-0.9-0.2-1.4-0.2c-0.7,0-1.6,0.2-2,0.4c-0.1,0-0.3,0.2-0.3,0.2l-0.6,0l-0.6,0
					c0,0-0.2-0.1-0.3-0.2c-0.4-0.2-1.2-0.4-2-0.4c-0.5,0-0.9,0.1-1.4,0.2c-0.5,0.2-0.9,0.6-0.9,0.6s-0.2,0-0.3-0.1
					c0-0.1,0-0.1,0-0.2C729.3,122.6,734.4,117.6,736.3,118z M738.2,125.3c-0.2,0.3-0.7,0.9-1.9,0.9c-1.3,0-1.8-0.5-2-1.1
					c-0.2-0.6,0.1-0.9,0.3-1c0.2-0.1,1.5-0.7,2.9-0.3c0,0,0.5,0.1,0.7,0.4C738.4,124.5,738.3,125.1,738.2,125.3z M732.7,125.1
					c-0.2,0.6-0.8,1.1-2,1.1c-1.2,0-1.8-0.6-1.9-0.9c-0.2-0.3-0.2-0.8,0-1.1c0.2-0.3,0.7-0.4,0.7-0.4c1.4-0.4,2.7,0.2,2.9,0.3
					C732.6,124.2,732.9,124.5,732.7,125.1z M729,129.1c-0.2-0.4-0.3-0.9-0.5-1.4l-0.1-0.3l-0.3,0c-0.2,0-0.5-0.1-0.6-0.2
					c-0.3-0.3-0.5-0.7-0.4-1.7c0-0.4,0.3-0.5,0.5-0.6l0.2-0.1l0.1-0.1c0,0,0.1,0,0.1,0.1c0.1,0,0.1,0.1,0.2,0.2
					c0.1,0.1,0.3,0.6,0.6,0.9c0.2,0.2,0.8,0.5,1.4,0.6c0.9,0.1,1.7,0,2.3-0.4c0.7-0.5,0.6-1.1,0.6-1.3c0-0.1,0.1-0.2,0.2-0.3
					c0.1,0,0.3-0.1,0.3-0.1s0.2,0,0.3,0.1c0.1,0,0.1,0.1,0.2,0.3c0,0.2,0,0.7,0.6,1.3c0.5,0.4,1.4,0.5,2.3,0.4
					c0.6-0.1,1.1-0.4,1.4-0.6c0.3-0.3,0.5-0.8,0.6-0.9c0.1-0.1,0.1-0.2,0.2-0.2c0,0,0.1-0.1,0.2-0.1l0,0.1c0,0,0.1,0,0.2,0.1
					c0.4,0.2,0.4,0.4,0.4,0.5c0.1,1.1-0.2,1.4-0.4,1.7c-0.1,0-0.3,0.1-0.4,0.2l-0.2,0.1l-0.1,0.2c-0.1,0.5-0.3,1-0.5,1.5
					c-0.4,1-1.1,1.8-1.8,2.3c-0.1,0.1-0.3,0.2-0.4,0.3c-0.1,0.1-0.3,0.2-0.4,0.3c-0.1,0.1-0.3,0.2-0.4,0.2c-0.2,0.1-0.9,0.4-1.5,0.4
					c0,0,0,0,0,0c-0.6,0-1.2-0.3-1.5-0.4c-0.2-0.1-0.4-0.2-0.6-0.4c-0.1-0.1-0.3-0.2-0.4-0.3c-0.1-0.1-0.3-0.2-0.4-0.3
					C730,130.7,729.4,130,729,129.1z M734.1,140c-4.3-0.2-6.4-3.3-7.5-4.3c0.3-0.1,0.6-0.1,0.9-0.1c1.7-0.3,3.1-0.5,3.4-1.5
					c0.1-0.4,0.2-0.9,0.3-1.4c0.1,0.1,0.3,0.2,0.4,0.2c0.4,0.2,1.1,0.5,1.9,0.5c0,0,0,0,0.1,0c0.8,0,1.5-0.3,1.9-0.5
					c0.1,0,0.1-0.1,0.2-0.1c0.1,0.4,0.2,0.8,0.3,1.2c0,0.1,0.1,0.3,0.2,0.4c-0.1,1.1-0.8,3.1-1.1,4c-0.1,0.2-0.1,0.5,0.3,0.3
					c0.8-0.2,1.9-1.7,2.3-2.2c0,0,0,0,0,0c0,0.9-0.4,1.9-0.6,2.4c0,0.1,0.1,0.1,0.1,0.1c0.7-0.8,1.3-2.4,1.6-3.6
					c0.2,0,0.3,0,0.5,0.1c0.1,0.7,0,1.3,0,1.4c0,0.2,0.5-0.2,0.9-1.1c0,0,0-0.1,0.1-0.1c0.3,0.1,0.6,0.1,0.9,0.2
					C740.2,137,738.1,140.2,734.1,140z"/>
				<ellipse fill="#3C3C3B" cx="730.6" cy="125.2" rx="0.7" ry="0.8"/>
				<ellipse fill="#3C3C3B" cx="736.2" cy="125.2" rx="0.7" ry="0.8"/>
				<path fill="#3C3C3B" d="M731.3,129.3c0.1,0.7,0.8,1.2,1.6,1.4c0.2,0,0.3,0.1,0.5,0.1c0.2,0,0.4,0,0.5-0.1
					c0.8-0.2,1.5-0.7,1.6-1.4H731.3z M733.4,130.2c-0.4,0-1-0.1-1.2-0.5h2.3C734.3,130.2,733.6,130.2,733.4,130.2z"/>
			</g>
			<g>
				<polygon fill="#3C3C3B" points="675.1,80.1 675.1,80.1 675.1,80.1 				"/>
				<ellipse fill="#3C3C3B" cx="666.1" cy="80.5" rx="0.7" ry="0.8"/>
				<ellipse fill="#3C3C3B" cx="671.6" cy="80.5" rx="0.7" ry="0.8"/>
				<path fill="#3C3C3B" d="M667.5,85.6c0.2,0.2,0.6,0.4,1.3,0.4c0.7,0,1.1-0.2,1.3-0.4c0.2-0.2,0.8-0.8,0.4-0.7
					c-1.1,0.2-1.7,0.2-1.7,0.2s-0.6,0-1.7-0.2C666.7,84.8,667.2,85.4,667.5,85.6z"/>
				<path fill="#3C3C3B" d="M682.1,98.8c-0.2-4.6-1.4-6.3-3.3-7.7c-1.1-0.7-2.7-1-4.1-1.2c-0.1,0-0.3,0-0.4-0.1
					c-0.1-0.3-0.2-0.7-0.3-1c-0.5-1.3,1.4,0.8,1.6,0.7c0.2-0.1-1.1-2.9-1.1-2.9s2.4,1.6,2.6,1.4s-1.3-3.3-1.1-4.5
					c0.1-1,1.1-4.7,0.5-7.1c-0.8-6.8-7-6-9-5.8c-2,0.1-5.6,3.2-6,5.8c0,0,0,0.1,0,0.1c-0.3,0.9-1.2,4.1-1.6,7.3
					c-0.4,3.5-1,3.1-0.7,3.4c0.3,0.3,1.9-2.1,2.1-2.1c0.5,0.1,0.3,0.8-0.1,1.7c-0.4,0.9-0.9,2.3-0.7,2.4c0.1,0.1,1.4-1.6,1.9-1.8
					c0.4-0.1,0.9,1.4,1.1,2.3c-0.2,0-0.4,0.1-0.6,0.1c-1.5,0.2-3.1,0.5-4.2,1.2c-1.9,1.3-3,3-3.3,7.7c-0.1,2.5-0.1,4.5,0,5.7l0,0.4
					h26.8l0-0.4C682.2,103.4,682.2,101.4,682.1,98.8z M662.9,83c-0.2,0-0.3-0.1-0.4-0.2c-0.3-0.4-0.6-0.9-0.6-2.1
					c0-0.3,0.2-0.5,0.5-0.7c0.1-0.1,0.3-0.2,0.4-0.2c0.2-0.1,0.4-0.1,0.4-0.1c0,0,0,0,0,0c0-0.1,0-0.2,0-0.4
					c2.8-2.3,7.7-2.1,9.3-3.4c0.3-0.2,0.7-0.1,0.8,0.2l0.9,3c0,0.2,0,0.4,0,0.6c0,0,0,0,0,0c0.1,0,0.1,0,0.2,0.1
					c0.1,0,0.1,0,0.2,0.1c0.1,0.1,0.3,0.2,0.4,0.3c0,0,0,0,0,0c0,0,0,0,0,0c0.1,0.1,0.2,0.3,0.3,0.6c0.1,1.2-0.2,1.7-0.6,2.1
					c0,0-0.1,0.1-0.1,0.1c-0.1,0.1-0.3,0.2-0.5,0.2c-0.2,0-0.4,0-0.4,0l0,0c-0.1,0.6-0.3,0.9-0.4,1.4c-0.4,1-1.1,1.8-1.8,2.3
					c-0.1,0.1-0.3,0.2-0.4,0.3c-0.1,0.1-0.3,0.2-0.4,0.3c-0.1,0.1-0.3,0.2-0.4,0.2c-0.2,0.1-0.9,0.4-1.5,0.4c-0.6,0-1.3-0.3-1.5-0.4
					c-0.2-0.1-0.4-0.2-0.6-0.4c-0.1-0.1-0.3-0.2-0.4-0.3c-0.1-0.1-0.3-0.2-0.4-0.3c-0.6-0.5-1.2-1.2-1.6-2.1
					c-0.2-0.4-0.3-0.9-0.4-1.3c-0.1,0-0.2,0-0.5,0C663.2,83,663.1,83,662.9,83z M663.5,90.4c0,0,1,0,1.4,0c0.4,0,1.2-0.5,1.3-1.1
					c0.1-0.4,0.2-0.9,0.3-1.4c0.1,0.1,0.3,0.1,0.4,0.2c0.4,0.2,1.1,0.5,1.9,0.5c0,0,0,0,0.1,0c0.8,0,1.6-0.3,2-0.5
					c0.1,0,0.1-0.1,0.2-0.1c0.1,0.4,0.2,0.8,0.3,1.2c0.1,0.6,1.1,1.1,1.8,1.2c0.6,0,1.4,0,1.4,0l1.1,0c-0.1,0.1-0.1,0.2-0.2,0.3
					c-0.4,0.6-1.2,1.6-2.3,2.3c-0.2,0.1-4.2,2.6-8.3-1.3c-0.2-0.2-0.6-0.6-1-1c-0.1-0.1-0.1-0.1-0.2-0.2c0,0-0.1-0.1-0.1-0.1
					c-0.1-0.1-0.1-0.2-0.2-0.2L663.5,90.4z M669.4,95.3c-4.3-0.2-6.4-3.3-7.5-4.3c0.2,0,0.5-0.1,0.7-0.1c0.4,0.5,1,1.2,1.4,1.5
					c1.9,1.8,3.9,2.3,5.4,2.3c2.1,0,3.6-0.9,3.7-1c1.3-0.8,2.2-2.1,2.7-2.7c0.2,0,0.4,0.1,0.5,0.1C675.5,92.3,673.4,95.5,669.4,95.3
					z"/>
			</g>
			<g>
				<polygon fill="#3C3C3B" points="666.3,135 666.3,135 666.3,135 				"/>
				<polygon fill="#3C3C3B" points="672,133.8 672,133.8 672,133.8 				"/>
				<path fill="#3C3C3B" d="M687.9,143.9c-0.2-4.6-1.4-6.2-3.1-7.4c-1.2-0.8-4-1.2-6-1.6l-2.3-1.2c0-0.2,0-0.4,0-0.5
					c0-0.5-0.1-1-0.1-1.3c0.7-1,1.2-2.1,1.4-2.6c0.9-0.2,1.5-1.1,1.8-2.7c0.3-1.3-0.3-2.1-0.9-2.5c0.3-2.5-0.2-4.4-1.4-5.8
					c-1.9-2.1-4.9-2-5.3-1.9c-0.4,0-3.2-0.2-5.1,1.8c-1.3,1.3-1.8,3.3-1.6,5.9c-0.6,0.3-1.2,1.1-0.9,2.5c0.3,1.6,1,2.5,1.9,2.7
					c0.2,0.6,0.8,1.9,1.6,3c0,0.3-0.1,0.9-0.2,1.4c-0.3,0.2-2.1,1-2.1,1c-2,0.4-5.1,0.8-6.5,1.8c-1.7,1.2-2.9,2.8-3.1,7.4
					c-0.1,3-0.1,4.9,0,5.9H688C688,148.8,688.1,146.9,687.9,143.9z M667.5,118.8c1.3-1.4,3.3-1.5,4.1-1.5c0.2,0,0.3,0,0.3,0l0,0l0,0
					c0,0,2.9-0.2,4.6,1.7c1.1,1.2,1.5,2.9,1.2,5.2c-0.3,0.1-0.6,0.3-0.6,0.3c-0.2,0.1-0.4,0-0.4,0s-0.5-0.4-0.9-0.6
					c-0.5-0.2-0.9-0.2-1.4-0.2c-0.7,0-1.6,0.2-2,0.4c-0.1,0-0.3,0.2-0.3,0.2l-0.6,0l-0.6,0c0,0-0.2-0.1-0.3-0.2
					c-0.4-0.2-1.2-0.4-2-0.4c-0.5,0-0.9,0.1-1.4,0.2c-0.5,0.2-0.9,0.6-0.9,0.6s-0.2-0.1-0.4-0.2C665.9,121.8,666.4,120,667.5,118.8z
					 M676.5,125.5c-0.2,0.3-0.7,0.9-1.9,0.9c-1.3,0-1.8-0.5-2-1.1c-0.2-0.6,0.1-0.9,0.3-1c0.2-0.1,1.5-0.7,2.9-0.3
					c0,0,0.5,0.1,0.7,0.4C676.7,124.6,676.6,125.2,676.5,125.5z M671,125.3c-0.2,0.6-0.8,1.1-2,1.1c-1.2,0-1.8-0.6-1.9-0.9
					c-0.2-0.3-0.2-0.8,0-1.1c0.2-0.3,0.7-0.4,0.7-0.4c1.4-0.4,2.7,0.2,2.9,0.3C670.9,124.4,671.2,124.7,671,125.3z M667.5,129.7
					c-0.3-0.6-0.4-1-0.4-1l-0.1-0.3h-0.3c-0.8,0-1.2-1.6-1.3-2c-0.3-1.2,0.5-1.6,0.6-1.6l0.2-0.1c0.1,0.1,0.1,0.1,0.1,0.1
					c0.1,0,0.1,0.1,0.2,0.2c0.1,0.1,0.3,0.6,0.6,0.9c0.2,0.2,0.8,0.5,1.4,0.6c0.9,0.1,1.7,0,2.3-0.4c0.7-0.5,0.6-1.1,0.6-1.3
					c0-0.1,0.1-0.2,0.2-0.3c0.1,0,0.3-0.1,0.3-0.1s0.2,0,0.3,0.1c0.1,0,0.1,0.1,0.2,0.3c0,0.2,0,0.7,0.6,1.3
					c0.5,0.4,1.4,0.5,2.3,0.4c0.6-0.1,1.1-0.4,1.4-0.6c0.3-0.3,0.5-0.8,0.6-0.9c0.1-0.1,0.1-0.2,0.2-0.2c0,0,0.3-0.2,0.6-0.3l0,0.1
					l0.3,0.1c0.1,0,0.9,0.4,0.6,1.6c-0.2,0.7-0.5,2-1.3,2l-0.3,0l-0.1,0.3c0,0-0.2,0.4-0.4,1l-1.5,0.5c-0.1-0.1-0.1-0.2-0.2-0.2
					c-0.4-0.2-2-1-2.9-1.1c-0.9,0.1-2.5,0.9-2.9,1.1c-0.1,0.1-0.2,0.1-0.2,0.2L667.5,129.7z M674.4,131.3c0,0.1-0.1,0.2-0.2,0.3
					c-0.2,0.2-1.5,0.5-1.7-0.1c0,0,0-0.1-0.1-0.1c-0.1-0.1-0.4-0.1-0.5-0.1c-0.1,0-0.4,0-0.6,0.2c0,0,0,0,0,0.1
					c-0.2,0.6-1.4,0.3-1.7,0.1c0,0-0.1-0.1-0.1-0.1c-0.2-0.3-0.2-1,0-1.1c0.5-0.2,2.4-0.3,2.4-0.3s2,0.1,2.4,0.3
					C674.5,130.5,674.5,131,674.4,131.3z M667.2,135c1.3-0.6,1.4-0.8,1.4-1c0-0.3,0.1-0.6,0.1-0.8c0.7,0.6,1.8,1,3.2,1.1l0,0l0,0
					c1.4-0.1,2.6-0.5,3.3-1.1c0.1-0.1,0.2-0.2,0.3-0.3c0,0.1,0,0.2,0,0.4c0,0.3,0,0.5,0.1,0.8l0,0.2l1.1,0.6l0.3,0.2
					c-1.1,1.7-2.9,3.6-5.2,3.6c-2.4,0-4.2-2-5.2-3.4C667,135.1,667.1,135,667.2,135z M672,140c-2.7,0-5-1.7-6.3-4.4
					c0.2-0.1,0.4-0.2,0.5-0.2c0.6,0.9,1.3,1.6,2,2.2c1.2,1,2.5,1.6,3.8,1.6c1.3,0,2.4-0.5,3.4-1.2c1-0.8,1.8-1.8,2.4-2.7l0.6,0.3
					C677.1,138.3,674.7,140,672,140z"/>
				<path fill="#3C3C3B" d="M673.6,130.5h-3.2c-0.1,0-0.2,0.1-0.2,0.2c0,0.1,0.1,0.2,0.2,0.2h3.2c0.1,0,0.2-0.1,0.2-0.2
					C673.8,130.6,673.7,130.5,673.6,130.5z"/>
				<ellipse fill="#3C3C3B" cx="668.9" cy="124.7" rx="0.6" ry="0.7"/>
				<ellipse fill="#3C3C3B" cx="674.6" cy="124.6" rx="0.6" ry="0.7"/>
			</g>
			<g>
				<path fill="#3C3C3B" d="M805.7,98.7c-0.2-4.7-0.7-6.4-2.3-7.7c-1-0.8-3.2-1.3-5-1.7l-2-0.6l0-1.8c0.7-0.8,1-1.9,1.2-2.4
					c0.6-0.1,1.4-0.8,1.7-2.6c0.3-1.3-0.3-2.1-0.8-2.5c0-0.3,0-0.5,0-0.7c0.4-1.1,0.7-2.6,0.1-3.9c-0.5-1.2-1.9-2.7-3.7-3.6
					c-1.8-0.8-4.3-0.4-5.3-0.2c-1,0.2-3.3,1.4-4.2,3.6c-0.5,1.3-0.2,2.9,0.2,4c0,0.3,0,0.5,0,0.8c-0.5,0.3-1.1,1.1-0.8,2.5
					c0.4,1.8,1.1,2.4,1.7,2.6c0.2,0.6,0.6,1.7,1.4,2.6c0,0.1,0.1,0.1,0.1,0.2l-0.1,1.4l-1.6,0.5c-0.3,0.1-0.7,0.2-1.1,0.3
					c-1.6,0.4-3.5,0.8-4.5,1.6c-1.6,1.3-2,3.6-2.1,8.3c-0.1,1.4-0.1,2.4-0.2,3.2c-0.1,1-0.1,1.6-0.1,2.2l0,0.4h27.2l0-0.4
					C805.8,104,805.9,102.3,805.7,98.7z M784.6,104.1h-5.2c0-0.4,0-0.9,0.1-1.6c0-0.8,0.1-1.8,0.2-3.2c0.2-4.4,0.5-6.6,1.8-7.7
					c0.4-0.3,1.1-0.6,1.9-0.8c0.4,1.1,1.3,4,1.4,6.4C784.7,99.4,784.7,102.9,784.6,104.1z M787.5,83.9l-0.1-0.3H787
					c-0.7,0-1.1-1.2-1.2-1.9c-0.3-1.2,0.5-1.6,0.6-1.6l0.3-0.1l0-0.3c0-0.4-0.1-0.8-0.1-1.2c0.1-0.3,0.3-0.6,0.5-0.9
					c0.5-0.5,1.9-0.1,4.9-0.8c3-0.7,2.7-2.1,2.7-2.1s1.8,1.1,2.4,2.2c0.3,0.5,0.5,1.2,0.6,1.9c0,0.3,0,0.6-0.1,1l0,0.3l0.3,0.1
					c0,0,0,0,0.1,0c0,0,0,0,0,0s0,0,0,0c0.2,0.1,0.7,0.5,0.5,1.6c-0.1,0.7-0.5,1.9-1.2,1.9H797l-0.1,0.3c0,0-0.3,1.1-0.9,2.1
					c-0.1,0.2-0.2,0.3-0.3,0.5c0,0,0,0,0,0c0,0,0,0,0,0c-0.1,0.2-0.3,0.3-0.4,0.5c-1.1,1.2-2.1,1.7-3.1,1.8c-0.8,0-1.7-0.5-2.6-1.3
					c-0.1-0.1-0.3-0.3-0.4-0.4c-0.1-0.1-0.1-0.1-0.2-0.2c-0.1-0.1-0.1-0.2-0.2-0.2c0,0-0.1-0.1-0.1-0.1
					C787.8,85.5,787.5,83.9,787.5,83.9z M787.7,89.7l0.4-0.1l0.2-0.1l0.2,0l0.7,0.5l2,1.4l0.4,0.2l-0.3,0.2l-0.3,0.3l-0.4,0.3
					l-0.4,0.3l-0.6,0.6l-1.2-1.9l-1.1-1.7L787.7,89.7z M791,94.8l0,3.4c-1.6-0.9-2.8-3.3-3.6-5.4c-0.3-0.9-0.6-1.7-0.8-2.3
					c0-0.1,0-0.1,0-0.1l0.1,0.1l2,3.2l0.7,1.1l0.5-0.4l1.1-1l0.7,0.7L791,94.8L791,94.8z M789,88.7l0-0.7c1.1,1,2.1,1.5,3.1,1.5l0,0
					l0,0c1.1-0.1,2.2-0.6,3.4-1.8l0,0.9l-3.4,2.3L789,88.7z M793.2,91.4l2.6-1.8l0.3-0.2l0,0l0.4,0.1l0,0l0.2,0.1l0.5,0.1l-0.1,0.1
					l-0.2,0.4l-2,3.1l-0.7-0.6l-0.4-0.3l-0.4-0.3l-0.2-0.2l-0.3-0.3L793.2,91.4z M797.3,91.6c-0.2,0.5-0.4,1.1-0.6,1.7
					c-0.7,1.8-1.7,3.7-3,4.6l0.1-3.2l0-0.1l-0.6-0.7l0.6-0.6l1,0.9l0.4,0.4l0.6-0.9l1.5-2.4l0.3-0.4
					C797.4,91.2,797.4,91.4,797.3,91.6z M804.9,104.1h-5.1c0-1.2-0.1-4.7,0-6.9c0-2.4,1-5.3,1.4-6.4c0.7,0.2,1.4,0.5,1.7,0.8
					c1.3,1.1,1.8,2.7,2,7.1C805,101.7,805,103.3,804.9,104.1z"/>
				<path fill="#3C3C3B" d="M790.1,85c0.1,0.6,0.5,1.1,1.1,1.4c0.3,0.2,0.7,0.2,1,0.2c0.5,0,1-0.2,1.3-0.4c0.4-0.3,0.7-0.7,0.8-1.2
					H790.1z M791,85.4l2.4,0c-0.1,0.5-0.8,0.7-1.2,0.7C791.7,86.1,791.1,86,791,85.4z"/>
				<ellipse fill="#3C3C3B" cx="789.4" cy="81" rx="0.7" ry="0.8"/>
				<ellipse fill="#3C3C3B" cx="794.9" cy="81" rx="0.7" ry="0.8"/>
			</g>
			<g>
				<path fill="#3C3C3B" d="M631.7,123.6C631.7,123.7,631.7,123.7,631.7,123.6C631.7,123.7,631.7,123.7,631.7,123.6
					C631.7,123.7,631.7,123.7,631.7,123.6z"/>
				<path fill="#3C3C3B" d="M636.9,138.8l-0.9-1l-1.5,1l-2.1-4.3c-1.7,0.5-5.9,1.1-7.4,2c-1.1,0.7-2.2,2.6-2.4,7.1
					c-0.1,3.3-0.2,5.3-0.3,6.1h14.3l-0.3-10.3L636.9,138.8z"/>
				<path fill="#3C3C3B" d="M639.3,137.8l-0.9,1l0,0l0.6,0.7l-0.3,10.3H653c0-0.8-0.1-2.8-0.3-6.1c-0.2-4.5-1.3-6.5-2.4-7.1
					c-1.5-0.9-5.9-1.5-7.5-2l-2,4.3L639.3,137.8z"/>
				<polygon fill="#3C3C3B" points="638.4,138.8 638.4,138.8 638.4,138.8 				"/>
				<path fill="#3C3C3B" d="M644.1,123.6c0.1-0.7,0.1-1.3,0-1.9l0.3-2c0,0,0.2-0.3,0.1-0.9c-0.1-0.6-0.9-1.5-1.1-1.8
					c-0.2-0.3-0.9-1.3-1.9-2.2c-1-0.9-1.6-1.5-3.2-1.9c-1.6-0.5-3-0.1-4.4,0.7c-1.4,0.8-0.8,2.4-0.8,2.4s-1,0.3-1.7,0.9
					c-0.7,0.7-0.8,1.7-0.9,3.2c0,0.6,0.1,1.3,0.3,2c0,0.5,0,1,0.1,1.5c-0.5,0.3-1.2,1.1-0.9,2.4c0.3,1.2,1.2,2.2,2.2,2.3
					c0.1,0.6,0.5,1.8,1.3,2.9c-0.1,0.6-0.2,1.8-0.3,2.4c0,0,0,0,0,0l-0.2,0.4l1.8,3.7l0.8-0.5l0.4-0.2l0.4-0.2l1.2-0.7l-3.4-2.8
					c0-0.4,0.1-0.7,0.1-1.1c0.7,0.6,1.8,1,3.2,1l0,0l0,0c1.4-0.1,2.6-0.5,3.3-1.1c0.1-0.1,0.2-0.2,0.3-0.3c0,0.5,0.1,1,0.1,1.5l0,0
					c0,0-3.4,2.8-3.4,2.8l0,0l1.2,0.8l0.4,0.2l0.4,0.2l0.8,0.5l1.8-3.8l-0.2-0.3l0,0c-0.1-0.8-0.2-2.5-0.3-3c0.5-0.8,0.7-1.6,0.8-2
					c1.1-0.2,2.1-1.5,2.3-2.7C645.2,124.7,644.6,123.9,644.1,123.6z M631.7,123.6c0-0.5,0.2-1.1,0.1-1.4c0-0.7,0-1.9,0.4-2.4
					c0.4-0.5,1.2-1.1,2.3-1.3c1.1-0.2,2.5,0.3,2.5,0.3s0.4-0.8,1.3-1c1.3-0.3,3.2,0.8,4.2,1.6c0.3,0.4,0.5,0.9,0.6,1.4
					c0,0.8,0,2.1,0,2.8c-0.1,0.1-0.1,0.2-0.2,0.2c-0.2,0.1-0.4,0-0.4,0s-0.5-0.6-0.9-0.8c-0.5-0.2-0.9-0.3-1.4-0.3
					c-0.7,0-1.6,0.3-2,0.6c-0.1,0.1-0.3,0.2-0.3,0.2l-0.6,0l-0.6,0c0,0-0.2-0.1-0.3-0.2c-0.4-0.2-1.2-0.6-2-0.6
					c-0.5,0-0.9,0.1-1.4,0.3c-0.5,0.2-0.9,0.8-0.9,0.8s-0.2,0.1-0.4,0C631.8,123.8,631.7,123.7,631.7,123.6
					C631.7,123.7,631.7,123.7,631.7,123.6C631.7,123.7,631.7,123.7,631.7,123.6z M642.1,125.3c-0.2,0.4-0.7,1.2-1.9,1.2
					c-1.3,0-1.8-0.7-2-1.5c-0.2-0.8,0.1-1.2,0.3-1.4c0.2-0.2,1.5-0.9,2.9-0.4c0,0,0.5,0.2,0.7,0.5
					C642.3,124.2,642.3,124.9,642.1,125.3z M636.6,125c-0.2,0.8-0.8,1.4-2,1.5c-1.2,0-1.8-0.8-1.9-1.2c-0.2-0.4-0.2-1.1,0-1.5
					c0.2-0.4,0.7-0.5,0.7-0.5c1.4-0.5,2.7,0.2,2.9,0.4C636.5,123.8,636.8,124.2,636.6,125z M644.1,125.8c-0.2,1-1.1,2-1.8,2l-0.4,0
					l-0.1,0.4c0,0-0.2,1-0.8,2.1c-0.1,0.2-0.2,0.3-0.3,0.5c-0.1,0.2-0.2,0.3-0.4,0.5c-0.1,0.1-0.2,0.2-0.3,0.3
					c-0.5,0.5-1.5,0.8-2.7,0.9c-1.2-0.1-2.2-0.4-2.7-0.9c0,0-0.1-0.1-0.1-0.1c-0.1-0.1-0.3-0.3-0.4-0.4c-0.1-0.1-0.2-0.3-0.3-0.4
					c-0.8-1.2-1-2.6-1-2.6l-0.1-0.4h-0.4c-0.8,0-1.5-0.7-1.7-1.7c-0.3-1.2,0.5-1.5,0.6-1.6l0.1,0c0,0,0.1,0.1,0.1,0.1v0
					c0,0,0.3,0.1,0.3,0.1c0.1,0.1,0.1,0.1,0.2,0.3c0.1,0.1,0.3,0.8,0.6,1.1c0.2,0.2,0.8,0.7,1.4,0.8c0.9,0.1,1.7,0,2.3-0.6
					c0.7-0.7,0.6-1.5,0.6-1.7c0-0.2,0.1-0.3,0.2-0.3c0.1-0.1,0.3-0.1,0.3-0.1s0.2,0,0.3,0.1c0.1,0.1,0.1,0.2,0.2,0.3
					c0,0.2,0,1,0.6,1.7c0.5,0.6,1.4,0.7,2.3,0.6c0.6-0.1,1.1-0.6,1.4-0.8c0.3-0.3,0.5-1,0.6-1.1c0.1-0.1,0.1-0.2,0.2-0.3
					c0,0,0.2-0.2,0.4-0.3l0.2,0.1C643.5,124.2,644.4,124.5,644.1,125.8z"/>
				<ellipse fill="#3C3C3B" cx="634.6" cy="124.7" rx="0.6" ry="0.7"/>
				<ellipse fill="#3C3C3B" cx="640.2" cy="124.7" rx="0.6" ry="0.7"/>
				<path fill="#3C3C3B" d="M638.8,129.1H636c-0.1,0-0.2,0.1-0.2,0.2s0.1,0.2,0.2,0.2h2.9c0.1,0,0.2-0.1,0.2-0.2
					S639,129.1,638.8,129.1z"/>
			</g>
			<g>
				<rect x="633.2" y="105" fill="#3C3C3B" width="7.3" height="0"/>
				<ellipse fill="#3C3C3B" cx="634" cy="79.9" rx="0.6" ry="0.7"/>
				<ellipse fill="#3C3C3B" cx="639.5" cy="79.9" rx="0.6" ry="0.7"/>
				<path fill="#3C3C3B" d="M635.2,85.1h2.9c0.1,0,0.2-0.1,0.2-0.2c0-0.1-0.1-0.2-0.2-0.2h-2.9c-0.1,0-0.2,0.1-0.2,0.2
					C635,85,635.1,85.1,635.2,85.1z"/>
				<path fill="#3C3C3B" d="M651.9,98.9c-0.2-4.5-1.3-6.5-2.4-7.1c-1.5-0.9-5.5-1.5-7.3-2l-1.5,4.4l-1.1-1.1l-1-1l-0.4-0.4
					c-1.4,0.4-2.4,0.1-2.8-0.1l-0.4,0.4l-0.8,0.8l-1.3,1.3l-1.5-4.4c-1.8,0.5-5.8,1-7.2,1.9c-1.1,0.7-2.2,2.6-2.4,7.1
					c-0.1,3.3-0.2,5.3-0.3,6.1h11.6h7.3h11.8C652.2,104.2,652.1,102.2,651.9,98.9z M634.7,104.1l0.7-11.6c0.4,0.1,0.8,0.2,1.5,0.2
					c0.4,0,0.9-0.1,1.5-0.2l0.7,11.6H634.7z"/>
				<path fill="#3C3C3B" d="M643.4,78.8c0.1-0.7,0.1-1.4,0-2c0-1.5-0.6-2.7-0.8-3.2c0.3-0.2,0.6-0.3,0.6-0.4
					c0.1-0.3-0.1-0.2-1.6-1.4c-1.5-1.2-4.1-2.2-7.3-1.8c-3.1,0.4-4.1,2.3-4.3,3.7c-0.1,1.2-0.1,2.2,0,3.1c-0.1,0.6,0,1.2,0,1.9
					c-0.5,0.3-1.2,1.1-0.9,2.4c0.3,1.2,1.2,2.2,2.2,2.3c0.1,0.6,0.5,1.9,1.3,3l-0.4,2.5l-0.2,0.3v0l1.1,3.2l1.8-1.8l0.1-0.1l-1.9-2
					l0.2-1.2c0.7,0.6,1.8,0.9,3.2,1l0,0l0,0c1.4-0.1,2.6-0.5,3.3-1.1c0,0,0,0,0.1-0.1l0.2,1.4l-1.8,2l0.1,0.1l1.8,1.8l1.1-3.3
					l-0.2-0.4l-0.4-2.5c0.7-0.9,1-1.9,1.1-2.4c1.1-0.2,2.1-1.5,2.3-2.7C644.6,79.9,644,79.2,643.4,78.8z M631.8,75.3
					c0.3-0.6,0.7-1.1,1.2-1.4c0.6-0.4,3.7,2.5,6.9,0.9c0.5-0.2,0.9-0.4,1.3-0.6c0.2,0.8,1,3.6,0.9,4.6l0,0c0,0-0.8-0.2-1.7-0.3
					c-1-0.1-2.3,0.1-2.7,0.2c-0.4,0.1-1.1,0.1-1.1,0.1s-0.7,0-1.1-0.1c-0.4-0.1-1.7-0.2-2.7-0.2c-0.6,0-1.1,0.1-1.4,0.2
					C631.4,77.8,631.6,75.8,631.8,75.3z M641.3,80.6c-0.1,0.6-0.4,1.3-0.8,1.5c-0.4,0.2-1.5,0.3-2,0c-0.6-0.3-1.1-0.8-1.1-1.8
					c0-0.8,0.4-1,0.8-1.2c0.3-0.1,1.2-0.2,1.6-0.1c0,0,0.9,0,1.4,0.3C641.5,79.4,641.3,80.2,641.3,80.6z M635.7,80.2
					c0,1-0.5,1.4-1.1,1.8c-0.5,0.3-1.5,0.3-2,0c-0.4-0.2-0.7-0.9-0.8-1.5c-0.1-0.4-0.3-1.1,0-1.3c0.6-0.3,1.4-0.3,1.4-0.3
					c0.5,0,1.3,0,1.6,0.1C635.3,79.2,635.7,79.4,635.7,80.2z M643.4,81.1c-0.2,1-1.1,2-1.8,2l-0.4,0l-0.1,0.4c0,0-0.4,2-1.7,3.2
					c-0.5,0.5-1.5,0.8-2.7,0.9c-1.2-0.1-2.2-0.4-2.7-0.9c-1.4-1.2-1.8-3.6-1.8-3.6l-0.1-0.4h-0.4c-0.8,0-1.5-0.7-1.7-1.7
					c-0.2-0.9,0.2-1.3,0.5-1.5l0.6,0.1c0.1,0,0.2,0.1,0.3,0.2c0,0.2,0.1,1.2,0.6,1.9c0.3,0.4,0.7,0.7,1.7,0.7c0.7,0,1.5-0.3,1.9-1
					c0.4-0.7,0.5-1.3,0.6-1.5c0.1-0.1,0.3-0.2,0.4-0.2c0.1,0,0.2,0,0.4,0.2c0.1,0.1,0.1,0.7,0.6,1.5c0.4,0.7,1.2,1,1.9,1
					c1,0,1.4-0.3,1.7-0.7c0.5-0.7,0.5-1.7,0.6-1.9c0-0.1,0.2-0.2,0.3-0.2l0.9-0.1v0c0,0,0-0.1,0-0.1C643.1,79.6,643.6,80,643.4,81.1
					z"/>
			</g>
			<g>
				<path fill="#3C3C3B" d="M790.4,129.7c0.1,0.5,0.6,1,1.2,1.2c0.3,0.1,0.6,0.2,0.9,0.2c0.3,0,0.7-0.1,0.9-0.2
					c0.6-0.2,1.1-0.7,1.2-1.2H790.4z M792.5,130.5c-0.4,0-1-0.1-1.2-0.5h2.3C793.5,130.5,792.8,130.5,792.5,130.5z"/>
				<ellipse fill="#3C3C3B" cx="789.7" cy="125.4" rx="0.7" ry="0.8"/>
				<ellipse fill="#3C3C3B" cx="795.2" cy="125.4" rx="0.7" ry="0.8"/>
				<path fill="#3C3C3B" d="M805.7,143.7c-0.2-4.6-1.3-6.3-3.2-7.6c-0.7-0.5-1.6-0.7-2.6-0.9c1-3.2,0.9-7.6,0.7-10.7
					c-0.1-2.2-0.1-5.2-3-8.1c-2.8-2.9-5.3-2-5.3-2s-2.5-0.9-5.3,2c-2.8,2.9-2.8,5.9-3,8.1c-0.2,3.1-0.3,7.6,0.7,10.8
					c-0.9,0.2-1.8,0.5-2.4,0.9c-1.9,1.3-3,3-3.2,7.6c-0.1,2.5-0.1,4.5,0,5.7l0,0.3h26.6l0-0.3C805.8,148.2,805.8,146.2,805.7,143.7z
					 M786,125.2c0-0.1,0-0.2,0.1-0.3c0.1-0.2,0.2-0.3,0.4-0.4c0.1-0.1,0.3-0.2,0.4-0.2c0-0.3,0-0.7,0-1c0.2-0.1,0.5-0.1,0.8-0.2
					c0.1-0.5,0.4-1.7,0.7-2l0.3,1.8c2.3-0.4,5.7-0.7,9.2,0.3c0,0.3,0,0.7,0,1c0.1,0,0.3,0.1,0.4,0.2c0.2,0.1,0.3,0.3,0.4,0.6
					c0,0.1,0,0.1,0,0.2c0.1,0.9-0.1,1.4-0.3,1.8c-0.1,0.1-0.2,0.2-0.2,0.3c-0.1,0.1-0.2,0.2-0.3,0.2c-0.2,0.1-0.3,0.1-0.5,0.1
					c-0.2,0.8-0.4,1.3-0.5,1.6c-0.4,1.1-1.2,1.8-1.9,2.4c-0.1,0.1-0.2,0.1-0.3,0.2c-0.1,0.1-0.2,0.1-0.3,0.2
					c-0.2,0.1-0.3,0.2-0.5,0.3c-0.2,0.1-0.9,0.4-1.5,0.4c-0.6,0-1.3-0.3-1.5-0.4c-0.2-0.1-0.4-0.2-0.7-0.4c-0.1-0.1-0.2-0.1-0.3-0.2
					c-0.1-0.1-0.2-0.1-0.3-0.2c-0.6-0.5-1.3-1.3-1.7-2.2c-0.1-0.3-0.3-0.9-0.5-1.6c-0.1,0-0.3,0-0.5-0.1c-0.2-0.1-0.3-0.1-0.4-0.2
					c0,0-0.1-0.1-0.1-0.1C786.2,126.8,786,126.3,786,125.2z M792.6,139.6c-0.1,0-4.2-1.7-6.4-3.1c-0.4-0.2-0.7-0.5-0.9-0.7
					c0.4-0.1,0.9-0.1,1.3-0.2c1.7-0.3,3.1-0.5,3.3-1.4c0.1-0.5,0.2-0.9,0.3-1.4c0.2,0.1,0.3,0.2,0.5,0.3c0.4,0.2,1.1,0.5,1.9,0.5
					c0,0,0,0,0.1,0c0.8,0,1.5-0.3,1.9-0.5c0.1,0,0.2-0.1,0.3-0.1c0.1,0.4,0.2,0.9,0.3,1.3c0.2,0.9,1.6,1.1,3.3,1.4
					c0.5,0.1,0.9,0.1,1.4,0.2c0.2,0,0.4,0.1,0.6,0.1C797.2,138.5,793.8,138.9,792.6,139.6z"/>
			</g>
			<g>
				<path fill="#3C3C3B" d="M757.7,135.5L757.7,135.5C757.7,135.5,757.7,135.5,757.7,135.5L757.7,135.5L757.7,135.5z"/>
				<path fill="#3C3C3B" d="M749.9,147.7c0,0.8,0,1.5,0.1,2.1h0.1c0-0.1,0-0.2,0-0.3C750,149.1,750,148.5,749.9,147.7z"/>
				<path fill="#3C3C3B" d="M750.1,149.7L750.1,149.7c0,0,0-0.1,0-0.3C750.1,149.5,750.1,149.6,750.1,149.7z"/>
				<path fill="#3C3C3B" d="M775.6,140.8c-0.6-2.4-2.4-4.1-3.7-4.7c-0.7-0.3-1.8-0.5-2.6-0.6c1.9-0.5,3.2-1.3,3.2-2.3
					c0-0.7-3.2,0.3-1.3-4.4c1-2.6,0.9-5.1-0.9-9.3c-1.8-4.4-7.2-4.5-7.2-4.5s-5.4,0.1-7.2,4.5c-1.7,4.2-1.9,6.7-0.9,9.3
					c1.9,4.7-1.3,3.8-1.3,4.4c0.1,1.1,1.5,1.9,3.7,2.4c-0.7,0-2.1,0.2-3.1,0.5c-1.6,0.6-3.7,2.9-4.2,5.3c-0.3,1.5-0.2,4.3-0.1,6.3
					c0,0.8,0.1,1.4,0.1,1.8c0,0.2,0,0.3,0,0.3h8.2l-1.6-6.6l1.6-1.2l-1.9-0.9c-0.1-1.3,0.3-2.7,0.7-3.8c0.3-0.8,0.6-1.5,0.7-1.7
					c0,0,0-0.1,0-0.1l0.1,0l0,0c0,0,0,0,0,0l1.2-0.3c0,0,0,0,0,0.1c0,0.2,0,0.4,0,0.6c0,0.8,0.1,1.9,0.2,3c0,0.6,0.7,10.9,0.7,10.9
					h6.2c0,0,0.7-10.2,0.7-10.7c0.1-1.1,0.1-2.3,0.2-3.2c0-0.3,0-0.5,0-0.7c0-0.1,0-0.1,0-0.2l1,0.2l0.1,0c0,0,0,0.1,0.1,0.2
					c0,0,0.1,0.1,0.1,0.2c0.2,0.4,0.6,1.2,0.9,2.1c0.3,1,0.6,2.2,0.6,3.3l-1.9,0.9l1.6,1.2l-1.6,6.6h8.3h0.2
					C776,149.7,776.1,143,775.6,140.8z M766,134.7c0,0,0,0.5,0,1.3c0,1-0.1,2.3-0.2,3.5c-2.3,0.8-4.2,0.5-5.8-0.1
					c-0.1-1.1-0.2-2.4-0.2-3.3c0-0.4,0-0.8,0-1c0.2-0.1,0.3-0.3,0.4-0.5c0.1-0.5,0.2-1,0.3-1.4c0.2,0.2,0.5,0.3,0.7,0.4
					c0.4,0.2,1.2,0.5,2.1,0.5c0,0,0,0,0.1,0c0.8,0,1.6-0.3,2-0.5c0.1-0.1,0.3-0.2,0.5-0.3c0.1,0.4,0.2,0.9,0.3,1.3c0,0,0,0.1,0,0.1
					C766,134.6,766,134.6,766,134.7z M768,129.5c-0.6,1.3-1.6,2.2-2.5,2.7c-0.3,0.2-0.5,0.3-0.7,0.4c-0.3,0.1-1,0.4-1.6,0.4l0,0l0,0
					c-0.7,0-1.4-0.3-1.6-0.4c-0.3-0.1-0.6-0.3-0.9-0.5c-0.8-0.5-1.8-1.4-2.3-2.6c-0.2-0.5-0.7-1.7-0.9-3.2c0.6-1.5,2.5-2.6,4.5-3.6
					c2-1,3-1.8,3.5-2.4c0.5,1.7,1.6,4.5,3.6,5.9C768.7,127.8,768.2,129,768,129.5z"/>
				<ellipse fill="#3C3C3B" cx="760.3" cy="125.6" rx="0.7" ry="0.9"/>
				<ellipse fill="#3C3C3B" cx="765.8" cy="125.6" rx="0.7" ry="0.9"/>
				<path fill="#3C3C3B" d="M761.1,130c0.2,0.8,1,1.4,2.1,1.4s2-0.6,2.1-1.4H761.1z M763.2,130.8c-0.4,0-1-0.1-1.2-0.5h2.3
					C764.1,130.8,763.4,130.8,763.2,130.8z"/>
			</g>
			<g>
				<path fill="#3C3C3B" d="M775.4,98.8l0.2,0c0,0-0.5-2.6-0.8-3.5c-0.1-0.2-0.2-0.5-0.4-0.8c-0.6-1.2-1.3-2-2.3-2.7
					c-1.1-0.8-2.8-1-4.2-1.3c-0.4-0.1-0.8-0.1-1.1-0.2c0-0.4,0-1,0.1-1.6c0.2-1.2,0.6-2.3,0.4-2.8c0,0,0.6,0.7,0.8,1.2
					c0,0.1,0.2,0.1,0.2,0c0.3-0.6,0.5-1.5,0.2-2.2c-0.3-0.9-0.3-1.1-0.2-1.2c0.1-0.1,0.3,0,0.6,0.2c0.3,0.2,0.8,1.2,0.9,1.2
					c0.3,0,1.1-3.4,0.9-5c-0.2-1.4-0.9-5.8-2.5-7.4c-1.2-1.3-5.7-5.1-9.6-2c0,0-1.3-0.6-2.6,0.4c-1.3,1-3.1,4.1-3.2,6.1
					c-0.1,2.1,0.5,5.3,0.7,6.1c0.2,0.8-0.1,2.1-0.1,2.1s0.9-0.6,1.1-1.4c0-0.1,0-0.2,0-0.3c0.1-1,0.8,1.6,0,2.7c0,0,0.7,0.7,1.2-0.3
					c0,0,0.2,2.9,0.9,4c-0.4,0.1-0.7,0.1-1.1,0.2c-1.5,0.2-3.2,0.5-4.2,1.3c-0.9,0.6-1.6,1.3-2.2,2.4c-0.2,0.4-0.4,0.8-0.6,1.1
					c-0.3,0.9-0.8,3.5-0.8,3.5l0.2,0c0,0.3,0,0.6-0.1,1c-0.1,1.7-0.1,3.3-0.1,4.8l0,0.4h27.3l0-0.4c0-1.5,0-3.1-0.1-4.8
					C775.4,99.4,775.4,99.1,775.4,98.8z M757.3,78.2C757.3,78.2,757.3,78.2,757.3,78.2c0.1-0.5,0.4-1.7,0.7-2l0.3,1.8
					c2.3-0.4,5.9-0.7,8.1,0c0.3,0.1,0.7,0.6,0.9,1c-0.3-0.1-1-0.2-1.8-0.2c-1.5,0-2.5,0.3-2.7,0.3c-0.2,0-0.6,0.1-0.6,0.1
					s-0.4-0.1-0.6-0.1c-0.2,0-1.2-0.3-2.7-0.3c-1,0-1.6,0.1-1.9,0.2C757.1,78.7,757.3,78.3,757.3,78.2z M764.8,80.4
					c0.4,0,0.7-0.3,0.7-0.8c0-0.3-0.1-0.5-0.3-0.6c0.4,0,0.9,0,1.2,0c0,0,0.5,0.1,0.7,0.2c0.1,0.2,0.1,0.7-0.1,1.2
					c-0.2,0.5-0.4,0.7-0.7,0.8c-0.4,0.1-1.4,0.2-2.2,0c-0.8-0.2-1.1-0.4-1.2-1c-0.1-0.7-0.1-0.9,0.2-1c0.2-0.1,0.6-0.1,1.2-0.2
					c-0.1,0.1-0.2,0.3-0.2,0.6C764.1,80.1,764.4,80.4,764.8,80.4z M759.3,80.4c0.4,0,0.7-0.3,0.7-0.8c0-0.2-0.1-0.4-0.2-0.6
					c0.7,0.1,1.4,0.2,1.5,0.2c0.3,0.1,0.3,0.3,0.2,1c-0.1,0.7-0.4,0.9-1.2,1c-0.8,0.2-1.8,0-2.2,0c-0.3-0.1-0.5-0.3-0.7-0.8
					c-0.2-0.5-0.2-1-0.1-1.2c0.1-0.2,0.7-0.2,0.7-0.2c0.3,0,0.6,0,1,0c-0.2,0.1-0.3,0.4-0.3,0.6C758.6,80.1,758.9,80.4,759.3,80.4z
					 M756.6,83.1c-0.2,0-0.3-0.1-0.5-0.1c-0.1,0-0.2-0.1-0.3-0.2c-0.3-0.4-0.6-0.9-0.6-2.1c0-0.3,0.2-0.5,0.3-0.6
					c0.1-0.1,0.3-0.2,0.4-0.2c0.2-0.1,0.4-0.1,0.4-0.1c0,0,0,0,0,0l0.2,0c0,0.1,0,0.1,0.1,0.2c0.1,0.1,0.2,0.2,0.3,0.4
					c0.1,0.1,0.2,0.6,0.4,0.9c0.2,0.3,0.5,0.5,1.9,0.5c1.2,0,1.8-0.3,2-0.5c0.2-0.3,0.3-0.9,0.5-1.1c0.1-0.1,0.3-0.2,0.3-0.2
					c0.1,0,0.2,0.1,0.3,0.2c0.1,0.1,0.2,0.8,0.5,1.1c0.2,0.2,0.7,0.6,2,0.5c1.5,0,1.7-0.2,1.9-0.5c0.3-0.4,0.4-0.8,0.4-0.9
					c0-0.1,0.1-0.1,0.1-0.2c0,0,0,0,0-0.1c0,0,0.1-0.1,0.1-0.1c0,0,0.1-0.1,0.1-0.2c0,0,0,0,0,0c0,0,0.1,0,0.1,0c0,0,0.1,0,0.2,0.1
					c0.1,0.1,0.3,0.1,0.4,0.3c0.2,0.1,0.3,0.3,0.3,0.6c0.1,1.2-0.2,1.7-0.6,2.1c-0.1,0.1-0.1,0.1-0.2,0.1c-0.1,0.1-0.3,0.1-0.5,0.1
					c-0.2,0-0.4,0-0.5,0c-0.2,0.6-0.4,1.1-0.5,1.4c-0.4,1.1-1.2,1.9-1.9,2.4c-0.1,0.1-0.3,0.2-0.4,0.3c-0.2,0.1-0.4,0.2-0.5,0.3
					c0,0-0.1,0-0.1,0.1c-0.2,0.1-0.9,0.4-1.5,0.4c-0.6,0-1.3-0.3-1.5-0.4c0,0-0.1,0-0.1-0.1c-0.2-0.1-0.5-0.3-0.7-0.4
					c-0.2-0.1-0.4-0.3-0.6-0.4c-0.6-0.5-1.2-1.2-1.6-2.1c-0.1-0.3-0.3-0.7-0.4-1.2C757,83.1,756.8,83.1,756.6,83.1z M749,104.1
					c0-1.4,0-2.8,0.1-4.3c0-0.4,0-0.7,0.1-1l3.6,0c-0.4,2-0.2,3.5,0.1,5.3H749z M768.4,93.9c-0.4,0.6-3.4,3.5-6.6,3.3
					c-3.2,0.2-6.3-2.9-6.7-3.4c-0.3-0.4-0.4-1.4-0.5-2c0.4-0.1,0.8-0.1,1.2-0.2c0.9-0.1,1.6-0.3,2.2-0.5c0.6-0.2,1.1-0.5,1.2-1
					c0.2-0.7,0.3-1.4,0.4-2c0.1,0.1,0.3,0.2,0.4,0.2c0.4,0.2,1.1,0.5,1.9,0.5c0,0,0,0,0.1,0c0.8,0,1.6-0.3,2-0.5c0,0,0,0,0,0
					c0.1,0.5,0.2,1.2,0.4,1.8c0.1,0.5,0.6,0.8,1.2,1.1c0.6,0.2,1.3,0.3,2.2,0.4c0.4,0.1,0.7,0.1,1.1,0.2
					C768.8,92.3,768.7,93.4,768.4,93.9z M774.6,104.1h-3.9c0.3-1.8,0.5-3.4,0.1-5.3l3.6,0c0,0.3,0,0.7,0.1,1
					C774.6,101.3,774.6,102.7,774.6,104.1z"/>
				<path fill="#3C3C3B" d="M763.9,84.5c0,0-1.3,0.2-1.9,0.2c-0.7,0-1.9-0.2-1.9-0.2c-0.1,0-0.2,0.1-0.1,0.2
					c0.1,0.3,0.4,0.6,0.6,0.7c0.4,0.2,0.9,0.4,1.4,0.4c0.5,0,1-0.1,1.4-0.4c0.2-0.1,0.5-0.4,0.6-0.7C764.1,84.5,764,84.5,763.9,84.5
					z"/>
			</g>
			<g>
				<path fill="#3C3C3B" d="M698.3,135.5c0,0-0.1,0-0.1,0C698.3,135.6,698.3,135.6,698.3,135.5C698.3,135.6,698.3,135.5,698.3,135.5
					z"/>
				<path fill="#3C3C3B" d="M697.6,143.2l1.6-1.2l-1.9-0.9c0-1.2,0.2-2.3,0.4-3.2c0.3-1.1,0.8-1.9,0.9-2.2c0,0,0,0,0.1-0.1
					c-0.1,0-0.2-0.1-0.3-0.1c0,0-0.1,0-0.1,0c-0.7,0-2.1,0.1-3,0.5c-0.3,0.1-1.1,0.6-1.1,0.6c-1.7,1.2-2.9,2.7-3.1,7.3
					c-0.1,2.5-0.1,4.5,0,5.7h0.1h8.1L697.6,143.2z"/>
				<path fill="#3C3C3B" d="M716.5,140.8c-0.3-2.4-2.4-4.1-3.7-4.7c-1.1-0.5-3.1-0.7-3.7-0.8c0.7-0.7,1.3-1.5,1.7-2.3
					c0.7-1.5,2.3-6,0.7-11.2c-0.7-2.4-4.2-7.2-7.6-5.5c0,0-4.9-0.6-6.8,2.7c-1.9,3.2-3.7,8.6-2.9,11.3c0.7,2.4,1.6,2.9,2.7,4.1
					c0.4,0.4,0.9,0.8,1.5,1.1c0,0,0,0,0,0c0.1,0,0.2,0.1,0.3,0.1c0,0,0.1,0,0.1,0c0.4,0.2,0.8,0.4,1.1,0.6c0.1,0.8,0.1,1.8,0.2,2.8
					c0.1,0.6,0.7,10.7,0.7,10.7h6.1c0,0,0.8-12.5,0.8-13.2c0.3-0.3,0.7-0.6,1-1c0,0,0,0,0.1-0.1c0.1,0.1,0.2,0.1,0.3,0.2
					c0.2,0.3,0.6,1.1,1,2.3c0.2,0.9,0.4,1.9,0.4,3l-1.9,0.9l1.6,1.2l-1.6,6.5h8.3h0.2C716.9,149.7,716.7,142.8,716.5,140.8z
					 M706.6,135.3c-0.1,0.1-0.1,0.3-0.2,0.4c-0.4,1.1,0.2,1.7,0.2,1.7s0.1,0,0.1-0.1c0,0.7-0.1,1.6-0.2,2.4
					c-0.9,0.4-1.8,0.7-2.3,0.7c-0.7,0-1.9-0.4-3.3-1c-0.1-0.9-0.2-1.9-0.2-2.8c0.2,0.1,0.3,0.1,0.3,0.1s0.5-0.3,0.4-1.1
					c0-0.3-0.1-0.6-0.4-1.1c0-0.1,0.1-0.1,0.1-0.2c0.1-0.5,0.2-1,0.3-1.5c0.3,0.2,0.5,0.3,0.8,0.5c0.4,0.2,1.1,0.5,1.9,0.5
					c0,0,0,0,0.1,0c0.8,0,1.6-0.3,2-0.5c0.2-0.1,0.4-0.2,0.6-0.3c0.1,0.4,0.2,0.9,0.3,1.3C706.8,134.8,706.7,135.2,706.6,135.3z
					 M708.6,127.8c-0.1,0.8-0.2,1.5-0.3,2.3c0,0.2-0.1,0.4-0.1,0.5c-0.5,0.7-1.1,1.2-1.6,1.5c-0.3,0.2-0.6,0.4-0.8,0.5
					c-0.2,0.1-0.9,0.4-1.5,0.4c-0.6,0-1.3-0.3-1.5-0.4c-0.3-0.1-0.6-0.4-1-0.6c-0.6-0.4-1.2-1.1-1.7-1.9c-0.1-0.2-0.2-0.4-0.3-0.6
					c-0.1-0.3-0.4-1-0.6-1.8c0.1-1.4,0.9-3.2,1.7-4.1c2.2-2.6,1.9-4.7,3.4-4.6c0,0,2.1,0.4,3.1,2.3
					C708.3,123.3,708.8,124.4,708.6,127.8z"/>
				<ellipse fill="#3C3C3B" cx="701.5" cy="125.6" rx="0.7" ry="0.8"/>
				<ellipse fill="#3C3C3B" cx="706.3" cy="125.6" rx="0.7" ry="0.8"/>
				<path fill="#3C3C3B" d="M702.9,131c0.4,0.2,0.8,0.3,1.2,0.3c0.4,0,0.9-0.1,1.2-0.3c0.2-0.1,0.4-0.4,0.5-0.6c0-0.1,0-0.1-0.1-0.1
					c0,0-1.1,0.2-1.7,0.2c-0.6,0-1.7-0.2-1.7-0.2c-0.1,0-0.1,0.1-0.1,0.1C702.4,130.6,702.7,130.9,702.9,131z"/>
			</g>
			<g>
				<ellipse fill="#3C3C3B" cx="697.6" cy="79.4" rx="0.6" ry="0.7"/>
				<ellipse fill="#3C3C3B" cx="702.6" cy="79.3" rx="0.6" ry="0.7"/>
				<path fill="#3C3C3B" d="M715.6,98.9c-0.2-4.5-1.3-6.5-2.4-7.1c-1.5-0.9-5.5-1.5-7.3-2l-1.5,4.4l-2.5-2.5
					c-0.4,0.1-0.7,0.2-1.1,0.2c-0.3,0-0.6,0-0.9,0c-0.4-0.1-0.7-0.2-0.9-0.2l-2.6,2.6l-1.1-3.3l-0.3-1c-1.8,0.5-5.8,1-7.2,1.9
					c-1.1,0.7-2.2,2.6-2.4,7.1c-0.1,3.3-0.2,5.3-0.3,6.1h8.7v0h13v0h8.9C715.8,104.2,715.7,102.2,715.6,98.9z M698.3,104.1l0.6-9.3
					l0-0.5l0-0.5l0.1-1.3c0.4,0.1,0.8,0.2,1.5,0.2c0.4,0,0.9-0.1,1.5-0.2l0.1,1.3l0,0.5l0,0.5l0.6,9.3H698.3z"/>
				<path fill="#3C3C3B" d="M705.1,89.3L705.1,89.3L705.1,89.3L705,89l0,0C705,89.1,705.1,89.2,705.1,89.3z"/>
				<path fill="#3C3C3B" d="M707.4,76c0.3-0.2,0.9-0.4,0.8-0.6c0-0.2-0.7-0.7-0.6-0.8c0.1-0.2,0.2-0.5,0.2-0.6
					c-0.1-2.9-2.9-3.1-2.9-3.1s-3.1-3.3-6.8-0.8c0,0-3.4,0.2-4.3,1.3c-0.4,0.5-1.7,2.3-0.9,4.1c0.2,0.5,0.4,0.9,0.5,1.3
					c0,0.5,0,1.1,0,1.7c-0.6,0.3-1.2,1.1-0.9,2.5c0.4,1.9,1.2,2.5,1.9,2.6c0.2,0.6,0.8,2.2,1.8,3.5c0,0.4-0.1,0.9-0.2,1.5
					c0,0.2-0.1,0.5-0.1,0.9l-0.1,0.1v0l0,0.1l0.3,0.8l0.3,0.9l0.5,1.4l1.8-1.8l0.1-0.1l-1.9-2.1c0,0,0,0,0-0.1c0-0.2,0-0.5,0.1-0.7
					c0.7,0.6,1.8,0.9,3.2,1l0,0l0,0c1.5-0.1,2.9-0.6,3.6-1.2c0,0,0.1-0.1,0.1-0.1c0,0.1,0,0.2,0,0.3l0.1,0.8l0,0.1l-1.9,2.1l0.1,0.1
					l0.9,0.9l0.2,0.2l0.7,0.7l0.5-1.5l0.2-0.6l0.3-0.9l0.1-0.3l0,0c-0.1-0.1-0.1-0.2-0.1-0.2l0,0l-0.1-0.6l-0.1-0.8
					c0-0.5-0.1-0.9-0.1-1.2c0.8-1.1,1.2-2.4,1.4-3c1.1-0.2,1.5-1.7,1.7-2.6c0.3-1.3-0.3-2.1-0.9-2.5c0.1-0.5,0.1-1,0.1-1.4
					c0.1,0.1,0.7,0.2,0.8,0C707.8,76.7,707.1,76.2,707.4,76z M702.7,85.8c0,0.1-0.1,0.2-0.2,0.3c-0.1,0.1-0.3,0.1-0.6,0.2
					c-0.2,0-0.5,0.1-0.7,0c-0.2,0-0.4-0.1-0.4-0.3c0,0,0-0.1-0.1-0.1c-0.1-0.1-0.4-0.1-0.5-0.1c-0.1,0-0.4,0-0.6,0.2c0,0,0,0,0,0.1
					c-0.2,0.6-1.4,0.3-1.7,0.1c0,0-0.1-0.1-0.1-0.1c-0.2-0.3-0.2-1,0-1.1c0.5-0.2,2.4-0.3,2.4-0.3s2,0.1,2.4,0.3
					C702.8,85,702.8,85.5,702.7,85.8z M706.9,80.6c-0.3,1.4-0.6,1.9-1.1,1.9h-0.3l-0.1,0.3c0,0-0.2,0.6-0.5,1.3l-1.5,0.5
					c-0.1-0.1-0.1-0.2-0.2-0.2c-0.4-0.2-2-0.6-2.9-0.6c-0.9,0.1-2.5,0.4-2.9,0.6c-0.1,0.1-0.2,0.1-0.2,0.2l-1.5-0.5
					c-0.3-0.7-0.5-1.3-0.5-1.3l-0.1-0.3h-0.3c-0.8,0-1.2-1.2-1.3-1.9c-0.3-1.2,0.5-1.6,0.6-1.6l0.1,0c0.2,0.3,0.5,0.8,0.6,0.8
					c0.1,0,0.4-3.9,0.4-4.2s1.6-1.4,2.4-1.9c1-0.5,1.8-1.7,2-2c0,0,0.1,0,0.1,0c0.3,0.5,2,3.2,2.9,3.9c1,0.7,3,1.6,3,1.6
					s0.2,2.4,0.3,2.5c0.1,0,0.2-0.2,0.4-0.5C706.6,79.2,707.1,79.7,706.9,80.6z"/>
				<path fill="#3C3C3B" d="M701.3,84.9c-1.2,0.6-2.3,0-2.3,0c-0.1-0.1-0.2,0-0.3,0.1c-0.1,0.1,0,0.2,0.1,0.3c0,0,0.6,0.4,1.4,0.4
					c0.4,0,0.8-0.1,1.3-0.3c0.1-0.1,0.2-0.2,0.1-0.3C701.6,84.9,701.4,84.8,701.3,84.9z"/>
			</g>
		</g>
		<g>
			<circle fill="#304D7F" cx="420.9" cy="106.6" r="78.8"/>
			<path fill="#FF1900" stroke="#F9F0DF" stroke-width="1.1369" stroke-miterlimit="10" d="M443.1,66.4h-42.2
				c-5.8,0-10.6,4.8-10.6,10.6v30.7c-4.9,0.1-8.8,4-8.8,8.9v7.9c0,4.9,3.9,8.9,8.8,8.9v7.1c0,5.8,4.8,10.6,10.6,10.6h42.2
				c5.8,0,10.6-4.8,10.6-10.6V77C453.7,71.2,448.9,66.4,443.1,66.4z"/>
			<g>
				<circle fill="none" stroke="#304D7F" stroke-width="2.7868" stroke-miterlimit="10" cx="420.9" cy="106.6" r="82.4"/>
				<g>
					<g>
						<polygon fill="#FFFFFF" stroke="#304D7F" stroke-width="2.7171" stroke-miterlimit="10" points="428.7,28.4 420.9,33.2 
							413.2,28.4 413.2,19.4 420.9,14.6 428.7,19.4 						"/>
						
							<line fill="none" stroke="#304D7F" stroke-width="1.3585" stroke-miterlimit="10" x1="420.9" y1="24.1" x2="420.9" y2="33.2"/>
						<polyline fill="none" stroke="#304D7F" stroke-width="1.3585" stroke-miterlimit="10" points="428.7,19.4 420.9,24.2 
							413.2,19.4 						"/>
					</g>
					<g>
						<polygon fill="#FFFFFF" stroke="#304D7F" stroke-width="2.7171" stroke-miterlimit="10" points="428.7,193.8 420.9,198.6 
							413.2,193.8 413.2,184.8 420.9,180 428.7,184.8 						"/>
						
							<line fill="none" stroke="#304D7F" stroke-width="1.3585" stroke-miterlimit="10" x1="420.9" y1="189.5" x2="420.9" y2="198.6"/>
						<polyline fill="none" stroke="#304D7F" stroke-width="1.3585" stroke-miterlimit="10" points="428.7,184.8 420.9,189.6 
							413.2,184.8 						"/>
					</g>
					<g>
						<polygon fill="#FFFFFF" stroke="#304D7F" stroke-width="2.7171" stroke-miterlimit="10" points="400.4,33.3 392.7,38.2 
							385,33.3 385,24.4 392.7,19.5 400.4,24.4 						"/>
						
							<line fill="none" stroke="#304D7F" stroke-width="1.3585" stroke-miterlimit="10" x1="392.6" y1="29.1" x2="392.6" y2="38.2"/>
						<polyline fill="none" stroke="#304D7F" stroke-width="1.3585" stroke-miterlimit="10" points="400.4,24.4 392.7,29.2 
							385,24.4 						"/>
					</g>
					<g>
						<polygon fill="#FFFFFF" stroke="#304D7F" stroke-width="2.7171" stroke-miterlimit="10" points="456.9,188.8 449.2,193.6 
							441.5,188.8 441.5,179.8 449.2,175 456.9,179.8 						"/>
						
							<line fill="none" stroke="#304D7F" stroke-width="1.3585" stroke-miterlimit="10" x1="449.2" y1="184.5" x2="449.2" y2="193.6"/>
						<polyline fill="none" stroke="#304D7F" stroke-width="1.3585" stroke-miterlimit="10" points="456.9,179.8 449.2,184.6 
							441.5,179.8 						"/>
					</g>
					<g>
						<polygon fill="#FFFFFF" stroke="#304D7F" stroke-width="2.7171" stroke-miterlimit="10" points="375.5,47.7 367.8,52.5 
							360.1,47.7 360.1,38.7 367.8,33.9 375.5,38.7 						"/>
						
							<line fill="none" stroke="#304D7F" stroke-width="1.3585" stroke-miterlimit="10" x1="367.8" y1="43.5" x2="367.8" y2="52.5"/>
						<polyline fill="none" stroke="#304D7F" stroke-width="1.3585" stroke-miterlimit="10" points="375.5,38.7 367.8,43.5 
							360.1,38.7 						"/>
					</g>
					<g>
						<polygon fill="#FFFFFF" stroke="#304D7F" stroke-width="2.7171" stroke-miterlimit="10" points="481.8,174.4 474.1,179.2 
							466.4,174.4 466.4,165.4 474.1,160.6 481.8,165.4 						"/>
						
							<line fill="none" stroke="#304D7F" stroke-width="1.3585" stroke-miterlimit="10" x1="474.1" y1="170.2" x2="474.1" y2="179.2"/>
						<polyline fill="none" stroke="#304D7F" stroke-width="1.3585" stroke-miterlimit="10" points="481.8,165.4 474.1,170.2 
							466.4,165.4 						"/>
					</g>
					<g>
						<polygon fill="#FFFFFF" stroke="#304D7F" stroke-width="2.7171" stroke-miterlimit="10" points="357,69.7 349.3,74.5 
							341.6,69.7 341.6,60.7 349.3,55.9 357,60.7 						"/>
						
							<line fill="none" stroke="#304D7F" stroke-width="1.3585" stroke-miterlimit="10" x1="349.3" y1="65.5" x2="349.3" y2="74.5"/>
						<polyline fill="none" stroke="#304D7F" stroke-width="1.3585" stroke-miterlimit="10" points="357,60.7 349.3,65.5 
							341.6,60.7 						"/>
					</g>
					<g>
						<polygon fill="#FFFFFF" stroke="#304D7F" stroke-width="2.7171" stroke-miterlimit="10" points="500.3,152.4 492.6,157.2 
							484.9,152.4 484.9,143.4 492.6,138.6 500.3,143.4 						"/>
						
							<line fill="none" stroke="#304D7F" stroke-width="1.3585" stroke-miterlimit="10" x1="492.5" y1="148.2" x2="492.5" y2="157.2"/>
						<polyline fill="none" stroke="#304D7F" stroke-width="1.3585" stroke-miterlimit="10" points="500.3,143.4 492.6,148.2 
							484.9,143.4 						"/>
					</g>
					<g>
						<polygon fill="#FFFFFF" stroke="#304D7F" stroke-width="2.7171" stroke-miterlimit="10" points="347.2,96.7 339.5,101.5 
							331.8,96.7 331.8,87.7 339.5,82.9 347.2,87.7 						"/>
						
							<line fill="none" stroke="#304D7F" stroke-width="1.3585" stroke-miterlimit="10" x1="339.5" y1="92.5" x2="339.5" y2="101.5"/>
						<polyline fill="none" stroke="#304D7F" stroke-width="1.3585" stroke-miterlimit="10" points="347.2,87.7 339.5,92.5 
							331.8,87.7 						"/>
					</g>
					<g>
						<polygon fill="#FFFFFF" stroke="#304D7F" stroke-width="2.7171" stroke-miterlimit="10" points="510.1,125.4 502.4,130.2 
							494.7,125.4 494.7,116.4 502.4,111.6 510.1,116.4 						"/>
						
							<line fill="none" stroke="#304D7F" stroke-width="1.3585" stroke-miterlimit="10" x1="502.4" y1="121.2" x2="502.4" y2="130.2"/>
						<polyline fill="none" stroke="#304D7F" stroke-width="1.3585" stroke-miterlimit="10" points="510.1,116.4 502.4,121.2 
							494.7,116.4 						"/>
					</g>
					<g>
						<polygon fill="#FFFFFF" stroke="#304D7F" stroke-width="2.7171" stroke-miterlimit="10" points="347.2,125.4 339.5,130.2 
							331.8,125.4 331.8,116.4 339.5,111.6 347.2,116.4 						"/>
						
							<line fill="none" stroke="#304D7F" stroke-width="1.3585" stroke-miterlimit="10" x1="339.5" y1="121.2" x2="339.5" y2="130.2"/>
						<polyline fill="none" stroke="#304D7F" stroke-width="1.3585" stroke-miterlimit="10" points="347.2,116.4 339.5,121.2 
							331.8,116.4 						"/>
					</g>
					<g>
						<polygon fill="#FFFFFF" stroke="#304D7F" stroke-width="2.7171" stroke-miterlimit="10" points="510.1,96.7 502.4,101.5 
							494.7,96.7 494.7,87.7 502.4,82.9 510.1,87.7 						"/>
						
							<line fill="none" stroke="#304D7F" stroke-width="1.3585" stroke-miterlimit="10" x1="502.4" y1="92.5" x2="502.4" y2="101.5"/>
						<polyline fill="none" stroke="#304D7F" stroke-width="1.3585" stroke-miterlimit="10" points="510.1,87.7 502.4,92.5 
							494.7,87.7 						"/>
					</g>
					<g>
						<polygon fill="#FFFFFF" stroke="#304D7F" stroke-width="2.7171" stroke-miterlimit="10" points="357,152.4 349.3,157.2 
							341.6,152.4 341.6,143.4 349.3,138.6 357,143.4 						"/>
						
							<line fill="none" stroke="#304D7F" stroke-width="1.3585" stroke-miterlimit="10" x1="349.3" y1="148.2" x2="349.3" y2="157.2"/>
						<polyline fill="none" stroke="#304D7F" stroke-width="1.3585" stroke-miterlimit="10" points="357,143.4 349.3,148.2 
							341.6,143.4 						"/>
					</g>
					<g>
						<polygon fill="#FFFFFF" stroke="#304D7F" stroke-width="2.7171" stroke-miterlimit="10" points="500.3,69.7 492.6,74.5 
							484.9,69.7 484.9,60.7 492.6,55.9 500.3,60.7 						"/>
						
							<line fill="none" stroke="#304D7F" stroke-width="1.3585" stroke-miterlimit="10" x1="492.6" y1="65.5" x2="492.6" y2="74.5"/>
						<polyline fill="none" stroke="#304D7F" stroke-width="1.3585" stroke-miterlimit="10" points="500.3,60.7 492.6,65.5 
							484.9,60.7 						"/>
					</g>
					<g>
						<polygon fill="#FFFFFF" stroke="#304D7F" stroke-width="2.7171" stroke-miterlimit="10" points="375.5,174.4 367.8,179.2 
							360.1,174.4 360.1,165.4 367.8,160.6 375.5,165.4 						"/>
						
							<line fill="none" stroke="#304D7F" stroke-width="1.3585" stroke-miterlimit="10" x1="367.8" y1="170.2" x2="367.8" y2="179.3"/>
						<polyline fill="none" stroke="#304D7F" stroke-width="1.3585" stroke-miterlimit="10" points="375.5,165.4 367.8,170.3 
							360.1,165.4 						"/>
					</g>
					<g>
						<polygon fill="#FFFFFF" stroke="#304D7F" stroke-width="2.7171" stroke-miterlimit="10" points="481.8,47.7 474.1,52.5 
							466.4,47.7 466.4,38.7 474.1,33.9 481.8,38.7 						"/>
						
							<line fill="none" stroke="#304D7F" stroke-width="1.3585" stroke-miterlimit="10" x1="474.1" y1="43.5" x2="474.1" y2="52.5"/>
						<polyline fill="none" stroke="#304D7F" stroke-width="1.3585" stroke-miterlimit="10" points="481.8,38.7 474.1,43.6 
							466.4,38.7 						"/>
					</g>
					<g>
						<polygon fill="#FFFFFF" stroke="#304D7F" stroke-width="2.7171" stroke-miterlimit="10" points="400.4,188.8 392.7,193.6 
							384.9,188.8 384.9,179.8 392.7,175 400.4,179.8 						"/>
						
							<line fill="none" stroke="#304D7F" stroke-width="1.3585" stroke-miterlimit="10" x1="392.6" y1="184.6" x2="392.6" y2="193.6"/>
						<polyline fill="none" stroke="#304D7F" stroke-width="1.3585" stroke-miterlimit="10" points="400.4,179.8 392.7,184.6 
							384.9,179.8 						"/>
					</g>
					<g>
						<polygon fill="#FFFFFF" stroke="#304D7F" stroke-width="2.7171" stroke-miterlimit="10" points="456.9,33.3 449.2,38.2 
							441.5,33.3 441.5,24.4 449.2,19.6 456.9,24.4 						"/>
						
							<line fill="none" stroke="#304D7F" stroke-width="1.3585" stroke-miterlimit="10" x1="449.2" y1="29.1" x2="449.2" y2="38.2"/>
						<polyline fill="none" stroke="#304D7F" stroke-width="1.3585" stroke-miterlimit="10" points="456.9,24.4 449.2,29.2 
							441.5,24.4 						"/>
					</g>
				</g>
			</g>
			<path d="M404.5,80"/>
			<path fill="none" stroke="#DA3A36" stroke-width="0.1697" stroke-miterlimit="10" d="M471,133.8"/>
			<path fill="none" stroke="#DA3A36" stroke-width="0.1697" stroke-miterlimit="10" d="M471,94.7"/>
			<path fill="none" stroke="#DA3A36" stroke-width="0.1697" stroke-miterlimit="10" d="M472.2,131.3"/>
			<path fill="none" stroke="#DA3A36" stroke-width="0.1697" stroke-miterlimit="10" d="M472.2,100.4"/>
			<path fill="#FFFFFF" d="M390.4,111.2c-3,0-5.5,2.5-5.5,5.5v7.9c0,3,2.5,5.5,5.5,5.5h39.7c3,0,5.5-2.5,5.5-5.5v-7.9
				c0-3-2.5-5.5-5.5-5.5H390.4z"/>
			<g>
				<path fill="#FF1900" d="M392.3,122.8c0-1.5-4.3-1.3-4.3-4.2c0-1.5,1.4-2.7,3.3-2.7c1.6,0,2.5,0.7,2.8,1.1l-1.3,1.5
					c-0.2-0.3-0.8-0.9-1.7-0.9c-0.7,0-1,0.4-1,0.8c0,1.5,4.3,1.3,4.3,4.2c0,1.4-1.2,2.7-3.5,2.7c-1.8,0-2.9-0.8-3.2-1.2l1.2-1.7
					c0.4,0.4,1.2,1.1,2.3,1.1C391.9,123.7,392.3,123.2,392.3,122.8z"/>
				<path fill="#FF1900" d="M395.9,125.2v-9.3h5.5v1.7H398v2.1h3v1.7h-3v2.2h3.7v1.7H395.9z"/>
				<path fill="#FF1900" d="M407.1,115.8c1.8,0,2.7,0.8,2.9,1.1l-1.3,1.5c-0.3-0.4-0.7-0.8-1.7-0.8c-1.2,0-1.9,0.9-1.9,3
					c0,1.9,0.7,3.1,2.1,3.1c0.9,0,1.4-0.5,1.7-0.8l1.1,1.4c-0.4,0.5-1.3,1.1-2.9,1.1c-2.9,0-4-1.9-4-4.7
					C402.9,117.7,404.3,115.8,407.1,115.8z"/>
				<path fill="#FF1900" d="M414.3,115.9c2.1,0,3.2,0.8,3.2,2.7c0,1.6-0.9,2.4-2,2.6v0.1c0.5,0.2,0.8,0.6,1.2,1.4l1.4,2.6h-2.4
					l-1.5-3c-0.2-0.3-0.4-0.4-0.8-0.4h-0.1v3.5h-2v-9.3H414.3z M413.3,120.2h0.8c1.1,0,1.4-0.5,1.4-1.3c0-0.8-0.5-1.2-1.4-1.2h-0.8
					V120.2z"/>
				<path fill="#FF1900" d="M419.4,125.2v-9.3h5.5v1.7h-3.5v2.1h3v1.7h-3v2.2h3.7v1.7H419.4z"/>
				<path fill="#FF1900" d="M428.1,117.6h-2.3v-1.7h6.7v1.7h-2.3v7.6h-2V117.6z"/>
			</g>
			<g>
				<path fill="#F9F0DF" d="M422.1,92.5c7.5,0,13.6-6.2,13.6-13.7l-0.1-15.4c0-7.5-6.2-13.6-13.7-13.6s-13.6,6.2-13.6,13.7l0.1,15.4
					C408.4,86.4,414.6,92.5,422.1,92.5z"/>
				<path fill="#FF1900" d="M422.1,91c6.8,0,12.3-5.6,12.3-12.4l0-15c0-6.8-5.6-12.3-12.4-12.3c-6.8,0-12.3,5.6-12.3,12.4l0,15
					C409.7,85.5,415.3,91,422.1,91z M424.6,77.9c0,1.4-1.2,2.6-2.6,2.6c-1.4,0-2.6-1.2-2.6-2.6c0-1.4,1.2-2.6,2.6-2.6
					C423.4,75.3,424.6,76.5,424.6,77.9z M412.8,61.2c0-3.5,3.9-7.4,8.9-7.4l0.5,0c4.6,0,8.9,3.9,8.9,7.4c0,3.5-2.6,4.7-6,4.7l-5.7,0
					C415.9,65.8,412.8,64.6,412.8,61.2z M413.6,79.1l0-1.7c0-0.1,0-0.1,0-0.2c0.3-4.3,3.9-7.7,8.4-7.8c4.4,0,8,3.4,8.4,7.7
					c0,0.1,0,0.1,0,0.2l0,1.7c0,0.8-0.7,1.5-1.5,1.5c-0.8,0-1.5-0.7-1.5-1.5l0-1.6c-0.2-2.8-2.6-5.1-5.5-5.1c-2.9,0-5.2,2.3-5.4,5.1
					l0,1.6c0,0.8-0.7,1.5-1.5,1.5C414.3,80.6,413.6,79.9,413.6,79.1z"/>
			</g>
			<g>
				<path fill="#F9F0DF" d="M448.2,92.5c7.5,0,13.6-6.2,13.6-13.7l-0.1-15.4c0-7.5-6.2-13.6-13.7-13.6s-13.6,6.2-13.6,13.7l0.1,15.4
					C434.6,86.4,440.7,92.5,448.2,92.5z"/>
				<path fill="#7897CC" d="M448.2,91c6.8,0,12.3-5.6,12.3-12.4l0-15c0-6.8-5.6-12.3-12.4-12.3c-6.8,0-12.3,5.6-12.3,12.4l0,15
					C435.8,85.5,441.4,91,448.2,91z M450.8,77.9c0,1.4-1.2,2.6-2.6,2.6c-1.4,0-2.6-1.2-2.6-2.6c0-1.4,1.2-2.6,2.6-2.6
					C449.6,75.3,450.8,76.5,450.8,77.9z M438.9,61.2c0-3.5,3.9-7.4,8.9-7.4l0.5,0c4.6,0,8.9,3.9,8.9,7.4c0,3.5-2.6,4.7-6,4.7l-5.7,0
					C442.1,65.8,439,64.6,438.9,61.2z M439.8,79.1l0-1.7c0-0.1,0-0.1,0-0.2c0.3-4.3,3.9-7.7,8.4-7.8c4.4,0,8,3.4,8.4,7.7
					c0,0.1,0,0.1,0,0.2l0,1.7c0,0.8-0.7,1.5-1.5,1.5c-0.8,0-1.5-0.7-1.5-1.5l0-1.6c-0.2-2.8-2.6-5.1-5.5-5.1c-2.9,0-5.2,2.3-5.4,5.1
					l0,1.6c0,0.8-0.7,1.5-1.5,1.5C440.4,80.6,439.8,79.9,439.8,79.1z"/>
			</g>
		</g>
	</g>
</g>
</svg>
