<?xml version="1.0" encoding="utf-8"?>
<!-- Generator: Adobe Illustrator 18.1.1, SVG Export Plug-In . SVG Version: 6.00 Build 0)  -->
<svg version="1.1" xmlns="http://www.w3.org/2000/svg" xmlns:xlink="http://www.w3.org/1999/xlink" x="0px" y="0px"
	 viewBox="0 0 841.9 595.3" enable-background="new 0 0 841.9 595.3" xml:space="preserve">
<g id="bg">
	<rect x="0" y="0" fill="#F9F0DF" width="841.9" height="595.3"/>
</g>
<g id="Layer_1">
	<path fill="#FF1900" d="M353.5,338.5l11.9,11.9c1.1,1.1,2.8,1.1,3.9,0l11.9-11.9c1.7-1.7,0.5-4.7-1.9-4.7h-6.1v-17.1
		c0-1.5-1.3-2.8-2.8-2.8h-6.1c-1.5,0-2.8,1.3-2.8,2.8v17.1h-6.1C353,333.8,351.7,336.8,353.5,338.5z"/>
	<path fill="#7897CC" d="M496.2,338.5l11.9,11.9c1.1,1.1,2.8,1.1,3.9,0l11.9-11.9c1.7-1.7,0.5-4.7-1.9-4.7h-6.1v-17.1
		c0-1.5-1.3-2.8-2.8-2.8H507c-1.5,0-2.8,1.3-2.8,2.8v17.1h-6.1C495.7,333.8,494.5,336.8,496.2,338.5z"/>
	<path fill="#999999" d="M288.6,403.4l-11.9,11.9c-1.1,1.1-1.1,2.8,0,3.9l11.9,11.9c1.7,1.7,4.7,0.5,4.7-1.9v-6.1h17.1
		c1.5,0,2.8-1.3,2.8-2.8v-6.1c0-1.5-1.3-2.8-2.8-2.8h-17.1v-6.1C293.2,402.9,290.3,401.7,288.6,403.4z"/>
	<path fill="#FF1900" d="M164.5,205.8l11.9-11.9c1.1-1.1,1.1-2.8,0-3.9l-11.9-11.9c-1.7-1.7-4.7-0.5-4.7,1.9v6.1h-17.1
		c-1.5,0-2.8,1.3-2.8,2.8v6.1c0,1.5,1.3,2.8,2.8,2.8h17.1v6.1C159.8,206.3,162.8,207.5,164.5,205.8z"/>
	<path fill="#FF1900" d="M303.7,205.8l11.9-11.9c1.1-1.1,1.1-2.8,0-3.9l-11.9-11.9c-1.7-1.7-4.7-0.5-4.7,1.9v6.1h-17.1
		c-1.5,0-2.8,1.3-2.8,2.8v6.1c0,1.5,1.3,2.8,2.8,2.8H299v6.1C299,206.3,301.9,207.5,303.7,205.8z"/>
	<path fill="#FF1900" d="M442.8,205.8l11.9-11.9c1.1-1.1,1.1-2.8,0-3.9l-11.9-11.9c-1.7-1.7-4.7-0.5-4.7,1.9v6.1H421
		c-1.5,0-2.8,1.3-2.8,2.8v6.1c0,1.5,1.3,2.8,2.8,2.8h17.1v6.1C438.1,206.3,441.1,207.5,442.8,205.8z"/>
	<path fill="#FF1900" d="M589.1,205.8l11.9-11.9c1.1-1.1,1.1-2.8,0-3.9l-11.9-11.9c-1.7-1.7-4.7-0.5-4.7,1.9v6.1h-17.1
		c-1.5,0-2.8,1.3-2.8,2.8v6.1c0,1.5,1.3,2.8,2.8,2.8h17.1v6.1C584.4,206.3,587.4,207.5,589.1,205.8z"/>
	<path fill="#FF1900" d="M371.8,281.1h-32c-1.8,0-3.3,1.5-3.3,3.3c0,1.8,1.5,3.3,3.3,3.3h0.8v6.9c0,1.6,1.3,2.8,2.8,2.8
		c1.2,0,2.2-0.7,2.6-1.7v-2.2c0-0.8,0.7-1.5,1.5-1.5s1.5,0.7,1.5,1.5v1.8c0.3,1.3,1.4,2.2,2.8,2.2c1.6,0,2.8-1.3,2.8-2.8v-6.9h17.1
		c0.3,7,6.1,12.7,13.2,12.7h0c7.3,0,13.2-5.9,13.2-13.2v-5.5c0-7.3-5.9-13.2-13.2-13.2h0C377.9,268.4,372.1,274.1,371.8,281.1z
		 M391.5,281.7v5.5c0,3.6-2.9,6.6-6.6,6.6c-3.6,0-6.6-2.9-6.6-6.6v-5.5c0-3.6,2.9-6.6,6.6-6.6C388.6,275.1,391.5,278,391.5,281.7z"
		/>
	<g>
		<g>
			<path fill="#3C3C3B" d="M99.6,200c-2,3.1-5.1,5.7-9.4,5.6c-4.7-0.1-8.2-3.3-10.2-5.6l2.9,25.3h13.8L99.6,200z"/>
			<path fill="#3C3C3B" d="M119,216.2c-0.1-1.3-0.1-2.7-0.2-4.2c-0.3-8-1.5-13-6.6-16.5c-2.3-1.6-5.9-2.1-9-2.6
				c-2.2-0.3-5.5-0.8-5.6-1.7c-0.3-1.1-0.5-2.3-0.7-3.3c1.2-0.8,2.5-2,3.5-3.4c0.1,0.4,0.3,0.8,0.5,1.3c0.5,1.1,1.9-4.9,2.4-4.9
				c0.6,0,1.3,1.5,2.4,2c0.7,0.3,0.3-4.9,0.1-5.8c-0.3-1.4-1.2-2.4,0.6-2c1.1,0.3,3.3,2.4,3.3,1.6c0.1-2.2-3-7-2.5-7.7
				c0.5-0.7,1.8,0.9,2.6,0.9c0.9,0-2.1-4.1-2.3-5.4c-0.2-1.3,2.6,1.3,2.6,1.3s-0.4-2.2-2.5-4.1c-2.1-2-5.1-4.1-4.9-5.6
				c0.2-1.4,4.6-1.3,6-1.4c1.4-0.2-4.3-3.4-7.8-4c-3.5-0.5-8.4,2.2-8.4,2.2l-0.3,0.3c-0.2-0.3-0.6-0.5-1.2-0.6c0,0-9.5-2.2-15.1,0.4
				c-5.6,2.5-7.9,6.1-6.3,5c1.6-1.1,3.9-1.4,3.3-0.4c-0.5,1.1-7.1,10.3-5.8,12.8c0.3,0.5,0.8-0.8,1.7-1.6c0.6-0.5,2.9-2.4,2.6-0.7
				c-0.4,1.6-3.9,6.8-2.8,11c1.1,4.1,1.8-3.1,2.5-3.4c0.7-0.4,0,5.6,0.7,5.9c0.7,0.4,0.5-3.4,1.2-2.9c0.7,0.5,1.2,7.9,1.9,7.7
				c0.7-0.2,0-5.2,0.9-4.1c0.9,1.1,5.3,5,5.8,4.9c0.1,0,0-0.7-0.3-1.7c0.8,0.9,1.6,1.6,2.4,2.2c-0.2,1.1-0.5,2.4-0.8,3.6
				c-0.2,0.8-3.5,1.3-5.6,1.7c-3.1,0.5-6.7,1-9,2.6c-4.1,2.8-6.6,6.4-7,16.5c-0.2,5.4-0.1,9.7,0,12.3l0,0.9h20l-3.5-30.5l0,0l0,0
				c3.7-0.6,6.6-1.1,7-3.1c0.2-1,0.4-2,0.6-2.9c0.3,0.2,0.6,0.3,0.8,0.5c0.8,0.4,2.4,1.1,4,1.1c0,0,0.1,0,0.1,0
				c1.8,0,3.4-0.7,4.2-1.1c0.1-0.1,0.2-0.1,0.4-0.2c0.2,0.9,0.4,1.8,0.6,2.7c0.4,1.8,2.8,2.4,6,2.9l-0.2,1.5l-3.4,29.1h21.1l0-0.9
				C119.3,222.3,119.2,219.6,119,216.2z M93.9,187.5c-0.5,0.3-1.8,0.9-3.2,0.9c-0.1,0-0.1,0-0.2,0c-1.3,0-2.6-0.6-3.2-0.9
				c-1.8-0.9-5-3.1-6.4-6.6c-0.4-1-1.2-3.2-1.7-6c-0.2-1.7-0.2-3.2,0.1-4.4c1.2-4.9,4.8-9.9,7.6-11.2c1.4-0.6,2.8-1.6,3.9-2.5
				c0.4,0.8,1.1,1.9,2.4,3.2c1.8,1.7,5.1,1.8,7.6,8.8c1,2.7,1,5.5,0.8,7.9c-0.5,1.9-1,3.4-1.3,4.2C98.8,184.4,95.6,186.6,93.9,187.5
				z"/>
		</g>
		<ellipse fill="#3C3C3B" cx="84.5" cy="172.7" rx="1.5" ry="1.7"/>
		<ellipse fill="#3C3C3B" cx="96.3" cy="172.7" rx="1.5" ry="1.7"/>
		<g>
			<path fill="#3C3C3B" d="M90.4,184.6c-1.5-0.1-2.8-0.8-2.8-0.8s-0.9-0.5-0.2-0.9c0.7-0.4,3-0.1,3-0.1s2.3-0.3,3,0.1
				c0.7,0.4-0.2,0.9-0.2,0.9S91.9,184.6,90.4,184.6z"/>
		</g>
	</g>
	<g>
		<path fill="#3C3C3B" d="M353.5,247.5v-8.2h4.8v1.5h-3.1v2.2h2.6v1.5h-2.6v3.1H353.5z"/>
		<path fill="#3C3C3B" d="M359.8,239.3h1.8v8.2h-1.8V239.3z"/>
		<path fill="#3C3C3B" d="M366.2,239.3c1.8,0,2.8,0.7,2.8,2.4c0,1.4-0.8,2.1-1.7,2.3v0c0.4,0.2,0.7,0.5,1.1,1.2l1.2,2.3h-2.1
			l-1.4-2.7c-0.2-0.3-0.4-0.4-0.7-0.4h-0.1v3h-1.8v-8.2H366.2z M365.3,243h0.7c0.9,0,1.2-0.4,1.2-1.2c0-0.7-0.4-1.1-1.2-1.1h-0.7
			V243z"/>
		<path fill="#3C3C3B" d="M374.2,245.3c0-1.3-3.8-1.1-3.8-3.7c0-1.4,1.2-2.4,2.9-2.4c1.4,0,2.2,0.6,2.5,1l-1.1,1.3
			c-0.2-0.2-0.7-0.8-1.5-0.8c-0.6,0-0.9,0.3-0.9,0.7c0,1.3,3.8,1.1,3.8,3.7c0,1.2-1,2.4-3.1,2.4c-1.6,0-2.6-0.7-2.8-1l1-1.5
			c0.4,0.4,1.1,1,2.1,1C373.9,246.1,374.2,245.7,374.2,245.3z"/>
		<path fill="#3C3C3B" d="M378.2,240.8h-2v-1.5h5.8v1.5h-2v6.7h-1.8V240.8z"/>
		<path fill="#3C3C3B" d="M359.3,259.5h-1.8v-8.2h1.8V259.5z M361.8,251.3h2.1l-2.5,4l2.8,4.2h-2.2l-2.5-4.1v0L361.8,251.3z"/>
		<path fill="#3C3C3B" d="M365.1,259.5v-8.2h4.8v1.5h-3.1v1.8h2.6v1.5h-2.6v1.9h3.2v1.5H365.1z"/>
		<path fill="#3C3C3B" d="M375.3,256.9v2.6h-1.8v-2.6l-2.8-5.6h2l1.7,3.8h0l1.7-3.8h1.9L375.3,256.9z"/>
	</g>
	<g>
		<path fill="#3C3C3B" d="M492.2,245.3c0-1.3-3.8-1.1-3.8-3.7c0-1.4,1.2-2.4,2.9-2.4c1.4,0,2.2,0.6,2.5,1l-1.1,1.3
			c-0.2-0.2-0.7-0.8-1.5-0.8c-0.6,0-0.9,0.3-0.9,0.7c0,1.3,3.8,1.1,3.8,3.7c0,1.2-1,2.4-3.1,2.4c-1.6,0-2.6-0.7-2.8-1l1-1.5
			c0.4,0.4,1.1,1,2.1,1C491.9,246.1,492.2,245.7,492.2,245.3z"/>
		<path fill="#3C3C3B" d="M495.4,247.5v-8.2h4.8v1.5h-3.1v1.8h2.6v1.5h-2.6v1.9h3.2v1.5H495.4z"/>
		<path fill="#3C3C3B" d="M505.2,239.2c1.6,0,2.3,0.7,2.6,1l-1.2,1.3c-0.3-0.3-0.7-0.7-1.5-0.7c-1.1,0-1.7,0.8-1.7,2.7
			c0,1.7,0.6,2.7,1.8,2.7c0.8,0,1.2-0.4,1.5-0.7l1,1.3c-0.4,0.4-1.2,1-2.6,1c-2.5,0-3.5-1.7-3.5-4.1
			C501.6,240.9,502.8,239.2,505.2,239.2z"/>
		<path fill="#3C3C3B" d="M511.8,247.6c-2,0-3.3-1.1-3.3-4.2c0-3,1.4-4.3,3.4-4.3c2,0,3.4,1.1,3.4,4.2
			C515.3,246.3,513.8,247.6,511.8,247.6z M511.9,246.1c0.9,0,1.5-0.7,1.5-2.7c0-2-0.6-2.8-1.6-2.8c-0.9,0-1.5,0.6-1.5,2.7
			C510.3,245.4,510.9,246.1,511.9,246.1z"/>
		<path fill="#3C3C3B" d="M518.4,241.5c0.1,0.8,0.1,1.4,0.1,2.9v3.1h-1.7v-8.2h2.1l1.7,3.2c0.4,0.8,0.9,1.7,1.2,2.5h0
			c-0.1-1.1-0.1-2.3-0.1-3.1v-2.6h1.7v8.2h-2.1l-1.8-3.5C519.1,243.2,518.8,242.4,518.4,241.5L518.4,241.5z"/>
		<path fill="#3C3C3B" d="M525.3,239.3h2.5c2.7,0,3.9,1.3,3.9,3.9c0,2.1-0.8,4.3-3.8,4.3h-2.6V239.3z M527.1,246h0.7
			c1.7,0,2.1-1.1,2.1-2.6c0-2-0.9-2.6-2.2-2.6h-0.6V246z"/>
		<path fill="#3C3C3B" d="M502,259.5h-1.8v-8.2h1.8V259.5z M504.5,251.3h2.1l-2.5,4l2.8,4.2h-2.2l-2.5-4.1v0L504.5,251.3z"/>
		<path fill="#3C3C3B" d="M507.8,259.5v-8.2h4.8v1.5h-3.1v1.8h2.6v1.5h-2.6v1.9h3.2v1.5H507.8z"/>
		<path fill="#3C3C3B" d="M518,256.9v2.6h-1.8v-2.6l-2.8-5.6h2l1.7,3.8h0l1.7-3.8h1.9L518,256.9z"/>
	</g>
	<g>
		<path fill="#4D4D4D" d="M85.1,244.9v2.6h-1.8v-2.6l-2.8-5.6h2l1.7,3.8h0l1.7-3.8h1.9L85.1,244.9z"/>
		<path fill="#4D4D4D" d="M91.7,247.6c-2,0-3.3-1.1-3.3-4.2c0-3,1.4-4.3,3.4-4.3c2,0,3.3,1.1,3.3,4.2
			C95.1,246.3,93.7,247.6,91.7,247.6z M91.8,246.1c0.9,0,1.5-0.7,1.5-2.7c0-2-0.6-2.8-1.6-2.8c-0.9,0-1.5,0.6-1.5,2.7
			C90.2,245.4,90.8,246.1,91.8,246.1z"/>
		<path fill="#4D4D4D" d="M101.1,244.5v-5.2h1.8v5c0,2.5-1.5,3.3-3.3,3.3c-2.1,0-3-1.3-3-3v-5.3h1.8v5c0,1.2,0.4,1.8,1.5,1.8
			C100.7,246.1,101.1,245.7,101.1,244.5z"/>
	</g>
	<g>
		<g>
			<path fill="#3C3C3B" d="M376.6,419.2c-2,3.1-5.1,5.7-9.4,5.6c-4.7-0.1-8.2-3.3-10.2-5.6l2.9,25.3h13.8L376.6,419.2z"/>
			<path fill="#3C3C3B" d="M396,435.4c-0.1-1.3-0.1-2.7-0.2-4.2c-0.3-8-1.5-13-6.6-16.5c-2.3-1.6-5.9-2.1-9-2.6
				c-2.2-0.3-5.5-0.8-5.6-1.7c-0.3-1.1-0.5-2.3-0.7-3.3c1.2-0.8,2.5-2,3.5-3.4c0.1,0.4,0.3,0.8,0.5,1.3c0.5,1.1,1.9-4.9,2.4-4.9
				c0.6,0,1.3,1.5,2.4,2c0.7,0.3,0.3-4.9,0.1-5.8c-0.3-1.4-1.2-2.4,0.6-2c1.1,0.3,3.3,2.4,3.3,1.6c0.1-2.2-3-7-2.5-7.7
				c0.5-0.7,1.8,0.9,2.6,0.9c0.9,0-2.1-4.1-2.3-5.4c-0.2-1.3,2.6,1.3,2.6,1.3s-0.4-2.2-2.5-4.1c-2.1-2-5.1-4.1-4.9-5.6
				c0.2-1.4,4.6-1.3,6-1.4c1.4-0.2-4.3-3.4-7.8-4c-3.5-0.5-8.4,2.2-8.4,2.2l-0.3,0.3c-0.2-0.3-0.6-0.5-1.2-0.6c0,0-9.5-2.2-15.1,0.4
				c-5.6,2.5-7.9,6.1-6.3,5c1.6-1.1,3.9-1.4,3.3-0.4c-0.5,1.1-7.1,10.3-5.8,12.8c0.3,0.5,0.8-0.8,1.7-1.6c0.6-0.5,2.9-2.4,2.6-0.7
				c-0.4,1.6-3.9,6.8-2.8,11c1.1,4.1,1.8-3.1,2.5-3.4c0.7-0.4,0,5.6,0.7,5.9c0.7,0.4,0.5-3.4,1.2-2.9c0.7,0.5,1.2,7.9,1.9,7.7
				c0.7-0.2,0-5.2,0.9-4.1c0.9,1.1,5.3,5,5.8,4.9c0.1,0,0-0.7-0.3-1.7c0.8,0.9,1.6,1.6,2.4,2.2c-0.2,1.1-0.5,2.4-0.8,3.6
				c-0.2,0.8-3.5,1.3-5.6,1.7c-3.1,0.5-6.7,1-9,2.6c-4.1,2.8-6.6,6.4-7,16.5c-0.2,5.4-0.1,9.7,0,12.3l0,0.9h20l-3.5-30.5l0,0l0,0
				c3.7-0.6,6.6-1.1,7-3.1c0.2-1,0.4-2,0.6-2.9c0.3,0.2,0.6,0.3,0.8,0.5c0.8,0.4,2.4,1.1,4,1.1c0,0,0.1,0,0.1,0
				c1.8,0,3.4-0.7,4.2-1.1c0.1-0.1,0.2-0.1,0.4-0.2c0.2,0.9,0.4,1.8,0.6,2.7c0.4,1.8,2.8,2.4,6,2.9l-0.2,1.5l-3.4,29.1h21.1l0-0.9
				C396.3,441.5,396.2,438.8,396,435.4z M370.9,406.7c-0.5,0.3-1.8,0.9-3.2,0.9c-0.1,0-0.1,0-0.2,0c-1.3,0-2.6-0.6-3.2-0.9
				c-1.8-0.9-5-3.1-6.4-6.6c-0.4-1-1.2-3.2-1.7-6c-0.2-1.7-0.2-3.2,0.1-4.4c1.2-4.9,4.8-9.9,7.6-11.2c1.4-0.6,2.8-1.6,3.9-2.5
				c0.4,0.8,1.1,1.9,2.4,3.2c1.8,1.7,5.1,1.8,7.6,8.8c1,2.7,1,5.5,0.8,7.9c-0.5,1.9-1,3.4-1.3,4.2
				C375.8,403.6,372.6,405.8,370.9,406.7z"/>
		</g>
		<ellipse fill="#3C3C3B" cx="361.5" cy="391.9" rx="1.5" ry="1.7"/>
		<ellipse fill="#3C3C3B" cx="373.3" cy="391.9" rx="1.5" ry="1.7"/>
		<g>
			<path fill="#3C3C3B" d="M367.4,403.8c-1.5-0.1-2.8-0.8-2.8-0.8s-0.9-0.5-0.2-0.9c0.7-0.4,3-0.1,3-0.1s2.3-0.3,3,0.1
				c0.7,0.4-0.2,0.9-0.2,0.9S368.9,403.8,367.4,403.8z"/>
		</g>
	</g>
	<g>
		<path fill="#4D4D4D" d="M360.2,466.4v2.6h-1.8v-2.6l-2.8-5.6h2l1.7,3.8h0l1.7-3.8h1.9L360.2,466.4z"/>
		<path fill="#4D4D4D" d="M366.8,469.1c-2,0-3.3-1.1-3.3-4.2c0-3,1.4-4.3,3.4-4.3c2,0,3.3,1.1,3.3,4.2
			C370.3,467.8,368.8,469.1,366.8,469.1z M366.9,467.6c0.9,0,1.5-0.7,1.5-2.7c0-2-0.6-2.8-1.6-2.8c-0.9,0-1.5,0.6-1.5,2.7
			C365.3,466.9,365.9,467.6,366.9,467.6z"/>
		<path fill="#4D4D4D" d="M376.3,466v-5.2h1.8v5c0,2.5-1.5,3.3-3.3,3.3c-2.1,0-3-1.3-3-3v-5.3h1.8v5c0,1.2,0.4,1.8,1.5,1.8
			C375.8,467.6,376.3,467.2,376.3,466z"/>
	</g>
	<g>
		<path fill="#999999" d="M271,469.1c-2,0-3.3-1.1-3.3-4.2c0-3,1.4-4.3,3.4-4.3c2,0,3.4,1.1,3.4,4.2
			C274.5,467.8,273,469.1,271,469.1z M271.1,467.6c0.9,0,1.5-0.7,1.5-2.7c0-2-0.6-2.8-1.6-2.8c-0.9,0-1.5,0.6-1.5,2.7
			C269.5,466.9,270.1,467.6,271.1,467.6z"/>
		<path fill="#999999" d="M281.6,463.2c0,1.5-0.8,2.8-3.2,2.8h-0.7v2.9h-1.8v-8.2h2.8C280.4,460.8,281.6,461.4,281.6,463.2z
			 M277.7,462.3v2.3h0.6c1.2,0,1.4-0.5,1.4-1.1c0-0.8-0.4-1.2-1.3-1.2H277.7z"/>
		<path fill="#999999" d="M284.1,462.3h-2v-1.5h5.8v1.5h-2v6.7h-1.8V462.3z"/>
		<path fill="#999999" d="M288.9,460.8h1.8v8.2h-1.8V460.8z"/>
		<path fill="#999999" d="M295.6,469.1c-2,0-3.3-1.1-3.3-4.2c0-3,1.4-4.3,3.4-4.3c2,0,3.4,1.1,3.4,4.2
			C299.1,467.8,297.6,469.1,295.6,469.1z M295.7,467.6c0.9,0,1.5-0.7,1.5-2.7c0-2-0.6-2.8-1.6-2.8c-0.9,0-1.5,0.6-1.5,2.7
			C294.1,466.9,294.8,467.6,295.7,467.6z"/>
		<path fill="#999999" d="M302.2,463c0.1,0.8,0.1,1.4,0.1,2.9v3.1h-1.7v-8.2h2.1l1.7,3.2c0.4,0.8,0.9,1.7,1.2,2.5h0
			c-0.1-1.1-0.1-2.3-0.1-3.1v-2.6h1.7v8.2h-2.1l-1.8-3.5C302.9,464.7,302.6,463.9,302.2,463L302.2,463z"/>
		<path fill="#999999" d="M313.3,460.8l2.5,8.2h-1.9l-0.5-1.9h-2.7l-0.5,1.9h-1.8l2.5-8.2H313.3z M311.1,465.6h1.9l-0.3-1.1
			c-0.3-1.1-0.5-1.7-0.6-2.5h0c-0.1,0.7-0.3,1.4-0.6,2.4L311.1,465.6z"/>
		<path fill="#999999" d="M318.7,460.8v6.7h3v1.5h-4.8v-8.2H318.7z"/>
	</g>
	<g>
		<path fill="#999999" d="M190.3,463c0.1,0.8,0.1,1.4,0.1,2.9v3.1h-1.7v-8.2h2.1l1.7,3.2c0.4,0.8,0.9,1.7,1.2,2.5h0
			c-0.1-1.1-0.1-2.3-0.1-3.1v-2.6h1.7v8.2h-2.1l-1.8-3.5C191.1,464.7,190.7,463.9,190.3,463L190.3,463z"/>
		<path fill="#999999" d="M200.2,469.1c-2,0-3.3-1.1-3.3-4.2c0-3,1.4-4.3,3.4-4.3c2,0,3.3,1.1,3.3,4.2
			C203.6,467.8,202.2,469.1,200.2,469.1z M200.3,467.6c0.9,0,1.5-0.7,1.5-2.7c0-2-0.6-2.8-1.6-2.8c-0.9,0-1.5,0.6-1.5,2.7
			C198.7,466.9,199.3,467.6,200.3,467.6z"/>
		<path fill="#999999" d="M206.1,462.3h-2v-1.5h5.8v1.5h-2v6.7h-1.8V462.3z"/>
		<path fill="#999999" d="M217.8,466.4v2.6H216v-2.6l-2.8-5.6h2l1.7,3.8h0l1.7-3.8h1.9L217.8,466.4z"/>
		<path fill="#999999" d="M224.4,469.1c-2,0-3.3-1.1-3.3-4.2c0-3,1.4-4.3,3.4-4.3c2,0,3.4,1.1,3.4,4.2
			C227.9,467.8,226.4,469.1,224.4,469.1z M224.5,467.6c0.9,0,1.5-0.7,1.5-2.7c0-2-0.6-2.8-1.6-2.8c-0.9,0-1.5,0.6-1.5,2.7
			C222.9,466.9,223.5,467.6,224.5,467.6z"/>
		<path fill="#999999" d="M233.9,466v-5.2h1.8v5c0,2.5-1.5,3.3-3.3,3.3c-2.1,0-3-1.3-3-3v-5.3h1.8v5c0,1.2,0.4,1.8,1.5,1.8
			C233.4,467.6,233.9,467.2,233.9,466z"/>
	</g>
	<g>
		<path fill="#4D4D4D" d="M672.2,294.5c0,1.1-0.5,2.5-3.3,2.5h-2.7v-8.2h2.9c1.4,0,2.6,0.5,2.6,2.1c0,0.9-0.6,1.5-1.2,1.7v0
			C671.4,292.8,672.2,293.3,672.2,294.5z M669,290.3h-1v1.8h0.9c0.9,0,1.2-0.4,1.2-0.9C670.1,290.7,669.8,290.3,669,290.3z
			 M670.4,294.5c0-0.7-0.6-1-1.3-1H668v2h1.2C670.2,295.5,670.4,295,670.4,294.5z"/>
		<path fill="#4D4D4D" d="M675.6,288.8v6.7h3v1.5h-4.8v-8.2H675.6z"/>
		<path fill="#4D4D4D" d="M682.7,297.1c-2,0-3.3-1.1-3.3-4.2c0-3,1.4-4.3,3.4-4.3c2,0,3.4,1.1,3.4,4.2
			C686.1,295.8,684.7,297.1,682.7,297.1z M682.8,295.6c0.9,0,1.5-0.7,1.5-2.7c0-2-0.6-2.8-1.6-2.8c-0.9,0-1.5,0.6-1.5,2.7
			C681.2,294.9,681.8,295.6,682.8,295.6z"/>
		<path fill="#4D4D4D" d="M690.8,288.7c1.6,0,2.3,0.7,2.6,1l-1.2,1.3c-0.3-0.3-0.7-0.7-1.5-0.7c-1.1,0-1.7,0.8-1.7,2.7
			c0,1.7,0.6,2.7,1.8,2.7c0.8,0,1.2-0.4,1.5-0.7l1,1.3c-0.3,0.4-1.2,1-2.6,1c-2.5,0-3.5-1.7-3.5-4.1
			C687.2,290.4,688.4,288.7,690.8,288.7z"/>
		<path fill="#4D4D4D" d="M696.3,297h-1.8v-8.2h1.8V297z M698.8,288.8h2.1l-2.5,4l2.8,4.2h-2.2l-2.5-4.1v0L698.8,288.8z"/>
		<path fill="#4D4D4D" d="M705,288.7c1.6,0,2.3,0.7,2.6,1l-1.2,1.3c-0.3-0.3-0.7-0.7-1.5-0.7c-1.1,0-1.7,0.8-1.7,2.7
			c0,1.7,0.6,2.7,1.8,2.7c0.8,0,1.2-0.4,1.5-0.7l1,1.3c-0.4,0.4-1.2,1-2.6,1c-2.5,0-3.5-1.7-3.5-4.1
			C701.4,290.4,702.7,288.7,705,288.7z"/>
		<path fill="#4D4D4D" d="M715.3,288.8v8.2h-1.8v-3.4h-3v3.4h-1.8v-8.2h1.8v3.4h3v-3.4H715.3z"/>
		<path fill="#4D4D4D" d="M721.4,288.8l2.5,8.2H722l-0.5-1.9h-2.7l-0.5,1.9h-1.8l2.5-8.2H721.4z M719.1,293.6h1.9l-0.3-1.1
			c-0.3-1.1-0.5-1.7-0.6-2.5h0c-0.1,0.7-0.3,1.4-0.6,2.4L719.1,293.6z"/>
		<path fill="#4D4D4D" d="M725,288.8h1.8v8.2H725V288.8z"/>
		<path fill="#4D4D4D" d="M730.4,291c0.1,0.8,0.1,1.4,0.1,2.9v3.1h-1.7v-8.2h2.1l1.7,3.2c0.4,0.8,0.9,1.7,1.2,2.5h0
			c-0.1-1.1-0.1-2.3-0.1-3.1v-2.6h1.7v8.2h-2.1l-1.8-3.5C731.2,292.7,730.8,291.9,730.4,291L730.4,291z"/>
	</g>
	<g>
		<path fill="#4D4D4D" d="M590.7,469h-1.8v-8.2h1.8V469z M593.2,460.8h2.1l-2.5,4l2.8,4.2h-2.2l-2.5-4.1v0L593.2,460.8z"/>
		<path fill="#4D4D4D" d="M596.5,469v-8.2h4.8v1.5h-3.1v1.8h2.6v1.5h-2.6v1.9h3.2v1.5H596.5z"/>
		<path fill="#4D4D4D" d="M603.1,469v-8.2h4.8v1.5h-3.1v1.8h2.6v1.5h-2.6v1.9h3.2v1.5H603.1z"/>
		<path fill="#4D4D4D" d="M615.3,463.2c0,1.5-0.8,2.8-3.2,2.8h-0.7v2.9h-1.8v-8.2h2.8C614.1,460.8,615.3,461.4,615.3,463.2z
			 M611.4,462.3v2.3h0.6c1.2,0,1.4-0.5,1.4-1.1c0-0.8-0.4-1.2-1.3-1.2H611.4z"/>
		<path fill="#4D4D4D" d="M616.6,469v-8.2h4.8v1.5h-3.1v1.8h2.6v1.5h-2.6v1.9h3.2v1.5H616.6z"/>
		<path fill="#4D4D4D" d="M625.9,460.8c1.8,0,2.8,0.7,2.8,2.4c0,1.4-0.8,2.1-1.7,2.3v0c0.4,0.2,0.7,0.5,1.1,1.2l1.2,2.3h-2.1
			l-1.4-2.7c-0.2-0.3-0.4-0.4-0.7-0.4H625v3h-1.8v-8.2H625.9z M625,464.5h0.7c0.9,0,1.2-0.4,1.2-1.2c0-0.7-0.4-1.1-1.2-1.1H625
			V464.5z"/>
		<path fill="#4D4D4D" d="M633.8,466.8c0-1.3-3.8-1.1-3.8-3.7c0-1.4,1.2-2.4,2.9-2.4c1.4,0,2.2,0.6,2.5,1l-1.1,1.3
			c-0.2-0.2-0.7-0.8-1.5-0.8c-0.6,0-0.9,0.3-0.9,0.7c0,1.3,3.8,1.1,3.8,3.7c0,1.2-1,2.4-3.1,2.4c-1.6,0-2.6-0.7-2.8-1l1-1.5
			c0.4,0.4,1.1,1,2.1,1C633.5,467.6,633.8,467.2,633.8,466.8z"/>
	</g>
	<g>
		<g>
			<ellipse fill="#3C3C3B" cx="707.7" cy="423.4" rx="0.6" ry="0.8"/>
			<ellipse fill="#3C3C3B" cx="712.5" cy="423.4" rx="0.6" ry="0.8"/>
			<path fill="#3C3C3B" d="M708.3,427.3c0.1,0.5,0.6,1,1.2,1.2c0.1,0,0.1,0,0.2,0c0.2,0,0.3,0.1,0.5,0.1c0.2,0,0.3,0,0.5-0.1
				c0,0,0.1,0,0.1,0c0.6-0.2,1.1-0.6,1.2-1.2H708.3z M710.1,428.1c-0.3,0-0.9-0.1-1-0.4h2C711,428,710.4,428.1,710.1,428.1z"/>
			<path fill="#3C3C3B" d="M721.2,436.6c-0.5-2.1-2.1-3.6-3.3-4.2c-0.6-0.3-1.4-0.4-2.2-0.5c0,0-1.7-0.2-1.7-0.2s-1-0.1-1.1-0.3
				v-1.6c0.4-0.3,0.7-0.6,1.1-0.9l0.8,0.1c0.4-0.4,1.2-2.5,1.2-2.5l0.3,1c0,0,0.5-0.6,0.9-2.7c0.5-2-0.3-3.3-0.3-3.3
				s1.3,0.8,1.4,0.6c0.1-0.2-0.6-1.2-1-1.8c-0.5-0.9-1-2.5-1.9-4c-1.4-2-5.4-2-5.4-2s-4,0-5.4,2c-1,1.4-1.5,3.1-1.9,4
				c-0.4,0.7-1.1,1.7-1,1.8c0.1,0.2,1.4-0.6,1.4-0.6s-0.7,1.3-0.3,3.3c0.5,2,0.9,2.7,0.9,2.7l0.3-1c0,0,0.8,2.2,1.2,2.5l0.9-0.1
				c0.3,0.3,0.6,0.6,1,0.8c0,0,0,0,0,0v1.9l-0.5,0.1c0,0-3.5,0.5-4.2,0.8c-1.5,0.6-3.3,2.5-3.7,4.7c-0.2,1.3-0.2,3.8-0.1,5.6
				c0,0.7,0,1.3,0,1.8h0.1h0h7.2l-1.4-5.8l1.4-1.1l-1.7-0.8c0-1.2,0.3-2.4,0.6-3.3c0.1-0.3,0.2-0.5,0.3-0.7l0.5-0.1l1-0.2
				c0,0.5,0.1,1.4,0.2,2.5c0,0.5,0.1,0.9,0.2,1.4c0.2,3.7,0.5,8.2,0.5,8.2h5.5c0,0,0.3-4.4,0.4-8.1c0,0,0,0,0-0.1
				c0.1-0.4,0.1-0.8,0.1-1.3c0.1-1.1,0.1-2.2,0.2-2.7l0.9,0.1l0.5,0.1c0.2,0.4,0.4,0.9,0.5,1.4c0.3,0.9,0.5,1.9,0.5,2.9l-1.7,0.8
				l1.4,1.1l-1.4,5.8h7.3h0.2C721.6,444.5,721.7,438.6,721.2,436.6z M712.5,435.4c-2,0.6-3.6,0.4-5-0.1c-0.1-1.3-0.2-2.5-0.2-3
				l0.4-0.1c0.2,0,0.3-0.2,0.3-0.4v-1.7c0.1,0.1,0.3,0.2,0.4,0.2c0.4,0.2,1.1,0.5,1.8,0.5c0,0,0,0,0.1,0c0.7,0,1.4-0.3,1.8-0.5
				c0.1,0,0.2-0.1,0.2-0.1v1.6c0,0.2,0.1,0.4,0.3,0.4l0.2,0C712.7,432.8,712.6,434.1,712.5,435.4z M712.4,429.2
				c-0.3,0.2-0.5,0.3-0.7,0.4c-0.2,0.1-0.8,0.4-1.5,0.4c-0.6,0-1.2-0.3-1.4-0.4c-0.2-0.1-0.5-0.2-0.7-0.4c-0.2-0.2-0.5-0.3-0.7-0.5
				c-0.5-0.4-1-1-1.3-1.8c-0.3-0.6-0.9-2.2-1-4.2c0-0.1,0-0.2,0-0.3c0-0.2,0.1-0.4,0.1-0.6c0.5-1.5,1.3-2.1,1.3-2.1s2.2,1.4,4.7,2.2
				c1.7,0.6,3.4,0.8,4.3,0.9c-0.1,1.9-0.7,3.4-1,4c-0.3,0.7-0.8,1.3-1.4,1.8C712.8,428.9,712.6,429,712.4,429.2z"/>
		</g>
		<g>
			<path fill="#3C3C3B" d="M558.5,439c-0.2-4.1-1.2-5.6-2.9-6.7c-0.7-0.5-1.7-0.7-2.8-0.9c0.1-0.9,0-2.2-0.3-3.2
				c-0.3-0.9-0.7-1.5-1-1.8c0.1-0.3,0.2-0.6,0.3-0.9c0.2-0.1,0.4-0.2,0.5-0.3c0.4-0.4,0.7-0.9,0.6-2.1c0-0.4-0.2-0.7-0.5-1
				c0,0,0,0,0,0c0.4-0.5,0.8-1.6,0.6-3.6c-0.1-1.2-0.6-2-1.2-2.6c0.1-0.9-0.7-3-3.1-3.2c-1.1-0.1-2.5,0.2-3.5,0.7
				c-0.6,0.3-0.8,0.8-0.8,1.2c-1.3,0.2-2.1,0.8-2.9,1.8c-1.8,2.1-1.1,4.1-0.5,5.1c0,0.2,0,0.3,0,0.5c-0.4,0.2-0.7,0.6-0.7,1.1
				c-0.1,1.2,0.2,1.7,0.6,2.1c0.2,0.2,0.5,0.3,0.7,0.4c0.1,0.4,0.2,0.8,0.4,1.1c0.4,1.1,1.2,1.9,1.9,2.4c-0.1,0.5-0.2,1-0.3,1.5
				c-0.1,0.3-1.4,0.5-2.3,0.7c-1.3,0.2-2.7,0.4-3.7,1.1c-1.7,1.2-2.7,2.6-2.9,6.7c-0.1,2.2-0.1,4,0,5.1l0,0.4h23.6l0-0.4
				C558.6,443,558.6,441.3,558.5,439z M549.3,416.6c1.3,0.3,2.1,2.9,2.4,4.6c0,0.3,0,0.6,0,0.8c0,0-0.1,0-0.1,0.1
				c-0.1,0.1-0.3,0-0.3,0s-0.4-0.4-0.8-0.5c-0.4-0.2-0.8-0.2-1.2-0.2c-0.7,0-1.4,0.2-1.8,0.4c-0.1,0-0.3,0.1-0.3,0.1l-0.5,0l-0.5,0
				c0,0-0.2-0.1-0.3-0.1c-0.4-0.2-1.1-0.4-1.8-0.4c-0.4,0-0.8,0-1.2,0.2c-0.4,0.2-0.8,0.5-0.8,0.5s-0.2,0-0.3,0c0-0.1,0-0.1,0-0.2
				C543.1,420.6,547.6,416.2,549.3,416.6z M550.9,423c-0.2,0.2-0.6,0.8-1.7,0.8c-1.1,0-1.6-0.5-1.8-1c-0.2-0.5,0.1-0.8,0.3-0.9
				c0.2-0.1,1.4-0.6,2.6-0.2c0,0,0.4,0.1,0.6,0.4C551.1,422.3,551.1,422.8,550.9,423z M546.1,422.8c-0.2,0.5-0.7,0.9-1.8,1
				c-1.1,0-1.6-0.5-1.7-0.8c-0.2-0.2-0.2-0.7,0-1c0.2-0.2,0.6-0.4,0.6-0.4c1.2-0.3,2.4,0.1,2.6,0.2C546,422,546.3,422.3,546.1,422.8
				z M542.9,426.3c-0.2-0.4-0.3-0.8-0.4-1.3l-0.1-0.2l-0.2,0c-0.2,0-0.5-0.1-0.5-0.2c-0.2-0.3-0.5-0.6-0.4-1.5
				c0-0.3,0.3-0.5,0.5-0.5l0.2-0.1l0-0.1c0,0,0.1,0,0.1,0c0.1,0,0.1,0.1,0.2,0.2c0.1,0.1,0.2,0.5,0.5,0.8c0.2,0.2,0.7,0.5,1.2,0.5
				c0.8,0.1,1.5,0,2-0.4c0.6-0.5,0.6-1,0.6-1.1c0-0.1,0.1-0.2,0.1-0.2c0.1,0,0.3,0,0.3,0s0.2,0,0.3,0c0.1,0,0.1,0.1,0.1,0.2
				c0,0.1,0,0.6,0.6,1.1c0.5,0.4,1.2,0.5,2,0.4c0.5-0.1,1-0.4,1.2-0.5c0.2-0.2,0.4-0.7,0.5-0.8c0.1-0.1,0.1-0.1,0.2-0.2
				c0,0,0.1,0,0.2-0.1l0,0.1c0,0,0.1,0,0.2,0.1c0.3,0.2,0.3,0.4,0.3,0.5c0.1,0.9-0.1,1.3-0.4,1.5c0,0-0.2,0.1-0.4,0.2l-0.2,0.1
				l-0.1,0.2c-0.1,0.5-0.3,0.9-0.4,1.3c-0.4,0.9-1,1.5-1.6,2c-0.1,0.1-0.2,0.2-0.3,0.3c-0.1,0.1-0.2,0.2-0.4,0.2
				c-0.1,0.1-0.2,0.1-0.3,0.2c-0.2,0.1-0.8,0.4-1.4,0.4c0,0,0,0,0,0c-0.5,0-1.1-0.3-1.3-0.4c-0.2-0.1-0.3-0.2-0.5-0.3
				c-0.1-0.1-0.2-0.2-0.3-0.2c-0.1-0.1-0.2-0.2-0.3-0.3C543.7,427.7,543.2,427.1,542.9,426.3z M547.4,435.9
				c-3.7-0.2-5.6-2.9-6.6-3.8c0.3,0,0.5-0.1,0.8-0.1c1.5-0.2,2.8-0.4,2.9-1.3c0.1-0.4,0.2-0.8,0.3-1.2c0.1,0.1,0.2,0.1,0.3,0.2
				c0.3,0.2,1,0.5,1.7,0.5c0,0,0,0,0.1,0c0.7,0,1.3-0.3,1.7-0.5c0,0,0.1-0.1,0.1-0.1c0.1,0.4,0.2,0.7,0.2,1.1c0,0.1,0.1,0.2,0.2,0.3
				c-0.1,0.9-0.7,2.7-1,3.5c-0.1,0.2-0.1,0.4,0.3,0.3c0.7-0.2,1.7-1.5,2-1.9c0,0,0,0,0,0c0,0.8-0.3,1.7-0.5,2.1
				c0,0.1,0.1,0.1,0.1,0.1c0.7-0.7,1.1-2.1,1.4-3.2c0.1,0,0.3,0,0.4,0.1c0.1,0.6,0,1.1,0,1.2c0,0.1,0.4-0.2,0.8-1c0,0,0-0.1,0.1-0.1
				c0.3,0,0.5,0.1,0.8,0.2C552.7,433.3,550.9,436.1,547.4,435.9z"/>
			<ellipse fill="#3C3C3B" cx="544.3" cy="422.9" rx="0.6" ry="0.7"/>
			<ellipse fill="#3C3C3B" cx="549.2" cy="422.9" rx="0.6" ry="0.7"/>
			<path fill="#3C3C3B" d="M544.9,426.5c0.1,0.6,0.7,1.1,1.4,1.2c0.1,0,0.3,0,0.5,0c0.2,0,0.3,0,0.5,0c0.7-0.1,1.3-0.6,1.4-1.2
				H544.9z M546.7,427.3c-0.3,0-0.9-0.1-1-0.4h2C547.6,427.2,547,427.3,546.7,427.3z"/>
		</g>
		<g>
			<polygon fill="#3C3C3B" points="660.2,422.5 660.2,422.5 660.2,422.5 			"/>
			<ellipse fill="#3C3C3B" cx="652.2" cy="422.9" rx="0.6" ry="0.7"/>
			<ellipse fill="#3C3C3B" cx="657" cy="422.9" rx="0.6" ry="0.7"/>
			<path fill="#3C3C3B" d="M653.4,427.4c0.2,0.1,0.6,0.3,1.2,0.3c0.6,0,0.9-0.2,1.2-0.3c0.2-0.1,0.7-0.7,0.3-0.6
				c-0.9,0.2-1.5,0.2-1.5,0.2s-0.5,0-1.5-0.2C652.8,426.7,653.2,427.2,653.4,427.4z"/>
			<path fill="#3C3C3B" d="M666.3,439c-0.2-4.1-1.2-5.6-2.9-6.7c-0.9-0.7-2.4-0.9-3.6-1.1c-0.1,0-0.2,0-0.4-0.1
				c-0.1-0.3-0.2-0.6-0.3-0.9c-0.4-1.1,1.2,0.7,1.4,0.6c0.2-0.1-1-2.5-1-2.5s2.1,1.4,2.3,1.3c0.2-0.1-1.1-2.9-1-4
				c0.1-0.9,1-4.1,0.4-6.3c-0.7-5.9-6.2-5.3-7.9-5.1c-1.7,0.1-5,2.8-5.3,5.1c0,0,0,0,0,0.1c-0.3,0.8-1.1,3.6-1.4,6.4
				c-0.3,3.1-0.9,2.8-0.6,3c0.2,0.3,1.7-1.9,1.9-1.8c0.4,0.1,0.2,0.7-0.1,1.5c-0.3,0.8-0.8,2.1-0.6,2.2s1.3-1.4,1.7-1.6
				c0.3-0.1,0.8,1.3,1,2c-0.2,0-0.4,0.1-0.6,0.1c-1.3,0.2-2.7,0.4-3.7,1.1c-1.7,1.2-2.7,2.6-2.9,6.7c-0.1,2.2-0.1,4,0,5.1l0,0.4
				h23.6l0-0.4C666.4,443,666.4,441.3,666.3,439z M649.4,425c-0.1,0-0.3-0.1-0.3-0.2c-0.3-0.3-0.6-0.8-0.5-1.8
				c0-0.3,0.2-0.5,0.4-0.6c0.1-0.1,0.3-0.1,0.4-0.2c0.2-0.1,0.3-0.1,0.4-0.1c0,0,0,0,0,0c0-0.1,0-0.2,0-0.3c2.5-2,6.8-1.8,8.2-3
				c0.2-0.2,0.6-0.1,0.7,0.2l0.8,2.6c0,0.2,0,0.4,0,0.5c0,0,0,0,0,0c0,0,0.1,0,0.2,0.1c0.1,0,0.1,0,0.2,0.1c0.1,0.1,0.3,0.1,0.4,0.2
				c0,0,0,0,0,0c0,0,0,0,0,0c0.1,0.1,0.2,0.3,0.2,0.5c0.1,1.1-0.2,1.5-0.5,1.8c0,0-0.1,0.1-0.1,0.1c-0.1,0.1-0.3,0.1-0.4,0.2
				c-0.2,0-0.4,0-0.4,0l0,0c-0.1,0.5-0.2,0.8-0.4,1.2c-0.4,0.9-1,1.5-1.6,2c-0.1,0.1-0.2,0.2-0.3,0.3c-0.1,0.1-0.2,0.2-0.4,0.2
				c-0.1,0.1-0.2,0.1-0.3,0.2c-0.2,0.1-0.8,0.4-1.4,0.4c-0.6,0-1.1-0.3-1.3-0.4c-0.2-0.1-0.3-0.2-0.5-0.3c-0.1-0.1-0.2-0.2-0.3-0.2
				c-0.1-0.1-0.2-0.2-0.3-0.3c-0.5-0.5-1.1-1.1-1.4-1.9c-0.1-0.4-0.3-0.8-0.4-1.2c-0.1,0-0.2,0-0.4,0
				C649.7,425.1,649.6,425.1,649.4,425z M649.9,431.6c0,0,0.9,0,1.3,0c0.3,0,1-0.5,1.2-0.9c0.1-0.4,0.2-0.8,0.3-1.2
				c0.1,0.1,0.2,0.1,0.3,0.2c0.3,0.2,1,0.5,1.6,0.5c0,0,0,0,0.1,0c0.7,0,1.4-0.3,1.7-0.5c0,0,0.1-0.1,0.1-0.1
				c0.1,0.4,0.2,0.7,0.2,1.1c0.1,0.6,1,1,1.5,1c0.5,0,1.2,0,1.2,0l0.9,0c-0.1,0.1-0.1,0.2-0.2,0.3c-0.4,0.6-1.1,1.4-2,2
				c-0.2,0.1-3.7,2.2-7.3-1.1c-0.2-0.2-0.5-0.5-0.8-0.9c0-0.1-0.1-0.1-0.1-0.2c0,0-0.1-0.1-0.1-0.1c-0.1-0.1-0.1-0.1-0.2-0.2
				L649.9,431.6z M655.1,435.9c-3.8-0.2-5.6-2.9-6.6-3.8c0.2,0,0.4-0.1,0.6-0.1c0.4,0.4,0.9,1,1.3,1.3c1.7,1.6,3.4,2.1,4.8,2.1
				c1.8,0,3.1-0.8,3.2-0.8c1.2-0.7,2-1.8,2.3-2.4c0.2,0,0.3,0.1,0.5,0.1C660.5,433.3,658.6,436.1,655.1,435.9z"/>
		</g>
		<g>
			<polygon fill="#3C3C3B" points="487.7,431.5 487.7,431.5 487.7,431.5 			"/>
			<polygon fill="#3C3C3B" points="492.7,430.5 492.7,430.5 492.7,430.5 			"/>
			<path fill="#3C3C3B" d="M506.8,439.3c-0.2-4-1.2-5.5-2.7-6.5c-1-0.7-3.6-1.1-5.3-1.4l-2-1c0-0.2,0-0.3,0-0.5
				c0-0.4-0.1-0.9-0.1-1.1c0.6-0.9,1-1.9,1.2-2.3c0.8-0.2,1.3-0.9,1.6-2.4c0.3-1.2-0.3-1.9-0.8-2.2c0.3-2.2-0.1-3.9-1.2-5.1
				c-1.7-1.8-4.3-1.7-4.7-1.7c-0.3,0-2.8-0.2-4.5,1.6c-1.2,1.2-1.6,2.9-1.4,5.2c-0.5,0.3-1,1-0.8,2.2c0.3,1.4,0.9,2.2,1.7,2.4
				c0.2,0.5,0.7,1.7,1.4,2.7c0,0.3-0.1,0.8-0.1,1.2c-0.3,0.2-1.8,0.8-1.8,0.8c-1.8,0.4-4.5,0.7-5.7,1.6c-1.5,1-2.5,2.5-2.7,6.5
				c-0.1,2.7-0.1,4.3,0,5.1h28.1C506.8,443.6,506.9,442,506.8,439.3z M488.8,417.2c1.2-1.2,2.9-1.3,3.6-1.3c0.2,0,0.3,0,0.3,0l0,0
				l0,0c0,0,2.6-0.2,4.1,1.5c0.9,1,1.3,2.6,1,4.5c-0.2,0.1-0.5,0.3-0.5,0.3c-0.1,0.1-0.3,0-0.3,0s-0.4-0.4-0.8-0.5
				c-0.4-0.2-0.8-0.2-1.2-0.2c-0.7,0-1.4,0.2-1.8,0.4c-0.1,0-0.3,0.1-0.3,0.1l-0.5,0l-0.5,0c0,0-0.2-0.1-0.3-0.1
				c-0.4-0.2-1.1-0.4-1.8-0.4c-0.4,0-0.8,0-1.2,0.2s-0.8,0.5-0.8,0.5s-0.2-0.1-0.3-0.2C487.4,419.9,487.8,418.3,488.8,417.2z
				 M496.7,423.1c-0.2,0.2-0.6,0.8-1.7,0.8c-1.1,0-1.6-0.5-1.8-1s0.1-0.8,0.3-0.9c0.2-0.1,1.4-0.6,2.6-0.2c0,0,0.4,0.1,0.6,0.4
				C496.8,422.4,496.8,422.9,496.7,423.1z M491.8,422.9c-0.2,0.5-0.7,0.9-1.8,1c-1.1,0-1.6-0.5-1.7-0.8c-0.2-0.2-0.2-0.7,0-1
				c0.2-0.2,0.6-0.4,0.6-0.4c1.2-0.3,2.4,0.1,2.6,0.2C491.8,422.1,492,422.4,491.8,422.9z M488.7,426.9c-0.2-0.5-0.4-0.9-0.4-0.9
				l-0.1-0.3H488c-0.7,0-1.1-1.4-1.2-1.8c-0.2-1.1,0.5-1.4,0.6-1.4l0.2-0.1c0.1,0.1,0.1,0.1,0.1,0.1c0.1,0,0.1,0.1,0.2,0.2
				c0.1,0.1,0.2,0.5,0.5,0.8c0.2,0.2,0.7,0.5,1.2,0.5c0.8,0.1,1.5,0,2-0.4c0.6-0.5,0.6-1,0.6-1.1c0-0.1,0.1-0.2,0.1-0.2s0.3,0,0.3,0
				s0.2,0,0.3,0c0.1,0,0.1,0.1,0.1,0.2c0,0.1,0,0.6,0.6,1.1c0.5,0.4,1.2,0.5,2,0.4c0.5-0.1,1-0.4,1.2-0.5c0.2-0.2,0.4-0.7,0.5-0.8
				c0.1-0.1,0.1-0.1,0.2-0.2c0,0,0.3-0.1,0.5-0.2l0,0.1l0.3,0.1c0.1,0,0.8,0.3,0.6,1.4c-0.1,0.7-0.5,1.8-1.1,1.8l-0.3,0l-0.1,0.3
				c0,0-0.1,0.4-0.4,0.9l-1.3,0.4c0-0.1-0.1-0.1-0.2-0.2c-0.4-0.2-1.7-0.9-2.5-0.9c-0.8,0-2.2,0.8-2.5,0.9c-0.1,0.1-0.2,0.1-0.2,0.2
				L488.7,426.9z M494.9,428.3c0,0.1-0.1,0.2-0.1,0.2c-0.2,0.1-1.3,0.4-1.5-0.1c0,0,0-0.1-0.1-0.1c-0.1-0.1-0.4-0.1-0.5-0.1
				c-0.1,0-0.4,0-0.5,0.2c0,0,0,0,0,0.1c-0.1,0.5-1.3,0.2-1.5,0.1c0,0-0.1-0.1-0.1-0.1c-0.1-0.3-0.2-0.9,0-1
				c0.4-0.2,2.1-0.3,2.1-0.3s1.7,0,2.1,0.3C495,427.5,495,428,494.9,428.3z M488.5,431.5c1.2-0.5,1.2-0.7,1.2-0.9
				c0-0.2,0.1-0.5,0.1-0.7c0.6,0.5,1.6,0.9,2.9,0.9l0,0l0,0c1.3-0.1,2.3-0.4,2.9-1c0.1-0.1,0.2-0.2,0.3-0.3c0,0.1,0,0.2,0,0.3
				c0,0.2,0,0.5,0.1,0.7l0,0.2l1,0.5l0.3,0.2c-1,1.5-2.5,3.1-4.6,3.1c-2.1,0-3.7-1.8-4.5-3C488.3,431.6,488.4,431.5,488.5,431.5z
				 M492.8,435.9c-2.4,0-4.4-1.5-5.6-3.8c0.2-0.1,0.3-0.1,0.5-0.2c0.5,0.8,1.1,1.4,1.7,2c1.1,0.9,2.2,1.4,3.4,1.4
				c1.1,0,2.1-0.4,3-1.1c0.9-0.7,1.6-1.5,2.1-2.4l0.5,0.3C497.2,434.4,495.1,435.9,492.8,435.9z"/>
			<path fill="#3C3C3B" d="M494.2,427.5h-2.8c-0.1,0-0.2,0.1-0.2,0.2s0.1,0.2,0.2,0.2h2.8c0.1,0,0.2-0.1,0.2-0.2
				S494.3,427.5,494.2,427.5z"/>
			<ellipse fill="#3C3C3B" cx="490" cy="422.4" rx="0.5" ry="0.6"/>
			<ellipse fill="#3C3C3B" cx="495" cy="422.4" rx="0.5" ry="0.6"/>
		</g>
		<g>
			<path fill="#3C3C3B" d="M775,438.9c-0.2-4.1-0.6-5.7-2-6.8c-0.9-0.7-2.8-1.2-4.4-1.5l-1.7-0.5l0-1.6c0.6-0.7,0.9-1.7,1-2.1
				c0.6-0.1,1.2-0.7,1.5-2.3c0.2-1.2-0.3-1.9-0.7-2.2c0-0.2,0-0.4,0-0.6c0.3-1,0.6-2.3,0.1-3.4c-0.4-1-1.7-2.4-3.3-3.1
				c-1.6-0.7-3.8-0.4-4.7-0.2c-0.9,0.2-2.9,1.2-3.7,3.1c-0.5,1.1-0.1,2.6,0.2,3.6c0,0.2,0,0.5,0,0.7c-0.5,0.3-1,1-0.7,2.2
				c0.3,1.6,1,2.2,1.5,2.3c0.1,0.5,0.5,1.5,1.2,2.3c0,0,0.1,0.1,0.1,0.1l0,1.2l-1.4,0.4c-0.3,0.1-0.6,0.2-1,0.2
				c-1.4,0.3-3.1,0.7-3.9,1.4c-1.4,1.1-1.7,3.2-1.9,7.3c0,1.2-0.1,2.1-0.1,2.8c0,0.9-0.1,1.4-0.1,1.9l0,0.4h24l0-0.4
				C775.1,443.6,775.2,442.1,775,438.9z M756.5,443.7h-4.6c0-0.4,0-0.8,0.1-1.4c0-0.7,0.1-1.6,0.1-2.8c0.1-3.9,0.4-5.8,1.6-6.7
				c0.4-0.3,1-0.5,1.6-0.7c0.3,0.9,1.2,3.5,1.2,5.7C756.6,439.5,756.5,442.6,756.5,443.7z M759,425.9l-0.1-0.3h-0.3
				c-0.6,0-0.9-1.1-1.1-1.7c-0.2-1.1,0.5-1.4,0.5-1.4l0.3-0.1l0-0.3c0-0.4-0.1-0.7-0.1-1.1c0.1-0.3,0.3-0.5,0.5-0.8
				c0.4-0.5,1.7-0.1,4.3-0.7c2.6-0.7,2.4-1.8,2.4-1.8s1.6,0.9,2.1,1.9c0.2,0.4,0.4,1.1,0.5,1.6c0,0.3,0,0.6-0.1,0.9l0,0.3l0.3,0.1
				c0,0,0,0,0.1,0c0,0,0,0,0,0s0,0,0,0c0.2,0.1,0.7,0.4,0.5,1.4c-0.1,0.6-0.4,1.7-1.1,1.7h-0.3l-0.1,0.3c0,0-0.2,1-0.8,1.8
				c-0.1,0.1-0.2,0.3-0.3,0.4c0,0,0,0,0,0c0,0,0,0,0,0c-0.1,0.1-0.3,0.3-0.4,0.4c-1,1-1.8,1.5-2.7,1.6c-0.7,0-1.5-0.4-2.3-1.1
				c-0.1-0.1-0.2-0.2-0.4-0.4c-0.1-0.1-0.1-0.1-0.2-0.2c-0.1-0.1-0.1-0.1-0.2-0.2c0,0-0.1-0.1-0.1-0.1
				C759.3,427.3,759,425.9,759,425.9z M759.1,431l0.4-0.1l0.2-0.1l0.1,0l0.6,0.4l1.8,1.2l0.3,0.2l-0.2,0.2l-0.3,0.3l-0.3,0.3
				l-0.3,0.3l-0.5,0.5l-1-1.6l-0.9-1.5L759.1,431z M762.1,435.4l0,3c-1.4-0.8-2.4-2.9-3.1-4.7c-0.3-0.8-0.5-1.5-0.7-2
				c0,0,0-0.1,0-0.1l0,0.1l1.8,2.8l0.6,0.9l0.4-0.4l0.9-0.9l0.6,0.6L762.1,435.4L762.1,435.4z M760.3,430.1l0-0.6
				c1,0.9,1.8,1.3,2.8,1.3l0,0l0,0c1,0,2-0.5,3-1.6l0,0.8l-2.9,2L760.3,430.1z M764,432.5l2.2-1.5l0.3-0.2l0,0l0.4,0.1l0,0l0.2,0.1
				l0.4,0.1l-0.1,0.1l-0.2,0.3l-1.7,2.7l-0.6-0.5l-0.3-0.3l-0.3-0.3l-0.2-0.2l-0.3-0.3L764,432.5z M767.6,432.7
				c-0.2,0.5-0.3,1-0.6,1.5c-0.6,1.6-1.5,3.3-2.6,4.1l0.1-2.8l0-0.1l-0.5-0.6l0.5-0.6l0.9,0.8l0.4,0.4l0.5-0.8l1.4-2.1l0.2-0.3
				C767.7,432.3,767.7,432.5,767.6,432.7z M774.3,443.7h-4.5c0-1.1-0.1-4.2,0-6c0-2.1,0.9-4.7,1.2-5.6c0.6,0.2,1.2,0.4,1.5,0.7
				c1.2,1,1.6,2.4,1.7,6.2C774.4,441.5,774.4,443,774.3,443.7z"/>
			<path fill="#3C3C3B" d="M761.3,426.9c0.1,0.5,0.5,0.9,1,1.2c0.3,0.1,0.6,0.2,0.9,0.2c0.4,0,0.9-0.1,1.2-0.4
				c0.3-0.3,0.6-0.6,0.7-1H761.3z M762.1,427.2l2.1,0c-0.1,0.5-0.7,0.6-1,0.6C762.7,427.8,762.2,427.8,762.1,427.2z"/>
			<ellipse fill="#3C3C3B" cx="760.6" cy="423.3" rx="0.6" ry="0.7"/>
			<ellipse fill="#3C3C3B" cx="765.5" cy="423.3" rx="0.6" ry="0.7"/>
		</g>
		<g>
			<path fill="#3C3C3B" d="M457.3,421.5C457.3,421.5,457.3,421.5,457.3,421.5C457.3,421.5,457.3,421.5,457.3,421.5
				C457.3,421.5,457.3,421.5,457.3,421.5z"/>
			<path fill="#3C3C3B" d="M461.8,434.8l-0.8-0.9l-1.3,0.8l-1.8-3.7c-1.5,0.5-5.2,0.9-6.5,1.8c-0.9,0.6-1.9,2.3-2.1,6.3
				c-0.1,2.9-0.2,4.6-0.2,5.4h12.6l-0.2-9L461.8,434.8z"/>
			<path fill="#3C3C3B" d="M464,433.9l-0.8,0.9l0,0l0.5,0.6l-0.2,9H476c0-0.7-0.1-2.5-0.2-5.4c-0.2-4-1.2-5.7-2.1-6.3
				c-1.3-0.8-5.2-1.3-6.6-1.8l-1.8,3.8L464,433.9z"/>
			<polygon fill="#3C3C3B" points="463.2,434.8 463.2,434.9 463.2,434.8 			"/>
			<path fill="#3C3C3B" d="M468.2,421.4c0.1-0.6,0.1-1.2,0-1.7l0.3-1.7c0,0,0.2-0.3,0.1-0.8c-0.1-0.5-0.8-1.3-0.9-1.6
				c-0.2-0.3-0.8-1.1-1.7-1.9c-0.9-0.8-1.4-1.3-2.8-1.7c-1.4-0.4-2.7-0.1-3.9,0.6c-1.3,0.7-0.7,2.1-0.7,2.1s-0.9,0.2-1.5,0.8
				c-0.6,0.6-0.7,1.5-0.8,2.8c0,0.5,0.1,1.1,0.3,1.7c0,0.4,0,0.9,0.1,1.3c-0.5,0.3-1,1-0.8,2.1c0.2,1.1,1,1.9,2,2.1
				c0.1,0.5,0.5,1.6,1.1,2.6c-0.1,0.5-0.2,1.5-0.3,2.1c0,0,0,0,0,0l-0.2,0.3l1.6,3.3l0.7-0.5l0.3-0.2l0.3-0.2l1-0.7l-3-2.4
				c0-0.3,0.1-0.7,0.1-1c0.6,0.5,1.6,0.8,2.8,0.9l0,0l0,0c1.2-0.1,2.3-0.4,2.9-1c0.1-0.1,0.2-0.2,0.3-0.3c0,0.4,0.1,0.9,0.1,1.3l0,0
				c0,0-3,2.4-3,2.4l0,0l1.1,0.7l0.3,0.2l0.3,0.2l0.7,0.5l1.6-3.3l-0.2-0.3l0,0c-0.1-0.7-0.2-2.2-0.2-2.6c0.4-0.7,0.6-1.4,0.7-1.8
				c1-0.2,1.8-1.3,2-2.3C469.2,422.4,468.7,421.7,468.2,421.4z M457.3,421.5c0-0.5,0.1-1,0.1-1.3c0-0.6,0-1.7,0.3-2.1
				c0.4-0.4,1.1-1,2-1.1c0.9-0.1,2.2,0.3,2.2,0.3s0.3-0.7,1.1-0.9c1.1-0.3,2.8,0.7,3.7,1.4c0.2,0.4,0.4,0.8,0.5,1.2
				c0,0.7,0,1.9,0,2.4c0,0.1-0.1,0.2-0.2,0.2c-0.1,0.1-0.3,0-0.3,0s-0.4-0.5-0.8-0.7c-0.4-0.2-0.8-0.3-1.2-0.3
				c-0.7,0-1.4,0.3-1.8,0.5c-0.1,0.1-0.3,0.2-0.3,0.2l-0.5,0l-0.5,0c0,0-0.2-0.1-0.3-0.2c-0.4-0.2-1.1-0.5-1.8-0.5
				c-0.4,0-0.8,0.1-1.2,0.3c-0.4,0.2-0.8,0.7-0.8,0.7s-0.2,0.1-0.3,0C457.4,421.7,457.3,421.6,457.3,421.5
				C457.3,421.5,457.3,421.5,457.3,421.5C457.3,421.5,457.3,421.5,457.3,421.5z M466.5,422.9c-0.2,0.3-0.6,1-1.7,1
				c-1.1,0-1.6-0.6-1.8-1.3c-0.2-0.7,0.1-1.1,0.3-1.2c0.2-0.1,1.4-0.8,2.6-0.3c0,0,0.4,0.2,0.6,0.5
				C466.6,422,466.6,422.6,466.5,422.9z M461.6,422.7c-0.2,0.7-0.7,1.2-1.8,1.3c-1.1,0-1.6-0.7-1.7-1c-0.2-0.3-0.2-1,0-1.3
				c0.2-0.3,0.6-0.5,0.6-0.5c1.2-0.4,2.4,0.2,2.6,0.3C461.6,421.6,461.8,422,461.6,422.7z M468.2,423.4c-0.2,0.9-1,1.8-1.6,1.8
				l-0.3,0l-0.1,0.3c0,0-0.2,0.9-0.7,1.8c-0.1,0.1-0.2,0.3-0.3,0.4c-0.1,0.1-0.2,0.3-0.3,0.4c-0.1,0.1-0.2,0.2-0.2,0.2
				c-0.4,0.4-1.3,0.7-2.4,0.8c-1-0.1-1.9-0.4-2.4-0.8c0,0,0,0-0.1-0.1c-0.1-0.1-0.2-0.2-0.3-0.4c-0.1-0.1-0.2-0.3-0.3-0.4
				c-0.7-1.1-0.9-2.3-0.9-2.3l-0.1-0.3H458c-0.7,0-1.3-0.6-1.5-1.5c-0.2-1.1,0.5-1.4,0.6-1.4l0.1,0c0,0,0.1,0.1,0.1,0.1v0
				c0,0,0.2,0.1,0.3,0.1s0.1,0.1,0.2,0.2c0.1,0.1,0.2,0.7,0.5,1c0.2,0.2,0.7,0.6,1.2,0.7c0.8,0.1,1.5,0,2-0.5
				c0.6-0.6,0.6-1.3,0.6-1.5c0-0.1,0.1-0.3,0.1-0.3s0.3-0.1,0.3-0.1s0.2,0,0.3,0.1c0.1,0.1,0.1,0.2,0.1,0.3c0,0.2,0,0.8,0.6,1.5
				c0.5,0.5,1.2,0.6,2,0.5c0.5-0.1,1-0.5,1.2-0.7c0.2-0.3,0.4-0.9,0.5-1c0.1-0.1,0.1-0.2,0.2-0.2c0,0,0.2-0.1,0.4-0.2l0.1,0.1
				C467.7,422,468.4,422.3,468.2,423.4z"/>
			<ellipse fill="#3C3C3B" cx="459.9" cy="422.4" rx="0.5" ry="0.6"/>
			<ellipse fill="#3C3C3B" cx="464.7" cy="422.4" rx="0.5" ry="0.6"/>
			<path fill="#3C3C3B" d="M463.6,426.3H461c-0.1,0-0.2,0.1-0.2,0.2s0.1,0.2,0.2,0.2h2.5c0.1,0,0.2-0.1,0.2-0.2
				S463.7,426.3,463.6,426.3z"/>
		</g>
		<g>
			<rect x="623.2" y="444.4" fill="#3C3C3B" width="6.4" height="0"/>
			<ellipse fill="#3C3C3B" cx="624" cy="422.3" rx="0.5" ry="0.6"/>
			<ellipse fill="#3C3C3B" cx="628.8" cy="422.3" rx="0.5" ry="0.6"/>
			<path fill="#3C3C3B" d="M625.1,426.9h2.5c0.1,0,0.2-0.1,0.2-0.2s-0.1-0.2-0.2-0.2h-2.5c-0.1,0-0.2,0.1-0.2,0.2
				S625,426.9,625.1,426.9z"/>
			<path fill="#3C3C3B" d="M639.8,439.1c-0.2-4-1.2-5.7-2.1-6.3c-1.3-0.8-4.8-1.3-6.4-1.7l-1.3,3.9l-1-1l-0.9-0.9l-0.3-0.3
				c-1.3,0.4-2.1,0.1-2.4-0.1l-0.3,0.3l-0.7,0.7l-1.2,1.2l-1.3-3.8c-1.6,0.4-5.1,0.9-6.3,1.7c-0.9,0.6-1.9,2.3-2.1,6.3
				c-0.1,2.9-0.2,4.6-0.2,5.4h10.2h6.4H640C640,443.7,639.9,442,639.8,439.1z M624.6,443.7l0.6-10.2c0.3,0.1,0.7,0.2,1.3,0.2
				c0.4,0,0.8-0.1,1.3-0.2l0.6,10.2H624.6z"/>
			<path fill="#3C3C3B" d="M632.3,421.4c0.1-0.6,0.1-1.2,0-1.8c0-1.3-0.5-2.3-0.7-2.8c0.3-0.1,0.5-0.3,0.5-0.4
				c0.1-0.3-0.1-0.1-1.4-1.2s-3.6-2-6.4-1.6c-2.7,0.4-3.6,2.1-3.8,3.3c-0.1,1-0.1,2,0,2.7c-0.1,0.5,0,1.1,0,1.7
				c-0.5,0.3-1,1-0.8,2.1c0.2,1.1,1,1.9,2,2.1c0.1,0.5,0.5,1.7,1.2,2.6l-0.4,2.2l-0.1,0.2v0l1,2.8l1.6-1.6l0.1-0.1l-1.6-1.8l0.2-1
				c0.6,0.5,1.6,0.8,2.8,0.9l0,0l0,0c1.2-0.1,2.3-0.4,2.9-1c0,0,0,0,0.1-0.1l0.2,1.2l-1.6,1.8l0.1,0.1l1.6,1.6l1-2.9l-0.2-0.4
				l-0.3-2.2c0.6-0.8,0.8-1.7,1-2.2c1-0.2,1.8-1.3,2-2.3C633.3,422.4,632.7,421.7,632.3,421.4z M622,418.3c0.3-0.6,0.6-0.9,1.1-1.2
				c0.6-0.4,3.3,2.2,6.1,0.8c0.4-0.2,0.8-0.4,1.1-0.5c0.2,0.7,0.9,3.2,0.8,4.1l0,0c0,0-0.7-0.2-1.5-0.2c-0.8-0.1-2,0.1-2.4,0.1
				c-0.3,0.1-1,0.1-1,0.1s-0.6,0-1-0.1c-0.3-0.1-1.5-0.2-2.4-0.1c-0.5,0-1,0.1-1.3,0.2C621.7,420.5,621.9,418.7,622,418.3z
				 M630.4,423c-0.1,0.5-0.3,1.1-0.7,1.3c-0.4,0.2-1.3,0.2-1.7,0c-0.5-0.3-0.9-0.7-1-1.6c0-0.7,0.3-0.9,0.7-1c0.2-0.1,1-0.1,1.4-0.1
				c0,0,0.8,0,1.3,0.3C630.6,422,630.4,422.6,630.4,423z M625.5,422.7c0,0.9-0.5,1.3-1,1.6c-0.4,0.3-1.4,0.2-1.7,0
				c-0.4-0.2-0.6-0.8-0.7-1.3c-0.1-0.3-0.2-1,0-1.1c0.5-0.3,1.3-0.3,1.3-0.3c0.4,0,1.2,0,1.4,0.1
				C625.2,421.8,625.5,421.9,625.5,422.7z M632.3,423.4c-0.2,0.9-1,1.8-1.6,1.8l-0.3,0l-0.1,0.3c0,0-0.3,1.8-1.5,2.8
				c-0.4,0.4-1.3,0.7-2.4,0.8c-1-0.1-1.9-0.4-2.4-0.8c-1.2-1.1-1.6-3.1-1.6-3.1l-0.1-0.3h-0.3c-0.7,0-1.3-0.6-1.5-1.5
				c-0.2-0.8,0.2-1.2,0.4-1.3l0.6,0.1c0.1,0,0.2,0.1,0.2,0.2c0,0.2,0.1,1.1,0.5,1.7c0.2,0.4,0.6,0.6,1.5,0.6c0.7,0,1.3-0.2,1.7-0.9
				c0.4-0.6,0.4-1.2,0.5-1.3c0.1-0.1,0.3-0.1,0.3-0.1c0.1,0,0.2,0,0.3,0.1c0.1,0.1,0.1,0.6,0.5,1.3c0.4,0.6,1.1,0.9,1.7,0.9
				c0.9,0,1.2-0.3,1.5-0.6c0.4-0.6,0.5-1.5,0.5-1.7c0-0.1,0.1-0.2,0.2-0.2l0.8-0.1v0c0,0,0-0.1,0-0.1
				C632,422.1,632.5,422.5,632.3,423.4z"/>
		</g>
		<g>
			<path fill="#3C3C3B" d="M596.9,426.8c0.1,0.5,0.5,0.9,1,1.1c0.3,0.1,0.5,0.2,0.8,0.2s0.6-0.1,0.8-0.2c0.5-0.2,0.9-0.6,1-1.1
				H596.9z M598.7,427.6c-0.3,0-0.9-0.1-1-0.4h2C599.6,427.5,599,427.6,598.7,427.6z"/>
			<ellipse fill="#3C3C3B" cx="596.3" cy="423" rx="0.6" ry="0.7"/>
			<ellipse fill="#3C3C3B" cx="601.1" cy="423" rx="0.6" ry="0.7"/>
			<path fill="#3C3C3B" d="M610.3,439.1c-0.2-4.1-1.2-5.5-2.8-6.7c-0.6-0.4-1.4-0.7-2.3-0.8c0.9-2.8,0.8-6.7,0.6-9.4
				c-0.1-2-0.1-4.6-2.6-7.1c-2.5-2.5-4.7-1.8-4.7-1.8s-2.2-0.8-4.7,1.8c-2.5,2.5-2.5,5.1-2.6,7.1c-0.2,2.7-0.2,6.7,0.6,9.5
				c-0.8,0.2-1.6,0.4-2.1,0.8c-1.7,1.1-2.6,2.6-2.8,6.7c-0.1,2.2-0.1,4,0,5l0,0.3h23.4l0-0.3C610.4,443.1,610.4,441.4,610.3,439.1z
				 M593,422.9c0-0.1,0-0.2,0.1-0.3c0.1-0.2,0.2-0.3,0.4-0.4c0.1-0.1,0.3-0.1,0.4-0.2c0-0.3,0-0.6,0-0.9c0.2-0.1,0.5-0.1,0.7-0.2
				c0.1-0.4,0.4-1.5,0.6-1.8l0.3,1.6c2-0.4,5-0.6,8.1,0.3c0,0.3,0,0.6,0,0.9c0.1,0,0.3,0.1,0.4,0.2c0.2,0.1,0.3,0.3,0.4,0.5
				c0,0,0,0.1,0,0.1c0.1,0.8-0.1,1.2-0.3,1.5c-0.1,0.1-0.1,0.2-0.2,0.3c-0.1,0.1-0.2,0.1-0.3,0.2c-0.1,0.1-0.3,0.1-0.4,0.1
				c-0.2,0.7-0.4,1.2-0.5,1.4c-0.4,0.9-1,1.6-1.7,2.1c-0.1,0.1-0.2,0.1-0.3,0.2c-0.1,0.1-0.2,0.1-0.3,0.2c-0.2,0.1-0.3,0.2-0.4,0.3
				c-0.2,0.1-0.8,0.4-1.4,0.4c-0.6,0-1.1-0.3-1.3-0.4c-0.2-0.1-0.4-0.2-0.6-0.4c-0.1-0.1-0.2-0.1-0.3-0.2c-0.1-0.1-0.2-0.1-0.3-0.2
				c-0.6-0.5-1.1-1.1-1.5-1.9c-0.1-0.3-0.3-0.8-0.5-1.4c-0.1,0-0.3,0-0.4-0.1c-0.1,0-0.3-0.1-0.4-0.2c0,0-0.1-0.1-0.1-0.1
				C593.2,424.3,593,423.8,593,422.9z M598.8,435.5c-0.1,0-3.7-1.5-5.6-2.8c-0.3-0.2-0.6-0.4-0.8-0.6c0.4-0.1,0.8-0.1,1.1-0.2
				c1.5-0.2,2.7-0.4,2.9-1.2c0.1-0.4,0.2-0.8,0.3-1.2c0.1,0.1,0.3,0.2,0.4,0.2c0.3,0.2,1,0.5,1.7,0.5c0,0,0,0,0.1,0
				c0.7,0,1.3-0.3,1.7-0.5c0.1,0,0.2-0.1,0.2-0.1c0.1,0.4,0.2,0.8,0.2,1.1c0.2,0.8,1.4,1,2.9,1.2c0.4,0.1,0.8,0.1,1.2,0.2
				c0.2,0,0.3,0.1,0.5,0.1C602.8,434.6,599.9,434.9,598.8,435.5z"/>
		</g>
		<g>
			<path fill="#3C3C3B" d="M568.1,431.9L568.1,431.9C568.1,431.9,568.1,431.9,568.1,431.9C568.1,431.9,568.1,431.9,568.1,431.9
				L568.1,431.9z"/>
			<path fill="#3C3C3B" d="M561.3,442.6c0,0.7,0,1.3,0,1.8h0.1c0-0.1,0-0.2,0-0.3C561.4,443.9,561.3,443.3,561.3,442.6z"/>
			<path fill="#3C3C3B" d="M561.4,444.5L561.4,444.5c0,0,0-0.1,0-0.3C561.4,444.3,561.4,444.4,561.4,444.5z"/>
			<path fill="#3C3C3B" d="M583.9,436.6c-0.5-2.1-2.1-3.6-3.3-4.2c-0.6-0.3-1.6-0.5-2.3-0.6c1.7-0.5,2.8-1.2,2.9-2
				c0-0.6-2.8,0.3-1.1-3.9c0.9-2.3,0.7-4.5-0.8-8.2c-1.6-3.9-6.4-4-6.4-4s-4.8,0.1-6.4,4c-1.5,3.7-1.7,5.9-0.8,8.2
				c1.7,4.2-1.2,3.3-1.1,3.9c0,0.9,1.3,1.7,3.2,2.1c-0.6,0-1.8,0.1-2.7,0.5c-1.5,0.6-3.3,2.5-3.7,4.7c-0.2,1.3-0.2,3.8-0.1,5.6
				c0,0.7,0.1,1.3,0.1,1.6c0,0.2,0,0.3,0,0.3h7.2l-1.4-5.8l1.4-1.1l-1.7-0.8c0-1.2,0.3-2.4,0.6-3.3c0.3-0.7,0.5-1.3,0.6-1.5
				c0,0,0-0.1,0-0.1l0.1,0c0,0,0,0,0,0c0,0,0,0,0,0l1-0.3c0,0,0,0,0,0.1c0,0.1,0,0.3,0,0.5c0,0.7,0.1,1.7,0.1,2.7
				c0,0.5,0.7,9.6,0.7,9.6h5.5c0,0,0.6-9,0.6-9.4c0.1-1,0.1-2,0.1-2.8c0-0.2,0-0.4,0-0.6c0-0.1,0-0.1,0-0.1l0.9,0.2l0.1,0
				c0,0,0,0.1,0.1,0.2c0,0,0,0.1,0.1,0.2c0.2,0.4,0.5,1.1,0.7,1.9c0.3,0.9,0.5,1.9,0.5,2.9l-1.7,0.8l1.4,1.1l-1.4,5.8h7.3h0.2
				C584.2,444.5,584.3,438.6,583.9,436.6z M575.4,431.2c0,0,0,0.5,0,1.1c0,0.8-0.1,2-0.2,3c-2,0.7-3.7,0.5-5.1-0.1
				c-0.1-1-0.1-2.1-0.2-2.9c0-0.4,0-0.7,0-0.9c0.2-0.1,0.3-0.2,0.3-0.4c0.1-0.4,0.2-0.8,0.3-1.2c0.2,0.1,0.4,0.2,0.6,0.3
				c0.4,0.2,1,0.5,1.8,0.5c0,0,0,0,0.1,0c0.7,0,1.4-0.3,1.8-0.5c0.1-0.1,0.3-0.1,0.4-0.2c0.1,0.4,0.2,0.8,0.2,1.1
				C575.4,431,575.4,431.1,575.4,431.2C575.4,431.1,575.4,431.2,575.4,431.2z M577.2,426.7c-0.5,1.1-1.4,1.9-2.2,2.4
				c-0.2,0.1-0.4,0.2-0.6,0.3c-0.2,0.1-0.8,0.4-1.4,0.4l0,0l0,0c-0.6,0-1.2-0.3-1.4-0.4c-0.2-0.1-0.5-0.3-0.8-0.5
				c-0.7-0.5-1.6-1.2-2-2.3c-0.2-0.5-0.6-1.5-0.8-2.8c0.6-1.3,2.2-2.3,3.9-3.2c1.8-0.9,2.7-1.6,3.1-2.1c0.5,1.5,1.4,3.9,3.1,5.2
				C577.8,425.2,577.4,426.2,577.2,426.7z"/>
			<ellipse fill="#3C3C3B" cx="570.4" cy="423.2" rx="0.6" ry="0.8"/>
			<ellipse fill="#3C3C3B" cx="575.2" cy="423.2" rx="0.6" ry="0.8"/>
			<path fill="#3C3C3B" d="M571.1,427.1c0.1,0.7,0.9,1.2,1.9,1.2c0.9,0,1.7-0.5,1.9-1.2H571.1z M572.9,427.8c-0.3,0-0.9-0.1-1-0.4h2
				C573.8,427.8,573.1,427.8,572.9,427.8z"/>
		</g>
		<g>
			<path fill="#3C3C3B" d="M748.3,439l0.2,0c0,0-0.4-2.3-0.7-3.1c-0.1-0.2-0.2-0.5-0.3-0.7c-0.5-1.1-1.2-1.8-2-2.4
				c-1-0.7-2.4-0.9-3.7-1.1c-0.3,0-0.7-0.1-1-0.2c0-0.4,0-0.8,0.1-1.4c0.2-1,0.5-2,0.3-2.5c0,0,0.5,0.6,0.7,1.1c0,0.1,0.2,0.1,0.2,0
				c0.2-0.5,0.4-1.3,0.2-1.9c-0.3-0.8-0.3-1-0.2-1c0.1,0,0.3,0,0.6,0.2c0.2,0.2,0.7,1.1,0.8,1.1c0.2,0,1-3,0.8-4.4
				c-0.2-1.2-0.8-5.1-2.2-6.5c-1.1-1.1-5-4.5-8.4-1.8c0,0-1.1-0.5-2.3,0.4c-1.2,0.9-2.7,3.6-2.8,5.4c-0.1,1.8,0.5,4.7,0.7,5.4
				c0.2,0.7-0.1,1.8-0.1,1.8s0.8-0.5,0.9-1.3c0-0.1,0-0.2,0-0.2c0.1-0.9,0.7,1.4,0,2.3c0,0,0.6,0.6,1-0.3c0,0,0.2,2.6,0.8,3.5
				c-0.3,0.1-0.7,0.1-1,0.2c-1.3,0.2-2.8,0.4-3.7,1.1c-0.8,0.6-1.4,1.2-1.9,2.1c-0.2,0.3-0.4,0.7-0.5,1c-0.3,0.8-0.7,3.1-0.7,3.1
				l0.2,0c0,0.3,0,0.6-0.1,0.9c-0.1,1.5-0.1,2.9,0,4.2l0,0.4h24l0-0.4c0-1.3,0-2.8,0-4.2C748.3,439.5,748.3,439.2,748.3,439z
				 M732.4,420.9C732.4,420.9,732.4,420.9,732.4,420.9c0.1-0.4,0.4-1.5,0.6-1.8l0.3,1.6c2-0.4,5.2-0.6,7.1,0
				c0.3,0.1,0.6,0.5,0.8,0.9c-0.3-0.1-0.9-0.2-1.6-0.2c-1.3,0-2.2,0.2-2.4,0.3c-0.2,0-0.5,0.1-0.5,0.1s-0.3-0.1-0.5-0.1
				c-0.2,0-1.1-0.3-2.4-0.3c-0.8,0-1.4,0.1-1.7,0.2C732.2,421.3,732.4,421,732.4,420.9z M739,422.8c0.3,0,0.6-0.3,0.6-0.7
				c0-0.2-0.1-0.4-0.2-0.5c0.4,0,0.8,0,1.1,0c0,0,0.5,0.1,0.6,0.2c0.1,0.1,0.1,0.6-0.1,1.1c-0.2,0.4-0.4,0.6-0.6,0.7
				c-0.3,0.1-1.3,0.2-1.9,0c-0.7-0.1-1-0.3-1.1-0.9c-0.1-0.6-0.1-0.8,0.2-0.9c0.1-0.1,0.5-0.1,1.1-0.2c-0.1,0.1-0.2,0.3-0.2,0.5
				C738.4,422.5,738.7,422.8,739,422.8z M734.2,422.8c0.3,0,0.6-0.3,0.6-0.7c0-0.2-0.1-0.4-0.2-0.5c0.6,0.1,1.2,0.1,1.4,0.2
				c0.3,0.1,0.3,0.3,0.2,0.9c-0.1,0.6-0.4,0.8-1.1,0.9c-0.7,0.1-1.6,0-1.9,0c-0.3-0.1-0.5-0.3-0.6-0.7c-0.2-0.4-0.2-0.9-0.1-1.1
				c0.1-0.1,0.6-0.2,0.6-0.2c0.3,0,0.5,0,0.8,0c-0.2,0.1-0.3,0.3-0.3,0.6C733.5,422.5,733.8,422.8,734.2,422.8z M731.8,425.1
				c-0.1,0-0.3-0.1-0.4-0.1c-0.1,0-0.2-0.1-0.2-0.2c-0.3-0.3-0.6-0.8-0.5-1.8c0-0.2,0.1-0.4,0.3-0.5c0.1-0.1,0.2-0.2,0.4-0.2
				c0.2-0.1,0.3-0.1,0.4-0.1c0,0,0,0,0,0l0.2,0c0,0.1,0,0.1,0.1,0.1c0.1,0.1,0.2,0.2,0.2,0.3c0.1,0.1,0.1,0.5,0.4,0.8
				c0.2,0.2,0.4,0.4,1.7,0.4c1.1,0,1.6-0.3,1.7-0.5c0.2-0.3,0.3-0.8,0.4-0.9c0.1-0.1,0.2-0.2,0.3-0.2c0.1,0,0.2,0.1,0.3,0.2
				c0.1,0.1,0.2,0.7,0.4,0.9c0.2,0.2,0.7,0.5,1.7,0.5c1.3,0,1.5-0.2,1.7-0.4c0.3-0.3,0.3-0.7,0.4-0.8c0-0.1,0.1-0.1,0.1-0.2
				c0,0,0,0,0,0c0,0,0.1-0.1,0.1-0.1c0,0,0.1-0.1,0.1-0.2c0,0,0,0,0,0c0,0,0.1,0,0.1,0c0,0,0.1,0,0.1,0c0.1,0,0.3,0.1,0.4,0.2
				c0.1,0.1,0.2,0.3,0.3,0.5c0.1,1.1-0.2,1.5-0.5,1.8c0,0.1-0.1,0.1-0.2,0.1c-0.1,0.1-0.3,0.1-0.4,0.1c-0.2,0-0.3,0-0.4,0
				c-0.2,0.5-0.3,1-0.4,1.2c-0.4,0.9-1.1,1.6-1.7,2.1c-0.1,0.1-0.2,0.2-0.4,0.3c-0.2,0.1-0.3,0.2-0.5,0.3c0,0-0.1,0-0.1,0.1
				c-0.2,0.1-0.8,0.4-1.4,0.4c-0.6,0-1.1-0.3-1.3-0.4c0,0-0.1,0-0.1-0.1c-0.2-0.1-0.4-0.2-0.6-0.4c-0.2-0.1-0.3-0.2-0.5-0.4
				c-0.5-0.5-1.1-1.1-1.4-1.9c-0.1-0.2-0.2-0.6-0.4-1.1C732.2,425.2,732,425.2,731.8,425.1z M725.1,443.7c0-1.2,0-2.5,0.1-3.8
				c0-0.3,0-0.6,0.1-0.9l3.2,0c-0.4,1.7-0.2,3.1,0.1,4.7H725.1z M742.2,434.6c-0.3,0.5-3,3.1-5.8,2.9c-2.8,0.2-5.5-2.5-5.8-3
				c-0.2-0.3-0.4-1.2-0.5-1.8c0.4-0.1,0.7-0.1,1.1-0.2c0.8-0.1,1.4-0.2,2-0.4c0.6-0.2,0.9-0.5,1-0.9c0.1-0.6,0.3-1.2,0.4-1.7
				c0.1,0.1,0.2,0.1,0.3,0.2c0.3,0.2,1,0.5,1.6,0.5c0,0,0,0,0.1,0c0.7,0,1.4-0.3,1.7-0.5c0,0,0,0,0,0c0.1,0.5,0.2,1,0.3,1.6
				c0.1,0.5,0.5,0.7,1.1,0.9c0.5,0.2,1.2,0.3,1.9,0.4c0.3,0,0.6,0.1,1,0.2C742.5,433.2,742.5,434.3,742.2,434.6z M747.6,443.7h-3.4
				c0.3-1.6,0.5-3,0.1-4.7l3.2,0c0,0.3,0,0.6,0.1,0.9C747.6,441.2,747.7,442.5,747.6,443.7z"/>
			<path fill="#3C3C3B" d="M738.3,426.4c0,0-1.1,0.2-1.7,0.2c-0.6,0-1.7-0.2-1.7-0.2c-0.1,0-0.1,0.1-0.1,0.1
				c0.1,0.2,0.3,0.5,0.5,0.6c0.4,0.2,0.8,0.3,1.3,0.3c0.4,0,0.9-0.1,1.3-0.3c0.2-0.1,0.4-0.4,0.5-0.6
				C738.4,426.4,738.4,426.4,738.3,426.4z"/>
		</g>
		<g>
			<path fill="#3C3C3B" d="M515.9,432c0,0-0.1,0-0.1,0C515.8,432,515.9,432,515.9,432C515.9,432,515.9,432,515.9,432z"/>
			<path fill="#3C3C3B" d="M515.3,438.7l1.4-1.1l-1.7-0.8c0-1,0.1-2,0.4-2.8c0.3-1,0.7-1.7,0.8-1.9c0,0,0,0,0.1-0.1
				c-0.1,0-0.2-0.1-0.2-0.1c0,0-0.1,0-0.1,0c-0.6,0-1.8,0.1-2.6,0.5c-0.3,0.1-0.9,0.5-1,0.5c-1.5,1.1-2.5,2.4-2.7,6.4
				c-0.1,2.2-0.1,3.9,0,5h0.1h7.1L515.3,438.7z"/>
			<path fill="#3C3C3B" d="M531.9,436.6c-0.3-2.2-2.1-3.6-3.3-4.2c-0.9-0.4-2.7-0.6-3.3-0.7c0.6-0.6,1.1-1.3,1.5-2
				c0.6-1.3,2-5.3,0.6-9.8c-0.6-2.1-3.7-6.3-6.6-4.8c0,0-4.3-0.5-6,2.3c-1.7,2.8-3.3,7.6-2.6,10c0.6,2.1,1.4,2.5,2.4,3.6
				c0.3,0.3,0.8,0.7,1.3,1c0,0,0,0,0,0c0.1,0,0.2,0.1,0.2,0.1c0,0,0,0,0.1,0c0.3,0.2,0.7,0.3,1,0.5c0,0.7,0.1,1.6,0.2,2.4
				c0,0.5,0.6,9.4,0.6,9.4h5.4c0,0,0.7-11,0.7-11.6c0.3-0.2,0.6-0.5,0.9-0.9c0,0,0,0,0.1-0.1c0.1,0.1,0.2,0.1,0.3,0.2
				c0.1,0.2,0.5,1,0.8,2.1c0.2,0.8,0.4,1.7,0.3,2.6l-1.7,0.8l1.4,1.1l-1.4,5.7h7.3h0.2C532.2,444.5,532.1,438.4,531.9,436.6z
				 M523.2,431.8c-0.1,0.1-0.1,0.2-0.2,0.3c-0.3,0.9,0.2,1.5,0.2,1.5s0,0,0.1-0.1c0,0.6-0.1,1.4-0.2,2.1c-0.8,0.3-1.6,0.6-2,0.6
				c-0.6,0-1.7-0.3-2.9-0.9c-0.1-0.8-0.1-1.7-0.2-2.4c0.1,0.1,0.2,0.1,0.2,0.1s0.5-0.2,0.4-0.9c0-0.3-0.1-0.6-0.3-0.9
				c0-0.1,0.1-0.1,0.1-0.2c0.1-0.4,0.2-0.9,0.3-1.3c0.3,0.2,0.5,0.3,0.7,0.4c0.3,0.2,1,0.5,1.6,0.5c0,0,0,0,0.1,0
				c0.7,0,1.4-0.3,1.7-0.5c0.1-0.1,0.3-0.2,0.5-0.3c0.1,0.4,0.2,0.8,0.2,1.1C523.4,431.4,523.2,431.7,523.2,431.8z M524.9,425.1
				c0,0.7-0.1,1.4-0.3,2c0,0.2-0.1,0.3-0.1,0.5c-0.4,0.6-0.9,1-1.4,1.3c-0.3,0.2-0.5,0.3-0.7,0.4c-0.2,0.1-0.8,0.4-1.4,0.4
				c-0.6,0-1.1-0.3-1.3-0.4c-0.2-0.1-0.6-0.3-0.9-0.6c-0.5-0.4-1.1-0.9-1.5-1.6c-0.1-0.2-0.2-0.3-0.2-0.5c-0.1-0.3-0.3-0.8-0.5-1.6
				c0.1-1.2,0.8-2.8,1.5-3.6c2-2.3,1.7-4.1,3-4c0,0,1.8,0.3,2.7,2C524.6,421.2,525.1,422.2,524.9,425.1z"/>
			<ellipse fill="#3C3C3B" cx="518.6" cy="423.2" rx="0.6" ry="0.7"/>
			<ellipse fill="#3C3C3B" cx="522.9" cy="423.2" rx="0.6" ry="0.7"/>
			<path fill="#3C3C3B" d="M519.9,428c0.3,0.2,0.7,0.3,1.1,0.3c0.4,0,0.8-0.1,1.1-0.3c0.2-0.1,0.4-0.3,0.5-0.5c0-0.1,0-0.1-0.1-0.1
				c0,0-1,0.2-1.5,0.2c-0.5,0-1.5-0.2-1.5-0.2c-0.1,0-0.1,0.1-0.1,0.1C519.5,427.6,519.7,427.9,519.9,428z"/>
		</g>
		<g>
			<ellipse fill="#3C3C3B" cx="680" cy="421.9" rx="0.5" ry="0.6"/>
			<ellipse fill="#3C3C3B" cx="684.3" cy="421.9" rx="0.5" ry="0.6"/>
			<path fill="#3C3C3B" d="M695.7,439.1c-0.2-4-1.2-5.7-2.1-6.3c-1.3-0.8-4.8-1.3-6.4-1.7l-1.3,3.9l-2.2-2.2
				c-0.3,0.1-0.7,0.2-0.9,0.2c-0.3,0-0.5,0-0.8,0c-0.3,0-0.6-0.1-0.8-0.2l-2.3,2.3l-1-2.9l-0.3-0.9c-1.6,0.4-5.1,0.9-6.3,1.7
				c-0.9,0.6-1.9,2.3-2.1,6.3c-0.1,2.9-0.2,4.6-0.2,5.4h7.6v0h11.5v0h7.9C695.9,443.7,695.8,442,695.7,439.1z M680.6,443.7l0.5-8.2
				l0-0.4l0-0.4l0.1-1.2c0.3,0.1,0.7,0.2,1.3,0.2c0.4,0,0.8-0.1,1.3-0.2l0.1,1.1l0,0.4l0,0.4l0.5,8.2H680.6z"/>
			<path fill="#3C3C3B" d="M686.5,430.6L686.5,430.6L686.5,430.6l-0.1-0.2l0,0C686.4,430.4,686.5,430.5,686.5,430.6z"/>
			<path fill="#3C3C3B" d="M688.5,418.9c0.3-0.2,0.8-0.3,0.7-0.5c0-0.2-0.6-0.6-0.5-0.7c0-0.1,0.2-0.4,0.2-0.5
				c-0.1-2.6-2.6-2.7-2.6-2.7s-2.7-2.9-6-0.7c0,0-3,0.2-3.8,1.1c-0.3,0.4-1.5,2-0.8,3.6c0.2,0.4,0.4,0.8,0.5,1.1c0,0.5,0,1,0,1.5
				c-0.5,0.3-1,1-0.8,2.2c0.4,1.6,1,2.2,1.6,2.3c0.2,0.6,0.7,2,1.5,3c0,0.3-0.1,0.8-0.1,1.3c0,0.2-0.1,0.4-0.1,0.8l-0.1,0.1v0l0,0.1
				l0.2,0.7l0.3,0.8l0.4,1.2l1.6-1.6l0.1-0.1l-1.7-1.9c0,0,0,0,0-0.1c0-0.2,0-0.4,0.1-0.6c0.6,0.5,1.6,0.8,2.8,0.9l0,0l0,0
				c1.3-0.1,2.6-0.5,3.1-1c0,0,0.1-0.1,0.1-0.1c0,0.1,0,0.2,0,0.2l0.1,0.7l0,0.1l-1.6,1.8l0.1,0.1l0.8,0.8l0.1,0.1l0.6,0.6l0.5-1.3
				l0.2-0.5l0.3-0.8l0.1-0.2l0,0c0-0.1-0.1-0.1-0.1-0.2l0,0l-0.1-0.5l-0.1-0.7c0-0.4-0.1-0.8-0.1-1.1c0.7-1,1.1-2.1,1.2-2.7
				c1-0.2,1.3-1.5,1.5-2.3c0.3-1.2-0.3-1.9-0.8-2.2c0.1-0.4,0.1-0.8,0.1-1.2c0.1,0,0.6,0.2,0.7,0
				C688.9,419.5,688.2,419.1,688.5,418.9z M684.4,427.6c0,0.1-0.1,0.2-0.1,0.2c-0.1,0.1-0.3,0.1-0.5,0.2c-0.2,0-0.4,0.1-0.6,0
				c-0.2,0-0.3-0.1-0.4-0.3c0,0,0-0.1-0.1-0.1c-0.1-0.1-0.4-0.1-0.5-0.1c-0.1,0-0.4,0-0.5,0.2c0,0,0,0,0,0.1
				c-0.1,0.5-1.3,0.2-1.5,0.1c0,0-0.1-0.1-0.1-0.1c-0.1-0.3-0.2-0.9,0-1c0.4-0.2,2.1-0.3,2.1-0.3s1.7,0,2.1,0.3
				C684.5,426.8,684.5,427.3,684.4,427.6z M688.1,423c-0.3,1.2-0.5,1.7-1,1.7h-0.3l-0.1,0.3c0,0-0.1,0.5-0.4,1.1l-1.3,0.4
				c0-0.1-0.1-0.1-0.2-0.2c-0.4-0.2-1.7-0.5-2.5-0.6c-0.8,0-2.2,0.4-2.5,0.6c-0.1,0.1-0.2,0.1-0.2,0.2l-1.3-0.4
				c-0.3-0.7-0.4-1.2-0.4-1.2l-0.1-0.3h-0.3c-0.7,0-1-1.1-1.2-1.7c-0.2-1.1,0.5-1.4,0.6-1.4l0.1,0c0.2,0.3,0.5,0.7,0.6,0.7
				c0.1,0,0.3-3.4,0.4-3.7s1.4-1.3,2.1-1.6c0.9-0.5,1.6-1.5,1.8-1.8c0,0,0.1,0,0.1,0c0.3,0.4,1.8,2.8,2.6,3.4
				c0.9,0.6,2.7,1.4,2.7,1.4s0.1,2.1,0.3,2.2c0.1,0,0.2-0.2,0.3-0.5C687.9,421.8,688.3,422.1,688.1,423z"/>
			<path fill="#3C3C3B" d="M683.2,426.7c-1.1,0.6-2,0-2,0c-0.1-0.1-0.2,0-0.3,0.1c-0.1,0.1,0,0.2,0.1,0.3c0,0,0.5,0.3,1.3,0.3
				c0.3,0,0.7-0.1,1.2-0.3c0.1-0.1,0.1-0.2,0.1-0.3S683.3,426.7,683.2,426.7z"/>
		</g>
	</g>
	<path fill="#7897CC" d="M459.2,398.1l3,3c0.3,0.3,0.7,0.3,1,0l3-3c0.4-0.4,0.1-1.2-0.5-1.2h-1.5v-4.3c0-0.4-0.3-0.7-0.7-0.7h-1.5
		c-0.4,0-0.7,0.3-0.7,0.7v4.3h-1.5C459.1,397,458.8,397.7,459.2,398.1z"/>
	<path fill="#7897CC" d="M486.5,398.1l3,3c0.3,0.3,0.7,0.3,1,0l3-3c0.4-0.4,0.1-1.2-0.5-1.2h-1.5v-4.3c0-0.4-0.3-0.7-0.7-0.7h-1.5
		c-0.4,0-0.7,0.3-0.7,0.7v4.3H487C486.4,397,486.1,397.7,486.5,398.1z"/>
	<path fill="#7897CC" d="M513.8,398.1l3,3c0.3,0.3,0.7,0.3,1,0l3-3c0.4-0.4,0.1-1.2-0.5-1.2h-1.5v-4.3c0-0.4-0.3-0.7-0.7-0.7h-1.5
		c-0.4,0-0.7,0.3-0.7,0.7v4.3h-1.5C513.7,397,513.4,397.7,513.8,398.1z"/>
	<path fill="#7897CC" d="M541.1,398.1l3,3c0.3,0.3,0.7,0.3,1,0l3-3c0.4-0.4,0.1-1.2-0.5-1.2H546v-4.3c0-0.4-0.3-0.7-0.7-0.7h-1.5
		c-0.4,0-0.7,0.3-0.7,0.7v4.3h-1.5C540.9,397,540.6,397.7,541.1,398.1z"/>
	<path fill="#7897CC" d="M568.3,398.1l3,3c0.3,0.3,0.7,0.3,1,0l3-3c0.4-0.4,0.1-1.2-0.5-1.2h-1.5v-4.3c0-0.4-0.3-0.7-0.7-0.7H571
		c-0.4,0-0.7,0.3-0.7,0.7v4.3h-1.5C568.2,397,567.9,397.7,568.3,398.1z"/>
	<path fill="#7897CC" d="M595.6,398.1l3,3c0.3,0.3,0.7,0.3,1,0l3-3c0.4-0.4,0.1-1.2-0.5-1.2h-1.5v-4.3c0-0.4-0.3-0.7-0.7-0.7h-1.5
		c-0.4,0-0.7,0.3-0.7,0.7v4.3h-1.5C595.5,397,595.2,397.7,595.6,398.1z"/>
	<path fill="#7897CC" d="M622.9,398.1l3,3c0.3,0.3,0.7,0.3,1,0l3-3c0.4-0.4,0.1-1.2-0.5-1.2h-1.5v-4.3c0-0.4-0.3-0.7-0.7-0.7h-1.5
		c-0.4,0-0.7,0.3-0.7,0.7v4.3h-1.5C622.8,397,622.4,397.7,622.9,398.1z"/>
	<path fill="#7897CC" d="M650.2,398.1l3,3c0.3,0.3,0.7,0.3,1,0l3-3c0.4-0.4,0.1-1.2-0.5-1.2h-1.5v-4.3c0-0.4-0.3-0.7-0.7-0.7h-1.5
		c-0.4,0-0.7,0.3-0.7,0.7v4.3h-1.5C650,397,649.7,397.7,650.2,398.1z"/>
	<path fill="#7897CC" d="M677.4,398.1l3,3c0.3,0.3,0.7,0.3,1,0l3-3c0.4-0.4,0.1-1.2-0.5-1.2h-1.5v-4.3c0-0.4-0.3-0.7-0.7-0.7h-1.5
		c-0.4,0-0.7,0.3-0.7,0.7v4.3h-1.5C677.3,397,677,397.7,677.4,398.1z"/>
	<path fill="#7897CC" d="M704.7,398.1l3,3c0.3,0.3,0.7,0.3,1,0l3-3c0.4-0.4,0.1-1.2-0.5-1.2h-1.5v-4.3c0-0.4-0.3-0.7-0.7-0.7h-1.5
		c-0.4,0-0.7,0.3-0.7,0.7v4.3h-1.5C704.6,397,704.3,397.7,704.7,398.1z"/>
	<path fill="#7897CC" d="M732,398.1l3,3c0.3,0.3,0.7,0.3,1,0l3-3c0.4-0.4,0.1-1.2-0.5-1.2h-1.5v-4.3c0-0.4-0.3-0.7-0.7-0.7h-1.5
		c-0.4,0-0.7,0.3-0.7,0.7v4.3h-1.5C731.8,397,731.5,397.7,732,398.1z"/>
	<path fill="#7897CC" d="M759.2,398.1l3,3c0.3,0.3,0.7,0.3,1,0l3-3c0.4-0.4,0.1-1.2-0.5-1.2h-1.5v-4.3c0-0.4-0.3-0.7-0.7-0.7h-1.5
		c-0.4,0-0.7,0.3-0.7,0.7v4.3h-1.5C759.1,397,758.8,397.7,759.2,398.1z"/>
	<g>
		<path fill="#999999" d="M212,404.3c2.3,0,4.1-1.5,4.6-3.4h-9.1C207.9,402.8,209.8,404.3,212,404.3z M214.6,401.7
			c-0.1,1.2-1.6,1.4-2.5,1.4c-1,0-2.3-0.2-2.6-1.4L214.6,401.7z"/>
		<rect x="204.2" y="444.4" fill="#999999" width="16.6" height="0"/>
		<path fill="#999999" d="M198.5,390.4L198.5,390.4C198.5,390.3,198.5,390.3,198.5,390.4L198.5,390.4z"/>
		<path fill="#999999" d="M246.4,431.9c-0.4-9.9-2.9-13.5-6.7-16c-1.9-1.3-5.2-2.2-8.5-2.9c-0.3-0.1-0.6-0.1-1-0.2
			c0-0.1,0.1-0.2,0.1-0.3c0.3-1.5,0.1-3.4-1-5.1c-0.9-1.5-3.5-2.6-6.5-3.3c0.7-1.3,1.2-2.4,1.5-3.1c2-0.4,3.6-2.5,4.3-5.6
			c0.6-2.9-0.7-4.6-1.9-5.3c0.5-3.6,0-6.7-1.4-9.2c-0.7-2-1.4-3.2-1.4-3.2c-0.2-1.4-1.8-4.1-1.8-4.1s-1.5-2.2-1.7-2.2
			c-0.5,0,0.1,1.2-0.2,1.1c-0.8-0.4-0.4-0.2-1.3-0.6c-0.7-0.3-2.9-1.2-2.9-1.2s-3.1-2.1-3.5-2.1c-0.3,0,0.7,1.4,0.5,1.4
			c-0.2,0.1-1.1,0-1.1,0s-2.7-1.5-3-1.5c-0.2,0.1,1,1.7,1,1.7l-1.4,0.5c0,0-1.1-0.5-1.5-0.4c-0.4,0.1,0.4,1,0.2,1
			c-0.2,0-2-0.8-2.2-0.7c-0.2,0.1,0.4,1.1,0.4,1.1s-1.7,0.6-2.3,1.1c-1.4,1.1-3.9,3.4-5.3,6.7c-1.3,3-0.8,8.3-0.4,10.5
			c-1.2,0.8-2.4,2.5-1.8,5.3c0.7,3.2,2.3,5.3,4.3,5.6c0.3,0.8,0.9,2.2,1.9,3.8c-2.9,0.6-5.4,1.4-6.5,2.6c-1.4,1.5-1.6,3.6-1.3,5.4
			c-3.6,0.7-7.3,1.6-9.4,3.1c-3.7,2.6-6.2,6.2-6.7,16c-0.3,6.6-0.2,10.6-0.1,12.6h0.1h68.5C246.6,442.4,246.7,438.5,246.4,431.9z
			 M199.3,388.4c0.2-0.6,0.6-4.4,0.7-5.1c1-3.6,5.1-3.6,6.9-3.8c1.7-0.2,6,1.4,7.2,1.7c1.2,0.3,6.4-0.9,7.6-0.7
			c1.2,0.2,1.2,3.3,1.4,4.5c0.2,1.2,1.1,2.8,1.2,3.1c0,0.2,0,0.5,0,0.8l-0.3,0c0,0-1.7-0.5-3.7-0.6c-2.1-0.1-5,0.1-5.8,0.4
			c-0.8,0.2-2.4,0.2-2.4,0.2s-1.5,0-2.4-0.2c-0.8-0.2-3.8-0.5-5.8-0.4c-2.1,0.1-3.7,0.6-3.7,0.6l-0.9,0
			C199.3,388.6,199.3,388.5,199.3,388.4z M222.2,392.4c-0.2,1.2-0.8,2.8-1.7,3.2c-1,0.5-3.2,0.6-4.3-0.1c-1.2-0.7-2.3-1.6-2.4-3.9
			c-0.1-1.8,0.8-2.2,1.6-2.5c0.6-0.2,2.5-0.3,3.5-0.2c0,0,1.9,0,3.1,0.7C222.8,390,222.4,391.6,222.2,392.4z M210.2,391.7
			c-0.1,2.2-1.2,3.1-2.4,3.9c-1.1,0.7-3.3,0.6-4.3,0.1c-0.9-0.5-1.5-2-1.7-3.2c-0.1-0.8-0.5-2.5,0.1-2.8c1.2-0.6,3.1-0.7,3.1-0.7
			c1-0.1,2.9,0,3.5,0.2C209.4,389.5,210.3,389.9,210.2,391.7z M204.2,442.5l0-23.7c1,0.9,2.4,1.8,4.4,2.4c1.1,0.3,2.3,0.5,3.7,0.5
			c0,0,0.1,0,0.1,0c4,0,6.7-1.6,8.4-3.1l0,0.7l0.1,23.1H204.2z M220.9,415.5c0,0-0.1,0.1-0.1,0.1c-0.9,1.3-3.5,4.2-8.5,4.2
			c0,0,0,0-0.1,0c-4.4,0-6.7-2.1-7.7-3.5c-0.2-0.2-0.3-0.5-0.4-0.6c-0.3-3.8-0.3-5.4-0.3-5.4c0.1-0.8,0.2-1.7,0.3-2.4
			c0.2,0.2,0.5,0.5,0.7,0.7c1.4,1.3,4,2.2,7.1,2.4l0.1,0l0.1,0c3.1-0.2,5.7-1.1,7.1-2.4c0.6-0.5,1.1-1.1,1.6-1.7
			c0.1,1,0.2,2.3,0.3,3.4l0,0C221.1,410.4,221.3,412.6,220.9,415.5z M220.8,403.7c-0.4,0.6-0.8,1.3-1.3,1.9c0,0-0.1,0.1-0.1,0.1
			c-1.4,0.4-3.2,1.6-3.8,1.8c-1.4,0.5-2.7-0.2-2.6-0.9c0-0.2,0.1-0.5,0.2-0.8c0.1-0.5,0.1-1.1,0-1.3c-0.2-0.4-0.8-0.3-1-0.3
			c-0.2,0-0.8,0-1,0.3c-0.2,0.2-0.1,0.9,0,1.4c0,0.3,0.1,0.6,0.1,0.8c0.2,0.7-1.1,1.4-2.6,0.9c-0.5-0.2-1.6-0.9-2.8-1.4
			c-0.3-0.1-0.6-0.2-0.9-0.3c-0.3-0.4-0.7-0.9-1-1.3c-1.5-2.3-2.3-4.6-2.3-4.6l-0.2-0.7h-0.7c-1.6,0-2.7-2.3-3.1-4.2
			c-0.5-2.2,0.7-3.1,1.2-3.4c0.4,0.4,0.5,0.8,0.8,0.8c0.2,0,0.1-0.9,0-1.9l1,0.1c0.2,0.1,0.5,0.2,0.6,0.5c0.1,0.4,0.2,2.6,1.2,4.1
			c0.6,0.9,1.5,1.5,3.6,1.5c1.6,0,3.2-0.6,4.2-2.2c1-1.6,1-2.9,1.3-3.2c0.3-0.3,0.6-0.4,0.8-0.3c0.2,0,0.5,0.1,0.8,0.3
			c0.3,0.3,0.3,1.6,1.3,3.2c1,1.6,2.6,2.2,4.2,2.2c2.1,0,3-0.6,3.6-1.5c1-1.5,1.1-3.7,1.2-4.1c0-0.2,0.3-0.4,0.6-0.5l0.4,0
			c-0.1,1.1-0.1,2.1,0.1,1.9c0.2-0.3,0.6-0.7,0.9-1l0.2,0.1c0.1,0,2,0.7,1.4,3.5c-0.4,1.9-1.5,4.2-3.1,4.2h-0.7l-0.2,0.7
			C222.6,399.8,222,401.6,220.8,403.7z"/>
		<ellipse fill="#999999" cx="206.1" cy="391.2" rx="1.4" ry="1.5"/>
		<ellipse fill="#999999" cx="217.4" cy="391.2" rx="1.4" ry="1.5"/>
	</g>
	<path fill="#7897CC" d="M769.4,450.8h4.9V449c0-2.5,2-4.6,4.4-4.8v-4.9c-5,0.2-9.1,4.3-9.3,9.3h-0.1V450.8z"/>
	<path fill="#7897CC" d="M659.9,451.3h4.9v-1.8c0-2.5,2-4.6,4.4-4.8v-4.9c-5,0.2-9.1,4.3-9.3,9.3h-0.1V451.3z"/>
	<rect x="634.5" y="443.6" fill="#7897CC" width="5.4" height="4.9"/>
	<path fill="#7897CC" d="M719.1,440.8v1.6c0,2.6-2,4.7-4.5,4.8v4.9c5.2-0.2,9.4-4.5,9.4-9.7v-1.6H719.1z"/>
	<path fill="#7897CC" d="M500.1,440.1v1.6c0,2.6-2,4.7-4.5,4.8v4.9c5.2-0.2,9.4-4.5,9.4-9.7v-1.6H500.1z"/>
	<rect x="744.1" y="443.2" fill="#7897CC" width="5.1" height="4.9"/>
	<path fill="#7897CC" d="M550.3,444.9c2.5,0.2,4.5,2.3,4.5,4.8v1.8h4.9v-1.8c0-5.2-4.2-9.5-9.4-9.7V444.9z"/>
	<path fill="#7897CC" d="M614.5,447c-2.5-0.2-4.4-2.3-4.4-4.8v-1.6h-4.9v2h0.1c0.2,5,4.3,9.1,9.3,9.3V447z"/>
	<path fill="#7897CC" d="M474.1,443.4c-1.3,0-2.4,1.1-2.4,2.4c0,1.3,1.1,2.4,2.4,2.4V443.4z"/>
	<path fill="#7897CC" d="M583.6,443.6c-1.3,0-2.4,1.1-2.4,2.4c0,1.3,1.1,2.4,2.4,2.4V443.6z"/>
	<path fill="#7897CC" d="M694.4,440.3h-4.9v8.1c0.5,0.1,0.8,0.6,0.8,1.1v1.3c0.2,0.9,1,1.6,2,1.6c1.2,0,2.1-0.9,2.1-2.1v-5.1h0
		V440.3z"/>
	<path fill="#7897CC" d="M530,440h-4.7v10.4c0.2,0.9,1,1.7,2,1.7c0.9,0,1.6-0.5,1.9-1.3v-1.6c0-0.5,0.3-0.9,0.8-1V440z"/>
	<path fill="#7897CC" d="M757.2,379.5h4.9v-1.8c0-2.5,2-4.6,4.4-4.8v-4.9c-5,0.2-9.1,4.3-9.3,9.3h-0.1V379.5z"/>
	<path fill="#7897CC" d="M647.7,380h4.9v-1.8c0-2.5,2-4.6,4.4-4.8v-4.9c-5,0.2-9.1,4.3-9.3,9.3h-0.1V380z"/>
	<rect x="622.3" y="372.3" fill="#7897CC" width="5.4" height="4.9"/>
	<path fill="#7897CC" d="M706.9,369.6v1.6c0,2.6-2,4.7-4.5,4.8v4.9c5.2-0.2,9.4-4.5,9.4-9.7v-1.6H706.9z"/>
	<path fill="#7897CC" d="M487.9,368.9v1.6c0,2.6-2,4.7-4.5,4.8v4.9c5.2-0.2,9.4-4.5,9.4-9.7v-1.6H487.9z"/>
	<rect x="731.9" y="371.9" fill="#7897CC" width="5.1" height="4.9"/>
	<path fill="#7897CC" d="M538.1,373.6c2.5,0.2,4.5,2.3,4.5,4.8v1.8h4.9v-1.8c0-5.2-4.2-9.5-9.4-9.7V373.6z"/>
	<path fill="#7897CC" d="M602.2,375.7c-2.5-0.2-4.4-2.3-4.4-4.8v-1.6h-4.9v2h0.1c0.2,5,4.3,9.1,9.3,9.3V375.7z"/>
	<path fill="#7897CC" d="M461.9,372.1c-1.3,0-2.4,1.1-2.4,2.4c0,1.3,1.1,2.4,2.4,2.4V372.1z"/>
	<path fill="#7897CC" d="M571.4,372.3c-1.3,0-2.4,1.1-2.4,2.4s1.1,2.4,2.4,2.4V372.3z"/>
	<path fill="#7897CC" d="M682.2,369h-4.9v8.1c0.5,0.1,0.8,0.6,0.8,1.1v1.3c0.2,0.9,1,1.6,2,1.6c1.2,0,2.1-0.9,2.1-2.1v-5.1h0V369z"
		/>
	<path fill="#7897CC" d="M517.8,368.8h-4.7v10.4c0.2,0.9,1,1.7,2,1.7c0.9,0,1.6-0.5,1.9-1.3V378c0-0.5,0.3-0.9,0.8-1V368.8z"/>
	<g>
		<path fill="#7897CC" d="M514.3,283.7h6.5v-2.4c0-3.4,2.6-6.1,5.9-6.4v-6.5c-6.7,0.3-12.1,5.7-12.4,12.3h-0.1V283.7z"/>
		<rect x="506.3" y="280.7" fill="#7897CC" width="7.1" height="6.5"/>
		<path fill="#7897CC" d="M533.7,284.6v2.1c0,3.4-2.7,6.2-6,6.4v6.5c6.9-0.2,12.5-5.9,12.5-12.9v-2.1H533.7z"/>
		<rect x="498.7" y="280.7" fill="#7897CC" width="6.8" height="6.5"/>
		<path fill="#7897CC" d="M527.7,274.9c3.4,0.2,6,3,6,6.4v2.4h6.5v-2.4c0-7-5.6-12.7-12.5-12.9V274.9z"/>
		<path fill="#7897CC" d="M526.8,293.1c-3.3-0.3-5.9-3-5.9-6.4v-2.1h-6.5v2.6h0.1c0.3,6.7,5.7,12.1,12.4,12.4V293.1z"/>
		<path fill="#7897CC" d="M483.1,280.7c-1.8,0-3.2,1.5-3.2,3.2c0,1.8,1.4,3.2,3.2,3.2V280.7z"/>
		<path fill="#7897CC" d="M497.7,280.7h-6.6v10.8c0.6,0.2,1,0.7,1,1.4v1.8c0.3,1.2,1.4,2.1,2.7,2.1c1.5,0,2.8-1.2,2.8-2.8v-6.8h0.1
			V280.7z"/>
		<path fill="#7897CC" d="M490.3,280.7H484v13.9c0.3,1.3,1.4,2.2,2.7,2.2c1.2,0,2.1-0.7,2.6-1.7v-2.2c0-0.6,0.4-1.2,1-1.4V280.7z"/>
	</g>
	<path fill="#FF1900" d="M395,428.9v15.6c0,0.9,0.7,1.6,1.6,1.6s1.6-0.7,1.6-1.6v-0.4h3.4c0.8,0,1.4-0.6,1.4-1.4
		c0-0.6-0.4-1.1-0.8-1.3h-1.1c-0.4,0-0.7-0.3-0.7-0.7s0.3-0.7,0.7-0.7h0.9c0.6-0.1,1.1-0.7,1.1-1.3c0-0.8-0.6-1.4-1.4-1.4h-3.4v-8.3
		c3.4-0.1,6.2-3,6.2-6.4v0c0-3.5-2.9-6.4-6.4-6.4h-2.7c-3.5,0-6.4,2.9-6.4,6.4v0C388.8,425.9,391.6,428.7,395,428.9z M395.3,419.2
		h2.7c1.8,0,3.2,1.4,3.2,3.2c0,1.8-1.4,3.2-3.2,3.2h-2.7c-1.8,0-3.2-1.4-3.2-3.2S393.5,419.2,395.3,419.2z"/>
	<path fill="#FF1900" d="M245.1,428.9v15.6c0,0.9,0.7,1.6,1.6,1.6s1.6-0.7,1.6-1.6v-0.4h3.4c0.8,0,1.4-0.6,1.4-1.4
		c0-0.6-0.4-1.1-0.8-1.3h-1.1c-0.4,0-0.7-0.3-0.7-0.7s0.3-0.7,0.7-0.7h0.9c0.6-0.1,1.1-0.7,1.1-1.3c0-0.8-0.6-1.4-1.4-1.4h-3.4v-8.3
		c3.4-0.1,6.2-3,6.2-6.4v0c0-3.5-2.9-6.4-6.4-6.4h-2.7c-3.5,0-6.4,2.9-6.4,6.4v0C239,425.9,241.7,428.7,245.1,428.9z M245.4,419.2
		h2.7c1.8,0,3.2,1.4,3.2,3.2c0,1.8-1.4,3.2-3.2,3.2h-2.7c-1.8,0-3.2-1.4-3.2-3.2S243.6,419.2,245.4,419.2z"/>
	<g>
		<path fill="#FF1900" d="M249.1,226.7H212c-5.1,0-9.3-4.2-9.3-9.3v-56c0-5.1,4.2-9.3,9.3-9.3h37.1c5.1,0,9.3,4.2,9.3,9.3v56
			C258.4,222.5,254.2,226.7,249.1,226.7z"/>
		<g>
			<g>
				<path fill="#FFFFFF" d="M202.7,209.5c-3.5,0-6.4-2.9-6.4-6.4v-7c0-3.5,2.9-6.4,6.4-6.4h35c3.5,0,6.4,2.9,6.4,6.4v7
					c0,3.5-2.9,6.4-6.4,6.4H202.7z"/>
				<path fill="#FF1900" d="M237.7,191.3c2.7,0,4.9,2.2,4.9,4.9v7c0,2.7-2.2,4.9-4.9,4.9h-35c-2.7,0-4.9-2.2-4.9-4.9v-7
					c0-2.7,2.2-4.9,4.9-4.9H237.7 M237.7,188.3h-35c-4.3,0-7.9,3.5-7.9,7.9v7c0,4.3,3.5,7.9,7.9,7.9h35c4.3,0,7.9-3.5,7.9-7.9v-7
					C245.5,191.9,242,188.3,237.7,188.3L237.7,188.3z"/>
			</g>
		</g>
		<g>
			<path fill="#FF1900" d="M204.4,201.5c0-1.3-3.8-1.1-3.8-3.7c0-1.4,1.2-2.4,2.9-2.4c1.4,0,2.2,0.6,2.5,1l-1.1,1.3
				c-0.2-0.2-0.7-0.8-1.5-0.8c-0.6,0-0.9,0.3-0.9,0.7c0,1.3,3.8,1.1,3.8,3.7c0,1.2-1,2.4-3.1,2.4c-1.6,0-2.6-0.7-2.8-1l1-1.5
				c0.4,0.4,1.1,1,2.1,1C204,202.3,204.4,202,204.4,201.5z"/>
			<path fill="#FF1900" d="M207.6,203.7v-8.2h4.8v1.5h-3.1v1.8h2.6v1.5h-2.6v1.9h3.2v1.5H207.6z"/>
			<path fill="#FF1900" d="M217.4,195.4c1.6,0,2.3,0.7,2.6,1l-1.2,1.3c-0.3-0.3-0.7-0.7-1.5-0.7c-1.1,0-1.7,0.8-1.7,2.7
				c0,1.7,0.6,2.7,1.8,2.7c0.8,0,1.2-0.4,1.5-0.7l1,1.3c-0.3,0.4-1.2,1-2.6,1c-2.5,0-3.5-1.7-3.5-4.1
				C213.8,197.1,215,195.4,217.4,195.4z"/>
			<path fill="#FF1900" d="M223.7,195.5c1.8,0,2.8,0.7,2.8,2.4c0,1.4-0.8,2.1-1.7,2.3v0c0.4,0.2,0.7,0.5,1.1,1.2l1.2,2.3H225
				l-1.4-2.7c-0.2-0.3-0.4-0.4-0.7-0.4h-0.1v3h-1.8v-8.2H223.7z M222.8,199.2h0.7c0.9,0,1.2-0.4,1.2-1.2c0-0.7-0.4-1.1-1.2-1.1h-0.7
				V199.2z"/>
			<path fill="#FF1900" d="M228.2,203.7v-8.2h4.8v1.5H230v1.8h2.6v1.5H230v1.9h3.2v1.5H228.2z"/>
			<path fill="#FF1900" d="M235.9,197h-2v-1.5h5.8v1.5h-2v6.7h-1.8V197z"/>
		</g>
	</g>
	<g>
		<path fill="#FF1900" d="M388.2,226.7h-37.1c-5.1,0-9.3-4.2-9.3-9.3v-56c0-5.1,4.2-9.3,9.3-9.3h37.1c5.1,0,9.3,4.2,9.3,9.3v56
			C397.6,222.5,393.4,226.7,388.2,226.7z"/>
		<g>
			<g>
				<path fill="#FFFFFF" d="M341.9,209.5c-3.5,0-6.4-2.9-6.4-6.4v-7c0-3.5,2.9-6.4,6.4-6.4h35c3.5,0,6.4,2.9,6.4,6.4v7
					c0,3.5-2.9,6.4-6.4,6.4H341.9z"/>
				<path fill="#FF1900" d="M376.8,191.3c2.7,0,4.9,2.2,4.9,4.9v7c0,2.7-2.2,4.9-4.9,4.9h-35c-2.7,0-4.9-2.2-4.9-4.9v-7
					c0-2.7,2.2-4.9,4.9-4.9H376.8 M376.8,188.3h-35c-4.3,0-7.9,3.5-7.9,7.9v7c0,4.3,3.5,7.9,7.9,7.9h35c4.3,0,7.9-3.5,7.9-7.9v-7
					C384.7,191.9,381.2,188.3,376.8,188.3L376.8,188.3z"/>
			</g>
		</g>
		<g>
			<path fill="#FF1900" d="M343.6,201.5c0-1.3-3.8-1.1-3.8-3.7c0-1.4,1.2-2.4,2.9-2.4c1.4,0,2.2,0.6,2.5,1l-1.1,1.3
				c-0.2-0.2-0.7-0.8-1.5-0.8c-0.6,0-0.9,0.3-0.9,0.7c0,1.3,3.8,1.1,3.8,3.7c0,1.2-1,2.4-3.1,2.4c-1.6,0-2.6-0.7-2.8-1l1-1.5
				c0.4,0.4,1.1,1,2.1,1C343.2,202.3,343.6,202,343.6,201.5z"/>
			<path fill="#FF1900" d="M346.8,203.7v-8.2h4.8v1.5h-3.1v1.8h2.6v1.5h-2.6v1.9h3.2v1.5H346.8z"/>
			<path fill="#FF1900" d="M356.5,195.4c1.6,0,2.3,0.7,2.6,1l-1.2,1.3c-0.3-0.3-0.7-0.7-1.5-0.7c-1.1,0-1.7,0.8-1.7,2.7
				c0,1.7,0.6,2.7,1.8,2.7c0.8,0,1.2-0.4,1.5-0.7l1,1.3c-0.4,0.4-1.2,1-2.6,1c-2.5,0-3.5-1.7-3.5-4.1
				C352.9,197.1,354.2,195.4,356.5,195.4z"/>
			<path fill="#FF1900" d="M362.9,195.5c1.8,0,2.8,0.7,2.8,2.4c0,1.4-0.8,2.1-1.7,2.3v0c0.4,0.2,0.7,0.5,1.1,1.2l1.2,2.3h-2.1
				l-1.4-2.7c-0.2-0.3-0.4-0.4-0.7-0.4H362v3h-1.8v-8.2H362.9z M362,199.2h0.7c0.9,0,1.2-0.4,1.2-1.2c0-0.7-0.4-1.1-1.2-1.1H362
				V199.2z"/>
			<path fill="#FF1900" d="M367.4,203.7v-8.2h4.8v1.5h-3.1v1.8h2.6v1.5h-2.6v1.9h3.2v1.5H367.4z"/>
			<path fill="#FF1900" d="M375.1,197h-2v-1.5h5.8v1.5h-2v6.7h-1.8V197z"/>
		</g>
		<g>
			<path fill="#F9F0DF" d="M369.7,174.9c6.6,0,12-5.4,12-12l0-14.6c0-6.6-5.4-12-12-12c-6.6,0-12,5.4-12,12l0,14.6
				C357.7,169.5,363.1,174.9,369.7,174.9z"/>
			<path fill="#FF1900" d="M369.7,173.6c6,0,10.9-4.9,10.8-10.9l0-13.2c0-6-4.9-10.9-10.9-10.8c-6,0-10.9,4.9-10.8,10.9l0,13.2
				C358.9,168.7,363.8,173.6,369.7,173.6z M372,162.1c0,1.3-1,2.3-2.3,2.3c-1.3,0-2.3-1-2.3-2.3c0-1.3,1-2.3,2.3-2.3
				C371,159.8,372,160.8,372,162.1z M361.6,147.4c0-3.1,3.4-6.5,7.8-6.5l0.5,0c4.1,0,7.8,3.4,7.9,6.5c0,3.1-2.2,4.1-5.3,4.1l-5,0
				C364.3,151.5,361.6,150.4,361.6,147.4z M362.3,163.1l0-1.5c0-0.1,0-0.1,0-0.1c0.3-3.8,3.5-6.8,7.4-6.8c3.9,0,7.1,3,7.4,6.8
				c0,0.1,0,0.1,0,0.1l0,1.5c0,0.7-0.6,1.3-1.3,1.3s-1.3-0.6-1.3-1.3l0-1.4c-0.2-2.5-2.3-4.5-4.8-4.5c-2.6,0-4.6,2-4.8,4.5l0,1.4
				c0,0.7-0.6,1.3-1.3,1.3C362.9,164.4,362.3,163.9,362.3,163.1z"/>
		</g>
	</g>
	<g>
		<path fill="#FF1900" d="M527.4,226.7h-37.1c-5.1,0-9.3-4.2-9.3-9.3v-56c0-5.1,4.2-9.3,9.3-9.3h37.1c5.1,0,9.3,4.2,9.3,9.3v56
			C536.8,222.5,532.5,226.7,527.4,226.7z"/>
		<g>
			<g>
				<path fill="#FFFFFF" d="M481,209.5c-3.5,0-6.4-2.9-6.4-6.4v-7c0-3.5,2.9-6.4,6.4-6.4h35c3.5,0,6.4,2.9,6.4,6.4v7
					c0,3.5-2.9,6.4-6.4,6.4H481z"/>
				<path fill="#FF1900" d="M516,191.3c2.7,0,4.9,2.2,4.9,4.9v7c0,2.7-2.2,4.9-4.9,4.9h-35c-2.7,0-4.9-2.2-4.9-4.9v-7
					c0-2.7,2.2-4.9,4.9-4.9H516 M516,188.3h-35c-4.3,0-7.9,3.5-7.9,7.9v7c0,4.3,3.5,7.9,7.9,7.9h35c4.3,0,7.9-3.5,7.9-7.9v-7
					C523.9,191.9,520.3,188.3,516,188.3L516,188.3z"/>
			</g>
		</g>
		<g>
			<path fill="#FF1900" d="M482.7,201.5c0-1.3-3.8-1.1-3.8-3.7c0-1.4,1.2-2.4,2.9-2.4c1.4,0,2.2,0.6,2.5,1l-1.1,1.3
				c-0.2-0.2-0.7-0.8-1.5-0.8c-0.6,0-0.9,0.3-0.9,0.7c0,1.3,3.8,1.1,3.8,3.7c0,1.2-1,2.4-3.1,2.4c-1.6,0-2.6-0.7-2.8-1l1-1.5
				c0.4,0.4,1.1,1,2.1,1C482.4,202.3,482.7,202,482.7,201.5z"/>
			<path fill="#FF1900" d="M485.9,203.7v-8.2h4.8v1.5h-3.1v1.8h2.6v1.5h-2.6v1.9h3.2v1.5H485.9z"/>
			<path fill="#FF1900" d="M495.7,195.4c1.6,0,2.3,0.7,2.6,1l-1.2,1.3c-0.3-0.3-0.7-0.7-1.5-0.7c-1.1,0-1.7,0.8-1.7,2.7
				c0,1.7,0.6,2.7,1.8,2.7c0.8,0,1.2-0.4,1.5-0.7l1,1.3c-0.4,0.4-1.2,1-2.6,1c-2.5,0-3.5-1.7-3.5-4.1
				C492.1,197.1,493.3,195.4,495.7,195.4z"/>
			<path fill="#FF1900" d="M502.1,195.5c1.8,0,2.8,0.7,2.8,2.4c0,1.4-0.8,2.1-1.7,2.3v0c0.4,0.2,0.7,0.5,1.1,1.2l1.2,2.3h-2.1
				L502,201c-0.2-0.3-0.4-0.4-0.7-0.4h-0.1v3h-1.8v-8.2H502.1z M501.2,199.2h0.7c0.9,0,1.2-0.4,1.2-1.2c0-0.7-0.4-1.1-1.2-1.1h-0.7
				V199.2z"/>
			<path fill="#FF1900" d="M506.6,203.7v-8.2h4.8v1.5h-3.1v1.8h2.6v1.5h-2.6v1.9h3.2v1.5H506.6z"/>
			<path fill="#FF1900" d="M514.2,197h-2v-1.5h5.8v1.5h-2v6.7h-1.8V197z"/>
		</g>
		<g>
			<path fill="#F9F0DF" d="M508.9,174.9c6.6,0,12-5.4,12-12l0-13.6c0-6.6-5.4-12-12-12c-6.6,0-12,5.4-12,12l0,13.6
				C496.9,169.5,502.3,174.9,508.9,174.9z"/>
			<path fill="#FF1900" d="M508.9,173.6c6,0,10.9-4.9,10.8-10.9l0-13.2c0-6-4.9-10.9-10.9-10.8c-6,0-10.9,4.9-10.8,10.9l0,13.2
				C498,168.7,502.9,173.6,508.9,173.6z M511.1,162.1c0,1.3-1,2.3-2.3,2.3c-1.3,0-2.3-1-2.3-2.3c0-1.3,1-2.3,2.3-2.3
				C510.1,159.8,511.1,160.8,511.1,162.1z M500.8,147.4c0-3.1,3.4-6.5,7.8-6.5l0.5,0c4.1,0,7.8,3.4,7.9,6.5c0,3.1-2.2,4.1-5.3,4.1
				l-5,0C503.5,151.5,500.8,150.4,500.8,147.4z M501.5,163.1l0-1.5c0-0.1,0-0.1,0-0.1c0.3-3.8,3.5-6.8,7.4-6.8c3.9,0,7.1,3,7.4,6.8
				c0,0.1,0,0.1,0,0.1l0,1.5c0,0.7-0.6,1.3-1.3,1.3c-0.7,0-1.3-0.6-1.3-1.3l0-1.4c-0.2-2.5-2.3-4.5-4.8-4.5c-2.6,0-4.6,2-4.8,4.5
				l0,1.4c0,0.7-0.6,1.3-1.3,1.3C502.1,164.4,501.5,163.9,501.5,163.1z"/>
		</g>
		<g>
			<path fill="#F9F0DF" d="M531.9,174.9c6.6,0,12-5.4,12-12l0-13.6c0-6.6-5.4-12-12-12c-6.6,0-12,5.4-12,12l0,13.6
				C519.9,169.5,525.3,174.9,531.9,174.9z"/>
			<path fill="#7897CC" d="M531.9,173.6c6,0,10.9-4.9,10.8-10.9l0-13.2c0-6-4.9-10.9-10.9-10.8c-6,0-10.9,4.9-10.8,10.9l0,13.2
				C521,168.7,525.9,173.6,531.9,173.6z M534.1,162.1c0,1.3-1,2.3-2.3,2.3c-1.3,0-2.3-1-2.3-2.3s1-2.3,2.3-2.3
				C533.1,159.8,534.1,160.8,534.1,162.1z M523.8,147.4c0-3.1,3.4-6.5,7.8-6.5l0.5,0c4.1,0,7.8,3.4,7.9,6.5c0,3.1-2.2,4.1-5.3,4.1
				l-5,0C526.5,151.5,523.8,150.4,523.8,147.4z M524.5,163.1l0-1.5c0-0.1,0-0.1,0-0.1c0.3-3.8,3.5-6.8,7.4-6.8c3.9,0,7.1,3,7.4,6.8
				c0,0.1,0,0.1,0,0.1l0,1.5c0,0.7-0.6,1.3-1.3,1.3c-0.7,0-1.3-0.6-1.3-1.3l0-1.4c-0.2-2.5-2.3-4.5-4.8-4.5c-2.6,0-4.6,2-4.8,4.5
				l0,1.4c0,0.7-0.6,1.3-1.3,1.3C525.1,164.4,524.5,163.9,524.5,163.1z"/>
		</g>
	</g>
	<g>
		<circle fill="#304D7F" cx="700.9" cy="187.3" r="69.3"/>
		<path fill="#FF1900" stroke="#F9F0DF" stroke-miterlimit="10" d="M720.4,151.9h-37.1c-5.1,0-9.3,4.2-9.3,9.3v27
			c-4.3,0.1-7.8,3.6-7.8,7.9v7c0,4.3,3.5,7.8,7.8,7.9v6.3c0,5.1,4.2,9.3,9.3,9.3h37.1c5.1,0,9.3-4.2,9.3-9.3v-56
			C729.7,156.2,725.5,151.9,720.4,151.9z"/>
		<g>
			<circle fill="none" stroke="#304D7F" stroke-width="2.4512" stroke-miterlimit="10" cx="700.9" cy="187.3" r="72.4"/>
			<g>
				<g>
					<polygon fill="#FFFFFF" stroke="#304D7F" stroke-width="2.3899" stroke-miterlimit="10" points="707.7,118.5 700.9,122.7 
						694.1,118.5 694.1,110.6 700.9,106.4 707.7,110.6 					"/>
					
						<line fill="none" stroke="#304D7F" stroke-width="1.195" stroke-miterlimit="10" x1="700.9" y1="114.8" x2="700.9" y2="122.7"/>
					<polyline fill="none" stroke="#304D7F" stroke-width="1.195" stroke-miterlimit="10" points="707.7,110.6 700.9,114.8 
						694.1,110.6 					"/>
				</g>
				<g>
					<polygon fill="#FFFFFF" stroke="#304D7F" stroke-width="2.3899" stroke-miterlimit="10" points="707.7,264 700.9,268.2 
						694.1,264 694.1,256.1 700.9,251.8 707.7,256.1 					"/>
					
						<line fill="none" stroke="#304D7F" stroke-width="1.195" stroke-miterlimit="10" x1="700.9" y1="260.3" x2="700.9" y2="268.2"/>
					<polyline fill="none" stroke="#304D7F" stroke-width="1.195" stroke-miterlimit="10" points="707.7,256.1 700.9,260.3 
						694.1,256.1 					"/>
				</g>
				<g>
					<polygon fill="#FFFFFF" stroke="#304D7F" stroke-width="2.3899" stroke-miterlimit="10" points="682.8,122.9 676,127.1 
						669.2,122.9 669.2,115 676,110.7 682.8,115 					"/>
					<line fill="none" stroke="#304D7F" stroke-width="1.195" stroke-miterlimit="10" x1="676" y1="119.2" x2="676" y2="127.1"/>
					<polyline fill="none" stroke="#304D7F" stroke-width="1.195" stroke-miterlimit="10" points="682.8,115 676,119.2 669.2,115 
											"/>
				</g>
				<g>
					<polygon fill="#FFFFFF" stroke="#304D7F" stroke-width="2.3899" stroke-miterlimit="10" points="732.6,259.6 725.8,263.8 
						719,259.6 719,251.7 725.8,247.5 732.6,251.7 					"/>
					
						<line fill="none" stroke="#304D7F" stroke-width="1.195" stroke-miterlimit="10" x1="725.8" y1="255.9" x2="725.8" y2="263.8"/>
					<polyline fill="none" stroke="#304D7F" stroke-width="1.195" stroke-miterlimit="10" points="732.6,251.7 725.8,255.9 
						719,251.7 					"/>
				</g>
				<g>
					<polygon fill="#FFFFFF" stroke="#304D7F" stroke-width="2.3899" stroke-miterlimit="10" points="660.9,135.5 654.1,139.7 
						647.4,135.5 647.4,127.6 654.1,123.4 660.9,127.6 					"/>
					
						<line fill="none" stroke="#304D7F" stroke-width="1.195" stroke-miterlimit="10" x1="654.1" y1="131.8" x2="654.1" y2="139.8"/>
					<polyline fill="none" stroke="#304D7F" stroke-width="1.195" stroke-miterlimit="10" points="660.9,127.6 654.1,131.8 
						647.4,127.6 					"/>
				</g>
				<g>
					<polygon fill="#FFFFFF" stroke="#304D7F" stroke-width="2.3899" stroke-miterlimit="10" points="754.4,247 747.7,251.2 
						740.9,247 740.9,239.1 747.7,234.8 754.4,239.1 					"/>
					
						<line fill="none" stroke="#304D7F" stroke-width="1.195" stroke-miterlimit="10" x1="747.6" y1="243.2" x2="747.6" y2="251.2"/>
					<polyline fill="none" stroke="#304D7F" stroke-width="1.195" stroke-miterlimit="10" points="754.4,239.1 747.7,243.3 
						740.9,239.1 					"/>
				</g>
				<g>
					<polygon fill="#FFFFFF" stroke="#304D7F" stroke-width="2.3899" stroke-miterlimit="10" points="644.7,154.9 637.9,159.1 
						631.1,154.9 631.1,147 637.9,142.7 644.7,147 					"/>
					
						<line fill="none" stroke="#304D7F" stroke-width="1.195" stroke-miterlimit="10" x1="637.9" y1="151.2" x2="637.9" y2="159.1"/>
					<polyline fill="none" stroke="#304D7F" stroke-width="1.195" stroke-miterlimit="10" points="644.7,147 637.9,151.2 631.1,147 
											"/>
				</g>
				<g>
					<polygon fill="#FFFFFF" stroke="#304D7F" stroke-width="2.3899" stroke-miterlimit="10" points="770.7,227.6 763.9,231.8 
						757.1,227.6 757.1,219.7 763.9,215.5 770.7,219.7 					"/>
					
						<line fill="none" stroke="#304D7F" stroke-width="1.195" stroke-miterlimit="10" x1="763.9" y1="223.9" x2="763.9" y2="231.9"/>
					<polyline fill="none" stroke="#304D7F" stroke-width="1.195" stroke-miterlimit="10" points="770.7,219.7 763.9,223.9 
						757.1,219.7 					"/>
				</g>
				<g>
					<polygon fill="#FFFFFF" stroke="#304D7F" stroke-width="2.3899" stroke-miterlimit="10" points="636,178.6 629.3,182.8 
						622.5,178.6 622.5,170.7 629.3,166.5 636,170.7 					"/>
					
						<line fill="none" stroke="#304D7F" stroke-width="1.195" stroke-miterlimit="10" x1="629.2" y1="174.9" x2="629.2" y2="182.9"/>
					<polyline fill="none" stroke="#304D7F" stroke-width="1.195" stroke-miterlimit="10" points="636,170.7 629.3,174.9 
						622.5,170.7 					"/>
				</g>
				<g>
					<polygon fill="#FFFFFF" stroke="#304D7F" stroke-width="2.3899" stroke-miterlimit="10" points="779.3,203.9 772.5,208.1 
						765.8,203.9 765.8,196 772.5,191.7 779.3,196 					"/>
					
						<line fill="none" stroke="#304D7F" stroke-width="1.195" stroke-miterlimit="10" x1="772.5" y1="200.2" x2="772.5" y2="208.1"/>
					<polyline fill="none" stroke="#304D7F" stroke-width="1.195" stroke-miterlimit="10" points="779.3,196 772.5,200.2 765.8,196 
											"/>
				</g>
				<g>
					<polygon fill="#FFFFFF" stroke="#304D7F" stroke-width="2.3899" stroke-miterlimit="10" points="636,203.9 629.3,208.1 
						622.5,203.9 622.5,196 629.3,191.7 636,196 					"/>
					
						<line fill="none" stroke="#304D7F" stroke-width="1.195" stroke-miterlimit="10" x1="629.2" y1="200.2" x2="629.2" y2="208.1"/>
					<polyline fill="none" stroke="#304D7F" stroke-width="1.195" stroke-miterlimit="10" points="636,196 629.3,200.2 622.5,196 
											"/>
				</g>
				<g>
					<polygon fill="#FFFFFF" stroke="#304D7F" stroke-width="2.3899" stroke-miterlimit="10" points="779.3,178.6 772.5,182.8 
						765.8,178.6 765.8,170.7 772.5,166.5 779.3,170.7 					"/>
					
						<line fill="none" stroke="#304D7F" stroke-width="1.195" stroke-miterlimit="10" x1="772.5" y1="174.9" x2="772.5" y2="182.9"/>
					<polyline fill="none" stroke="#304D7F" stroke-width="1.195" stroke-miterlimit="10" points="779.3,170.7 772.5,174.9 
						765.8,170.7 					"/>
				</g>
				<g>
					<polygon fill="#FFFFFF" stroke="#304D7F" stroke-width="2.3899" stroke-miterlimit="10" points="644.7,227.6 637.9,231.8 
						631.1,227.6 631.1,219.7 637.9,215.5 644.7,219.7 					"/>
					
						<line fill="none" stroke="#304D7F" stroke-width="1.195" stroke-miterlimit="10" x1="637.9" y1="223.9" x2="637.9" y2="231.9"/>
					<polyline fill="none" stroke="#304D7F" stroke-width="1.195" stroke-miterlimit="10" points="644.7,219.7 637.9,223.9 
						631.1,219.7 					"/>
				</g>
				<g>
					<polygon fill="#FFFFFF" stroke="#304D7F" stroke-width="2.3899" stroke-miterlimit="10" points="770.7,154.9 763.9,159.1 
						757.1,154.9 757.1,147 763.9,142.7 770.7,147 					"/>
					
						<line fill="none" stroke="#304D7F" stroke-width="1.195" stroke-miterlimit="10" x1="763.9" y1="151.2" x2="763.9" y2="159.1"/>
					<polyline fill="none" stroke="#304D7F" stroke-width="1.195" stroke-miterlimit="10" points="770.7,147 763.9,151.2 757.1,147 
											"/>
				</g>
				<g>
					<polygon fill="#FFFFFF" stroke="#304D7F" stroke-width="2.3899" stroke-miterlimit="10" points="660.9,247 654.1,251.2 
						647.4,247 647.4,239.1 654.1,234.8 660.9,239.1 					"/>
					
						<line fill="none" stroke="#304D7F" stroke-width="1.195" stroke-miterlimit="10" x1="654.1" y1="243.3" x2="654.1" y2="251.2"/>
					<polyline fill="none" stroke="#304D7F" stroke-width="1.195" stroke-miterlimit="10" points="660.9,239.1 654.1,243.3 
						647.4,239.1 					"/>
				</g>
				<g>
					<polygon fill="#FFFFFF" stroke="#304D7F" stroke-width="2.3899" stroke-miterlimit="10" points="754.4,135.5 747.7,139.8 
						740.9,135.5 740.9,127.6 747.7,123.4 754.4,127.6 					"/>
					
						<line fill="none" stroke="#304D7F" stroke-width="1.195" stroke-miterlimit="10" x1="747.6" y1="131.8" x2="747.6" y2="139.8"/>
					<polyline fill="none" stroke="#304D7F" stroke-width="1.195" stroke-miterlimit="10" points="754.4,127.6 747.7,131.9 
						740.9,127.6 					"/>
				</g>
				<g>
					<polygon fill="#FFFFFF" stroke="#304D7F" stroke-width="2.3899" stroke-miterlimit="10" points="682.8,259.6 676,263.8 
						669.2,259.6 669.2,251.7 676,247.5 682.8,251.7 					"/>
					<line fill="none" stroke="#304D7F" stroke-width="1.195" stroke-miterlimit="10" x1="676" y1="255.9" x2="676" y2="263.8"/>
					<polyline fill="none" stroke="#304D7F" stroke-width="1.195" stroke-miterlimit="10" points="682.8,251.7 676,255.9 
						669.2,251.7 					"/>
				</g>
				<g>
					<polygon fill="#FFFFFF" stroke="#304D7F" stroke-width="2.3899" stroke-miterlimit="10" points="732.6,122.9 725.8,127.1 
						719,122.9 719,115 725.8,110.8 732.6,115 					"/>
					
						<line fill="none" stroke="#304D7F" stroke-width="1.195" stroke-miterlimit="10" x1="725.8" y1="119.2" x2="725.8" y2="127.1"/>
					<polyline fill="none" stroke="#304D7F" stroke-width="1.195" stroke-miterlimit="10" points="732.6,115 725.8,119.2 719,115 
											"/>
				</g>
			</g>
		</g>
		<path d="M686.4,164"/>
		<path fill="none" stroke="#DA3A36" stroke-width="0.1492" stroke-miterlimit="10" d="M744.9,211.2"/>
		<path fill="none" stroke="#DA3A36" stroke-width="0.1492" stroke-miterlimit="10" d="M744.9,176.9"/>
		<path fill="none" stroke="#DA3A36" stroke-width="0.1492" stroke-miterlimit="10" d="M745.9,209.1"/>
		<path fill="none" stroke="#DA3A36" stroke-width="0.1492" stroke-miterlimit="10" d="M745.9,181.9"/>
		<path fill="#FFFFFF" d="M674,191.3c-2.7,0-4.9,2.2-4.9,4.9v7c0,2.7,2.2,4.9,4.9,4.9h35c2.7,0,4.9-2.2,4.9-4.9v-7
			c0-2.7-2.2-4.9-4.9-4.9H674z"/>
		<g>
			<path fill="#FF1900" d="M675.7,201.5c0-1.3-3.8-1.1-3.8-3.7c0-1.4,1.2-2.4,2.9-2.4c1.4,0,2.2,0.6,2.5,1l-1.1,1.3
				c-0.2-0.2-0.7-0.8-1.5-0.8c-0.6,0-0.9,0.3-0.9,0.7c0,1.3,3.8,1.1,3.8,3.7c0,1.2-1,2.4-3.1,2.4c-1.6,0-2.6-0.7-2.8-1l1-1.5
				c0.4,0.4,1.1,1,2.1,1C675.4,202.3,675.7,202,675.7,201.5z"/>
			<path fill="#FF1900" d="M678.9,203.7v-8.2h4.8v1.5h-3.1v1.8h2.6v1.5h-2.6v1.9h3.2v1.5H678.9z"/>
			<path fill="#FF1900" d="M688.7,195.4c1.6,0,2.3,0.7,2.6,1l-1.2,1.3c-0.3-0.3-0.7-0.7-1.5-0.7c-1.1,0-1.7,0.8-1.7,2.7
				c0,1.7,0.6,2.7,1.8,2.7c0.8,0,1.2-0.4,1.5-0.7l1,1.3c-0.4,0.4-1.2,1-2.6,1c-2.5,0-3.5-1.7-3.5-4.1
				C685.1,197.1,686.3,195.4,688.7,195.4z"/>
			<path fill="#FF1900" d="M695,195.5c1.8,0,2.8,0.7,2.8,2.4c0,1.4-0.8,2.1-1.7,2.3v0c0.4,0.2,0.7,0.5,1.1,1.2l1.2,2.3h-2.1L695,201
				c-0.2-0.3-0.4-0.4-0.7-0.4h-0.1v3h-1.8v-8.2H695z M694.1,199.2h0.7c0.9,0,1.2-0.4,1.2-1.2c0-0.7-0.4-1.1-1.2-1.1h-0.7V199.2z"/>
			<path fill="#FF1900" d="M699.5,203.7v-8.2h4.8v1.5h-3.1v1.8h2.6v1.5h-2.6v1.9h3.2v1.5H699.5z"/>
			<path fill="#FF1900" d="M707.2,197h-2v-1.5h5.8v1.5h-2v6.7h-1.8V197z"/>
		</g>
		<g>
			<path fill="#F9F0DF" d="M701.9,174.9c6.6,0,12-5.4,12-12l0-13.6c0-6.6-5.4-12-12-12c-6.6,0-12,5.4-12,12l0,13.6
				C689.9,169.5,695.3,174.9,701.9,174.9z"/>
			<path fill="#FF1900" d="M701.9,173.6c6,0,10.9-4.9,10.8-10.9l0-13.2c0-6-4.9-10.9-10.9-10.8c-6,0-10.9,4.9-10.8,10.9l0,13.2
				C691,168.7,695.9,173.6,701.9,173.6z M704.1,162.1c0,1.3-1,2.3-2.3,2.3c-1.3,0-2.3-1-2.3-2.3s1-2.3,2.3-2.3
				C703.1,159.8,704.1,160.8,704.1,162.1z M693.7,147.4c0-3.1,3.4-6.5,7.8-6.5l0.5,0c4.1,0,7.8,3.4,7.9,6.5c0,3.1-2.2,4.1-5.3,4.1
				l-5,0C696.5,151.5,693.7,150.4,693.7,147.4z M694.4,163.1l0-1.5c0-0.1,0-0.1,0-0.1c0.3-3.8,3.5-6.8,7.4-6.8c3.9,0,7.1,3,7.4,6.8
				c0,0.1,0,0.1,0,0.1l0,1.5c0,0.7-0.6,1.3-1.3,1.3s-1.3-0.6-1.3-1.3l0-1.4c-0.2-2.5-2.3-4.5-4.8-4.5c-2.6,0-4.6,2-4.8,4.5l0,1.4
				c0,0.7-0.6,1.3-1.3,1.3C695,164.4,694.4,163.9,694.4,163.1z"/>
		</g>
		<g>
			<path fill="#F9F0DF" d="M724.9,174.9c6.6,0,12-5.4,12-12l0-13.6c0-6.6-5.4-12-12-12c-6.6,0-12,5.4-12,12l0,13.6
				C712.9,169.5,718.3,174.9,724.9,174.9z"/>
			<path fill="#7897CC" d="M724.9,173.6c6,0,10.9-4.9,10.8-10.9l0-13.2c0-6-4.9-10.9-10.9-10.8c-6,0-10.9,4.9-10.8,10.9l0,13.2
				C714,168.7,718.9,173.6,724.9,173.6z M727.1,162.1c0,1.3-1,2.3-2.3,2.3c-1.3,0-2.3-1-2.3-2.3s1-2.3,2.3-2.3
				C726.1,159.8,727.1,160.8,727.1,162.1z M716.7,147.4c0-3.1,3.4-6.5,7.8-6.5l0.5,0c4.1,0,7.8,3.4,7.9,6.5c0,3.1-2.2,4.1-5.3,4.1
				l-5,0C719.5,151.5,716.7,150.4,716.7,147.4z M717.4,163.1l0-1.5c0-0.1,0-0.1,0-0.1c0.3-3.8,3.5-6.8,7.4-6.8c3.9,0,7.1,3,7.4,6.8
				c0,0.1,0,0.1,0,0.1l0,1.5c0,0.7-0.6,1.3-1.3,1.3s-1.3-0.6-1.3-1.3l0-1.4c-0.2-2.5-2.3-4.5-4.8-4.5c-2.6,0-4.6,2-4.8,4.5l0,1.4
				c0,0.7-0.6,1.3-1.3,1.3C718,164.4,717.4,163.9,717.4,163.1z"/>
		</g>
	</g>
</g>
</svg>
