<?xml version="1.0" encoding="utf-8"?>
<!-- Generator: Adobe Illustrator 18.1.1, SVG Export Plug-In . SVG Version: 6.00 Build 0)  -->
<svg version="1.1" xmlns="http://www.w3.org/2000/svg" xmlns:xlink="http://www.w3.org/1999/xlink" x="0px" y="0px"
	 viewBox="0 0 841.9 467.6" enable-background="new 0 0 841.9 467.6" xml:space="preserve">
<g id="bg">
	<rect x="0" y="0" fill="#F9F0DF" width="841.9" height="468.1"/>
</g>
<g id="Layer_1">
	<g>
		<path fill="#FF1900" d="M344.9,279.2l13.5,13.5c1.2,1.2,3.2,1.2,4.4,0l13.5-13.5c2-2,0.6-5.3-2.2-5.3h-6.9v-19.5
			c0-1.8-1.4-3.2-3.2-3.2h-6.9c-1.8,0-3.2,1.4-3.2,3.2v19.5h-6.9C344.3,273.9,343,277.3,344.9,279.2z"/>
		<path fill="#7897CC" d="M507.2,279.2l13.5,13.5c1.2,1.2,3.2,1.2,4.4,0l13.5-13.5c2-2,0.6-5.3-2.2-5.3h-6.9v-19.5
			c0-1.8-1.4-3.2-3.2-3.2h-6.9c-1.8,0-3.2,1.4-3.2,3.2v19.5h-6.9C506.6,273.9,505.2,277.3,507.2,279.2z"/>
		<path fill="#999999" d="M271.1,353l-13.5,13.5c-1.2,1.2-1.2,3.2,0,4.4l13.5,13.5c2,2,5.3,0.6,5.3-2.2v-6.9h19.5
			c1.8,0,3.2-1.4,3.2-3.2v-6.9c0-1.8-1.4-3.2-3.2-3.2h-19.5v-6.9C276.5,352.4,273.1,351,271.1,353z"/>
		<path fill="#FF1900" d="M130.1,128.3l13.5-13.5c1.2-1.2,1.2-3.2,0-4.4l-13.5-13.5c-2-2-5.3-0.6-5.3,2.2v6.9h-19.5
			c-1.8,0-3.2,1.4-3.2,3.2v6.9c0,1.8,1.4,3.2,3.2,3.2h19.5v6.9C124.8,128.9,128.1,130.3,130.1,128.3z"/>
		<path fill="#FF1900" d="M288.3,128.3l13.5-13.5c1.2-1.2,1.2-3.2,0-4.4l-13.5-13.5c-2-2-5.3-0.6-5.3,2.2v6.9h-19.5
			c-1.8,0-3.2,1.4-3.2,3.2v6.9c0,1.8,1.4,3.2,3.2,3.2H283v6.9C283,128.9,286.3,130.3,288.3,128.3z"/>
		<path fill="#FF1900" d="M446.5,128.3l13.5-13.5c1.2-1.2,1.2-3.2,0-4.4l-13.5-13.5c-2-2-5.3-0.6-5.3,2.2v6.9h-19.5
			c-1.8,0-3.2,1.4-3.2,3.2v6.9c0,1.8,1.4,3.2,3.2,3.2h19.5v6.9C441.2,128.9,444.6,130.3,446.5,128.3z"/>
		<path fill="#FF1900" d="M612.8,128.3l13.5-13.5c1.2-1.2,1.2-3.2,0-4.4l-13.5-13.5c-2-2-5.3-0.6-5.3,2.2v6.9h-19.5
			c-1.8,0-3.2,1.4-3.2,3.2v6.9c0,1.8,1.4,3.2,3.2,3.2h19.5v6.9C607.5,128.9,610.9,130.3,612.8,128.3z"/>
		<path fill="#FF1900" d="M365.8,213.9h-36.4c-2.1,0-3.8,1.7-3.8,3.8c0,2.1,1.7,3.8,3.8,3.8h1v7.9c0,1.8,1.4,3.2,3.2,3.2
			c1.3,0,2.5-0.8,3-2v-2.5c0-0.9,0.8-1.7,1.7-1.7s1.7,0.8,1.7,1.7v2c0.3,1.4,1.6,2.5,3.1,2.5c1.8,0,3.2-1.4,3.2-3.2v-7.9h19.5
			c0.3,8,6.9,14.4,15,14.4h0c8.3,0,15-6.8,15-15v-6.3c0-8.3-6.8-15-15-15h0C372.7,199.6,366.1,206,365.8,213.9z M388.2,214.6v6.3
			c0,4.1-3.3,7.5-7.5,7.5c-4.1,0-7.5-3.3-7.5-7.5v-6.3c0-4.1,3.3-7.5,7.5-7.5S388.2,210.5,388.2,214.6z"/>
		<g>
			<g>
				<path fill="#3C3C3B" d="M56.3,121.8c-2.3,3.5-5.8,6.5-10.6,6.3c-5.3-0.2-9.3-3.8-11.6-6.4l3.2,28.7H53L56.3,121.8z"/>
				<path fill="#3C3C3B" d="M78.4,140.2c-0.1-1.5-0.2-3.1-0.2-4.8c-0.4-9.1-1.7-14.7-7.5-18.7c-2.6-1.8-6.7-2.4-10.2-3
					c-2.5-0.4-6.2-1-6.4-1.9c-0.3-1.2-0.6-2.6-0.8-3.8c1.3-1,2.8-2.2,4-3.9c0.1,0.4,0.3,0.9,0.6,1.5c0.5,1.3,2.2-5.6,2.8-5.5
					c0.7,0,1.5,1.8,2.7,2.2c0.7,0.3,0.4-5.6,0.1-6.6C63,94.2,62.1,93,64,93.5c1.2,0.3,3.8,2.7,3.8,1.8c0.1-2.5-3.4-8-2.8-8.8
					c0.6-0.8,2,1,3,1c1,0-2.4-4.7-2.6-6.1c-0.2-1.4,3,1.4,3,1.4s-0.4-2.5-2.8-4.7c-2.4-2.3-5.8-4.7-5.6-6.3c0.2-1.6,5.2-1.4,6.8-1.6
					c1.6-0.2-4.8-3.9-8.8-4.5c-4-0.6-9.6,2.5-9.6,2.5l-0.3,0.3c-0.3-0.3-0.7-0.6-1.3-0.7c0,0-10.8-2.5-17.2,0.4
					c-6.4,2.9-9,7-7.2,5.7c1.8-1.2,4.4-1.6,3.8-0.4c-0.6,1.2-8.1,11.7-6.6,14.5c0.3,0.6,0.9-0.9,1.9-1.8c0.7-0.6,3.3-2.7,2.9-0.8
					c-0.4,1.8-4.4,7.8-3.2,12.5c1.2,4.7,2-3.5,2.8-3.9c0.8-0.4,0,6.3,0.8,6.8c0.8,0.4,0.6-3.9,1.4-3.3c0.8,0.6,1.4,9,2.2,8.8
					c0.8-0.2,0-5.9,1-4.7c1,1.2,6,5.7,6.6,5.5c0.1,0,0-0.8-0.3-1.9c0.9,1,1.8,1.9,2.7,2.5c-0.3,1.3-0.6,2.8-0.9,4.1
					c-0.2,0.9-3.9,1.5-6.4,1.9c-3.6,0.6-7.6,1.2-10.2,3c-4.7,3.2-7.5,7.3-7.9,18.7c-0.3,6.2-0.2,11,0,14l0,1h22.7l-4-34.7l0,0l0,0
					c4.2-0.7,7.4-1.2,8-3.5c0.2-1.1,0.5-2.2,0.7-3.3c0.3,0.2,0.6,0.4,0.9,0.5c0.9,0.5,2.7,1.3,4.6,1.3c0.1,0,0.1,0,0.2,0
					c2,0.1,3.9-0.8,4.8-1.3c0.1-0.1,0.3-0.1,0.4-0.2c0.2,1,0.4,2,0.7,3c0.5,2.1,3.2,2.7,6.8,3.3l-0.3,1.8l-3.8,33.1h24l0-1
					C78.7,147.1,78.6,144.1,78.4,140.2z M49.8,107.6c-0.6,0.3-2.1,1-3.6,1c-0.1,0-0.2,0-0.2,0c-1.5,0-3-0.7-3.6-1
					c-2-1.1-5.6-3.5-7.3-7.5c-0.5-1.1-1.4-3.6-2-6.9c-0.2-1.9-0.2-3.7,0.1-5c1.4-5.5,5.4-11.3,8.6-12.7c1.6-0.7,3.2-1.8,4.4-2.8
					c0.4,0.9,1.2,2.2,2.8,3.7c2.1,1.9,5.8,2,8.6,10c1.1,3.1,1.2,6.3,0.9,9c-0.5,2.2-1.2,3.9-1.5,4.7
					C55.4,104.1,51.8,106.5,49.8,107.6z"/>
			</g>
			<ellipse fill="#3C3C3B" cx="39.2" cy="90.7" rx="1.7" ry="1.9"/>
			<ellipse fill="#3C3C3B" cx="52.6" cy="90.7" rx="1.7" ry="1.9"/>
			<g>
				<path fill="#3C3C3B" d="M45.9,104.3c-1.7-0.1-3.2-0.9-3.2-0.9s-1-0.6-0.2-1c0.8-0.4,3.4-0.1,3.4-0.1s2.6-0.3,3.4,0.1
					c0.8,0.4-0.2,1-0.2,1S47.6,104.2,45.9,104.3z"/>
			</g>
		</g>
		<g>
			<path fill="#3C3C3B" d="M344.9,175.7v-9.3h5.5v1.7h-3.5v2.5h3v1.7h-3v3.5H344.9z"/>
			<path fill="#3C3C3B" d="M352.1,166.4h2v9.3h-2V166.4z"/>
			<path fill="#3C3C3B" d="M359.5,166.4c2.1,0,3.2,0.8,3.2,2.7c0,1.6-0.9,2.4-2,2.6v0.1c0.5,0.2,0.8,0.6,1.2,1.4l1.4,2.6H361l-1.5-3
				c-0.2-0.3-0.4-0.4-0.8-0.4h-0.1v3.5h-2v-9.3H359.5z M358.4,170.7h0.8c1.1,0,1.4-0.5,1.4-1.3c0-0.8-0.5-1.2-1.4-1.2h-0.8V170.7z"
				/>
			<path fill="#3C3C3B" d="M368.5,173.3c0-1.5-4.3-1.3-4.3-4.2c0-1.5,1.4-2.7,3.3-2.7c1.6,0,2.5,0.7,2.8,1.1l-1.3,1.5
				c-0.2-0.3-0.8-0.9-1.7-0.9c-0.7,0-1,0.4-1,0.8c0,1.5,4.3,1.3,4.3,4.2c0,1.4-1.2,2.7-3.5,2.7c-1.8,0-2.9-0.8-3.2-1.2l1.2-1.7
				c0.4,0.4,1.2,1.1,2.3,1.1C368.1,174.2,368.5,173.8,368.5,173.3z"/>
			<path fill="#3C3C3B" d="M373.1,168.1h-2.3v-1.7h6.7v1.7h-2.3v7.6h-2V168.1z"/>
			<path fill="#3C3C3B" d="M351.6,189.4h-2v-9.3h2V189.4z M354.4,180.1h2.3l-2.9,4.5l3.2,4.8h-2.5l-2.9-4.7v-0.1L354.4,180.1z"/>
			<path fill="#3C3C3B" d="M358.1,189.4v-9.3h5.5v1.7h-3.5v2.1h3v1.7h-3v2.2h3.7v1.7H358.1z"/>
			<path fill="#3C3C3B" d="M369.7,186.4v3h-2v-3l-3.1-6.3h2.3l1.9,4.3h0.1l1.9-4.3h2.2L369.7,186.4z"/>
		</g>
		<g>
			<path fill="#3C3C3B" d="M502.7,173.3c0-1.5-4.3-1.3-4.3-4.2c0-1.5,1.4-2.7,3.3-2.7c1.6,0,2.5,0.7,2.8,1.1l-1.3,1.5
				c-0.2-0.3-0.8-0.9-1.7-0.9c-0.7,0-1,0.4-1,0.8c0,1.5,4.3,1.3,4.3,4.2c0,1.4-1.2,2.7-3.5,2.7c-1.8,0-2.9-0.8-3.2-1.2l1.2-1.7
				c0.4,0.4,1.2,1.1,2.3,1.1C502.3,174.2,502.7,173.8,502.7,173.3z"/>
			<path fill="#3C3C3B" d="M506.3,175.7v-9.3h5.5v1.7h-3.5v2.1h3v1.7h-3v2.2h3.7v1.7H506.3z"/>
			<path fill="#3C3C3B" d="M517.5,166.3c1.8,0,2.7,0.8,2.9,1.1l-1.3,1.5c-0.3-0.4-0.7-0.8-1.7-0.8c-1.2,0-1.9,0.9-1.9,3
				c0,1.9,0.7,3.1,2.1,3.1c0.9,0,1.4-0.5,1.7-0.8l1.1,1.4c-0.4,0.5-1.3,1.1-2.9,1.1c-2.9,0-4-1.9-4-4.7
				C513.3,168.3,514.7,166.3,517.5,166.3z"/>
			<path fill="#3C3C3B" d="M525,175.9c-2.3,0-3.8-1.2-3.8-4.7c0-3.4,1.6-4.8,3.9-4.8c2.3,0,3.8,1.3,3.8,4.7
				C528.9,174.4,527.2,175.9,525,175.9z M525.1,174.2c1.1,0,1.7-0.8,1.7-3.1c0-2.3-0.7-3.1-1.8-3.1c-1,0-1.7,0.7-1.7,3
				C523.3,173.4,524,174.2,525.1,174.2z"/>
			<path fill="#3C3C3B" d="M532.4,169c0.1,0.9,0.1,1.6,0.1,3.3v3.5h-1.9v-9.3h2.4l1.9,3.7c0.5,0.9,1,1.9,1.3,2.9h0.1
				c-0.1-1.3-0.1-2.6-0.1-3.6v-2.9h1.9v9.3h-2.4l-2-3.9C533.2,170.9,532.9,170,532.4,169L532.4,169z"/>
			<path fill="#3C3C3B" d="M540.3,166.4h2.9c3,0,4.4,1.5,4.4,4.4c0,2.4-0.9,4.9-4.4,4.9h-2.9V166.4z M542.3,174.1h0.7
				c1.9,0,2.4-1.2,2.4-3c0-2.2-1-3-2.5-3h-0.7V174.1z"/>
			<path fill="#3C3C3B" d="M513.8,189.4h-2v-9.3h2V189.4z M516.7,180.1h2.3l-2.9,4.5l3.2,4.8h-2.5l-2.9-4.7v-0.1L516.7,180.1z"/>
			<path fill="#3C3C3B" d="M520.4,189.4v-9.3h5.5v1.7h-3.5v2.1h3v1.7h-3v2.2h3.7v1.7H520.4z"/>
			<path fill="#3C3C3B" d="M532,186.4v3h-2v-3l-3.1-6.3h2.3l1.9,4.3h0.1l1.9-4.3h2.2L532,186.4z"/>
		</g>
		<g>
			<path fill="#4D4D4D" d="M39.8,172.8v3h-2v-3l-3.1-6.3h2.3l1.9,4.3h0.1l1.9-4.3h2.2L39.8,172.8z"/>
			<path fill="#4D4D4D" d="M47.3,175.9c-2.3,0-3.8-1.2-3.8-4.7c0-3.4,1.6-4.8,3.9-4.8c2.3,0,3.8,1.3,3.8,4.7
				C51.2,174.4,49.6,175.9,47.3,175.9z M47.4,174.2c1.1,0,1.7-0.8,1.7-3.1c0-2.3-0.7-3.1-1.8-3.1c-1,0-1.7,0.7-1.7,3
				C45.6,173.4,46.3,174.2,47.4,174.2z"/>
			<path fill="#4D4D4D" d="M58.1,172.4v-5.9h2v5.6c0,2.8-1.7,3.8-3.8,3.8c-2.4,0-3.4-1.4-3.4-3.4v-6.1h2v5.7c0,1.3,0.5,2.1,1.7,2.1
				C57.5,174.2,58.1,173.7,58.1,172.4z"/>
		</g>
		<g>
			<g>
				<path fill="#3C3C3B" d="M371.3,371c-2.3,3.5-5.8,6.5-10.6,6.3c-5.3-0.2-9.3-3.8-11.6-6.4l3.2,28.7h15.6L371.3,371z"/>
				<path fill="#3C3C3B" d="M393.3,389.4c-0.1-1.5-0.2-3.1-0.2-4.8c-0.4-9.1-1.7-14.7-7.5-18.7c-2.6-1.8-6.7-2.4-10.2-3
					c-2.5-0.4-6.2-1-6.4-1.9c-0.3-1.2-0.6-2.6-0.8-3.8c1.3-1,2.8-2.2,4-3.9c0.1,0.4,0.3,0.9,0.6,1.5c0.5,1.3,2.2-5.6,2.8-5.5
					c0.7,0,1.5,1.8,2.7,2.2c0.7,0.3,0.4-5.6,0.1-6.6c-0.4-1.6-1.3-2.8,0.6-2.3c1.2,0.3,3.8,2.7,3.8,1.8c0.1-2.5-3.4-8-2.8-8.8
					c0.6-0.8,2,1,3,1c1,0-2.4-4.7-2.6-6.1c-0.2-1.4,3,1.4,3,1.4s-0.4-2.5-2.8-4.7c-2.4-2.3-5.8-4.7-5.6-6.3c0.2-1.6,5.2-1.4,6.8-1.6
					c1.6-0.2-4.8-3.9-8.8-4.5c-4-0.6-9.6,2.5-9.6,2.5l-0.3,0.3c-0.3-0.3-0.7-0.6-1.3-0.7c0,0-10.8-2.5-17.2,0.4
					c-6.4,2.9-9,7-7.2,5.7c1.8-1.2,4.4-1.6,3.8-0.4c-0.6,1.2-8.1,11.7-6.6,14.5c0.3,0.6,0.9-0.9,1.9-1.8c0.7-0.6,3.3-2.7,2.9-0.8
					c-0.4,1.8-4.4,7.8-3.2,12.5c1.2,4.7,2-3.5,2.8-3.9c0.8-0.4,0,6.3,0.8,6.8c0.8,0.4,0.6-3.9,1.4-3.3c0.8,0.6,1.4,9,2.2,8.8
					c0.8-0.2,0-5.9,1-4.7c1,1.2,6,5.7,6.6,5.5c0.1,0,0-0.8-0.3-1.9c0.9,1,1.8,1.9,2.7,2.5c-0.3,1.3-0.6,2.8-0.9,4.1
					c-0.2,0.9-3.9,1.5-6.4,1.9c-3.6,0.6-7.6,1.2-10.2,3c-4.7,3.2-7.5,7.3-7.9,18.7c-0.3,6.2-0.2,11,0,14l0,1h22.7l-4-34.7l0,0l0,0
					c4.2-0.7,7.4-1.2,8-3.5c0.2-1.1,0.5-2.2,0.7-3.3c0.3,0.2,0.6,0.4,0.9,0.5c0.9,0.5,2.7,1.3,4.6,1.3c0.1,0,0.1,0,0.2,0
					c2,0.1,3.9-0.8,4.8-1.3c0.1-0.1,0.3-0.1,0.4-0.2c0.2,1,0.4,2,0.7,3c0.5,2.1,3.2,2.7,6.8,3.3l-0.3,1.8l-3.8,33.1h24l0-1
					C393.6,396.3,393.5,393.3,393.3,389.4z M364.7,356.8c-0.6,0.3-2.1,1-3.6,1c-0.1,0-0.2,0-0.2,0c-1.5,0-3-0.7-3.6-1
					c-2-1.1-5.6-3.5-7.3-7.5c-0.5-1.1-1.4-3.6-2-6.9c-0.2-1.9-0.2-3.7,0.1-5c1.4-5.5,5.4-11.3,8.6-12.7c1.6-0.7,3.2-1.8,4.4-2.8
					c0.4,0.9,1.2,2.2,2.8,3.7c2.1,1.9,5.8,2,8.6,10c1.1,3.1,1.2,6.3,0.9,9c-0.5,2.2-1.2,3.9-1.5,4.7
					C370.4,353.3,366.7,355.7,364.7,356.8z"/>
			</g>
			<ellipse fill="#3C3C3B" cx="354.1" cy="339.9" rx="1.7" ry="1.9"/>
			<ellipse fill="#3C3C3B" cx="367.5" cy="339.9" rx="1.7" ry="1.9"/>
			<g>
				<path fill="#3C3C3B" d="M360.8,353.5c-1.7-0.1-3.2-0.9-3.2-0.9s-1-0.6-0.2-1c0.8-0.4,3.4-0.1,3.4-0.1s2.6-0.3,3.4,0.1
					c0.8,0.4-0.2,1-0.2,1S362.5,353.4,360.8,353.5z"/>
			</g>
		</g>
		<g>
			<path fill="#4D4D4D" d="M352.6,424.6v3h-2v-3l-3.1-6.3h2.3l1.9,4.3h0.1l1.9-4.3h2.2L352.6,424.6z"/>
			<path fill="#4D4D4D" d="M360.1,427.7c-2.3,0-3.8-1.2-3.8-4.7c0-3.4,1.6-4.8,3.9-4.8c2.3,0,3.8,1.3,3.8,4.7
				C364,426.3,362.4,427.7,360.1,427.7z M360.2,426c1.1,0,1.7-0.8,1.7-3.1c0-2.3-0.7-3.1-1.8-3.1c-1,0-1.7,0.7-1.7,3
				C358.4,425.2,359.1,426,360.2,426z"/>
			<path fill="#4D4D4D" d="M370.9,424.2v-5.9h2v5.6c0,2.8-1.7,3.8-3.8,3.8c-2.4,0-3.4-1.4-3.4-3.4v-6.1h2v5.7c0,1.3,0.5,2.1,1.7,2.1
				C370.3,426,370.9,425.5,370.9,424.2z"/>
		</g>
		<g>
			<path fill="#999999" d="M251.2,427.7c-2.3,0-3.8-1.2-3.8-4.7c0-3.4,1.6-4.8,3.9-4.8c2.3,0,3.8,1.3,3.8,4.7
				C255.1,426.3,253.5,427.7,251.2,427.7z M251.3,426c1.1,0,1.7-0.8,1.7-3.1c0-2.3-0.7-3.1-1.8-3.1c-1,0-1.7,0.7-1.7,3
				C249.5,425.2,250.2,426,251.3,426z"/>
			<path fill="#999999" d="M263.2,421c0,1.7-0.9,3.2-3.6,3.2h-0.8v3.3h-2v-9.3h3.2C261.9,418.3,263.2,419,263.2,421z M258.8,420v2.6
				h0.7c1.4,0,1.6-0.6,1.6-1.3c0-0.9-0.5-1.3-1.5-1.3H258.8z"/>
			<path fill="#999999" d="M266,419.9h-2.3v-1.7h6.7v1.7h-2.3v7.6h-2V419.9z"/>
			<path fill="#999999" d="M271.6,418.3h2v9.3h-2V418.3z"/>
			<path fill="#999999" d="M279.2,427.7c-2.3,0-3.8-1.2-3.8-4.7c0-3.4,1.6-4.8,3.9-4.8c2.3,0,3.8,1.3,3.8,4.7
				C283.1,426.3,281.5,427.7,279.2,427.7z M279.3,426c1.1,0,1.7-0.8,1.7-3.1c0-2.3-0.7-3.1-1.8-3.1c-1,0-1.7,0.7-1.7,3
				C277.5,425.2,278.2,426,279.3,426z"/>
			<path fill="#999999" d="M286.6,420.8c0.1,0.9,0.1,1.6,0.1,3.3v3.5h-1.9v-9.3h2.4l1.9,3.7c0.5,0.9,1,1.9,1.3,2.9h0.1
				c-0.1-1.3-0.1-2.6-0.1-3.6v-2.9h1.9v9.3H290l-2-3.9C287.5,422.7,287.1,421.8,286.6,420.8L286.6,420.8z"/>
			<path fill="#999999" d="M299.3,418.3l2.8,9.3H300l-0.6-2.1h-3.1l-0.6,2.1h-2l2.8-9.3H299.3z M296.7,423.8h2.2l-0.4-1.3
				c-0.4-1.3-0.5-2-0.7-2.8h-0.1c-0.2,0.8-0.4,1.6-0.7,2.7L296.7,423.8z"/>
			<path fill="#999999" d="M305.4,418.3v7.6h3.4v1.7h-5.5v-9.3H305.4z"/>
		</g>
		<g>
			<path fill="#999999" d="M159.5,420.8c0.1,0.9,0.1,1.6,0.1,3.3v3.5h-1.9v-9.3h2.4l1.9,3.7c0.5,0.9,1,1.9,1.3,2.9h0.1
				c-0.1-1.3-0.1-2.6-0.1-3.6v-2.9h1.9v9.3h-2.4l-2-3.9C160.3,422.7,159.9,421.8,159.5,420.8L159.5,420.8z"/>
			<path fill="#999999" d="M170.7,427.7c-2.3,0-3.8-1.2-3.8-4.7c0-3.4,1.6-4.8,3.9-4.8c2.3,0,3.8,1.3,3.8,4.7
				C174.6,426.3,172.9,427.7,170.7,427.7z M170.8,426c1.1,0,1.7-0.8,1.7-3.1c0-2.3-0.7-3.1-1.8-3.1c-1,0-1.7,0.7-1.7,3
				C169,425.2,169.7,426,170.8,426z"/>
			<path fill="#999999" d="M177.4,419.9h-2.3v-1.7h6.7v1.7h-2.3v7.6h-2V419.9z"/>
			<path fill="#999999" d="M190.7,424.6v3h-2v-3l-3.1-6.3h2.3l1.9,4.3h0.1l1.9-4.3h2.2L190.7,424.6z"/>
			<path fill="#999999" d="M198.2,427.7c-2.3,0-3.8-1.2-3.8-4.7c0-3.4,1.6-4.8,3.9-4.8c2.3,0,3.8,1.3,3.8,4.7
				C202.2,426.3,200.5,427.7,198.2,427.7z M198.3,426c1.1,0,1.7-0.8,1.7-3.1c0-2.3-0.7-3.1-1.8-3.1c-1,0-1.7,0.7-1.7,3
				C196.5,425.2,197.2,426,198.3,426z"/>
			<path fill="#999999" d="M209,424.2v-5.9h2v5.6c0,2.8-1.7,3.8-3.8,3.8c-2.4,0-3.4-1.4-3.4-3.4v-6.1h2v5.7c0,1.3,0.5,2.1,1.7,2.1
				C208.5,426,209,425.5,209,424.2z"/>
		</g>
		<g>
			<path fill="#4D4D4D" d="M707.4,229.2c0,1.2-0.6,2.9-3.7,2.9h-3.1v-9.3h3.3c1.6,0,3,0.5,3,2.4c0,1-0.7,1.7-1.4,2v0.1
				C706.4,227.3,707.4,227.9,707.4,229.2z M703.7,224.4h-1.1v2.1h1c1,0,1.4-0.5,1.4-1C705,224.8,704.6,224.4,703.7,224.4z
				 M705.3,229.2c0-0.8-0.7-1.1-1.4-1.1h-1.3v2.2h1.4C705,230.3,705.3,229.8,705.3,229.2z"/>
			<path fill="#4D4D4D" d="M711.2,222.7v7.6h3.4v1.7h-5.5v-9.3H711.2z"/>
			<path fill="#4D4D4D" d="M719.2,232.2c-2.3,0-3.8-1.2-3.8-4.7c0-3.4,1.6-4.8,3.9-4.8c2.3,0,3.8,1.3,3.8,4.7
				C723.1,230.7,721.5,232.2,719.2,232.2z M719.3,230.5c1.1,0,1.7-0.8,1.7-3.1c0-2.3-0.7-3.1-1.8-3.1c-1,0-1.7,0.7-1.7,3
				C717.5,229.6,718.2,230.5,719.3,230.5z"/>
			<path fill="#4D4D4D" d="M728.5,222.6c1.8,0,2.7,0.8,2.9,1.1l-1.3,1.5c-0.3-0.4-0.7-0.8-1.7-0.8c-1.2,0-1.9,0.9-1.9,3
				c0,1.9,0.7,3.1,2.1,3.1c0.9,0,1.4-0.5,1.7-0.8l1.1,1.4c-0.4,0.5-1.3,1.1-2.9,1.1c-2.9,0-4-1.9-4-4.7
				C724.4,224.5,725.7,222.6,728.5,222.6z"/>
			<path fill="#4D4D4D" d="M734.7,232h-2v-9.3h2V232z M737.5,222.7h2.3l-2.9,4.5l3.2,4.8h-2.5l-2.9-4.7v-0.1L737.5,222.7z"/>
			<path fill="#4D4D4D" d="M744.6,222.6c1.8,0,2.7,0.8,2.9,1.1l-1.3,1.5c-0.3-0.4-0.7-0.8-1.7-0.8c-1.2,0-1.9,0.9-1.9,3
				c0,1.9,0.7,3.1,2.1,3.1c0.9,0,1.4-0.5,1.7-0.8l1.1,1.4c-0.4,0.5-1.3,1.1-2.9,1.1c-2.9,0-4-1.9-4-4.7
				C740.5,224.5,741.9,222.6,744.6,222.6z"/>
			<path fill="#4D4D4D" d="M756.3,222.7v9.3h-2v-3.8h-3.4v3.8h-2v-9.3h2v3.8h3.4v-3.8H756.3z"/>
			<path fill="#4D4D4D" d="M763.2,222.7l2.8,9.3h-2.1l-0.6-2.1h-3.1l-0.6,2.1h-2l2.8-9.3H763.2z M760.7,228.2h2.2l-0.4-1.3
				c-0.4-1.3-0.5-2-0.7-2.8h-0.1c-0.2,0.8-0.4,1.6-0.7,2.7L760.7,228.2z"/>
			<path fill="#4D4D4D" d="M767.4,222.7h2v9.3h-2V222.7z"/>
			<path fill="#4D4D4D" d="M773.5,225.2c0.1,0.9,0.1,1.6,0.1,3.3v3.5h-1.9v-9.3h2.4l1.9,3.7c0.5,0.9,1,1.9,1.3,2.9h0.1
				c-0.1-1.3-0.1-2.6-0.1-3.6v-2.9h1.9v9.3h-2.4l-2-3.9C774.3,227.2,773.9,226.3,773.5,225.2L773.5,225.2z"/>
		</g>
		<g>
			<path fill="#4D4D4D" d="M614.7,427.6h-2v-9.3h2V427.6z M617.5,418.3h2.3l-2.9,4.5l3.2,4.8h-2.5l-2.9-4.7v-0.1L617.5,418.3z"/>
			<path fill="#4D4D4D" d="M621.2,427.6v-9.3h5.5v1.7h-3.5v2.1h3v1.7h-3v2.2h3.7v1.7H621.2z"/>
			<path fill="#4D4D4D" d="M628.7,427.6v-9.3h5.5v1.7h-3.5v2.1h3v1.7h-3v2.2h3.7v1.7H628.7z"/>
			<path fill="#4D4D4D" d="M642.6,421c0,1.7-0.9,3.2-3.6,3.2h-0.8v3.3h-2v-9.3h3.2C641.2,418.3,642.6,419,642.6,421z M638.2,420v2.6
				h0.7c1.4,0,1.6-0.6,1.6-1.3c0-0.9-0.5-1.3-1.5-1.3H638.2z"/>
			<path fill="#4D4D4D" d="M644.1,427.6v-9.3h5.5v1.7h-3.5v2.1h3v1.7h-3v2.2h3.7v1.7H644.1z"/>
			<path fill="#4D4D4D" d="M654.6,418.3c2.1,0,3.2,0.8,3.2,2.7c0,1.6-0.9,2.4-2,2.6v0.1c0.5,0.2,0.8,0.6,1.2,1.4l1.4,2.6h-2.4
				l-1.5-3c-0.2-0.3-0.4-0.4-0.8-0.4h-0.1v3.5h-2v-9.3H654.6z M653.6,422.5h0.8c1.1,0,1.4-0.5,1.4-1.3c0-0.8-0.5-1.2-1.4-1.2h-0.8
				V422.5z"/>
			<path fill="#4D4D4D" d="M663.7,425.1c0-1.5-4.3-1.3-4.3-4.2c0-1.5,1.4-2.7,3.3-2.7c1.6,0,2.5,0.7,2.8,1.1l-1.3,1.5
				c-0.2-0.3-0.8-0.9-1.7-0.9c-0.7,0-1,0.4-1,0.8c0,1.5,4.3,1.3,4.3,4.2c0,1.4-1.2,2.7-3.5,2.7c-1.8,0-2.9-0.8-3.2-1.2l1.2-1.7
				c0.4,0.4,1.2,1.1,2.3,1.1C663.3,426,663.7,425.6,663.7,425.1z"/>
		</g>
		<g>
			<g>
				<ellipse fill="#3C3C3B" cx="747.7" cy="375.8" rx="0.7" ry="0.9"/>
				<ellipse fill="#3C3C3B" cx="753.2" cy="375.8" rx="0.7" ry="0.9"/>
				<path fill="#3C3C3B" d="M748.3,380.2c0.1,0.6,0.6,1.1,1.4,1.3c0.1,0,0.1,0,0.2,0c0.2,0,0.4,0.1,0.6,0.1s0.4,0,0.6-0.1
					c0.1,0,0.1,0,0.1,0c0.7-0.2,1.3-0.7,1.4-1.3H748.3z M750.4,381c-0.4,0-1-0.1-1.2-0.5h2.3C751.4,381,750.7,381,750.4,381z"/>
				<path fill="#3C3C3B" d="M763,390.7c-0.6-2.4-2.4-4.1-3.7-4.7c-0.6-0.3-1.6-0.5-2.4-0.6c0,0-1.9-0.3-1.9-0.3s-1.1-0.1-1.3-0.3
					v-1.9c0.4-0.3,0.9-0.6,1.3-1.1l0.9,0.1c0.4-0.4,1.4-2.9,1.4-2.9l0.3,1.2c0,0,0.5-0.7,1.1-3c0.5-2.3-0.3-3.8-0.3-3.8
					s1.5,0.9,1.6,0.7c0.1-0.2-0.7-1.3-1.1-2.1c-0.5-1-1.1-2.9-2.2-4.5c-1.6-2.2-6.1-2.3-6.1-2.3s-4.5,0-6.1,2.3
					c-1.1,1.6-1.7,3.5-2.2,4.5c-0.4,0.8-1.2,1.9-1.1,2.1c0.1,0.2,1.6-0.7,1.6-0.7s-0.9,1.5-0.3,3.8c0.5,2.3,1.1,3,1.1,3l0.3-1.2
					c0,0,0.9,2.5,1.4,2.9l1-0.1c0.3,0.4,0.7,0.7,1.1,1c0,0,0,0,0,0v2.1l-0.6,0.1c0,0-4,0.6-4.8,0.9c-1.6,0.6-3.7,2.9-4.2,5.3
					c-0.3,1.5-0.2,4.3-0.1,6.3c0,0.8,0,1.5,0.1,2.1h0.1h0h8.2l-1.6-6.6l1.6-1.2l-1.9-0.9c-0.1-1.3,0.3-2.7,0.7-3.8
					c0.1-0.3,0.2-0.6,0.3-0.8l0.6-0.1l1.1-0.2c0,0.5,0.1,1.6,0.2,2.8c0,0.5,0.1,1.1,0.2,1.6c0.2,4.2,0.5,9.3,0.5,9.3h6.2
					c0,0,0.3-5,0.5-9.2c0,0,0,0,0-0.1c0.1-0.5,0.1-0.9,0.1-1.4c0.1-1.3,0.2-2.5,0.2-3.1l1,0.1l0.6,0.1c0.2,0.4,0.4,1,0.6,1.6
					c0.3,1,0.6,2.2,0.6,3.3l-1.9,0.9l1.6,1.2l-1.6,6.6h8.3h0.2C763.5,399.7,763.6,393,763,390.7z M753.1,389.4
					c-2.2,0.7-4.1,0.5-5.7-0.1c-0.1-1.4-0.2-2.8-0.3-3.4l0.4-0.1c0.2,0,0.4-0.2,0.4-0.4v-2c0.2,0.1,0.3,0.2,0.5,0.2
					c0.4,0.2,1.2,0.5,2,0.5c0,0,0,0,0.1,0c0.8,0,1.6-0.3,2-0.5c0.1,0,0.2-0.1,0.3-0.1v1.9c0,0.2,0.2,0.4,0.4,0.4l0.2,0
					C753.3,386.4,753.3,387.9,753.1,389.4z M753,382.3c-0.3,0.2-0.6,0.4-0.8,0.5c-0.3,0.1-1,0.4-1.7,0.4c-0.7,0-1.4-0.3-1.6-0.4
					c-0.2-0.1-0.5-0.3-0.8-0.5c-0.3-0.2-0.6-0.4-0.8-0.6c-0.6-0.5-1.2-1.2-1.5-2c-0.3-0.7-1-2.5-1.1-4.8c0-0.1,0-0.2,0-0.3
					c0-0.2,0.1-0.4,0.1-0.6c0.5-1.7,1.5-2.4,1.5-2.4s2.6,1.6,5.3,2.5c1.9,0.7,3.9,1,4.9,1.1c-0.2,2.2-0.8,3.9-1.1,4.5
					c-0.4,0.8-0.9,1.5-1.5,2C753.5,382,753.2,382.2,753,382.3z"/>
			</g>
			<g>
				<path fill="#3C3C3B" d="M578.1,393.5c-0.2-4.7-1.3-6.3-3.3-7.7c-0.8-0.6-2-0.9-3.1-1.1c0.1-1,0-2.5-0.3-3.7
					c-0.3-1.1-0.8-1.7-1.2-2c0.1-0.3,0.2-0.7,0.4-1.1c0.2-0.1,0.4-0.2,0.6-0.4c0.4-0.4,0.8-1,0.7-2.4c0-0.5-0.2-0.8-0.6-1.1
					c0,0,0,0,0,0c0.4-0.6,0.9-1.8,0.6-4.1c-0.2-1.3-0.6-2.3-1.3-3c0.1-1-0.9-3.5-3.6-3.6c-1.2-0.1-2.9,0.2-3.9,0.8
					c-0.7,0.4-0.9,0.9-0.9,1.4c-1.5,0.3-2.3,0.9-3.3,2c-2,2.4-1.2,4.6-0.5,5.8c0,0.2,0,0.4,0,0.6c-0.5,0.3-0.8,0.7-0.8,1.2
					c-0.1,1.4,0.3,2,0.7,2.4c0.2,0.2,0.6,0.3,0.8,0.4c0.1,0.4,0.3,0.9,0.4,1.3c0.5,1.3,1.4,2.2,2.2,2.8c-0.1,0.5-0.2,1.1-0.4,1.7
					c-0.1,0.4-1.6,0.6-2.6,0.8c-1.5,0.2-3.1,0.5-4.2,1.2c-1.9,1.3-3,3-3.3,7.7c-0.1,2.5-0.1,4.5,0,5.7l0,0.4h26.8l0-0.4
					C578.1,398,578.2,396,578.1,393.5z M567.5,368c1.5,0.3,2.3,3.3,2.8,5.2c0,0.3,0,0.6,0,1c0,0-0.1,0.1-0.1,0.1
					c-0.2,0.1-0.4,0-0.4,0s-0.5-0.4-0.9-0.6c-0.5-0.2-0.9-0.2-1.4-0.2c-0.7,0-1.6,0.2-2,0.4c-0.1,0-0.3,0.2-0.3,0.2l-0.6,0l-0.6,0
					c0,0-0.2-0.1-0.3-0.2c-0.4-0.2-1.2-0.4-2-0.4c-0.5,0-0.9,0.1-1.4,0.2c-0.5,0.2-0.9,0.6-0.9,0.6s-0.2,0-0.3-0.1
					c0-0.1,0-0.1,0-0.2C560.6,372.6,565.6,367.6,567.5,368z M569.4,375.3c-0.2,0.3-0.7,0.9-1.9,0.9c-1.3,0-1.8-0.5-2-1.1
					c-0.2-0.6,0.1-0.9,0.3-1c0.2-0.1,1.5-0.7,2.9-0.3c0,0,0.5,0.1,0.7,0.4C569.6,374.4,569.6,375,569.4,375.3z M563.9,375.1
					c-0.2,0.6-0.8,1.1-2,1.1c-1.2,0-1.8-0.6-1.9-0.9c-0.2-0.3-0.2-0.8,0-1.1c0.2-0.3,0.7-0.4,0.7-0.4c1.4-0.4,2.7,0.2,2.9,0.3
					C563.9,374.2,564.1,374.5,563.9,375.1z M560.3,379c-0.2-0.4-0.3-0.9-0.5-1.4l-0.1-0.3l-0.3,0c-0.2,0-0.5-0.1-0.6-0.2
					c-0.3-0.3-0.5-0.7-0.4-1.7c0-0.4,0.3-0.5,0.5-0.6l0.2-0.1l0.1-0.1c0,0,0.1,0,0.1,0.1c0.1,0,0.1,0.1,0.2,0.2
					c0.1,0.1,0.3,0.6,0.6,0.9c0.2,0.2,0.8,0.5,1.4,0.6c0.9,0.1,1.7,0,2.3-0.4c0.7-0.5,0.6-1.1,0.6-1.3c0-0.1,0.1-0.2,0.2-0.3
					c0.1,0,0.3-0.1,0.3-0.1s0.2,0,0.3,0.1s0.1,0.1,0.2,0.3c0,0.2,0,0.7,0.6,1.3c0.5,0.4,1.4,0.5,2.3,0.4c0.6-0.1,1.1-0.4,1.4-0.6
					c0.3-0.3,0.5-0.8,0.6-0.9c0.1-0.1,0.1-0.2,0.2-0.2c0,0,0.1-0.1,0.2-0.1l0,0.1c0,0,0.1,0,0.2,0.1c0.4,0.2,0.4,0.4,0.4,0.5
					c0.1,1.1-0.2,1.4-0.4,1.7c-0.1,0-0.3,0.1-0.4,0.2l-0.2,0.1l-0.1,0.2c-0.1,0.5-0.3,1-0.5,1.5c-0.4,1-1.1,1.8-1.8,2.3
					c-0.1,0.1-0.3,0.2-0.4,0.3c-0.1,0.1-0.3,0.2-0.4,0.3c-0.1,0.1-0.3,0.2-0.4,0.2c-0.2,0.1-0.9,0.4-1.5,0.4c0,0,0,0,0,0
					c-0.6,0-1.2-0.3-1.5-0.4c-0.2-0.1-0.4-0.2-0.6-0.4c-0.1-0.1-0.3-0.2-0.4-0.3c-0.1-0.1-0.3-0.2-0.4-0.3
					C561.2,380.6,560.6,379.9,560.3,379z M565.4,390c-4.3-0.2-6.4-3.3-7.5-4.3c0.3-0.1,0.6-0.1,0.9-0.1c1.7-0.3,3.1-0.5,3.4-1.5
					c0.1-0.4,0.2-0.9,0.3-1.4c0.1,0.1,0.3,0.1,0.4,0.2c0.4,0.2,1.1,0.5,1.9,0.5c0,0,0,0,0.1,0c0.8,0,1.5-0.3,1.9-0.5
					c0.1,0,0.1-0.1,0.2-0.1c0.1,0.4,0.2,0.8,0.3,1.2c0,0.1,0.1,0.3,0.2,0.4c-0.1,1.1-0.8,3.1-1.1,4c-0.1,0.2-0.1,0.5,0.3,0.3
					c0.8-0.2,1.9-1.7,2.3-2.2c0,0,0,0,0,0c0,0.9-0.4,1.9-0.6,2.4c0,0.1,0.1,0.1,0.1,0.1c0.7-0.8,1.3-2.4,1.6-3.6
					c0.2,0,0.3,0,0.5,0.1c0.1,0.7,0,1.3,0,1.4c0,0.2,0.5-0.2,0.9-1.1c0,0,0-0.1,0.1-0.1c0.3,0.1,0.6,0.1,0.9,0.2
					C571.4,387,569.3,390.2,565.4,390z"/>
				<ellipse fill="#3C3C3B" cx="561.9" cy="375.2" rx="0.7" ry="0.8"/>
				<ellipse fill="#3C3C3B" cx="567.4" cy="375.2" rx="0.7" ry="0.8"/>
				<path fill="#3C3C3B" d="M562.6,379.3c0.1,0.7,0.8,1.2,1.6,1.4c0.2,0,0.3,0.1,0.5,0.1c0.2,0,0.4,0,0.5-0.1
					c0.8-0.2,1.5-0.7,1.6-1.4H562.6z M564.7,380.2c-0.4,0-1-0.1-1.2-0.5h2.3C565.6,380.1,564.9,380.1,564.7,380.2z"/>
			</g>
			<g>
				<polygon fill="#3C3C3B" points="693.6,374.7 693.6,374.7 693.6,374.7 				"/>
				<ellipse fill="#3C3C3B" cx="684.5" cy="375.1" rx="0.7" ry="0.8"/>
				<ellipse fill="#3C3C3B" cx="690" cy="375.1" rx="0.7" ry="0.8"/>
				<path fill="#3C3C3B" d="M686,380.3c0.2,0.2,0.6,0.4,1.3,0.4c0.7,0,1.1-0.2,1.3-0.4c0.2-0.2,0.8-0.8,0.4-0.7
					c-1.1,0.2-1.7,0.2-1.7,0.2s-0.6,0-1.7-0.2C685.2,379.5,685.7,380.1,686,380.3z"/>
				<path fill="#3C3C3B" d="M700.6,393.5c-0.2-4.6-1.4-6.3-3.3-7.7c-1.1-0.7-2.7-1-4.1-1.2c-0.1,0-0.3,0-0.4-0.1
					c-0.1-0.3-0.2-0.7-0.3-1c-0.5-1.3,1.4,0.8,1.6,0.7s-1.1-2.9-1.1-2.9s2.4,1.6,2.6,1.4c0.2-0.2-1.3-3.3-1.1-4.5
					c0.1-1,1.1-4.7,0.5-7.1c-0.8-6.8-7-6-9-5.8c-2,0.1-5.6,3.2-6,5.8c0,0,0,0.1,0,0.1c-0.3,0.9-1.2,4.1-1.6,7.3
					c-0.4,3.5-1,3.1-0.7,3.4s1.9-2.1,2.1-2.1c0.5,0.1,0.3,0.8-0.1,1.7c-0.4,0.9-0.9,2.3-0.7,2.4c0.1,0.1,1.4-1.6,1.9-1.8
					c0.4-0.1,0.9,1.4,1.1,2.3c-0.2,0-0.4,0.1-0.6,0.1c-1.5,0.2-3.1,0.5-4.2,1.2c-1.9,1.3-3,3-3.3,7.7c-0.1,2.5-0.1,4.5,0,5.7l0,0.4
					h26.8l0-0.4C700.6,398,700.7,396,700.6,393.5z M681.4,377.6c-0.2,0-0.3-0.1-0.4-0.2c-0.3-0.4-0.6-0.9-0.6-2.1
					c0-0.3,0.2-0.5,0.5-0.7c0.1-0.1,0.3-0.2,0.4-0.2c0.2-0.1,0.4-0.1,0.4-0.1c0,0,0,0,0,0c0-0.1,0-0.2,0-0.4
					c2.8-2.3,7.7-2.1,9.3-3.4c0.3-0.2,0.7-0.1,0.8,0.2l0.9,3c0,0.2,0,0.4,0,0.6c0,0,0,0,0,0c0.1,0,0.1,0,0.2,0.1
					c0.1,0,0.1,0,0.2,0.1c0.1,0.1,0.3,0.2,0.4,0.3c0,0,0,0,0,0c0,0,0,0,0,0c0.1,0.1,0.2,0.3,0.3,0.6c0.1,1.2-0.2,1.7-0.6,2.1
					c0,0-0.1,0.1-0.1,0.1c-0.1,0.1-0.3,0.2-0.5,0.2c-0.2,0-0.4,0-0.4,0l0,0c-0.1,0.6-0.3,0.9-0.4,1.4c-0.4,1-1.1,1.8-1.8,2.3
					c-0.1,0.1-0.3,0.2-0.4,0.3c-0.1,0.1-0.3,0.2-0.4,0.3c-0.1,0.1-0.3,0.2-0.4,0.2c-0.2,0.1-0.9,0.4-1.5,0.4c-0.6,0-1.3-0.3-1.5-0.4
					c-0.2-0.1-0.4-0.2-0.6-0.4c-0.1-0.1-0.3-0.2-0.4-0.3c-0.1-0.1-0.3-0.2-0.4-0.3c-0.6-0.5-1.2-1.2-1.6-2.1
					c-0.2-0.4-0.3-0.9-0.4-1.3c-0.1,0-0.2,0-0.5,0C681.7,377.7,681.6,377.7,681.4,377.6z M681.9,385.1c0,0,1,0,1.4,0
					c0.4,0,1.2-0.5,1.3-1.1c0.1-0.4,0.2-0.9,0.3-1.4c0.1,0.1,0.3,0.1,0.4,0.2c0.4,0.2,1.1,0.5,1.9,0.5c0,0,0,0,0.1,0
					c0.8,0,1.6-0.3,2-0.5c0.1,0,0.1-0.1,0.2-0.1c0.1,0.4,0.2,0.8,0.3,1.2c0.1,0.6,1.1,1.1,1.8,1.2c0.6,0,1.4,0,1.4,0l1.1,0
					c-0.1,0.1-0.1,0.2-0.2,0.3c-0.4,0.6-1.2,1.6-2.3,2.3c-0.2,0.1-4.2,2.6-8.3-1.3c-0.2-0.2-0.6-0.6-1-1c-0.1-0.1-0.1-0.1-0.2-0.2
					c0,0-0.1-0.1-0.1-0.1c-0.1-0.1-0.1-0.2-0.2-0.2L681.9,385.1z M687.9,390c-4.3-0.2-6.4-3.3-7.5-4.3c0.2,0,0.5-0.1,0.7-0.1
					c0.4,0.5,1,1.2,1.4,1.5c1.9,1.8,3.9,2.3,5.4,2.3c2.1,0,3.6-0.9,3.7-1c1.3-0.8,2.2-2.1,2.7-2.7c0.2,0,0.4,0.1,0.5,0.1
					C694,387,691.9,390.2,687.9,390z"/>
			</g>
			<g>
				<polygon fill="#3C3C3B" points="497.6,384.9 497.6,384.9 497.6,384.9 				"/>
				<polygon fill="#3C3C3B" points="503.3,383.8 503.3,383.8 503.3,383.8 				"/>
				<path fill="#3C3C3B" d="M519.2,393.8c-0.2-4.6-1.4-6.2-3.1-7.4c-1.2-0.8-4-1.2-6-1.6l-2.3-1.2c0-0.2,0-0.4,0-0.5
					c0-0.5-0.1-1-0.1-1.3c0.7-1,1.2-2.1,1.4-2.6c0.9-0.2,1.5-1.1,1.8-2.7c0.3-1.3-0.3-2.1-0.9-2.5c0.3-2.5-0.2-4.4-1.4-5.8
					c-1.9-2.1-4.9-2-5.3-1.9c-0.4,0-3.2-0.2-5.1,1.8c-1.3,1.3-1.8,3.3-1.6,5.9c-0.6,0.3-1.2,1.1-0.9,2.5c0.3,1.6,1,2.5,1.9,2.7
					c0.2,0.6,0.8,1.9,1.6,3c0,0.3-0.1,0.9-0.2,1.4c-0.3,0.2-2.1,1-2.1,1c-2,0.4-5.1,0.8-6.5,1.8c-1.7,1.2-2.9,2.8-3.1,7.4
					c-0.1,3-0.1,4.9,0,5.9h31.9C519.3,398.8,519.3,396.9,519.2,393.8z M498.8,368.7c1.3-1.4,3.3-1.5,4.1-1.5c0.2,0,0.3,0,0.3,0l0,0
					l0,0c0,0,2.9-0.2,4.6,1.7c1.1,1.2,1.5,2.9,1.2,5.2c-0.3,0.1-0.6,0.3-0.6,0.3c-0.2,0.1-0.4,0-0.4,0s-0.5-0.4-0.9-0.6
					c-0.5-0.2-0.9-0.2-1.4-0.2c-0.7,0-1.6,0.2-2,0.4c-0.1,0-0.3,0.2-0.3,0.2l-0.6,0l-0.6,0c0,0-0.2-0.1-0.3-0.2
					c-0.4-0.2-1.2-0.4-2-0.4c-0.5,0-0.9,0.1-1.4,0.2c-0.5,0.2-0.9,0.6-0.9,0.6s-0.2-0.1-0.4-0.2
					C497.2,371.7,497.6,369.9,498.8,368.7z M507.7,375.4c-0.2,0.3-0.7,0.9-1.9,0.9c-1.3,0-1.8-0.5-2-1.1c-0.2-0.6,0.1-0.9,0.3-1
					c0.2-0.1,1.5-0.7,2.9-0.3c0,0,0.5,0.1,0.7,0.4C507.9,374.6,507.9,375.2,507.7,375.4z M502.2,375.2c-0.2,0.6-0.8,1.1-2,1.1
					c-1.2,0-1.8-0.6-1.9-0.9c-0.2-0.3-0.2-0.8,0-1.1c0.2-0.3,0.7-0.4,0.7-0.4c1.4-0.4,2.7,0.2,2.9,0.3
					C502.2,374.3,502.4,374.6,502.2,375.2z M498.7,379.7c-0.3-0.6-0.4-1-0.4-1l-0.1-0.3h-0.3c-0.8,0-1.2-1.6-1.3-2
					c-0.3-1.2,0.5-1.6,0.6-1.6l0.2-0.1c0.1,0.1,0.1,0.1,0.1,0.1c0.1,0,0.1,0.1,0.2,0.2c0.1,0.1,0.3,0.6,0.6,0.9
					c0.2,0.2,0.8,0.5,1.4,0.6c0.9,0.1,1.7,0,2.3-0.4c0.7-0.5,0.6-1.1,0.6-1.3c0-0.1,0.1-0.2,0.2-0.3c0.1,0,0.3-0.1,0.3-0.1
					s0.2,0,0.3,0.1c0.1,0,0.1,0.1,0.2,0.3c0,0.2,0,0.7,0.6,1.3c0.5,0.4,1.4,0.5,2.3,0.4c0.6-0.1,1.1-0.4,1.4-0.6
					c0.3-0.3,0.5-0.8,0.6-0.9c0.1-0.1,0.1-0.2,0.2-0.2c0,0,0.3-0.2,0.6-0.3l0,0.1l0.3,0.1c0.1,0,0.9,0.4,0.6,1.6
					c-0.2,0.7-0.5,2-1.3,2l-0.3,0l-0.1,0.3c0,0-0.2,0.4-0.4,1l-1.5,0.5c-0.1-0.1-0.1-0.2-0.2-0.2c-0.4-0.2-2-1-2.9-1.1
					c-0.9,0.1-2.5,0.9-2.9,1.1c-0.1,0.1-0.2,0.1-0.2,0.2L498.7,379.7z M505.7,381.3c0,0.1-0.1,0.2-0.2,0.3c-0.2,0.2-1.5,0.5-1.7-0.1
					c0,0,0-0.1-0.1-0.1c-0.1-0.1-0.4-0.1-0.5-0.1c-0.1,0-0.4,0-0.6,0.2c0,0,0,0,0,0.1c-0.2,0.6-1.4,0.3-1.7,0.1c0,0-0.1-0.1-0.1-0.1
					c-0.2-0.3-0.2-1,0-1.1c0.5-0.2,2.4-0.3,2.4-0.3s2,0.1,2.4,0.3C505.8,380.4,505.8,380.9,505.7,381.3z M498.5,384.9
					c1.3-0.6,1.4-0.8,1.4-1c0-0.3,0.1-0.6,0.1-0.8c0.7,0.6,1.8,1,3.2,1.1l0,0l0,0c1.4-0.1,2.6-0.5,3.3-1.1c0.1-0.1,0.2-0.2,0.3-0.3
					c0,0.1,0,0.2,0,0.4c0,0.3,0,0.5,0.1,0.8l0,0.2l1.1,0.6l0.3,0.2c-1.1,1.7-2.9,3.6-5.2,3.6c-2.4,0-4.2-2-5.2-3.4
					C498.3,385.1,498.4,385,498.5,384.9z M503.3,390c-2.7,0-5-1.7-6.3-4.4c0.2-0.1,0.4-0.2,0.5-0.2c0.6,0.9,1.3,1.6,2,2.2
					c1.2,1,2.5,1.6,3.8,1.6c1.3,0,2.4-0.5,3.4-1.2c1-0.8,1.8-1.8,2.4-2.7l0.6,0.3C508.3,388.2,506,390,503.3,390z"/>
				<path fill="#3C3C3B" d="M504.9,380.4h-3.2c-0.1,0-0.2,0.1-0.2,0.2s0.1,0.2,0.2,0.2h3.2c0.1,0,0.2-0.1,0.2-0.2
					S505,380.4,504.9,380.4z"/>
				<ellipse fill="#3C3C3B" cx="500.2" cy="374.6" rx="0.6" ry="0.7"/>
				<ellipse fill="#3C3C3B" cx="505.8" cy="374.6" rx="0.6" ry="0.7"/>
			</g>
			<g>
				<path fill="#3C3C3B" d="M824.2,393.4c-0.2-4.7-0.7-6.4-2.3-7.7c-1-0.8-3.2-1.3-5-1.7l-2-0.6l0-1.8c0.7-0.8,1-1.9,1.2-2.4
					c0.6-0.1,1.4-0.8,1.7-2.6c0.3-1.3-0.3-2.1-0.8-2.5c0-0.3,0-0.5,0-0.7c0.4-1.1,0.7-2.6,0.1-3.9c-0.5-1.2-1.9-2.7-3.7-3.6
					c-1.8-0.8-4.3-0.4-5.3-0.2s-3.3,1.4-4.2,3.6c-0.5,1.3-0.2,2.9,0.2,4c0,0.3,0,0.5,0,0.8c-0.5,0.3-1.1,1.1-0.8,2.5
					c0.4,1.8,1.1,2.4,1.7,2.6c0.2,0.6,0.6,1.7,1.4,2.6c0,0.1,0.1,0.1,0.1,0.2l-0.1,1.4l-1.6,0.5c-0.3,0.1-0.7,0.2-1.1,0.3
					c-1.6,0.4-3.5,0.8-4.5,1.6c-1.6,1.3-2,3.6-2.1,8.3c-0.1,1.4-0.1,2.4-0.2,3.2c-0.1,1-0.1,1.6-0.1,2.2l0,0.4h27.2l0-0.4
					C824.3,398.7,824.4,397,824.2,393.4z M803.1,398.8h-5.2c0-0.4,0-0.9,0.1-1.6c0-0.8,0.1-1.8,0.2-3.2c0.2-4.4,0.5-6.6,1.8-7.7
					c0.4-0.3,1.1-0.6,1.9-0.8c0.4,1.1,1.3,4,1.4,6.4C803.2,394.1,803.1,397.6,803.1,398.8z M805.9,378.6l-0.1-0.3h-0.3
					c-0.7,0-1.1-1.2-1.2-1.9c-0.3-1.2,0.5-1.6,0.6-1.6l0.3-0.1l0-0.3c0-0.4-0.1-0.8-0.1-1.2c0.1-0.3,0.3-0.6,0.5-0.9
					c0.5-0.5,1.9-0.1,4.9-0.8c3-0.7,2.7-2.1,2.7-2.1s1.8,1.1,2.4,2.2c0.3,0.5,0.5,1.2,0.6,1.9c0,0.3,0,0.6-0.1,1l0,0.3l0.3,0.1
					c0,0,0,0,0.1,0c0,0,0,0,0,0s0,0,0,0c0.2,0.1,0.7,0.5,0.5,1.6c-0.1,0.7-0.5,1.9-1.2,1.9h-0.3l-0.1,0.3c0,0-0.3,1.1-0.9,2.1
					c-0.1,0.2-0.2,0.3-0.3,0.5c0,0,0,0,0,0c0,0,0,0,0,0c-0.1,0.2-0.3,0.3-0.4,0.5c-1.1,1.2-2.1,1.7-3.1,1.8c-0.8,0-1.7-0.5-2.6-1.3
					c-0.1-0.1-0.3-0.3-0.4-0.4c-0.1-0.1-0.1-0.1-0.2-0.2c-0.1-0.1-0.1-0.2-0.2-0.2c0,0-0.1-0.1-0.1-0.1
					C806.3,380.1,805.9,378.6,805.9,378.6z M806.1,384.4l0.4-0.1l0.2-0.1l0.2,0l0.7,0.5l2,1.4l0.4,0.2l-0.3,0.2l-0.3,0.3l-0.4,0.3
					l-0.4,0.3l-0.6,0.6l-1.2-1.9l-1.1-1.7L806.1,384.4z M809.5,389.4l0,3.4c-1.6-0.9-2.8-3.3-3.6-5.4c-0.3-0.9-0.6-1.7-0.8-2.3
					c0-0.1,0-0.1,0-0.1l0.1,0.1l2,3.2l0.7,1.1l0.5-0.4l1.1-1l0.7,0.7L809.5,389.4L809.5,389.4z M807.5,383.4l0-0.7
					c1.1,1,2.1,1.5,3.1,1.5l0,0l0,0c1.1-0.1,2.2-0.6,3.4-1.8l0,0.9l-3.4,2.3L807.5,383.4z M811.7,386.1l2.6-1.8l0.3-0.2l0,0l0.4,0.1
					l0,0l0.2,0.1l0.5,0.1l-0.1,0.1l-0.2,0.4l-2,3.1l-0.7-0.6l-0.4-0.3l-0.4-0.3l-0.2-0.2l-0.3-0.3L811.7,386.1z M815.8,386.3
					c-0.2,0.5-0.4,1.1-0.6,1.7c-0.7,1.8-1.7,3.7-3,4.6l0.1-3.2l0-0.1l-0.6-0.7l0.6-0.6l1,0.9l0.4,0.4l0.6-0.9l1.5-2.4l0.3-0.4
					C815.9,385.9,815.8,386.1,815.8,386.3z M823.4,398.8h-5.1c0-1.2-0.1-4.7,0-6.9c0-2.4,1-5.3,1.4-6.4c0.7,0.2,1.4,0.5,1.7,0.8
					c1.3,1.1,1.8,2.7,2,7.1C823.4,396.3,823.4,398,823.4,398.8z"/>
				<path fill="#3C3C3B" d="M808.5,379.7c0.1,0.6,0.5,1.1,1.1,1.4c0.3,0.2,0.7,0.2,1,0.2c0.5,0,1-0.2,1.3-0.4
					c0.4-0.3,0.7-0.7,0.8-1.2H808.5z M809.5,380.1l2.4,0c-0.1,0.5-0.8,0.7-1.2,0.7C810.2,380.8,809.6,380.7,809.5,380.1z"/>
				<ellipse fill="#3C3C3B" cx="807.8" cy="375.6" rx="0.7" ry="0.8"/>
				<ellipse fill="#3C3C3B" cx="813.3" cy="375.6" rx="0.7" ry="0.8"/>
			</g>
			<g>
				<path fill="#3C3C3B" d="M462.9,373.6C462.9,373.6,462.9,373.6,462.9,373.6C462.9,373.6,462.9,373.6,462.9,373.6
					C462.9,373.6,462.9,373.6,462.9,373.6z"/>
				<path fill="#3C3C3B" d="M468.1,388.8l-0.9-1l-1.5,1l-2.1-4.3c-1.7,0.5-5.9,1.1-7.4,2c-1.1,0.7-2.2,2.6-2.4,7.1
					c-0.1,3.3-0.2,5.3-0.3,6.1h14.3l-0.3-10.3L468.1,388.8z"/>
				<path fill="#3C3C3B" d="M470.6,387.7l-0.9,1l0,0l0.6,0.7l-0.3,10.3h14.3c0-0.8-0.1-2.8-0.3-6.1c-0.2-4.5-1.3-6.5-2.4-7.1
					c-1.5-0.9-5.9-1.5-7.5-2l-2,4.3L470.6,387.7z"/>
				<polygon fill="#3C3C3B" points="469.6,388.8 469.6,388.8 469.7,388.7 				"/>
				<path fill="#3C3C3B" d="M475.4,373.5c0.1-0.7,0.1-1.3,0-1.9l0.3-2c0,0,0.2-0.3,0.1-0.9s-0.9-1.5-1.1-1.8
					c-0.2-0.3-0.9-1.3-1.9-2.2c-1-0.9-1.6-1.5-3.2-1.9c-1.6-0.5-3-0.1-4.4,0.7c-1.4,0.8-0.8,2.4-0.8,2.4s-1,0.3-1.7,0.9
					c-0.7,0.7-0.8,1.7-0.9,3.2c0,0.6,0.1,1.3,0.3,2c0,0.5,0,1,0.1,1.5c-0.5,0.3-1.2,1.1-0.9,2.4c0.3,1.2,1.2,2.2,2.2,2.3
					c0.1,0.6,0.5,1.8,1.3,2.9c-0.1,0.6-0.2,1.8-0.3,2.4c0,0,0,0,0,0l-0.2,0.4l1.8,3.7l0.8-0.5l0.4-0.2l0.4-0.2l1.2-0.7l-3.4-2.8
					c0-0.4,0.1-0.7,0.1-1.1c0.7,0.6,1.8,1,3.2,1l0,0l0,0c1.4-0.1,2.6-0.5,3.3-1.1c0.1-0.1,0.2-0.2,0.3-0.3c0,0.5,0.1,1,0.1,1.5l0,0
					c0,0-3.4,2.8-3.4,2.8l0,0l1.2,0.8l0.4,0.2l0.4,0.2l0.8,0.5l1.8-3.8l-0.2-0.3l0,0c-0.1-0.8-0.2-2.5-0.3-3c0.5-0.8,0.7-1.6,0.8-2
					c1.1-0.2,2.1-1.5,2.3-2.7C476.5,374.6,475.9,373.8,475.4,373.5z M462.9,373.6c0-0.5,0.2-1.1,0.1-1.4c0-0.7,0-1.9,0.4-2.4
					c0.4-0.5,1.2-1.1,2.3-1.3c1.1-0.2,2.5,0.3,2.5,0.3s0.4-0.8,1.3-1c1.3-0.3,3.2,0.8,4.2,1.6c0.3,0.4,0.5,0.9,0.6,1.4
					c0,0.8,0,2.1,0,2.8c-0.1,0.1-0.1,0.2-0.2,0.2c-0.2,0.1-0.4,0-0.4,0s-0.5-0.6-0.9-0.8c-0.5-0.2-0.9-0.3-1.4-0.3
					c-0.7,0-1.6,0.3-2,0.6c-0.1,0.1-0.3,0.2-0.3,0.2l-0.6,0l-0.6,0c0,0-0.2-0.1-0.3-0.2c-0.4-0.2-1.2-0.6-2-0.6
					c-0.5,0-0.9,0.1-1.4,0.3c-0.5,0.2-0.9,0.8-0.9,0.8s-0.2,0.1-0.4,0C463.1,373.8,463,373.7,462.9,373.6
					C462.9,373.6,462.9,373.6,462.9,373.6C462.9,373.6,462.9,373.6,462.9,373.6z M473.4,375.2c-0.2,0.4-0.7,1.2-1.9,1.2
					c-1.3,0-1.8-0.7-2-1.5c-0.2-0.8,0.1-1.2,0.3-1.4c0.2-0.2,1.5-0.9,2.9-0.4c0,0,0.5,0.2,0.7,0.5
					C473.6,374.1,473.6,374.9,473.4,375.2z M467.9,374.9c-0.2,0.8-0.8,1.4-2,1.5c-1.2,0-1.8-0.8-1.9-1.2c-0.2-0.4-0.2-1.1,0-1.5
					c0.2-0.4,0.7-0.5,0.7-0.5c1.4-0.5,2.7,0.2,2.9,0.4C467.8,373.7,468.1,374.2,467.9,374.9z M475.4,375.7c-0.2,1-1.1,2-1.8,2
					l-0.4,0l-0.1,0.4c0,0-0.2,1-0.8,2.1c-0.1,0.2-0.2,0.3-0.3,0.5c-0.1,0.2-0.2,0.3-0.4,0.5c-0.1,0.1-0.2,0.2-0.3,0.3
					c-0.5,0.5-1.5,0.8-2.7,0.9c-1.2-0.1-2.2-0.4-2.7-0.9c0,0-0.1-0.1-0.1-0.1c-0.1-0.1-0.3-0.3-0.4-0.4c-0.1-0.1-0.2-0.3-0.3-0.4
					c-0.8-1.2-1-2.6-1-2.6l-0.1-0.4h-0.4c-0.8,0-1.5-0.7-1.7-1.7c-0.3-1.2,0.5-1.5,0.6-1.6l0.1,0c0,0,0.1,0.1,0.1,0.1v0
					c0,0,0.3,0.1,0.3,0.1c0.1,0.1,0.1,0.1,0.2,0.3s0.3,0.8,0.6,1.1c0.2,0.2,0.8,0.7,1.4,0.8c0.9,0.1,1.7,0,2.3-0.6
					c0.7-0.7,0.6-1.5,0.6-1.7c0-0.2,0.1-0.3,0.2-0.3c0.1-0.1,0.3-0.1,0.3-0.1s0.2,0,0.3,0.1c0.1,0.1,0.1,0.2,0.2,0.3
					c0,0.2,0,1,0.6,1.7c0.5,0.6,1.4,0.7,2.3,0.6c0.6-0.1,1.1-0.6,1.4-0.8c0.3-0.3,0.5-1,0.6-1.1c0.1-0.1,0.1-0.2,0.2-0.3
					c0,0,0.2-0.2,0.4-0.3l0.2,0.1C474.8,374.2,475.6,374.5,475.4,375.7z"/>
				<ellipse fill="#3C3C3B" cx="465.9" cy="374.6" rx="0.6" ry="0.7"/>
				<ellipse fill="#3C3C3B" cx="471.4" cy="374.6" rx="0.6" ry="0.7"/>
				<path fill="#3C3C3B" d="M470.1,379h-2.9c-0.1,0-0.2,0.1-0.2,0.2s0.1,0.2,0.2,0.2h2.9c0.1,0,0.2-0.1,0.2-0.2S470.2,379,470.1,379
					z"/>
			</g>
			<g>
				<rect x="651.6" y="399.7" fill="#3C3C3B" width="7.3" height="0"/>
				<ellipse fill="#3C3C3B" cx="652.5" cy="374.5" rx="0.6" ry="0.7"/>
				<ellipse fill="#3C3C3B" cx="658" cy="374.5" rx="0.6" ry="0.7"/>
				<path fill="#3C3C3B" d="M653.7,379.7h2.9c0.1,0,0.2-0.1,0.2-0.2s-0.1-0.2-0.2-0.2h-2.9c-0.1,0-0.2,0.1-0.2,0.2
					S653.6,379.7,653.7,379.7z"/>
				<path fill="#3C3C3B" d="M670.4,393.6c-0.2-4.5-1.3-6.5-2.4-7.1c-1.5-0.9-5.5-1.5-7.3-2l-1.5,4.4l-1.1-1.1l-1-1l-0.4-0.4
					c-1.4,0.4-2.4,0.1-2.8-0.1l-0.4,0.4l-0.8,0.8l-1.3,1.3l-1.5-4.4c-1.8,0.5-5.8,1-7.2,1.9c-1.1,0.7-2.2,2.6-2.4,7.1
					c-0.1,3.3-0.2,5.3-0.3,6.1h11.6h7.3h11.8C670.7,398.8,670.6,396.9,670.4,393.6z M653.2,398.8l0.7-11.6c0.4,0.1,0.8,0.2,1.5,0.2
					c0.4,0,0.9-0.1,1.5-0.2l0.7,11.6H653.2z"/>
				<path fill="#3C3C3B" d="M661.9,373.5c0.1-0.7,0.1-1.4,0-2c0-1.5-0.6-2.7-0.8-3.2c0.3-0.2,0.6-0.3,0.6-0.4
					c0.1-0.3-0.1-0.2-1.6-1.4c-1.5-1.2-4.1-2.2-7.3-1.8c-3.1,0.4-4.1,2.3-4.3,3.7c-0.1,1.2-0.1,2.2,0,3.1c-0.1,0.6,0,1.2,0,1.9
					c-0.5,0.3-1.2,1.1-0.9,2.4c0.3,1.2,1.2,2.2,2.2,2.3c0.1,0.6,0.5,1.9,1.3,3l-0.4,2.5l-0.2,0.3l0,0l1.1,3.2l1.8-1.8l0.1-0.1
					l-1.9-2l0.2-1.2c0.7,0.6,1.8,0.9,3.2,1l0,0l0,0c1.4-0.1,2.6-0.5,3.3-1.1c0,0,0,0,0.1-0.1l0.2,1.4l-1.8,2l0.1,0.1l1.8,1.8
					l1.1-3.3l-0.2-0.4l-0.4-2.5c0.7-0.9,1-1.9,1.1-2.4c1.1-0.2,2.1-1.5,2.3-2.7C663,374.6,662.4,373.8,661.9,373.5z M650.3,370
					c0.3-0.6,0.7-1.1,1.2-1.4c0.6-0.4,3.7,2.5,6.9,0.9c0.5-0.2,0.9-0.4,1.3-0.6c0.2,0.8,1,3.6,0.9,4.6l0,0c0,0-0.8-0.2-1.7-0.3
					c-1-0.1-2.3,0.1-2.7,0.2c-0.4,0.1-1.1,0.1-1.1,0.1s-0.7,0-1.1-0.1c-0.4-0.1-1.7-0.2-2.7-0.2c-0.6,0-1.1,0.1-1.4,0.2
					C649.9,372.5,650.1,370.5,650.3,370z M659.7,375.2c-0.1,0.6-0.4,1.3-0.8,1.5c-0.4,0.2-1.5,0.3-2,0c-0.6-0.3-1.1-0.8-1.1-1.8
					c0-0.8,0.4-1,0.8-1.2c0.3-0.1,1.2-0.1,1.6-0.1c0,0,0.9,0,1.4,0.3C660,374.1,659.8,374.9,659.7,375.2z M654.2,374.9
					c0,1-0.5,1.4-1.1,1.8c-0.5,0.3-1.5,0.3-2,0c-0.4-0.2-0.7-0.9-0.8-1.5c-0.1-0.4-0.3-1.1,0-1.3c0.6-0.3,1.4-0.3,1.4-0.3
					c0.5,0,1.3,0,1.6,0.1C653.8,373.9,654.2,374.1,654.2,374.9z M661.9,375.7c-0.2,1-1.1,2-1.8,2l-0.4,0l-0.1,0.4c0,0-0.4,2-1.7,3.2
					c-0.5,0.5-1.5,0.8-2.7,0.9c-1.2-0.1-2.2-0.4-2.7-0.9c-1.4-1.2-1.8-3.6-1.8-3.6l-0.1-0.4h-0.4c-0.8,0-1.5-0.7-1.7-1.7
					c-0.2-0.9,0.2-1.3,0.5-1.5l0.6,0.1c0.1,0,0.2,0.1,0.3,0.2c0,0.2,0.1,1.2,0.6,1.9c0.3,0.4,0.7,0.7,1.7,0.7c0.7,0,1.5-0.3,1.9-1
					c0.4-0.7,0.5-1.3,0.6-1.5c0.1-0.1,0.3-0.2,0.4-0.2c0.1,0,0.2,0,0.4,0.2c0.1,0.1,0.1,0.7,0.6,1.5c0.4,0.7,1.2,1,1.9,1
					c1,0,1.4-0.3,1.7-0.7c0.5-0.7,0.5-1.7,0.6-1.9c0-0.1,0.2-0.2,0.3-0.2l0.9-0.1v0c0,0,0-0.1,0-0.1
					C661.6,374.3,662.1,374.7,661.9,375.7z"/>
			</g>
			<g>
				<path fill="#3C3C3B" d="M621.7,379.6c0.1,0.5,0.6,1,1.2,1.2c0.3,0.1,0.6,0.2,0.9,0.2s0.7-0.1,0.9-0.2c0.6-0.2,1.1-0.7,1.2-1.2
					H621.7z M623.8,380.5c-0.4,0-1-0.1-1.2-0.5h2.3C624.7,380.5,624,380.5,623.8,380.5z"/>
				<ellipse fill="#3C3C3B" cx="621" cy="375.3" rx="0.7" ry="0.8"/>
				<ellipse fill="#3C3C3B" cx="626.5" cy="375.3" rx="0.7" ry="0.8"/>
				<path fill="#3C3C3B" d="M637,393.6c-0.2-4.6-1.3-6.3-3.2-7.6c-0.7-0.5-1.6-0.7-2.6-0.9c1-3.2,0.9-7.6,0.7-10.7
					c-0.1-2.2-0.1-5.2-3-8.1c-2.8-2.9-5.3-2-5.3-2s-2.5-0.9-5.3,2c-2.8,2.9-2.8,5.9-3,8.1c-0.2,3.1-0.3,7.6,0.7,10.8
					c-0.9,0.2-1.8,0.5-2.4,0.9c-1.9,1.3-3,3-3.2,7.6c-0.1,2.5-0.1,4.5,0,5.7l0,0.3H637l0-0.3C637,398.1,637.1,396.2,637,393.6z
					 M617.3,375.2c0-0.1,0-0.2,0.1-0.3c0.1-0.2,0.2-0.3,0.4-0.4c0.1-0.1,0.3-0.2,0.4-0.2c0-0.3,0-0.7,0-1c0.2-0.1,0.5-0.1,0.8-0.2
					c0.1-0.5,0.4-1.7,0.7-2l0.3,1.8c2.3-0.4,5.7-0.7,9.2,0.3c0,0.3,0,0.7,0,1c0.1,0,0.3,0.1,0.4,0.2c0.2,0.1,0.3,0.3,0.4,0.6
					c0,0.1,0,0.1,0,0.2c0.1,0.9-0.1,1.4-0.3,1.8c-0.1,0.1-0.2,0.2-0.2,0.3c-0.1,0.1-0.2,0.2-0.3,0.2c-0.2,0.1-0.3,0.1-0.5,0.1
					c-0.2,0.8-0.4,1.3-0.5,1.6c-0.4,1.1-1.2,1.8-1.9,2.4c-0.1,0.1-0.2,0.1-0.3,0.2c-0.1,0.1-0.2,0.1-0.3,0.2
					c-0.2,0.1-0.3,0.2-0.5,0.3c-0.2,0.1-0.9,0.4-1.5,0.4c-0.6,0-1.3-0.3-1.5-0.4c-0.2-0.1-0.4-0.2-0.7-0.4c-0.1-0.1-0.2-0.1-0.3-0.2
					c-0.1-0.1-0.2-0.1-0.3-0.2c-0.6-0.5-1.3-1.3-1.7-2.2c-0.1-0.3-0.3-0.9-0.5-1.6c-0.1,0-0.3,0-0.5-0.1c-0.2-0.1-0.3-0.1-0.4-0.2
					c0,0-0.1-0.1-0.1-0.1C617.4,376.7,617.2,376.2,617.3,375.2z M623.9,389.5c-0.1,0-4.2-1.7-6.4-3.1c-0.4-0.2-0.7-0.5-0.9-0.7
					c0.4-0.1,0.9-0.1,1.3-0.2c1.7-0.3,3.1-0.5,3.3-1.4c0.1-0.5,0.2-0.9,0.3-1.4c0.2,0.1,0.3,0.2,0.5,0.3c0.4,0.2,1.1,0.5,1.9,0.5
					c0,0,0,0,0.1,0c0.8,0,1.5-0.3,1.9-0.5c0.1,0,0.2-0.1,0.3-0.1c0.1,0.4,0.2,0.9,0.3,1.3c0.2,0.9,1.6,1.1,3.3,1.4
					c0.5,0.1,0.9,0.1,1.4,0.2c0.2,0,0.4,0.1,0.6,0.1C628.4,388.5,625.1,388.9,623.9,389.5z"/>
			</g>
			<g>
				<path fill="#3C3C3B" d="M588.9,385.4L588.9,385.4C589,385.4,588.9,385.4,588.9,385.4C588.9,385.4,588.9,385.4,588.9,385.4
					L588.9,385.4z"/>
				<path fill="#3C3C3B" d="M581.2,397.6c0,0.8,0,1.5,0.1,2.1h0.1c0-0.1,0-0.2,0-0.3C581.3,399,581.3,398.4,581.2,397.6z"/>
				<path fill="#3C3C3B" d="M581.3,399.7L581.3,399.7c0,0,0-0.1,0-0.3C581.3,399.5,581.3,399.6,581.3,399.7z"/>
				<path fill="#3C3C3B" d="M606.9,390.7c-0.6-2.4-2.4-4.1-3.7-4.7c-0.7-0.3-1.8-0.5-2.6-0.6c1.9-0.5,3.2-1.3,3.2-2.3
					c0-0.7-3.2,0.3-1.3-4.4c1-2.6,0.9-5.1-0.9-9.3c-1.8-4.4-7.2-4.5-7.2-4.5s-5.4,0.1-7.2,4.5c-1.7,4.2-1.9,6.7-0.9,9.3
					c1.9,4.7-1.3,3.8-1.3,4.4c0.1,1.1,1.5,1.9,3.7,2.4c-0.7,0-2.1,0.2-3.1,0.5c-1.6,0.6-3.7,2.9-4.2,5.3c-0.3,1.5-0.2,4.3-0.1,6.3
					c0,0.8,0.1,1.4,0.1,1.8c0,0.2,0,0.3,0,0.3h8.2l-1.6-6.6l1.6-1.2l-1.9-0.9c-0.1-1.3,0.3-2.7,0.7-3.8c0.3-0.8,0.6-1.5,0.7-1.7
					c0,0,0-0.1,0-0.1l0.1,0c0,0,0,0,0,0c0,0,0,0,0,0l1.2-0.3c0,0,0,0,0,0.1c0,0.2,0,0.4,0,0.6c0,0.8,0.1,1.9,0.2,3
					c0,0.6,0.7,10.9,0.7,10.9h6.2c0,0,0.7-10.2,0.7-10.7c0.1-1.1,0.1-2.3,0.2-3.2c0-0.3,0-0.5,0-0.7c0-0.1,0-0.1,0-0.2l1,0.2l0.1,0
					c0,0,0,0.1,0.1,0.2c0,0,0.1,0.1,0.1,0.2c0.2,0.4,0.6,1.2,0.9,2.1c0.3,1,0.6,2.2,0.6,3.3l-1.9,0.9l1.6,1.2l-1.6,6.6h8.3h0.2
					C607.3,399.7,607.4,393,606.9,390.7z M597.3,384.6c0,0,0,0.5,0,1.3c0,1-0.1,2.3-0.2,3.5c-2.3,0.8-4.2,0.5-5.8-0.1
					c-0.1-1.1-0.2-2.4-0.2-3.3c0-0.4,0-0.8,0-1c0.2-0.1,0.3-0.3,0.4-0.5c0.1-0.5,0.2-1,0.3-1.4c0.2,0.2,0.5,0.3,0.7,0.4
					c0.4,0.2,1.2,0.5,2.1,0.5c0,0,0,0,0.1,0c0.8,0,1.6-0.3,2-0.5c0.1-0.1,0.3-0.2,0.5-0.3c0.1,0.4,0.2,0.9,0.3,1.3c0,0,0,0.1,0,0.1
					C597.3,384.5,597.3,384.6,597.3,384.6z M599.3,379.5c-0.6,1.3-1.6,2.2-2.5,2.7c-0.3,0.2-0.5,0.3-0.7,0.4c-0.3,0.1-1,0.4-1.6,0.4
					l0,0l0,0c-0.7,0-1.4-0.3-1.6-0.4c-0.3-0.1-0.6-0.3-0.9-0.5c-0.8-0.5-1.8-1.4-2.3-2.6c-0.2-0.5-0.7-1.7-0.9-3.2
					c0.6-1.5,2.5-2.6,4.5-3.6c2-1,3-1.8,3.5-2.4c0.5,1.7,1.6,4.5,3.6,5.9C600,377.8,599.5,379,599.3,379.5z"/>
				<ellipse fill="#3C3C3B" cx="591.6" cy="375.5" rx="0.7" ry="0.9"/>
				<ellipse fill="#3C3C3B" cx="597.1" cy="375.5" rx="0.7" ry="0.9"/>
				<path fill="#3C3C3B" d="M592.3,379.9c0.2,0.8,1,1.4,2.1,1.4s2-0.6,2.1-1.4H592.3z M594.4,380.8c-0.4,0-1-0.1-1.2-0.5h2.3
					C595.4,380.7,594.7,380.8,594.4,380.8z"/>
			</g>
			<g>
				<path fill="#3C3C3B" d="M793.8,393.5l0.2,0c0,0-0.5-2.6-0.8-3.5c-0.1-0.2-0.2-0.5-0.4-0.8c-0.6-1.2-1.3-2-2.3-2.7
					c-1.1-0.8-2.8-1-4.2-1.3c-0.4-0.1-0.8-0.1-1.1-0.2c0-0.4,0-1,0.1-1.6c0.2-1.2,0.6-2.3,0.4-2.8c0,0,0.6,0.7,0.8,1.2
					c0,0.1,0.2,0.1,0.2,0c0.3-0.6,0.5-1.5,0.2-2.2c-0.3-0.9-0.3-1.1-0.2-1.2s0.3,0,0.6,0.2c0.3,0.2,0.8,1.2,0.9,1.2
					c0.3,0,1.1-3.4,0.9-5c-0.2-1.4-0.9-5.8-2.5-7.4c-1.2-1.3-5.7-5.1-9.6-2c0,0-1.3-0.6-2.6,0.4s-3.1,4.1-3.2,6.1
					c-0.1,2.1,0.5,5.3,0.7,6.1c0.2,0.8-0.1,2.1-0.1,2.1s0.9-0.6,1.1-1.4c0-0.1,0-0.2,0-0.3c0.1-1,0.8,1.6,0,2.7c0,0,0.7,0.7,1.2-0.3
					c0,0,0.2,2.9,0.9,4c-0.4,0.1-0.8,0.1-1.1,0.2c-1.5,0.2-3.2,0.5-4.2,1.3c-0.9,0.6-1.6,1.3-2.2,2.4c-0.2,0.4-0.4,0.8-0.6,1.1
					c-0.3,0.9-0.8,3.5-0.8,3.5l0.2,0c0,0.3,0,0.6-0.1,1c-0.1,1.7-0.1,3.3-0.1,4.8l0,0.4h27.3l0-0.4c0-1.5,0-3.1-0.1-4.8
					C793.9,394.1,793.9,393.8,793.8,393.5z M775.8,372.9C775.8,372.9,775.8,372.9,775.8,372.9c0.1-0.5,0.4-1.7,0.7-2l0.3,1.8
					c2.3-0.4,5.9-0.7,8.1,0c0.3,0.1,0.7,0.6,0.9,1c-0.3-0.1-1-0.2-1.8-0.2c-1.5,0-2.5,0.3-2.7,0.3c-0.2,0-0.6,0.1-0.6,0.1
					s-0.4-0.1-0.6-0.1c-0.2,0-1.2-0.3-2.7-0.3c-1,0-1.6,0.1-1.9,0.2C775.6,373.4,775.7,373,775.8,372.9z M783.2,375.1
					c0.4,0,0.7-0.3,0.7-0.8c0-0.3-0.1-0.5-0.3-0.6c0.4,0,0.9,0,1.2,0c0,0,0.5,0.1,0.7,0.2c0.1,0.2,0.1,0.7-0.1,1.2
					c-0.2,0.5-0.4,0.7-0.7,0.8c-0.4,0.1-1.4,0.2-2.2,0c-0.8-0.2-1.1-0.4-1.2-1c-0.1-0.7-0.1-0.9,0.2-1c0.2-0.1,0.6-0.1,1.2-0.2
					c-0.1,0.1-0.2,0.3-0.2,0.6C782.5,374.8,782.8,375.1,783.2,375.1z M777.7,375.1c0.4,0,0.7-0.3,0.7-0.8c0-0.2-0.1-0.4-0.2-0.6
					c0.7,0.1,1.4,0.2,1.5,0.2c0.3,0.1,0.3,0.3,0.2,1c-0.1,0.7-0.4,0.9-1.2,1s-1.8,0-2.2,0c-0.3-0.1-0.5-0.3-0.7-0.8
					c-0.2-0.5-0.2-1-0.1-1.2c0.1-0.2,0.7-0.2,0.7-0.2c0.3,0,0.6,0,1,0c-0.2,0.1-0.3,0.4-0.3,0.6C777,374.8,777.4,375.1,777.7,375.1z
					 M775.1,377.7c-0.2,0-0.3-0.1-0.5-0.1c-0.1,0-0.2-0.1-0.3-0.2c-0.3-0.4-0.6-0.9-0.6-2.1c0-0.3,0.2-0.5,0.3-0.6
					c0.1-0.1,0.3-0.2,0.4-0.2c0.2-0.1,0.4-0.1,0.4-0.1c0,0,0,0,0,0l0.2,0c0,0.1,0,0.1,0.1,0.2c0.1,0.1,0.2,0.2,0.3,0.4
					c0.1,0.1,0.2,0.6,0.4,0.9c0.2,0.3,0.5,0.5,1.9,0.5c1.2,0,1.8-0.3,2-0.5c0.2-0.3,0.3-0.9,0.5-1.1c0.1-0.1,0.3-0.2,0.3-0.2
					c0.1,0,0.2,0.1,0.3,0.2c0.1,0.1,0.2,0.8,0.5,1.1c0.2,0.2,0.7,0.6,2,0.5c1.5,0,1.7-0.2,1.9-0.5c0.3-0.4,0.4-0.8,0.4-0.9
					c0-0.1,0.1-0.1,0.1-0.2c0,0,0,0,0-0.1c0,0,0.1-0.1,0.1-0.1c0,0,0.1-0.1,0.1-0.2c0,0,0,0,0,0c0,0,0.1,0,0.1,0c0,0,0.1,0,0.2,0.1
					c0.1,0.1,0.3,0.1,0.4,0.3c0.2,0.1,0.3,0.3,0.3,0.6c0.1,1.2-0.2,1.7-0.6,2.1c-0.1,0.1-0.1,0.1-0.2,0.1c-0.1,0.1-0.3,0.1-0.5,0.1
					c-0.2,0-0.4,0-0.5,0c-0.2,0.6-0.4,1.1-0.5,1.4c-0.4,1.1-1.2,1.9-1.9,2.4c-0.1,0.1-0.3,0.2-0.4,0.3c-0.2,0.1-0.4,0.2-0.5,0.3
					c0,0-0.1,0-0.1,0.1c-0.2,0.1-0.9,0.4-1.5,0.4c-0.6,0-1.3-0.3-1.5-0.4c0,0-0.1,0-0.1-0.1c-0.2-0.1-0.5-0.3-0.7-0.4
					c-0.2-0.1-0.4-0.3-0.6-0.4c-0.6-0.5-1.2-1.2-1.6-2.1c-0.1-0.3-0.3-0.7-0.4-1.2C775.5,377.8,775.3,377.8,775.1,377.7z
					 M767.5,398.8c0-1.4,0-2.8,0.1-4.3c0-0.4,0-0.7,0.1-1l3.6,0c-0.4,2-0.2,3.5,0.1,5.3H767.5z M786.9,388.5
					c-0.4,0.6-3.4,3.5-6.6,3.3c-3.2,0.2-6.3-2.9-6.7-3.4c-0.3-0.4-0.4-1.4-0.5-2c0.4-0.1,0.8-0.1,1.2-0.2c0.9-0.1,1.6-0.3,2.2-0.5
					c0.6-0.2,1.1-0.5,1.2-1c0.2-0.7,0.3-1.4,0.4-2c0.1,0.1,0.3,0.2,0.4,0.2c0.4,0.2,1.1,0.5,1.9,0.5c0,0,0,0,0.1,0
					c0.8,0,1.6-0.3,2-0.5c0,0,0,0,0,0c0.1,0.5,0.2,1.2,0.4,1.8c0.1,0.5,0.6,0.8,1.2,1.1c0.6,0.2,1.3,0.3,2.2,0.4
					c0.4,0.1,0.7,0.1,1.1,0.2C787.3,386.9,787.2,388.1,786.9,388.5z M793.1,398.8h-3.9c0.3-1.8,0.5-3.4,0.1-5.3l3.6,0
					c0,0.3,0,0.7,0.1,1C793.1,396,793.1,397.4,793.1,398.8z"/>
				<path fill="#3C3C3B" d="M782.4,379.1c0,0-1.3,0.2-1.9,0.2s-1.9-0.2-1.9-0.2c-0.1,0-0.2,0.1-0.1,0.2c0.1,0.3,0.4,0.6,0.6,0.7
					c0.4,0.2,0.9,0.4,1.4,0.4c0.5,0,1-0.1,1.4-0.4c0.2-0.1,0.5-0.4,0.6-0.7C782.6,379.2,782.5,379.1,782.4,379.1z"/>
			</g>
			<g>
				<path fill="#3C3C3B" d="M529.6,385.5c0,0-0.1,0-0.1,0C529.5,385.5,529.6,385.5,529.6,385.5C529.6,385.5,529.6,385.5,529.6,385.5
					z"/>
				<path fill="#3C3C3B" d="M528.9,393.2l1.6-1.2l-1.9-0.9c0-1.2,0.2-2.3,0.4-3.2c0.3-1.1,0.8-1.9,0.9-2.2c0,0,0,0,0.1-0.1
					c-0.1,0-0.2-0.1-0.3-0.1c0,0-0.1,0-0.1,0c-0.7,0-2.1,0.1-3,0.5c-0.3,0.1-1.1,0.6-1.1,0.6c-1.7,1.2-2.9,2.7-3.1,7.3
					c-0.1,2.5-0.1,4.5,0,5.7h0.1h8.1L528.9,393.2z"/>
				<path fill="#3C3C3B" d="M547.7,390.8c-0.3-2.4-2.4-4.1-3.7-4.7c-1.1-0.5-3.1-0.7-3.7-0.8c0.7-0.7,1.3-1.5,1.7-2.3
					c0.7-1.5,2.3-6,0.7-11.2c-0.7-2.4-4.2-7.2-7.6-5.5c0,0-4.9-0.6-6.8,2.7c-1.9,3.2-3.7,8.6-2.9,11.3c0.7,2.4,1.6,2.9,2.7,4.1
					c0.4,0.4,0.9,0.8,1.5,1.1c0,0,0,0,0,0c0.1,0,0.2,0.1,0.3,0.1c0,0,0.1,0,0.1,0c0.4,0.2,0.8,0.4,1.1,0.6c0.1,0.8,0.1,1.8,0.2,2.8
					c0.1,0.6,0.7,10.7,0.7,10.7h6.1c0,0,0.8-12.5,0.8-13.2c0.3-0.3,0.7-0.6,1-1c0,0,0,0,0.1-0.1c0.1,0.1,0.2,0.1,0.3,0.2
					c0.2,0.3,0.6,1.1,1,2.3c0.2,0.9,0.4,1.9,0.4,3l-1.9,0.9l1.6,1.2l-1.6,6.5h8.3h0.2C548.2,399.7,548,392.7,547.7,390.8z
					 M537.9,385.3c-0.1,0.1-0.1,0.3-0.2,0.4c-0.4,1.1,0.2,1.7,0.2,1.7s0.1,0,0.1-0.1c0,0.7-0.1,1.6-0.2,2.4
					c-0.9,0.4-1.8,0.7-2.3,0.7c-0.7,0-1.9-0.4-3.3-1c-0.1-0.9-0.2-1.9-0.2-2.8c0.2,0.1,0.3,0.1,0.3,0.1s0.5-0.3,0.4-1.1
					c0-0.3-0.1-0.6-0.4-1.1c0-0.1,0.1-0.1,0.1-0.2c0.1-0.5,0.2-1,0.3-1.5c0.3,0.2,0.5,0.3,0.8,0.5c0.4,0.2,1.1,0.5,1.9,0.5
					c0,0,0,0,0.1,0c0.8,0,1.6-0.3,2-0.5c0.2-0.1,0.4-0.2,0.6-0.3c0.1,0.4,0.2,0.9,0.3,1.3C538.1,384.8,538,385.1,537.9,385.3z
					 M539.8,377.7c-0.1,0.8-0.2,1.5-0.3,2.3c0,0.2-0.1,0.4-0.1,0.5c-0.5,0.7-1.1,1.2-1.6,1.5c-0.3,0.2-0.6,0.4-0.8,0.5
					c-0.2,0.1-0.9,0.4-1.5,0.4c-0.6,0-1.3-0.3-1.5-0.4c-0.3-0.1-0.6-0.4-1-0.6c-0.6-0.4-1.2-1.1-1.7-1.9c-0.1-0.2-0.2-0.4-0.3-0.6
					c-0.1-0.3-0.4-1-0.6-1.8c0.1-1.4,0.9-3.2,1.7-4.1c2.2-2.6,1.9-4.7,3.4-4.6c0,0,2.1,0.4,3.1,2.3
					C539.5,373.2,540.1,374.3,539.8,377.7z"/>
				<ellipse fill="#3C3C3B" cx="532.7" cy="375.6" rx="0.7" ry="0.8"/>
				<ellipse fill="#3C3C3B" cx="537.6" cy="375.6" rx="0.7" ry="0.8"/>
				<path fill="#3C3C3B" d="M534.2,380.9c0.4,0.2,0.8,0.3,1.2,0.3c0.4,0,0.9-0.1,1.2-0.3c0.2-0.1,0.4-0.4,0.5-0.6
					c0-0.1,0-0.1-0.1-0.1c0,0-1.1,0.2-1.7,0.2s-1.7-0.2-1.7-0.2c-0.1,0-0.1,0.1-0.1,0.1C533.7,380.5,534,380.8,534.2,380.9z"/>
			</g>
			<g>
				<ellipse fill="#3C3C3B" cx="716.1" cy="374" rx="0.6" ry="0.7"/>
				<ellipse fill="#3C3C3B" cx="721.1" cy="374" rx="0.6" ry="0.7"/>
				<path fill="#3C3C3B" d="M734,393.6c-0.2-4.5-1.3-6.5-2.4-7.1c-1.5-0.9-5.5-1.5-7.3-2l-1.5,4.4l-2.5-2.5
					c-0.4,0.1-0.7,0.2-1.1,0.2c-0.3,0-0.6,0-0.9,0c-0.4-0.1-0.7-0.2-0.9-0.2l-2.6,2.6l-1.1-3.3l-0.3-1c-1.8,0.5-5.8,1-7.2,1.9
					c-1.1,0.7-2.2,2.6-2.4,7.1c-0.1,3.3-0.2,5.3-0.3,6.1h8.7v0h13v0h8.9C734.3,398.8,734.2,396.9,734,393.6z M716.8,398.8l0.6-9.3
					l0-0.5l0-0.5l0.1-1.3c0.4,0.1,0.8,0.2,1.5,0.2c0.4,0,0.9-0.1,1.5-0.2l0.1,1.3l0,0.5l0,0.5l0.6,9.3H716.8z"/>
				<path fill="#3C3C3B" d="M723.6,383.9L723.6,383.9L723.6,383.9l-0.2-0.2l0,0C723.5,383.8,723.5,383.8,723.6,383.9z"/>
				<path fill="#3C3C3B" d="M725.9,370.7c0.3-0.2,0.9-0.4,0.8-0.6c0-0.2-0.7-0.7-0.6-0.8c0.1-0.2,0.2-0.5,0.2-0.6
					c-0.1-2.9-2.9-3.1-2.9-3.1s-3.1-3.3-6.8-0.8c0,0-3.4,0.2-4.3,1.3c-0.4,0.5-1.7,2.3-0.9,4.1c0.2,0.5,0.4,0.9,0.5,1.3
					c0,0.5,0,1.1,0,1.7c-0.6,0.3-1.2,1.1-0.9,2.5c0.4,1.9,1.2,2.5,1.9,2.6c0.2,0.6,0.8,2.2,1.8,3.5c0,0.4-0.1,0.9-0.2,1.5
					c0,0.2-0.1,0.5-0.1,0.9l-0.1,0.1v0l0,0.1l0.3,0.8l0.3,0.9l0.5,1.4l1.8-1.8l0.1-0.1l-1.9-2.1c0,0,0,0,0-0.1c0-0.2,0-0.5,0.1-0.7
					c0.7,0.6,1.8,0.9,3.2,1l0,0l0,0c1.5-0.1,2.9-0.6,3.6-1.2c0,0,0.1-0.1,0.1-0.1c0,0.1,0,0.2,0,0.3l0.1,0.8l0,0.1l-1.9,2.1l0.1,0.1
					l0.9,0.9l0.2,0.2l0.7,0.7l0.5-1.5l0.2-0.6l0.3-0.9l0.1-0.3l0,0c-0.1-0.1-0.1-0.2-0.1-0.2l0,0l-0.1-0.6l-0.1-0.8
					c0-0.5-0.1-0.9-0.1-1.2c0.8-1.1,1.2-2.4,1.4-3c1.1-0.2,1.5-1.7,1.7-2.6c0.3-1.3-0.3-2.1-0.9-2.5c0.1-0.5,0.1-1,0.1-1.4
					c0.1,0.1,0.7,0.2,0.8,0C726.3,371.3,725.5,370.9,725.9,370.7z M721.2,380.5c0,0.1-0.1,0.2-0.2,0.3c-0.1,0.1-0.3,0.1-0.6,0.2
					c-0.2,0-0.5,0.1-0.7,0c-0.2,0-0.4-0.1-0.4-0.3c0,0,0-0.1-0.1-0.1c-0.1-0.1-0.4-0.1-0.5-0.1c-0.1,0-0.4,0-0.6,0.2c0,0,0,0,0,0.1
					c-0.2,0.6-1.4,0.3-1.7,0.1c0,0-0.1-0.1-0.1-0.1c-0.2-0.3-0.2-1,0-1.1c0.5-0.2,2.4-0.3,2.4-0.3s2,0.1,2.4,0.3
					C721.3,379.6,721.3,380.1,721.2,380.5z M725.4,375.3c-0.3,1.4-0.6,1.9-1.1,1.9h-0.3l-0.1,0.3c0,0-0.2,0.6-0.5,1.3l-1.5,0.5
					c-0.1-0.1-0.1-0.2-0.2-0.2c-0.4-0.2-2-0.6-2.9-0.6c-0.9,0.1-2.5,0.4-2.9,0.6c-0.1,0.1-0.2,0.1-0.2,0.2l-1.5-0.5
					c-0.3-0.7-0.5-1.3-0.5-1.3l-0.1-0.3h-0.3c-0.8,0-1.2-1.2-1.3-1.9c-0.3-1.2,0.5-1.6,0.6-1.6l0.1,0c0.2,0.3,0.5,0.8,0.6,0.8
					c0.1,0,0.4-3.9,0.4-4.2c0.1-0.3,1.6-1.4,2.4-1.9c1-0.5,1.8-1.7,2-2c0,0,0.1,0,0.1,0c0.3,0.5,2,3.2,2.9,3.9c1,0.7,3,1.6,3,1.6
					s0.2,2.4,0.3,2.5c0.1,0,0.2-0.2,0.4-0.5C725.1,373.9,725.6,374.3,725.4,375.3z"/>
				<path fill="#3C3C3B" d="M719.8,379.5c-1.2,0.6-2.3,0-2.3,0c-0.1-0.1-0.2,0-0.3,0.1c-0.1,0.1,0,0.2,0.1,0.3c0,0,0.6,0.4,1.4,0.4
					c0.4,0,0.8-0.1,1.3-0.3c0.1-0.1,0.2-0.2,0.1-0.3C720,379.5,719.9,379.5,719.8,379.5z"/>
			</g>
		</g>
		<path fill="#7897CC" d="M465.2,347l3.4,3.4c0.3,0.3,0.8,0.3,1.1,0l3.4-3.4c0.5-0.5,0.1-1.3-0.6-1.3h-1.7v-4.9
			c0-0.4-0.4-0.8-0.8-0.8h-1.7c-0.4,0-0.8,0.4-0.8,0.8v4.9h-1.7C465,345.7,464.7,346.5,465.2,347z"/>
		<path fill="#7897CC" d="M496.2,347l3.4,3.4c0.3,0.3,0.8,0.3,1.1,0l3.4-3.4c0.5-0.5,0.1-1.3-0.6-1.3h-1.7v-4.9
			c0-0.4-0.4-0.8-0.8-0.8h-1.7c-0.4,0-0.8,0.4-0.8,0.8v4.9h-1.7C496.1,345.7,495.7,346.5,496.2,347z"/>
		<path fill="#7897CC" d="M527.2,347l3.4,3.4c0.3,0.3,0.8,0.3,1.1,0l3.4-3.4c0.5-0.5,0.1-1.3-0.6-1.3h-1.7v-4.9
			c0-0.4-0.4-0.8-0.8-0.8h-1.7c-0.4,0-0.8,0.4-0.8,0.8v4.9h-1.7C527.1,345.7,526.7,346.5,527.2,347z"/>
		<path fill="#7897CC" d="M558.2,347l3.4,3.4c0.3,0.3,0.8,0.3,1.1,0l3.4-3.4c0.5-0.5,0.1-1.3-0.6-1.3h-1.7v-4.9
			c0-0.4-0.4-0.8-0.8-0.8h-1.7c-0.4,0-0.8,0.4-0.8,0.8v4.9h-1.7C558.1,345.7,557.7,346.5,558.2,347z"/>
		<path fill="#7897CC" d="M589.2,347l3.4,3.4c0.3,0.3,0.8,0.3,1.1,0l3.4-3.4c0.5-0.5,0.1-1.3-0.6-1.3h-1.7v-4.9
			c0-0.4-0.4-0.8-0.8-0.8h-1.7c-0.4,0-0.8,0.4-0.8,0.8v4.9h-1.7C589.1,345.7,588.7,346.5,589.2,347z"/>
		<path fill="#7897CC" d="M620.2,347l3.4,3.4c0.3,0.3,0.8,0.3,1.1,0l3.4-3.4c0.5-0.5,0.1-1.3-0.6-1.3h-1.7v-4.9
			c0-0.4-0.4-0.8-0.8-0.8h-1.7c-0.4,0-0.8,0.4-0.8,0.8v4.9h-1.7C620.1,345.7,619.7,346.5,620.2,347z"/>
		<path fill="#7897CC" d="M651.2,347l3.4,3.4c0.3,0.3,0.8,0.3,1.1,0l3.4-3.4c0.5-0.5,0.1-1.3-0.6-1.3h-1.7v-4.9
			c0-0.4-0.4-0.8-0.8-0.8h-1.7c-0.4,0-0.8,0.4-0.8,0.8v4.9h-1.7C651.1,345.7,650.7,346.5,651.2,347z"/>
		<path fill="#7897CC" d="M682.2,347l3.4,3.4c0.3,0.3,0.8,0.3,1.1,0l3.4-3.4c0.5-0.5,0.1-1.3-0.6-1.3h-1.7v-4.9
			c0-0.4-0.4-0.8-0.8-0.8h-1.7c-0.4,0-0.8,0.4-0.8,0.8v4.9h-1.7C682.1,345.7,681.7,346.5,682.2,347z"/>
		<path fill="#7897CC" d="M713.2,347l3.4,3.4c0.3,0.3,0.8,0.3,1.1,0l3.4-3.4c0.5-0.5,0.1-1.3-0.6-1.3h-1.7v-4.9
			c0-0.4-0.4-0.8-0.8-0.8h-1.7c-0.4,0-0.8,0.4-0.8,0.8v4.9h-1.7C713.1,345.7,712.7,346.5,713.2,347z"/>
		<path fill="#7897CC" d="M744.2,347l3.4,3.4c0.3,0.3,0.8,0.3,1.1,0l3.4-3.4c0.5-0.5,0.1-1.3-0.6-1.3h-1.7v-4.9
			c0-0.4-0.4-0.8-0.8-0.8h-1.7c-0.4,0-0.8,0.4-0.8,0.8v4.9h-1.7C744.1,345.7,743.8,346.5,744.2,347z"/>
		<path fill="#7897CC" d="M775.3,347l3.4,3.4c0.3,0.3,0.8,0.3,1.1,0l3.4-3.4c0.5-0.5,0.1-1.3-0.6-1.3h-1.7v-4.9
			c0-0.4-0.4-0.8-0.8-0.8h-1.7c-0.4,0-0.8,0.4-0.8,0.8v4.9h-1.7C775.1,345.7,774.8,346.5,775.3,347z"/>
		<path fill="#7897CC" d="M806.3,347l3.4,3.4c0.3,0.3,0.8,0.3,1.1,0l3.4-3.4c0.5-0.5,0.1-1.3-0.6-1.3h-1.7v-4.9
			c0-0.4-0.4-0.8-0.8-0.8h-1.7c-0.4,0-0.8,0.4-0.8,0.8v4.9h-1.7C806.1,345.7,805.8,346.5,806.3,347z"/>
		<g>
			<path fill="#999999" d="M184.1,354c2.6,0,4.7-1.7,5.2-3.9h-10.4C179.4,352.3,181.5,354,184.1,354z M187,351.1
				c-0.2,1.3-1.9,1.6-2.9,1.6c-1.1,0-2.6-0.2-3-1.6L187,351.1z"/>
			<rect x="175.2" y="399.7" fill="#999999" width="18.9" height="0"/>
			<path fill="#999999" d="M168.8,338.2L168.8,338.2C168.8,338.2,168.8,338.1,168.8,338.2L168.8,338.2z"/>
			<path fill="#999999" d="M223.2,385.4c-0.5-11.2-3.3-15.3-7.6-18.2c-2.2-1.5-5.9-2.5-9.7-3.3c-0.4-0.1-0.7-0.2-1.1-0.2
				c0-0.1,0.1-0.2,0.1-0.3c0.4-1.7,0.1-3.8-1.2-5.8c-1.1-1.7-4-2.9-7.4-3.8c0.8-1.5,1.4-2.8,1.7-3.5c2.3-0.4,4.1-2.8,4.9-6.4
				c0.7-3.3-0.8-5.2-2.2-6.1c0.5-4.1,0-7.6-1.6-10.4c-0.8-2.3-1.6-3.6-1.6-3.6c-0.2-1.6-2-4.6-2-4.6s-1.7-2.5-2-2.5
				c-0.6-0.1,0.1,1.4-0.2,1.2c-0.9-0.4-0.4-0.2-1.5-0.7c-0.8-0.4-3.3-1.3-3.3-1.3s-3.6-2.4-3.9-2.3c-0.4,0,0.8,1.5,0.6,1.6
				c-0.2,0.1-1.3,0-1.3,0s-3.1-1.7-3.4-1.7c-0.3,0.1,1.1,1.9,1.1,1.9l-1.6,0.6c0,0-1.3-0.5-1.7-0.5c-0.4,0.1,0.5,1.1,0.2,1.1
				c-0.3,0-2.3-0.9-2.5-0.8c-0.3,0.2,0.5,1.3,0.5,1.3s-1.9,0.7-2.7,1.3c-1.6,1.3-4.4,3.9-6,7.6c-1.5,3.5-0.9,9.5-0.5,12
				c-1.3,0.9-2.7,2.8-2,6c0.8,3.6,2.6,6,4.9,6.4c0.4,0.9,1.1,2.5,2.2,4.3c-3.3,0.7-6.1,1.6-7.4,2.9c-1.6,1.7-1.8,4.1-1.4,6.2
				c-4.1,0.8-8.3,1.8-10.7,3.5c-4.2,2.9-7.1,7-7.6,18.2c-0.3,7.5-0.2,12-0.1,14.3h0.1h77.9C223.4,397.4,223.5,392.9,223.2,385.4z
				 M169.7,335.9c0.3-0.7,0.6-5,0.8-5.8c1.1-4,5.8-4.1,7.8-4.4c2-0.3,6.9,1.6,8.2,2c1.3,0.4,7.2-1,8.6-0.8c1.4,0.3,1.4,3.8,1.6,5.1
				c0.2,1.3,1.3,3.2,1.3,3.5c0,0.2,0,0.5,0,0.9l-0.3,0c0,0-1.9-0.5-4.2-0.7c-2.3-0.2-5.7,0.2-6.6,0.4c-1,0.2-2.7,0.3-2.7,0.3
				s-1.7,0-2.7-0.3c-1-0.2-4.3-0.6-6.6-0.4c-2.3,0.2-4.2,0.7-4.2,0.7l-1,0C169.6,336.2,169.6,336,169.7,335.9z M195.7,340.5
				c-0.2,1.4-0.9,3.1-1.9,3.7c-1.1,0.6-3.6,0.7-4.9-0.1c-1.4-0.8-2.6-1.9-2.7-4.4c-0.1-2,0.9-2.5,1.9-2.9c0.7-0.2,2.8-0.4,4-0.3
				c0,0,2.2,0,3.6,0.8C196.3,337.7,195.9,339.6,195.7,340.5z M182,339.7c-0.1,2.5-1.3,3.6-2.7,4.4c-1.3,0.8-3.8,0.7-4.9,0.1
				c-1-0.5-1.7-2.3-1.9-3.7c-0.2-0.9-0.6-2.8,0.1-3.2c1.4-0.7,3.6-0.8,3.6-0.8c1.1-0.1,3.3,0,4,0.3
				C181.1,337.2,182.1,337.7,182,339.7z M175.2,397.5l0-26.9c1.1,1,2.8,2.1,5,2.7c1.2,0.3,2.6,0.5,4.2,0.6c0,0,0.1,0,0.1,0
				c4.5,0,7.6-1.8,9.5-3.5l0,0.9l0.1,26.3H175.2z M194.2,366.8c0,0-0.1,0.1-0.1,0.1c-1.1,1.5-4,4.7-9.6,4.7c0,0-0.1,0-0.1,0
				c-5,0-7.6-2.4-8.7-3.9c-0.2-0.3-0.4-0.5-0.5-0.7c-0.4-4.3-0.3-6.1-0.3-6.1c0.1-1,0.3-1.9,0.3-2.7c0.3,0.3,0.5,0.5,0.8,0.8
				c1.6,1.5,4.6,2.5,8.1,2.7l0.1,0l0.1,0c3.5-0.2,6.5-1.2,8.1-2.7c0.7-0.6,1.3-1.3,1.8-2c0.1,1.1,0.2,2.6,0.3,3.9l0,0
				C194.5,360.9,194.7,363.5,194.2,366.8z M194.1,353.3c-0.4,0.7-0.9,1.5-1.5,2.2c0,0-0.1,0.1-0.1,0.1c-1.6,0.4-3.7,1.8-4.3,2
				c-1.6,0.5-3.1-0.2-2.9-1c0.1-0.2,0.1-0.6,0.2-0.9c0.1-0.6,0.1-1.3,0-1.5c-0.3-0.4-0.9-0.3-1.2-0.4c-0.2,0-0.9-0.1-1.2,0.4
				c-0.2,0.3-0.1,1,0,1.6c0.1,0.3,0.1,0.7,0.2,0.9c0.2,0.8-1.3,1.5-2.9,1c-0.5-0.2-1.9-1.1-3.2-1.6c-0.3-0.1-0.7-0.3-1-0.4
				c-0.4-0.5-0.8-1-1.1-1.5c-1.7-2.6-2.7-5.2-2.7-5.3l-0.3-0.7h-0.8c-1.8,0-3.1-2.6-3.5-4.8c-0.5-2.5,0.8-3.5,1.3-3.8
				c0.4,0.4,0.6,0.9,0.9,0.9c0.2,0,0.1-1.1,0-2.2l1.1,0.1c0.3,0.1,0.6,0.3,0.6,0.6c0.1,0.5,0.2,3,1.4,4.7c0.7,1,1.7,1.7,4.1,1.7
				c1.8,0,3.7-0.7,4.8-2.5c1.1-1.8,1.1-3.3,1.4-3.6c0.3-0.3,0.7-0.4,0.9-0.4c0.2,0,0.6,0.1,0.9,0.4c0.3,0.3,0.4,1.8,1.4,3.6
				c1.1,1.8,2.9,2.5,4.8,2.5c2.4,0,3.4-0.7,4.1-1.7c1.2-1.7,1.3-4.2,1.4-4.7c0.1-0.3,0.4-0.5,0.6-0.5l0.5-0.1
				c-0.1,1.3-0.1,2.4,0.1,2.1c0.2-0.3,0.7-0.7,1-1.1l0.2,0.1c0.1,0,2.2,0.8,1.6,3.9c-0.5,2.2-1.7,4.8-3.5,4.8h-0.8l-0.3,0.7
				C196.2,348.9,195.5,351,194.1,353.3z"/>
			<ellipse fill="#999999" cx="177.4" cy="339.2" rx="1.5" ry="1.7"/>
			<ellipse fill="#999999" cx="190.2" cy="339.2" rx="1.5" ry="1.7"/>
		</g>
		<path fill="#7897CC" d="M817.8,406.9h5.6v-2c0-2.9,2.2-5.2,5-5.5v-5.6c-5.7,0.2-10.3,4.8-10.6,10.5h-0.1V406.9z"/>
		<path fill="#7897CC" d="M693.3,407.4h5.6v-2c0-2.9,2.2-5.2,5-5.5v-5.6c-5.7,0.2-10.3,4.8-10.6,10.5h-0.1V407.4z"/>
		<rect x="664.4" y="398.7" fill="#7897CC" width="6.1" height="5.6"/>
		<path fill="#7897CC" d="M760.7,395.6v1.8c0,2.9-2.3,5.3-5.2,5.5v5.6c5.9-0.2,10.7-5.1,10.7-11v-1.8H760.7z"/>
		<path fill="#7897CC" d="M511.6,394.7v1.8c0,2.9-2.3,5.3-5.2,5.5v5.6c5.9-0.2,10.7-5.1,10.7-11v-1.8H511.6z"/>
		<rect x="789.1" y="398.2" fill="#7897CC" width="5.8" height="5.6"/>
		<path fill="#7897CC" d="M568.7,400.2c2.9,0.2,5.2,2.6,5.2,5.5v2h5.6v-2c0-6-4.8-10.9-10.7-11V400.2z"/>
		<path fill="#7897CC" d="M641.7,402.5c-2.8-0.2-5-2.6-5-5.5v-1.8H631v2.3h0.1c0.2,5.7,4.9,10.3,10.6,10.6V402.5z"/>
		<path fill="#7897CC" d="M482.1,398.4c-1.5,0-2.8,1.3-2.8,2.8c0,1.5,1.2,2.8,2.8,2.8V398.4z"/>
		<path fill="#7897CC" d="M606.6,398.7c-1.5,0-2.8,1.3-2.8,2.8c0,1.5,1.2,2.8,2.8,2.8V398.7z"/>
		<path fill="#7897CC" d="M732.5,394.9h-5.6v9.2c0.5,0.2,0.9,0.6,0.9,1.2v1.5c0.2,1,1.2,1.8,2.3,1.8c1.3,0,2.4-1.1,2.4-2.4v-5.8h0
			V394.9z"/>
		<path fill="#7897CC" d="M545.6,394.7h-5.4v11.9c0.2,1.1,1.2,1.9,2.3,1.9c1,0,1.8-0.6,2.2-1.5v-1.9c0-0.6,0.4-1,0.9-1.2V394.7z"/>
		<path fill="#7897CC" d="M803.9,325.9h5.6v-2c0-2.9,2.2-5.2,5-5.5v-5.6c-5.7,0.2-10.3,4.8-10.6,10.5h-0.1V325.9z"/>
		<path fill="#7897CC" d="M679.4,326.4h5.6v-2c0-2.9,2.2-5.2,5-5.5v-5.6c-5.7,0.2-10.3,4.8-10.6,10.5h-0.1V326.4z"/>
		<rect x="650.5" y="317.7" fill="#7897CC" width="6.1" height="5.6"/>
		<path fill="#7897CC" d="M746.8,314.5v1.8c0,2.9-2.3,5.3-5.2,5.5v5.6c5.9-0.2,10.7-5.1,10.7-11v-1.8H746.8z"/>
		<path fill="#7897CC" d="M497.7,313.7v1.8c0,2.9-2.3,5.3-5.2,5.5v5.6c5.9-0.2,10.7-5.1,10.7-11v-1.8H497.7z"/>
		<rect x="775.2" y="317.2" fill="#7897CC" width="5.8" height="5.6"/>
		<path fill="#7897CC" d="M554.8,319.2c2.9,0.2,5.2,2.6,5.2,5.5v2h5.6v-2c0-6-4.8-10.9-10.7-11V319.2z"/>
		<path fill="#7897CC" d="M627.8,321.5c-2.8-0.2-5-2.6-5-5.5v-1.8h-5.6v2.3h0.1c0.2,5.7,4.9,10.3,10.6,10.6V321.5z"/>
		<path fill="#7897CC" d="M468.2,317.4c-1.5,0-2.8,1.3-2.8,2.8c0,1.5,1.2,2.8,2.8,2.8V317.4z"/>
		<path fill="#7897CC" d="M592.7,317.7c-1.5,0-2.8,1.3-2.8,2.8c0,1.5,1.2,2.8,2.8,2.8V317.7z"/>
		<path fill="#7897CC" d="M718.7,313.9H713v9.2c0.5,0.2,0.9,0.6,0.9,1.2v1.5c0.2,1,1.2,1.8,2.3,1.8c1.3,0,2.4-1.1,2.4-2.4v-5.8h0
			V313.9z"/>
		<path fill="#7897CC" d="M531.8,313.7h-5.4v11.9c0.2,1.1,1.2,1.9,2.3,1.9c1,0,1.8-0.6,2.2-1.5v-1.9c0-0.6,0.4-1,0.9-1.2V313.7z"/>
		<g>
			<path fill="#7897CC" d="M527.8,216.9h7.4v-2.7c0-3.8,2.9-7,6.7-7.3v-7.4c-7.6,0.3-13.7,6.4-14,14h-0.1V216.9z"/>
			<rect x="518.7" y="213.6" fill="#7897CC" width="8.1" height="7.4"/>
			<path fill="#7897CC" d="M549.9,218v2.4c0,3.9-3,7-6.8,7.3v7.4c7.9-0.2,14.2-6.7,14.2-14.7V218H549.9z"/>
			<rect x="510" y="213.6" fill="#7897CC" width="7.7" height="7.4"/>
			<path fill="#7897CC" d="M543,206.9c3.8,0.2,6.8,3.4,6.8,7.3v2.7h7.4v-2.7c0-7.9-6.4-14.4-14.2-14.7V206.9z"/>
			<path fill="#7897CC" d="M541.9,227.6c-3.7-0.3-6.7-3.4-6.7-7.3V218h-7.4v3h0.1c0.3,7.6,6.5,13.7,14,14.1V227.6z"/>
			<path fill="#7897CC" d="M492.3,213.6c-2,0-3.7,1.7-3.7,3.7c0,2,1.6,3.7,3.7,3.7V213.6z"/>
			<path fill="#7897CC" d="M509,213.6h-7.5v12.2c0.7,0.2,1.2,0.8,1.2,1.6v2c0.3,1.4,1.6,2.4,3.1,2.4c1.7,0,3.2-1.4,3.2-3.2v-7.7h0.1
				V213.6z"/>
			<path fill="#7897CC" d="M500.5,213.6h-7.1v15.8c0.3,1.4,1.6,2.5,3.1,2.5c1.3,0,2.4-0.8,2.9-1.9v-2.5c0-0.7,0.5-1.4,1.1-1.6V213.6
				z"/>
		</g>
		<path fill="#FF1900" d="M392.1,382v17.8c0,1,0.8,1.8,1.8,1.8s1.8-0.8,1.8-1.8v-0.5h3.8c0.9,0,1.6-0.7,1.6-1.6c0-0.7-0.4-1.2-1-1.5
			h-1.2c-0.5,0-0.8-0.4-0.8-0.8s0.4-0.8,0.8-0.8h1c0.7-0.2,1.2-0.8,1.2-1.5c0-0.9-0.7-1.6-1.6-1.6h-3.8V382c3.9-0.2,7-3.4,7-7.3v0
			c0-4-3.3-7.3-7.3-7.3h-3.1c-4,0-7.3,3.3-7.3,7.3v0C385.2,378.6,388.3,381.8,392.1,382z M392.5,371h3.1c2,0,3.6,1.6,3.6,3.6
			c0,2-1.6,3.6-3.6,3.6h-3.1c-2,0-3.6-1.6-3.6-3.6S390.5,371,392.5,371z"/>
		<path fill="#FF1900" d="M221.7,382v17.8c0,1,0.8,1.8,1.8,1.8c1,0,1.8-0.8,1.8-1.8v-0.5h3.8c0.9,0,1.6-0.7,1.6-1.6
			c0-0.7-0.4-1.2-1-1.5h-1.2c-0.5,0-0.8-0.4-0.8-0.8s0.4-0.8,0.8-0.8h1c0.7-0.2,1.2-0.8,1.2-1.5c0-0.9-0.7-1.6-1.6-1.6h-3.8V382
			c3.9-0.2,7-3.4,7-7.3v0c0-4-3.3-7.3-7.3-7.3h-3.1c-4,0-7.3,3.3-7.3,7.3v0C214.8,378.6,217.9,381.8,221.7,382z M222.1,371h3.1
			c2,0,3.6,1.6,3.6,3.6c0,2-1.6,3.6-3.6,3.6h-3.1c-2,0-3.6-1.6-3.6-3.6S220.1,371,222.1,371z"/>
		<g>
			<path fill="#FF1900" d="M226.2,152.1H184c-5.8,0-10.6-4.8-10.6-10.6V77.8c0-5.8,4.8-10.6,10.6-10.6h42.2
				c5.8,0,10.6,4.8,10.6,10.6v63.7C236.9,147.3,232.1,152.1,226.2,152.1z"/>
			<g>
				<g>
					<path fill="#FFFFFF" d="M173.5,132.6c-4,0-7.2-3.2-7.2-7.2v-7.9c0-4,3.2-7.2,7.2-7.2h39.7c4,0,7.2,3.2,7.2,7.2v7.9
						c0,4-3.2,7.2-7.2,7.2H173.5z"/>
					<path fill="#FF1900" d="M213.3,111.9c3,0,5.5,2.5,5.5,5.5v7.9c0,3-2.5,5.5-5.5,5.5h-39.7c-3,0-5.5-2.5-5.5-5.5v-7.9
						c0-3,2.5-5.5,5.5-5.5H213.3 M213.3,108.5h-39.7c-4.9,0-8.9,4-8.9,8.9v7.9c0,4.9,4,8.9,8.9,8.9h39.7c4.9,0,8.9-4,8.9-8.9v-7.9
						C222.2,112.5,218.2,108.5,213.3,108.5L213.3,108.5z"/>
				</g>
			</g>
			<g>
				<path fill="#FF1900" d="M175.4,123.5c0-1.5-4.3-1.3-4.3-4.2c0-1.5,1.4-2.7,3.3-2.7c1.6,0,2.5,0.7,2.8,1.1l-1.3,1.5
					c-0.2-0.3-0.8-0.9-1.7-0.9c-0.7,0-1,0.4-1,0.8c0,1.5,4.3,1.3,4.3,4.2c0,1.4-1.2,2.7-3.5,2.7c-1.8,0-2.9-0.8-3.2-1.2l1.2-1.7
					c0.4,0.4,1.2,1.1,2.3,1.1C175.1,124.4,175.4,124,175.4,123.5z"/>
				<path fill="#FF1900" d="M179.1,126v-9.3h5.5v1.7h-3.5v2.1h3v1.7h-3v2.2h3.7v1.7H179.1z"/>
				<path fill="#FF1900" d="M190.2,116.5c1.8,0,2.7,0.8,2.9,1.1l-1.3,1.5c-0.3-0.4-0.7-0.8-1.7-0.8c-1.2,0-1.9,0.9-1.9,3
					c0,1.9,0.7,3.1,2.1,3.1c0.9,0,1.4-0.5,1.7-0.8l1.1,1.4c-0.4,0.5-1.3,1.1-2.9,1.1c-2.9,0-4-1.9-4-4.7
					C186.1,118.5,187.5,116.5,190.2,116.5z"/>
				<path fill="#FF1900" d="M197.4,116.7c2.1,0,3.2,0.8,3.2,2.7c0,1.6-0.9,2.4-2,2.6v0.1c0.5,0.2,0.8,0.6,1.2,1.4l1.4,2.6h-2.4
					l-1.5-3c-0.2-0.3-0.4-0.4-0.8-0.4h-0.1v3.5h-2v-9.3H197.4z M196.4,120.9h0.8c1.1,0,1.4-0.5,1.4-1.3c0-0.8-0.5-1.2-1.4-1.2h-0.8
					V120.9z"/>
				<path fill="#FF1900" d="M202.5,126v-9.3h5.5v1.7h-3.5v2.1h3v1.7h-3v2.2h3.7v1.7H202.5z"/>
				<path fill="#FF1900" d="M211.3,118.3H209v-1.7h6.7v1.7h-2.3v7.6h-2V118.3z"/>
			</g>
		</g>
		<g>
			<path fill="#FF1900" d="M384.5,152.1h-42.2c-5.8,0-10.6-4.8-10.6-10.6V77.8c0-5.8,4.8-10.6,10.6-10.6h42.2
				c5.8,0,10.6,4.8,10.6,10.6v63.7C395.1,147.3,390.3,152.1,384.5,152.1z"/>
			<g>
				<g>
					<path fill="#FFFFFF" d="M331.8,132.6c-4,0-7.2-3.2-7.2-7.2v-7.9c0-4,3.2-7.2,7.2-7.2h39.7c4,0,7.2,3.2,7.2,7.2v7.9
						c0,4-3.2,7.2-7.2,7.2H331.8z"/>
					<path fill="#FF1900" d="M371.5,111.9c3,0,5.5,2.5,5.5,5.5v7.9c0,3-2.5,5.5-5.5,5.5h-39.7c-3,0-5.5-2.5-5.5-5.5v-7.9
						c0-3,2.5-5.5,5.5-5.5H371.5 M371.5,108.5h-39.7c-4.9,0-8.9,4-8.9,8.9v7.9c0,4.9,4,8.9,8.9,8.9h39.7c4.9,0,8.9-4,8.9-8.9v-7.9
						C380.4,112.5,376.4,108.5,371.5,108.5L371.5,108.5z"/>
				</g>
			</g>
			<g>
				<path fill="#FF1900" d="M333.7,123.5c0-1.5-4.3-1.3-4.3-4.2c0-1.5,1.4-2.7,3.3-2.7c1.6,0,2.5,0.7,2.8,1.1l-1.3,1.5
					c-0.2-0.3-0.8-0.9-1.7-0.9c-0.7,0-1,0.4-1,0.8c0,1.5,4.3,1.3,4.3,4.2c0,1.4-1.2,2.7-3.5,2.7c-1.8,0-2.9-0.8-3.2-1.2l1.2-1.7
					c0.4,0.4,1.2,1.1,2.3,1.1C333.3,124.4,333.7,124,333.7,123.5z"/>
				<path fill="#FF1900" d="M337.3,126v-9.3h5.5v1.7h-3.5v2.1h3v1.7h-3v2.2h3.7v1.7H337.3z"/>
				<path fill="#FF1900" d="M348.4,116.5c1.8,0,2.7,0.8,2.9,1.1l-1.3,1.5c-0.3-0.4-0.7-0.8-1.7-0.8c-1.2,0-1.9,0.9-1.9,3
					c0,1.9,0.7,3.1,2.1,3.1c0.9,0,1.4-0.5,1.7-0.8l1.1,1.4c-0.4,0.5-1.3,1.1-2.9,1.1c-2.9,0-4-1.9-4-4.7
					C344.3,118.5,345.7,116.5,348.4,116.5z"/>
				<path fill="#FF1900" d="M355.6,116.7c2.1,0,3.2,0.8,3.2,2.7c0,1.6-0.9,2.4-2,2.6v0.1c0.5,0.2,0.8,0.6,1.2,1.4l1.4,2.6h-2.4
					l-1.5-3c-0.2-0.3-0.4-0.4-0.8-0.4h-0.1v3.5h-2v-9.3H355.6z M354.6,120.9h0.8c1.1,0,1.4-0.5,1.4-1.3c0-0.8-0.5-1.2-1.4-1.2h-0.8
					V120.9z"/>
				<path fill="#FF1900" d="M360.8,126v-9.3h5.5v1.7h-3.5v2.1h3v1.7h-3v2.2h3.7v1.7H360.8z"/>
				<path fill="#FF1900" d="M369.5,118.3h-2.3v-1.7h6.7v1.7h-2.3v7.6h-2V118.3z"/>
			</g>
			<g>
				<path fill="#F9F0DF" d="M363.4,93.2c7.5,0,13.6-6.2,13.6-13.7L377,63c0-7.5-6.2-13.6-13.7-13.6c-7.5,0-13.6,6.2-13.6,13.7
					l0.1,16.6C349.8,87.1,355.9,93.2,363.4,93.2z"/>
				<path fill="#FF1900" d="M363.4,91.7c6.8,0,12.3-5.6,12.3-12.4l0-15c0-6.8-5.6-12.3-12.4-12.3c-6.8,0-12.3,5.6-12.3,12.4l0,15
					C351.1,86.2,356.6,91.7,363.4,91.7z M366,78.6c0,1.4-1.2,2.6-2.6,2.6c-1.4,0-2.6-1.2-2.6-2.6c0-1.4,1.2-2.6,2.6-2.6
					C364.8,76.1,366,77.2,366,78.6z M354.2,61.9c0-3.5,3.9-7.4,8.9-7.4l0.5,0c4.6,0,8.9,3.9,8.9,7.4c0,3.5-2.6,4.7-6,4.7l-5.7,0
					C357.3,66.6,354.2,65.4,354.2,61.9z M355,79.8l0-1.7c0-0.1,0-0.1,0-0.2c0.3-4.3,3.9-7.7,8.4-7.8c4.4,0,8,3.4,8.4,7.7
					c0,0.1,0,0.1,0,0.2l0,1.7c0,0.8-0.7,1.5-1.5,1.5c-0.8,0-1.5-0.7-1.5-1.5l0-1.6c-0.2-2.8-2.6-5.1-5.5-5.1c-2.9,0-5.2,2.3-5.4,5.1
					l0,1.6c0,0.8-0.7,1.5-1.5,1.5C355.6,81.3,355,80.7,355,79.8z"/>
			</g>
		</g>
		<g>
			<path fill="#FF1900" d="M542.7,152.1h-42.2c-5.8,0-10.6-4.8-10.6-10.6V77.8c0-5.8,4.8-10.6,10.6-10.6h42.2
				c5.8,0,10.6,4.8,10.6,10.6v63.7C553.3,147.3,548.5,152.1,542.7,152.1z"/>
			<g>
				<g>
					<path fill="#FFFFFF" d="M490,132.6c-4,0-7.2-3.2-7.2-7.2v-7.9c0-4,3.2-7.2,7.2-7.2h39.7c4,0,7.2,3.2,7.2,7.2v7.9
						c0,4-3.2,7.2-7.2,7.2H490z"/>
					<path fill="#FF1900" d="M529.7,111.9c3,0,5.5,2.5,5.5,5.5v7.9c0,3-2.5,5.5-5.5,5.5H490c-3,0-5.5-2.5-5.5-5.5v-7.9
						c0-3,2.5-5.5,5.5-5.5H529.7 M529.7,108.5H490c-4.9,0-8.9,4-8.9,8.9v7.9c0,4.9,4,8.9,8.9,8.9h39.7c4.9,0,8.9-4,8.9-8.9v-7.9
						C538.7,112.5,534.7,108.5,529.7,108.5L529.7,108.5z"/>
				</g>
			</g>
			<g>
				<path fill="#FF1900" d="M491.9,123.5c0-1.5-4.3-1.3-4.3-4.2c0-1.5,1.4-2.7,3.3-2.7c1.6,0,2.5,0.7,2.8,1.1l-1.3,1.5
					c-0.2-0.3-0.8-0.9-1.7-0.9c-0.7,0-1,0.4-1,0.8c0,1.5,4.3,1.3,4.3,4.2c0,1.4-1.2,2.7-3.5,2.7c-1.8,0-2.9-0.8-3.2-1.2l1.2-1.7
					c0.4,0.4,1.2,1.1,2.3,1.1C491.5,124.4,491.9,124,491.9,123.5z"/>
				<path fill="#FF1900" d="M495.5,126v-9.3h5.5v1.7h-3.5v2.1h3v1.7h-3v2.2h3.7v1.7H495.5z"/>
				<path fill="#FF1900" d="M506.7,116.5c1.8,0,2.7,0.8,2.9,1.1l-1.3,1.5c-0.3-0.4-0.7-0.8-1.7-0.8c-1.2,0-1.9,0.9-1.9,3
					c0,1.9,0.7,3.1,2.1,3.1c0.9,0,1.4-0.5,1.7-0.8l1.1,1.4c-0.4,0.5-1.3,1.1-2.9,1.1c-2.9,0-4-1.9-4-4.7
					C502.5,118.5,503.9,116.5,506.7,116.5z"/>
				<path fill="#FF1900" d="M513.9,116.7c2.1,0,3.2,0.8,3.2,2.7c0,1.6-0.9,2.4-2,2.6v0.1c0.5,0.2,0.8,0.6,1.2,1.4l1.4,2.6h-2.4
					l-1.5-3c-0.2-0.3-0.4-0.4-0.8-0.4h-0.1v3.5h-2v-9.3H513.9z M512.9,120.9h0.8c1.1,0,1.4-0.5,1.4-1.3c0-0.8-0.5-1.2-1.4-1.2h-0.8
					V120.9z"/>
				<path fill="#FF1900" d="M519,126v-9.3h5.5v1.7H521v2.1h3v1.7h-3v2.2h3.7v1.7H519z"/>
				<path fill="#FF1900" d="M527.7,118.3h-2.3v-1.7h6.7v1.7h-2.3v7.6h-2V118.3z"/>
			</g>
			<g>
				<path fill="#F9F0DF" d="M521.7,93.2c7.5,0,13.6-6.2,13.6-13.7l-0.1-15.4c0-7.5-6.2-13.6-13.7-13.6c-7.5,0-13.6,6.2-13.6,13.7
					l0.1,15.4C508,87.1,514.2,93.2,521.7,93.2z"/>
				<path fill="#FF1900" d="M521.6,91.7c6.8,0,12.3-5.6,12.3-12.4l0-15c0-6.8-5.6-12.3-12.4-12.3c-6.8,0-12.3,5.6-12.3,12.4l0,15
					C509.3,86.2,514.9,91.7,521.6,91.7z M524.2,78.6c0,1.4-1.2,2.6-2.6,2.6c-1.4,0-2.6-1.2-2.6-2.6c0-1.4,1.2-2.6,2.6-2.6
					C523,76.1,524.2,77.2,524.2,78.6z M512.4,61.9c0-3.5,3.9-7.4,8.9-7.4l0.5,0c4.6,0,8.9,3.9,8.9,7.4c0,3.5-2.6,4.7-6,4.7l-5.7,0
					C515.5,66.6,512.4,65.4,512.4,61.9z M513.2,79.8l0-1.7c0-0.1,0-0.1,0-0.2c0.3-4.3,3.9-7.7,8.4-7.8c4.4,0,8,3.4,8.4,7.7
					c0,0.1,0,0.1,0,0.2l0,1.7c0,0.8-0.7,1.5-1.5,1.5c-0.8,0-1.5-0.7-1.5-1.5l0-1.6c-0.2-2.8-2.6-5.1-5.5-5.1c-2.9,0-5.2,2.3-5.4,5.1
					l0,1.6c0,0.8-0.7,1.5-1.5,1.5C513.9,81.3,513.2,80.7,513.2,79.8z"/>
			</g>
			<g>
				<path fill="#F9F0DF" d="M547.8,93.2c7.5,0,13.6-6.2,13.6-13.7l-0.1-15.4c0-7.5-6.2-13.6-13.7-13.6c-7.5,0-13.6,6.2-13.6,13.7
					l0.1,15.4C534.1,87.1,540.3,93.2,547.8,93.2z"/>
				<path fill="#7897CC" d="M547.8,91.7c6.8,0,12.3-5.6,12.3-12.4l0-15c0-6.8-5.6-12.3-12.4-12.3c-6.8,0-12.3,5.6-12.3,12.4l0,15
					C535.4,86.2,541,91.7,547.8,91.7z M550.3,78.6c0,1.4-1.2,2.6-2.6,2.6s-2.6-1.2-2.6-2.6c0-1.4,1.2-2.6,2.6-2.6
					C549.2,76.1,550.3,77.2,550.3,78.6z M538.5,61.9c0-3.5,3.9-7.4,8.9-7.4l0.5,0c4.6,0,8.9,3.9,8.9,7.4c0,3.5-2.6,4.7-6,4.7l-5.7,0
					C541.7,66.6,538.5,65.4,538.5,61.9z M539.3,79.8l0-1.7c0-0.1,0-0.1,0-0.2c0.3-4.3,3.9-7.7,8.4-7.8c4.4,0,8,3.4,8.4,7.7
					c0,0.1,0,0.1,0,0.2l0,1.7c0,0.8-0.7,1.5-1.5,1.5c-0.8,0-1.5-0.7-1.5-1.5l0-1.6c-0.2-2.8-2.6-5.1-5.5-5.1c-2.9,0-5.2,2.3-5.4,5.1
					l0,1.6c0,0.8-0.7,1.5-1.5,1.5C540,81.3,539.3,80.7,539.3,79.8z"/>
			</g>
		</g>
		<g>
			<circle fill="#304D7F" cx="739.9" cy="107.3" r="78.8"/>
			<path fill="#FF1900" stroke="#F9F0DF" stroke-width="1.1369" stroke-miterlimit="10" d="M762.1,67.1h-42.2
				c-5.8,0-10.6,4.8-10.6,10.6v30.7c-4.9,0.1-8.8,4-8.8,8.9v7.9c0,4.9,3.9,8.9,8.8,8.9v7.1c0,5.8,4.8,10.6,10.6,10.6h42.2
				c5.8,0,10.6-4.8,10.6-10.6V77.8C772.7,71.9,767.9,67.1,762.1,67.1z"/>
			<g>
				<circle fill="none" stroke="#304D7F" stroke-width="2.7868" stroke-miterlimit="10" cx="739.9" cy="107.3" r="82.4"/>
				<g>
					<g>
						<polygon fill="#FFFFFF" stroke="#304D7F" stroke-width="2.7171" stroke-miterlimit="10" points="747.6,29.1 739.9,33.9 
							732.2,29.1 732.2,20.1 739.9,15.3 747.6,20.1 						"/>
						
							<line fill="none" stroke="#304D7F" stroke-width="1.3585" stroke-miterlimit="10" x1="739.9" y1="24.9" x2="739.9" y2="33.9"/>
						<polyline fill="none" stroke="#304D7F" stroke-width="1.3585" stroke-miterlimit="10" points="747.6,20.1 739.9,24.9 
							732.2,20.1 						"/>
					</g>
					<g>
						<polygon fill="#FFFFFF" stroke="#304D7F" stroke-width="2.7171" stroke-miterlimit="10" points="747.6,194.5 739.9,199.3 
							732.2,194.5 732.2,185.5 739.9,180.7 747.6,185.5 						"/>
						
							<line fill="none" stroke="#304D7F" stroke-width="1.3585" stroke-miterlimit="10" x1="739.9" y1="190.3" x2="739.9" y2="199.3"/>
						<polyline fill="none" stroke="#304D7F" stroke-width="1.3585" stroke-miterlimit="10" points="747.6,185.5 739.9,190.3 
							732.2,185.5 						"/>
					</g>
					<g>
						<polygon fill="#FFFFFF" stroke="#304D7F" stroke-width="2.7171" stroke-miterlimit="10" points="719.3,34.1 711.6,38.9 
							703.9,34.1 703.9,25.1 711.6,20.3 719.3,25.1 						"/>
						
							<line fill="none" stroke="#304D7F" stroke-width="1.3585" stroke-miterlimit="10" x1="711.6" y1="29.9" x2="711.6" y2="38.9"/>
						<polyline fill="none" stroke="#304D7F" stroke-width="1.3585" stroke-miterlimit="10" points="719.3,25.1 711.6,29.9 
							703.9,25.1 						"/>
					</g>
					<g>
						<polygon fill="#FFFFFF" stroke="#304D7F" stroke-width="2.7171" stroke-miterlimit="10" points="775.9,189.5 768.2,194.3 
							760.5,189.5 760.5,180.5 768.2,175.7 775.9,180.5 						"/>
						
							<line fill="none" stroke="#304D7F" stroke-width="1.3585" stroke-miterlimit="10" x1="768.2" y1="185.3" x2="768.2" y2="194.3"/>
						<polyline fill="none" stroke="#304D7F" stroke-width="1.3585" stroke-miterlimit="10" points="775.9,180.5 768.2,185.3 
							760.5,180.5 						"/>
					</g>
					<g>
						<polygon fill="#FFFFFF" stroke="#304D7F" stroke-width="2.7171" stroke-miterlimit="10" points="694.5,48.4 686.8,53.3 
							679.1,48.4 679.1,39.5 686.8,34.6 694.5,39.5 						"/>
						
							<line fill="none" stroke="#304D7F" stroke-width="1.3585" stroke-miterlimit="10" x1="686.7" y1="44.2" x2="686.7" y2="53.3"/>
						<polyline fill="none" stroke="#304D7F" stroke-width="1.3585" stroke-miterlimit="10" points="694.5,39.5 686.8,44.3 
							679.1,39.5 						"/>
					</g>
					<g>
						<polygon fill="#FFFFFF" stroke="#304D7F" stroke-width="2.7171" stroke-miterlimit="10" points="800.8,175.1 793.1,180 
							785.4,175.1 785.4,166.2 793.1,161.4 800.8,166.2 						"/>
						
							<line fill="none" stroke="#304D7F" stroke-width="1.3585" stroke-miterlimit="10" x1="793.1" y1="170.9" x2="793.1" y2="180"/>
						<polyline fill="none" stroke="#304D7F" stroke-width="1.3585" stroke-miterlimit="10" points="800.8,166.2 793.1,171 
							785.4,166.2 						"/>
					</g>
					<g>
						<polygon fill="#FFFFFF" stroke="#304D7F" stroke-width="2.7171" stroke-miterlimit="10" points="676,70.4 668.3,75.3 
							660.6,70.4 660.6,61.5 668.3,56.7 676,61.5 						"/>
						
							<line fill="none" stroke="#304D7F" stroke-width="1.3585" stroke-miterlimit="10" x1="668.3" y1="66.2" x2="668.3" y2="75.3"/>
						<polyline fill="none" stroke="#304D7F" stroke-width="1.3585" stroke-miterlimit="10" points="676,61.5 668.3,66.3 
							660.6,61.5 						"/>
					</g>
					<g>
						<polygon fill="#FFFFFF" stroke="#304D7F" stroke-width="2.7171" stroke-miterlimit="10" points="819.2,153.1 811.5,158 
							803.8,153.1 803.8,144.2 811.5,139.4 819.2,144.2 						"/>
						
							<line fill="none" stroke="#304D7F" stroke-width="1.3585" stroke-miterlimit="10" x1="811.5" y1="148.9" x2="811.5" y2="158"/>
						<polyline fill="none" stroke="#304D7F" stroke-width="1.3585" stroke-miterlimit="10" points="819.2,144.2 811.5,149 
							803.8,144.2 						"/>
					</g>
					<g>
						<polygon fill="#FFFFFF" stroke="#304D7F" stroke-width="2.7171" stroke-miterlimit="10" points="666.2,97.4 658.5,102.2 
							650.8,97.4 650.8,88.5 658.5,83.6 666.2,88.5 						"/>
						
							<line fill="none" stroke="#304D7F" stroke-width="1.3585" stroke-miterlimit="10" x1="658.5" y1="93.2" x2="658.5" y2="102.3"/>
						<polyline fill="none" stroke="#304D7F" stroke-width="1.3585" stroke-miterlimit="10" points="666.2,88.5 658.5,93.3 
							650.8,88.5 						"/>
					</g>
					<g>
						<polygon fill="#FFFFFF" stroke="#304D7F" stroke-width="2.7171" stroke-miterlimit="10" points="829.1,126.2 821.4,131 
							813.7,126.2 813.7,117.2 821.4,112.4 829.1,117.2 						"/>
						
							<line fill="none" stroke="#304D7F" stroke-width="1.3585" stroke-miterlimit="10" x1="821.3" y1="121.9" x2="821.3" y2="131"/>
						<polyline fill="none" stroke="#304D7F" stroke-width="1.3585" stroke-miterlimit="10" points="829.1,117.2 821.4,122 
							813.7,117.2 						"/>
					</g>
					<g>
						<polygon fill="#FFFFFF" stroke="#304D7F" stroke-width="2.7171" stroke-miterlimit="10" points="666.2,126.2 658.5,131 
							650.8,126.2 650.8,117.2 658.5,112.4 666.2,117.2 						"/>
						
							<line fill="none" stroke="#304D7F" stroke-width="1.3585" stroke-miterlimit="10" x1="658.5" y1="121.9" x2="658.5" y2="131"/>
						<polyline fill="none" stroke="#304D7F" stroke-width="1.3585" stroke-miterlimit="10" points="666.2,117.2 658.5,122 
							650.8,117.2 						"/>
					</g>
					<g>
						<polygon fill="#FFFFFF" stroke="#304D7F" stroke-width="2.7171" stroke-miterlimit="10" points="829.1,97.4 821.4,102.2 
							813.7,97.4 813.7,88.5 821.4,83.6 829.1,88.5 						"/>
						
							<line fill="none" stroke="#304D7F" stroke-width="1.3585" stroke-miterlimit="10" x1="821.4" y1="93.2" x2="821.4" y2="102.3"/>
						<polyline fill="none" stroke="#304D7F" stroke-width="1.3585" stroke-miterlimit="10" points="829.1,88.5 821.4,93.3 
							813.7,88.5 						"/>
					</g>
					<g>
						<polygon fill="#FFFFFF" stroke="#304D7F" stroke-width="2.7171" stroke-miterlimit="10" points="676,153.1 668.3,158 
							660.6,153.1 660.6,144.2 668.3,139.4 676,144.2 						"/>
						
							<line fill="none" stroke="#304D7F" stroke-width="1.3585" stroke-miterlimit="10" x1="668.3" y1="148.9" x2="668.3" y2="158"/>
						<polyline fill="none" stroke="#304D7F" stroke-width="1.3585" stroke-miterlimit="10" points="676,144.2 668.3,149 
							660.6,144.2 						"/>
					</g>
					<g>
						<polygon fill="#FFFFFF" stroke="#304D7F" stroke-width="2.7171" stroke-miterlimit="10" points="819.3,70.4 811.6,75.3 
							803.9,70.4 803.9,61.5 811.6,56.7 819.3,61.5 						"/>
						
							<line fill="none" stroke="#304D7F" stroke-width="1.3585" stroke-miterlimit="10" x1="811.5" y1="66.2" x2="811.5" y2="75.3"/>
						<polyline fill="none" stroke="#304D7F" stroke-width="1.3585" stroke-miterlimit="10" points="819.3,61.5 811.6,66.3 
							803.9,61.5 						"/>
					</g>
					<g>
						<polygon fill="#FFFFFF" stroke="#304D7F" stroke-width="2.7171" stroke-miterlimit="10" points="694.5,175.2 686.8,180 
							679.1,175.2 679.1,166.2 686.8,161.4 694.5,166.2 						"/>
						
							<line fill="none" stroke="#304D7F" stroke-width="1.3585" stroke-miterlimit="10" x1="686.7" y1="170.9" x2="686.7" y2="180"/>
						<polyline fill="none" stroke="#304D7F" stroke-width="1.3585" stroke-miterlimit="10" points="694.5,166.2 686.8,171 
							679.1,166.2 						"/>
					</g>
					<g>
						<polygon fill="#FFFFFF" stroke="#304D7F" stroke-width="2.7171" stroke-miterlimit="10" points="800.8,48.5 793.1,53.3 
							785.4,48.5 785.4,39.5 793.1,34.7 800.8,39.5 						"/>
						
							<line fill="none" stroke="#304D7F" stroke-width="1.3585" stroke-miterlimit="10" x1="793.1" y1="44.2" x2="793.1" y2="53.3"/>
						<polyline fill="none" stroke="#304D7F" stroke-width="1.3585" stroke-miterlimit="10" points="800.8,39.5 793.1,44.3 
							785.4,39.5 						"/>
					</g>
					<g>
						<polygon fill="#FFFFFF" stroke="#304D7F" stroke-width="2.7171" stroke-miterlimit="10" points="719.3,189.5 711.6,194.3 
							703.9,189.5 703.9,180.5 711.6,175.7 719.3,180.5 						"/>
						
							<line fill="none" stroke="#304D7F" stroke-width="1.3585" stroke-miterlimit="10" x1="711.6" y1="185.3" x2="711.6" y2="194.3"/>
						<polyline fill="none" stroke="#304D7F" stroke-width="1.3585" stroke-miterlimit="10" points="719.3,180.5 711.6,185.3 
							703.9,180.5 						"/>
					</g>
					<g>
						<polygon fill="#FFFFFF" stroke="#304D7F" stroke-width="2.7171" stroke-miterlimit="10" points="775.9,34.1 768.2,38.9 
							760.5,34.1 760.5,25.1 768.2,20.3 775.9,25.1 						"/>
						
							<line fill="none" stroke="#304D7F" stroke-width="1.3585" stroke-miterlimit="10" x1="768.2" y1="29.9" x2="768.2" y2="38.9"/>
						<polyline fill="none" stroke="#304D7F" stroke-width="1.3585" stroke-miterlimit="10" points="775.9,25.1 768.2,29.9 
							760.5,25.1 						"/>
					</g>
				</g>
			</g>
			<path d="M723.5,80.8"/>
			<path fill="none" stroke="#DA3A36" stroke-width="0.1697" stroke-miterlimit="10" d="M790,134.5"/>
			<path fill="none" stroke="#DA3A36" stroke-width="0.1697" stroke-miterlimit="10" d="M790,95.5"/>
			<path fill="none" stroke="#DA3A36" stroke-width="0.1697" stroke-miterlimit="10" d="M791.1,132.1"/>
			<path fill="none" stroke="#DA3A36" stroke-width="0.1697" stroke-miterlimit="10" d="M791.1,101.1"/>
			<path fill="#FFFFFF" d="M709.4,111.9c-3,0-5.5,2.5-5.5,5.5v7.9c0,3,2.5,5.5,5.5,5.5h39.7c3,0,5.5-2.5,5.5-5.5v-7.9
				c0-3-2.5-5.5-5.5-5.5H709.4z"/>
			<g>
				<path fill="#FF1900" d="M711.3,123.5c0-1.5-4.3-1.3-4.3-4.2c0-1.5,1.4-2.7,3.3-2.7c1.6,0,2.5,0.7,2.8,1.1l-1.3,1.5
					c-0.2-0.3-0.8-0.9-1.7-0.9c-0.7,0-1,0.4-1,0.8c0,1.5,4.3,1.3,4.3,4.2c0,1.4-1.2,2.7-3.5,2.7c-1.8,0-2.9-0.8-3.2-1.2l1.2-1.7
					c0.4,0.4,1.2,1.1,2.3,1.1C710.9,124.4,711.3,124,711.3,123.5z"/>
				<path fill="#FF1900" d="M714.9,126v-9.3h5.5v1.7h-3.5v2.1h3v1.7h-3v2.2h3.7v1.7H714.9z"/>
				<path fill="#FF1900" d="M726,116.5c1.8,0,2.7,0.8,2.9,1.1l-1.3,1.5c-0.3-0.4-0.7-0.8-1.7-0.8c-1.2,0-1.9,0.9-1.9,3
					c0,1.9,0.7,3.1,2.1,3.1c0.9,0,1.4-0.5,1.7-0.8l1.1,1.4c-0.4,0.5-1.3,1.1-2.9,1.1c-2.9,0-4-1.9-4-4.7
					C721.9,118.5,723.3,116.5,726,116.5z"/>
				<path fill="#FF1900" d="M733.3,116.7c2.1,0,3.2,0.8,3.2,2.7c0,1.6-0.9,2.4-2,2.6v0.1c0.5,0.2,0.8,0.6,1.2,1.4l1.4,2.6h-2.4
					l-1.5-3c-0.2-0.3-0.4-0.4-0.8-0.4h-0.1v3.5h-2v-9.3H733.3z M732.2,120.9h0.8c1.1,0,1.4-0.5,1.4-1.3c0-0.8-0.5-1.2-1.4-1.2h-0.8
					V120.9z"/>
				<path fill="#FF1900" d="M738.4,126v-9.3h5.5v1.7h-3.5v2.1h3v1.7h-3v2.2h3.7v1.7H738.4z"/>
				<path fill="#FF1900" d="M747.1,118.3h-2.3v-1.7h6.7v1.7h-2.3v7.6h-2V118.3z"/>
			</g>
			<g>
				<path fill="#F9F0DF" d="M741.1,93.2c7.5,0,13.6-6.2,13.6-13.7l-0.1-15.4c0-7.5-6.2-13.6-13.7-13.6s-13.6,6.2-13.6,13.7l0.1,15.4
					C727.4,87.1,733.5,93.2,741.1,93.2z"/>
				<path fill="#FF1900" d="M741,91.7c6.8,0,12.3-5.6,12.3-12.4l0-15c0-6.8-5.6-12.3-12.4-12.3c-6.8,0-12.3,5.6-12.3,12.4l0,15
					C728.7,86.2,734.2,91.7,741,91.7z M743.6,78.6c0,1.4-1.2,2.6-2.6,2.6s-2.6-1.2-2.6-2.6c0-1.4,1.2-2.6,2.6-2.6
					C742.4,76.1,743.6,77.2,743.6,78.6z M731.8,61.9c0-3.5,3.9-7.4,8.9-7.4l0.5,0c4.6,0,8.9,3.9,8.9,7.4c0,3.5-2.6,4.7-6,4.7l-5.7,0
					C734.9,66.6,731.8,65.4,731.8,61.9z M732.6,79.8l0-1.7c0-0.1,0-0.1,0-0.2c0.3-4.3,3.9-7.7,8.4-7.8c4.4,0,8,3.4,8.4,7.7
					c0,0.1,0,0.1,0,0.2l0,1.7c0,0.8-0.7,1.5-1.5,1.5c-0.8,0-1.5-0.7-1.5-1.5l0-1.6c-0.2-2.8-2.6-5.1-5.5-5.1c-2.9,0-5.2,2.3-5.4,5.1
					l0,1.6c0,0.8-0.7,1.5-1.5,1.5C733.3,81.3,732.6,80.7,732.6,79.8z"/>
			</g>
			<g>
				<path fill="#F9F0DF" d="M767.2,93.2c7.5,0,13.6-6.2,13.6-13.7l-0.1-15.4c0-7.5-6.2-13.6-13.7-13.6s-13.6,6.2-13.6,13.7l0.1,15.4
					C753.5,87.1,759.7,93.2,767.2,93.2z"/>
				<path fill="#7897CC" d="M767.2,91.7c6.8,0,12.3-5.6,12.3-12.4l0-15c0-6.8-5.6-12.3-12.4-12.3c-6.8,0-12.3,5.6-12.3,12.4l0,15
					C754.8,86.2,760.4,91.7,767.2,91.7z M769.7,78.6c0,1.4-1.2,2.6-2.6,2.6s-2.6-1.2-2.6-2.6c0-1.4,1.2-2.6,2.6-2.6
					C768.6,76.1,769.7,77.2,769.7,78.6z M757.9,61.9c0-3.5,3.9-7.4,8.9-7.4l0.5,0c4.6,0,8.9,3.9,8.9,7.4c0,3.5-2.6,4.7-6,4.7l-5.7,0
					C761.1,66.6,757.9,65.4,757.9,61.9z M758.7,79.8l0-1.7c0-0.1,0-0.1,0-0.2c0.3-4.3,3.9-7.7,8.4-7.8c4.4,0,8,3.4,8.4,7.7
					c0,0.1,0,0.1,0,0.2l0,1.7c0,0.8-0.7,1.5-1.5,1.5c-0.8,0-1.5-0.7-1.5-1.5l0-1.6c-0.2-2.8-2.6-5.1-5.5-5.1c-2.9,0-5.2,2.3-5.4,5.1
					l0,1.6c0,0.8-0.7,1.5-1.5,1.5C759.4,81.3,758.7,80.7,758.7,79.8z"/>
			</g>
		</g>
	</g>
</g>
</svg>
